<svg width="115" height="56" fill="none" xmlns="http://www.w3.org/2000/svg"><path d="M53.934 41.622l2.377 6.752 2.424-6.752h2.89l-4.288 11.622C56.73 54.852 56.59 56 54.68 56h-2.051v-2.435h1.165c.513 0 .653-.23.746-.46l.326-.872-3.822-10.611h2.89zm-8.53-4.089c2.936 0 4.754 1.7 5.034 4.135h-2.89c-.233-.965-1.259-1.378-2.191-1.378-1.166 0-2.005.459-2.005 1.47 0 .827.653 1.194 1.445 1.424l2.378.643c2.237.597 3.45 1.975 3.45 4.364 0 2.572-1.725 4.18-4.895 4.18-3.124-.092-5.221-1.975-5.361-4.823h2.89c.187 1.194 1.119 2.02 2.517 2.02 1.212 0 2.098-.459 2.098-1.423 0-.781-.466-1.24-1.492-1.516l-2.47-.643c-2.238-.597-3.357-2.16-3.357-4.272 0-2.894 2.285-4.18 4.848-4.18zm-35.801 3.86c2.19 0 4.335 1.47 4.335 4.593v6.293h-2.75v-6.155c0-1.424-.98-2.068-2.051-2.068-1.026 0-2.051.598-2.051 2.068v6.201h-2.75V41.668h2.75v.919c.466-.736 1.584-1.195 2.517-1.195zm90.667-.047c2.75 0 4.754 1.516 4.754 4.594v6.293h-2.75v-6.11c0-1.423-.979-2.066-2.004-2.066-.98 0-2.005.643-2.005 2.067v6.155h-2.657v-6.155c0-1.424-.979-2.068-2.004-2.068-.98 0-2.005.644-2.005 2.068v6.201h-2.75V41.668h2.75v.873c.513-.735 1.492-1.195 2.424-1.195 1.119 0 2.144.414 2.89 1.378.793-.918 1.865-1.378 3.357-1.378zm-26.431-2.021v2.389h2.657v2.434h-2.657v4.87c0 .505.14.826.792.826h1.865v2.435h-2.657c-1.912 0-2.75-1.01-2.75-2.71V39.325h2.75zM2.797 37.487V52.28H0V37.487h2.797zm15.43 1.838v2.389h2.657v2.434h-2.657v4.87c0 .505.14.826.792.826h1.865v2.435h-2.657c-1.912 0-2.75-1.01-2.75-2.71V39.325h2.75zm8.344 1.837c3.076 0 4.801 1.93 4.801 4.87v1.653H24.52v.092c0 1.24.745 2.067 2.05 2.067.98 0 1.632-.459 1.912-1.194h2.797c-.42 2.205-2.051 3.63-4.708 3.63-3.077 0-4.802-1.93-4.802-4.87v-1.378c0-2.94 1.725-4.87 4.802-4.87zm12.493.322v2.664h-1.306c-1.025 0-2.05.597-2.05 2.067v6.064h-2.751V41.668h2.75v1.148c.327-.689 1.212-1.332 2.518-1.332h.839zm26.617-.322c2.19 0 4.009 1.011 4.195 3.446H67.08c-.14-.69-.745-.965-1.445-.965-.792 0-1.258.322-1.258.781 0 .46.373.689.839.78l2.424.552c1.165.276 2.61 1.057 2.61 3.262 0 2.342-1.957 3.261-4.195 3.261-2.284 0-4.615-1.102-4.708-3.629h2.75c.14.827 1.119 1.194 2.004 1.194.56 0 1.352-.137 1.352-.826 0-.414-.326-.69-.979-.827l-2.237-.506c-1.166-.275-2.657-1.194-2.657-3.261s1.911-3.261 4.102-3.261zm16.828 0c3.077 0 4.802 1.93 4.802 4.87v1.653h-6.853v.092c0 1.24.746 2.067 2.051 2.067.979 0 1.632-.459 1.911-1.194h2.797c-.42 2.205-2.05 3.63-4.708 3.63-3.076 0-4.801-1.93-4.801-4.87v-1.378c0-2.94 1.725-4.87 4.801-4.87zm27.923 0c2.191 0 4.009 1.011 4.195 3.446h-2.797c-.14-.69-.746-.965-1.445-.965-.792 0-1.259.322-1.259.781 0 .46.373.689.84.78l2.424.552c1.165.276 2.61 1.057 2.61 3.262 0 2.342-1.958 3.261-4.195 3.261-2.238 0-4.569-1.102-4.709-3.629h2.751c.14.827 1.119 1.194 2.004 1.194.56 0 1.352-.137 1.352-.826 0-.414-.326-.69-.979-.827l-2.237-.506c-1.166-.275-2.657-1.194-2.657-3.261s1.911-3.261 4.102-3.261zm-83.861 2.481c-1.174 0-1.911.69-2.04 1.694l-.011.098h4.055c-.093-1.103-.792-1.792-2.004-1.792zm55.938 0c-1.22 0-1.913.69-2.04 1.694l-.011.098h4.056c-.094-1.103-.793-1.792-2.005-1.792zM55.684 4.397L51.68 2.453V27.49l8.008 3.98v-4.443l-4.004-1.99V4.397z" fill="#B0AFBE"/><path d="M59.688 27.028l3.958 1.99V3.98L55.684 0v4.397l4.004 2.036v20.595z" fill="#B0AFBE"/></svg>