<svg width="93" height="35" fill="none" xmlns="http://www.w3.org/2000/svg"><path d="M36.95.659c.123.018.247.071.353.071 1.31-.017 2.55.34 3.736.842 1.328.555 2.478 1.343 3.523 2.345a13.033 13.033 0 012.833 4.028c.478 1.056.778 2.166 1.009 3.312.035.215.035.43.088.627.071.304.23.43.531.447a6.324 6.324 0 012.727.788 8.68 8.68 0 012.443 1.987c1.168 1.379 1.806 2.972 2.195 4.708.07.323.07.68.106 1.021.018.25.089.501.071.752-.018 1.056-.142 2.095-.442 3.097-.372 1.271-.939 2.453-1.789 3.473-.779.949-1.664 1.737-2.761 2.256-.726.358-1.505.573-2.32.698-1.009.143-1.965.018-2.92-.215-.479-.107-.939-.376-1.4-.59-.46-.216-.548-.216-.814.214a9.15 9.15 0 01-1.575 1.934 9.16 9.16 0 01-2.78 1.79 7.945 7.945 0 01-2.726.609c-.053 0-.106.035-.142.053H35.87c-.054-.018-.107-.053-.142-.053-.655.017-1.275-.144-1.895-.323-1.451-.43-2.708-1.2-3.788-2.273-.319-.322-.496-.305-.885-.09-.78.43-1.54.877-2.355 1.2-1.487.59-3.063.787-4.638.877-.425.018-.85-.036-1.257-.072-.567-.053-1.15-.09-1.717-.179a12.141 12.141 0 01-3.417-1.11c-.885-.447-1.753-.966-2.443-1.7-.266-.287-.585-.358-.956-.144-.903.484-1.895.716-2.886.824a7.084 7.084 0 01-3.346-.448c-1.328-.5-2.496-1.27-3.4-2.416-.725-.931-1.274-1.934-1.522-3.08-.088-.43-.159-.86-.23-1.27v-1.04c.071-.447.142-.876.248-1.324.336-1.396 1.027-2.596 2.018-3.616.496-.502 1.045-.895 1.647-1.253 1.097-.663 2.283-.967 3.54-1.057.744-.053 1.488.054 2.231.18.478.071.567 0 .673-.484.212-.913.495-1.808.956-2.614.655-1.181 1.487-2.238 2.567-3.061.743-.573 1.54-1.092 2.408-1.432a10.66 10.66 0 012.673-.663 9.615 9.615 0 013.505.197c.549.126 1.098.34 1.647.52.407.125.53.053.708-.34.3-.681.584-1.397.956-2.024.832-1.378 1.84-2.596 3.151-3.58 1.169-.86 2.408-1.558 3.806-1.934.797-.214 1.594-.43 2.443-.394.089 0 .177-.035.284-.053.159-.018.336-.018.495-.018zm15.915 20.033c-.035 0-.07 0-.089.018-.23-.502-.548-.931-.99-1.254-1.577-1.199-4.78-1.092-5.967 1.683-.62 1.433-.655 2.918-.283 4.404.478 1.844 1.628 2.9 3.47 3.151 1.31.18 3.045-.447 3.77-1.808.036-.054.071-.09.177-.197v1.772h.956v-13.05h-1.062c.018 1.772.018 3.526.018 5.28zm-18.73 2.954c-.018-.233-.054-.537-.089-.86a4.957 4.957 0 00-.088-.5c-.408-1.952-1.753-3.241-3.683-3.51-2.071-.304-3.877.824-4.603 2.703a6.14 6.14 0 00-.336 3.24c.3 2.06 1.593 3.76 3.86 3.993 1.805.197 3.504-.59 4.354-2.327.408-.824.55-1.719.585-2.74zm9.33 4.815V19.01h-1.063v.483c0 1.415.018 2.829 0 4.261a7.45 7.45 0 01-.16 1.54c-.282 1.396-1.203 2.703-3.097 2.542-1.222-.09-1.93-.716-2.09-1.862a6.6 6.6 0 01-.07-1.02v-5.927h-1.098v5.891c0 .43.036.859.089 1.289.177 1.307.938 2.166 2.177 2.434.177.036.354.072.55.09 1.486.107 2.743-.34 3.557-1.683.054-.072.107-.143.178-.215.035 0 .053.018.088.018v1.611h.938zM20.626 21.91c-.107-.949-.443-1.754-1.187-2.345-.584-.483-1.274-.698-2.018-.806-1.859-.232-3.576.627-4.39 2.328-.638 1.324-.744 2.72-.425 4.135.62 2.703 2.868 3.903 5.222 3.401 1.434-.304 2.284-1.288 2.71-2.667.088-.268.123-.537.176-.823h-1.08c-.035.16-.07.304-.088.447-.319 1.432-1.576 2.381-2.992 2.256-1.116-.108-1.948-.698-2.443-1.7-.815-1.576-.797-3.188 0-4.78a3.291 3.291 0 011.239-1.326c1.61-.966 3.505-.25 4.09 1.522.035.125.07.233.123.358h1.063zm1.752-6.516V28.48h.655c.124 0 .248-.018.39-.018V15.393h-1.045zM84.98 31.738v-1.02c.195.017.355.017.514.053.726.09 1.257-.161 1.576-.824.247-.5.442-1.02.62-1.54.052-.142 0-.34-.054-.483-.814-2.094-1.646-4.17-2.478-6.248-.32-.823-.656-1.647-.974-2.47-.053-.125-.089-.269-.16-.448.425-.09.832-.053 1.257-.018.514 1.325 1.01 2.65 1.523 3.975.513 1.325 1.009 2.631 1.558 4.064.53-1.397.991-2.74 1.47-4.046.477-1.325.955-2.65 1.433-3.993h1.169c-.053.162-.089.305-.142.43-1.292 3.473-2.602 6.946-3.895 10.42-.16.429-.39.859-.62 1.27-.265.484-.672.77-1.203.86-.514.107-1.045.09-1.594.018zm-11.33-6.911h1.15c-.035.233-.052.448-.105.645-.355 1.378-1.08 2.434-2.479 2.864-2.142.645-4.514-.215-5.4-2.614-.602-1.665-.584-3.33.213-4.905.761-1.54 2.036-2.327 3.753-2.363.726-.018 1.399.09 2.054.412 1.062.5 1.628 1.378 1.859 2.506.017.09 0 .197 0 .34h-1.116a4.935 4.935 0 00-.141-.358c-.585-1.772-2.461-2.453-4.055-1.486-.867.537-1.345 1.325-1.575 2.292-.301 1.181-.23 2.363.283 3.473.478 1.02 1.222 1.683 2.372 1.862 1.381.214 2.55-.645 2.957-1.79.088-.287.141-.573.23-.878zm-11.808 2.489v1.02c-.709.018-1.4.108-2.072-.125-.566-.197-.814-.627-.903-1.182a6.6 6.6 0 01-.07-1.02v-6.284h-1.594v-.985h1.576c.07-.948 0-1.88.035-2.828h1.169v2.792h1.859v1.003h-1.806c-.018.161-.036.287-.036.412v5.961c0 .269.036.537.089.806.053.25.195.412.46.448.266.017.531.035.797.035.16-.035.319-.053.496-.053zm21.581 0v1.02c-.709.018-1.399.108-2.072-.125-.566-.197-.814-.627-.903-1.182a6.6 6.6 0 01-.07-1.02v-6.284h-1.594v-.985h1.576v-2.828h1.204v2.792h1.859v1.003h-1.806c-.018.161-.036.287-.036.412v5.961c0 .251.036.52.089.77.053.287.212.466.513.483.248.018.514.036.762.036.159-.035.3-.053.478-.053zM64.71 28.318h-1.151v-9.506h1.15v9.506zm11.684-9.524h1.15v9.524h-1.15v-9.524zm-12.853-3.688h1.169v1.862h-1.17v-1.862zm14.021 1.88h-1.168v-1.88h1.168c.018.645.035 1.253 0 1.88z" fill="#B0AFBE"/><path d="M52.9 23.735c-.017.698-.123 1.379-.371 2.023-.637 1.683-2.213 2.381-3.806 1.97-.762-.198-1.31-.717-1.7-1.397-.496-.877-.655-1.862-.584-2.864.035-.591.16-1.2.354-1.755.46-1.343 1.487-2.059 2.78-2.059 1.38 0 2.478.77 2.974 2.077.106.269.177.537.23.824.053.376.07.77.124 1.181zm-23.191 4.1c-1.045 0-1.895-.43-2.497-1.29-.672-.948-.902-2.022-.832-3.168a4.717 4.717 0 01.55-2.005c.601-1.092 1.504-1.736 2.779-1.736 1.274 0 2.195.626 2.762 1.736.796 1.558.779 3.169-.018 4.726-.567 1.128-1.576 1.719-2.744 1.737z" fill="#B0AFBE"/></svg>