<svg width="122" height="24" fill="none" xmlns="http://www.w3.org/2000/svg"><path d="M.451 5.555l2.722 5.22h7.055l-2.682-5.22H.45zM34.868.33h-7.685l-2.708 5.22h7.574L34.868.33z" fill="#B0AFBE"/><path d="M21.273.33l-3.035 6.027h6.58L27.93.33h-6.658zM13.35 5.555l3.008 5.929h-6.58l-3.06-5.93h6.632z" fill="#B0AFBE"/><path d="M9.4 10.775l6.482 12.46 9.336-17.68h-6.58l-2.655 5.216-6.584.004zm29.7-2.202h1.717l2.642 6.874 2.643-6.874h1.678l-3.642 9.01h-1.365L39.1 8.572zm17.144-.063h1.44l3.889 9.01H59.93l-.88-2.157h-4.18l-.907 2.157h-1.59l3.871-9.01zm2.202 5.457l-1.528-3.566-1.515 3.566h3.043zm9.689-5.394h1.554v7.516h4.646v1.43h-6.2V8.574zm12.951 0h1.555v8.947h-1.555V8.573zm8.967 0h3.294c2.779 0 4.694 1.93 4.694 4.458v.026c0 2.52-1.92 4.458-4.694 4.458h-3.294V8.573zm3.294 7.511c1.854 0 3.083-1.266 3.083-3.013v-.022a2.967 2.967 0 00-.874-2.215 2.866 2.866 0 00-2.21-.826h-1.76v6.08h1.76v-.004zm11.715-7.511h1.554v8.947h-1.554V8.573zm8.574 4.498v-.022a4.565 4.565 0 011.302-3.297 4.426 4.426 0 013.252-1.33 4.554 4.554 0 011.873.326c.595.24 1.135.602 1.584 1.064l-.996 1.164a3.504 3.504 0 00-2.461-1.11c-1.692 0-2.916 1.404-2.916 3.156v.027c0 1.752 1.224 3.183 2.916 3.183 1.083 0 1.761-.446 2.536-1.164l.987 1.021a4.555 4.555 0 01-1.617 1.2 4.507 4.507 0 01-1.968.383 4.394 4.394 0 01-1.739-.338 4.434 4.434 0 01-1.471-.998 4.502 4.502 0 01-.969-1.5 4.545 4.545 0 01-.313-1.765z" fill="#B0AFBE"/></svg>