<svg width="68" height="42" fill="none" xmlns="http://www.w3.org/2000/svg"><path d="M19.161 15.173c0 .844.09 1.528.25 2.03.18.501.406 1.048.723 1.641a.999.999 0 01.158.525c0 .228-.136.456-.43.684l-1.424.958a1.078 1.078 0 01-.588.205c-.226 0-.453-.114-.679-.32a7.058 7.058 0 01-.814-1.071 17.76 17.76 0 01-.7-1.345c-1.765 2.097-3.98 3.146-6.65 3.146-1.899 0-3.414-.547-4.522-1.642-1.108-1.094-1.673-2.554-1.673-4.378 0-1.938.678-3.511 2.057-4.697C6.25 9.723 8.081 9.13 10.41 9.13c.77 0 1.561.069 2.398.183.837.114 1.696.296 2.6.501V8.15c0-1.733-.361-2.942-1.062-3.649-.724-.707-1.945-1.049-3.687-1.049-.79 0-1.605.091-2.442.297a17.91 17.91 0 00-2.442.775 6.4 6.4 0 01-.792.296 1.377 1.377 0 01-.361.069c-.317 0-.475-.228-.475-.707V3.065c0-.365.045-.639.158-.799.113-.16.317-.319.633-.478.792-.41 1.741-.753 2.85-1.027C8.895.465 10.07.328 11.314.328c2.691 0 4.659.616 5.925 1.847 1.244 1.232 1.877 3.101 1.877 5.61v7.388h.045zm-9.18 3.466c.745 0 1.514-.137 2.328-.41.815-.274 1.538-.776 2.149-1.46.361-.433.633-.912.769-1.46a8.255 8.255 0 00.226-1.983v-.958a18.745 18.745 0 00-2.08-.387 16.902 16.902 0 00-2.127-.137c-1.515 0-2.623.296-3.369.912-.746.616-1.108 1.482-1.108 2.622 0 1.072.271 1.87.837 2.417.542.57 1.334.844 2.374.844zm18.158 2.463c-.407 0-.678-.069-.86-.228-.18-.137-.338-.456-.474-.89L21.49 2.358c-.136-.456-.204-.753-.204-.912 0-.365.181-.57.543-.57h2.216c.43 0 .724.068.882.227.18.137.316.457.452.89l3.8 15.095 3.527-15.095c.113-.456.249-.753.43-.89.18-.136.497-.228.904-.228h1.81c.43 0 .723.069.904.228.18.137.34.457.43.89l3.573 15.278L44.67 1.993c.136-.456.294-.753.452-.89.181-.136.475-.228.882-.228h2.103c.362 0 .566.183.566.57 0 .115-.023.229-.046.365a3.27 3.27 0 01-.158.57l-5.45 17.627c-.136.456-.294.753-.475.89-.18.136-.475.228-.86.228H39.74c-.43 0-.724-.069-.904-.228-.181-.16-.34-.456-.43-.912L34.9 5.276l-3.483 14.686c-.113.456-.249.752-.43.912-.18.16-.497.228-.904.228h-1.945zm29.059.616c-1.176 0-2.352-.137-3.483-.41-1.13-.275-2.012-.571-2.6-.913-.362-.205-.61-.433-.701-.639a1.62 1.62 0 01-.136-.638v-1.163c0-.479.181-.707.52-.707.136 0 .272.023.407.069.136.045.34.136.566.227a12.23 12.23 0 002.487.799 13.51 13.51 0 002.691.273c1.425 0 2.533-.25 3.302-.752.769-.502 1.176-1.232 1.176-2.167 0-.638-.204-1.162-.61-1.596-.408-.433-1.177-.82-2.285-1.186l-3.279-1.026c-1.65-.524-2.872-1.3-3.618-2.326-.746-1.003-1.13-2.12-1.13-3.306 0-.958.203-1.801.61-2.531a5.85 5.85 0 011.628-1.87c.678-.524 1.447-.912 2.352-1.186.904-.273 1.854-.387 2.85-.387.497 0 1.017.022 1.514.09.52.07.995.16 1.47.252.453.114.882.228 1.29.364.406.137.723.274.949.411.317.182.543.365.678.57.136.182.204.433.204.753v1.071c0 .48-.18.73-.52.73-.181 0-.475-.091-.86-.274-1.288-.593-2.736-.889-4.341-.889-1.29 0-2.307.205-3.008.638-.701.434-1.063 1.095-1.063 2.03 0 .638.226 1.186.679 1.619.452.433 1.289.867 2.487 1.254l3.211 1.026c1.629.525 2.804 1.254 3.505 2.19.701.934 1.04 2.006 1.04 3.192 0 .98-.203 1.87-.587 2.645a6.123 6.123 0 01-1.651 2.007c-.701.57-1.538.98-2.51 1.277-1.018.319-2.08.479-3.234.479zM61.472 32.8c-7.44 5.541-18.25 8.483-27.544 8.483-13.025 0-24.762-4.858-33.627-12.93-.7-.638-.068-1.505.77-1.003 9.587 5.61 21.414 9.007 33.649 9.007 8.254 0 17.322-1.733 25.666-5.29 1.244-.57 2.307.82 1.086 1.733zm3.098-3.557c-.95-1.232-6.287-.593-8.706-.297-.724.091-.837-.547-.181-1.026 4.251-3.01 11.239-2.144 12.053-1.14.814 1.026-.226 8.072-4.206 11.447-.61.524-1.199.25-.928-.433.905-2.258 2.918-7.343 1.968-8.551z" fill="#B0AFBE"/></svg>