<svg width="116" height="25" fill="none" xmlns="http://www.w3.org/2000/svg"><g clip-path="url(#clip0)" fill="#B0AFBE"><path d="M32.54 15.49a3.083 3.083 0 01-2.425 1.099c-.936 0-1.682-.321-2.241-.962-.641-.709-.962-1.772-.962-3.189s.305-2.49.916-3.218c.549-.652 1.311-.977 2.287-.976a2.794 2.794 0 012.166.956l-.747.746a1.924 1.924 0 00-1.418-.623c-1.22 0-1.83 1.042-1.83 3.126 0 2.063.61 3.095 1.83 3.096a2.055 2.055 0 001.678-.793l.746.738zm7.87-3.066c0 1.433-.33 2.506-.99 3.219-.571.62-1.334.93-2.29.93-.997 0-1.775-.32-2.334-.96-.64-.709-.96-1.772-.96-3.189s.32-2.491.96-3.224c.57-.638 1.349-.959 2.335-.96.956 0 1.719.316 2.288.946.662.725.992 1.805.99 3.238zm-1.341 0c0-2.093-.647-3.141-1.938-3.142-1.292-.001-1.942 1.046-1.949 3.142 0 2.074.65 3.111 1.949 3.113 1.299 0 1.945-1.037 1.938-3.113zm14.153 4.026h-1.297v-5.078c0-1.343-.502-2.014-1.509-2.014-.783 0-1.398.401-1.845 1.204v5.888h-1.293v-5.078c0-1.343-.499-2.014-1.495-2.014-.72 0-1.34.361-1.86 1.084v6.008h-1.297V8.368h1.286v.808a2.703 2.703 0 012.126-.93c.954 0 1.676.37 2.166 1.112a2.973 2.973 0 012.393-1.112 2.55 2.55 0 011.816.655c.538.509.807 1.251.807 2.226l.002 5.323zm13.5 0h-1.297v-5.078c0-1.343-.503-2.014-1.509-2.014-.783 0-1.398.401-1.846 1.204v5.888h-1.296v-5.078c0-1.343-.499-2.014-1.495-2.014-.723 0-1.344.361-1.862 1.084v6.008h-1.295V8.368h1.295v.808a2.703 2.703 0 012.125-.93c.957 0 1.68.37 2.167 1.112a2.977 2.977 0 012.397-1.112 2.554 2.554 0 011.815.655c.539.509.808 1.251.808 2.226l-.007 5.323zm8.785-4.026c0 1.433-.33 2.506-.992 3.219-.57.62-1.333.93-2.289.93-.995 0-1.773-.32-2.332-.96-.642-.709-.962-1.772-.962-3.189s.32-2.491.962-3.224c.567-.638 1.345-.959 2.332-.96.957 0 1.72.316 2.289.946.661.725.992 1.805.992 3.238zm-1.343 0c0-2.093-.646-3.141-1.938-3.142-1.292-.001-1.941 1.046-1.948 3.142 0 2.074.65 3.111 1.948 3.113 1.3 0 1.945-1.037 1.938-3.113zm9.792 4.026H82.66v-5.184c0-.642-.092-1.104-.275-1.389-.223-.345-.624-.518-1.204-.519-.773 0-1.495.361-2.167 1.084v6.008h-1.296V8.382h1.296v.793a3.261 3.261 0 012.273-.93c.827 0 1.442.178 1.846.532.549.472.823 1.299.823 2.48v5.193zm12.813-8.082l-2.41 8.082h-1.252l-1.723-6.038h-.06l-.275 1.063-1.449 4.972h-1.24l-2.467-8.08h1.326l1.738 6.528h.046l.229-1.006 1.51-5.521h1.221l1.738 6.527h.046l.228-1.006 1.511-5.521h1.283zm7.504 4.315h-4.881c.01.926.224 1.638.641 2.136a1.915 1.915 0 001.525.671 2.318 2.318 0 001.846-.87l.731.748c-.764.813-1.628 1.22-2.593 1.22-1.006 0-1.824-.315-2.455-.945-.723-.723-1.084-1.78-1.084-3.173 0-1.417.336-2.5 1.008-3.248a2.926 2.926 0 012.287-.992 2.677 2.677 0 012.106.915c.578.68.868 1.641.869 2.882v.656zm-1.328-.914c-.051-.843-.203-1.464-.457-1.862a1.316 1.316 0 00-1.19-.593c-1.129 0-1.76.818-1.892 2.455h3.539zm5.029-7.792h-1.295V16.58h1.295V3.977zm4.304 0h-1.295V16.58h1.295V3.977zM58.98 24.52h-.464v-1.958H56.61v1.959h-.476v-4.213h.471v1.843h1.906v-1.843h.464l.005 4.213zm4.281 0h-2.467v-4.212h2.382v.39H61.26v1.463h1.7v.388h-1.7v1.584h2.001v.388zm4.479 0h-.447l-.466-1.328h-1.566l-.47 1.329h-.447l1.484-4.24h.432l1.48 4.24zm-1.044-1.705l-.643-1.966h-.039l-.069.253-.572 1.713h1.323zm4.748 1.705h-2.28v-4.212h.471v3.825h1.814l-.005.388zm3.332-3.822h-1.231v3.823h-.464v-3.823h-1.24v-.39h2.931l.004.39zm4.264 3.822h-.464v-1.958h-1.905v1.959h-.47v-4.213h.47v1.843h1.905v-1.843h.465v4.213zm6.428 0h-.461l-.464-1.328h-1.568l-.468 1.329h-.45l1.487-4.24h.43l1.493 4.24zm-1.044-1.705l-.641-1.966h-.037l-.071.253-.572 1.713h1.321zm4.749 1.705h-2.28v-4.212h.47v3.825h1.816l-.006.388zm3.601 0h-2.276v-4.212h.47v3.825h1.815l-.009.388zm6.69 0h-.453l-.464-1.328H96.98l-.47 1.329h-.45l1.485-4.24h.434l1.484 4.24zm-1.041-1.705l-.643-1.966h-.04l-.068.253-.574 1.713h1.325zm5.312 1.705h-.593l-1.805-3.72h-.034v3.72h-.412v-4.212h.66l1.75 3.657h.038v-3.657h.403l-.007 4.213zm4.608-.772a1.883 1.883 0 01-.532.595 1.49 1.49 0 01-.827.22 1.398 1.398 0 01-1.089-.512c-.342-.396-.514-.939-.514-1.631 0-.72.177-1.276.531-1.669a1.379 1.379 0 011.063-.485 1.476 1.476 0 011.35.794l-.393.194a.95.95 0 00-.907-.584.964.964 0 00-.886.519c-.192.38-.283.805-.264 1.23-.018.438.088.87.306 1.25a.989.989 0 00.86.496c.395 0 .712-.203.951-.61l.351.193zm4.017.772h-2.467v-4.212h2.375v.39h-1.911v1.463h1.7v.388h-1.7v1.584h2.003v.388zm-17.643-4.219h-.462v4.21h.462v-4.21zM6.877 9.581a2.572 2.572 0 11-.004-5.144 2.572 2.572 0 01.003 5.144zm9.025 0a2.572 2.572 0 11-.004-5.144 2.572 2.572 0 01.004 5.144zm-9.025 8.992a2.572 2.572 0 11-.004-5.144 2.572 2.572 0 01.003 5.144zm9.025 0a2.572 2.572 0 11-.004-5.144 2.572 2.572 0 01.004 5.144z"/><path d="M19.967 8.546a2.901 2.901 0 00-1.91.709c-.689.496-1.822 2.86-3.39 1.24a3.399 3.399 0 00-2.251-2.237c-1.403-1.265-.1-2.287.754-3a2.819 2.819 0 00.486-.448 2.916 2.916 0 10-4.413.016c.502.697 2.909 1.844 1.184 3.439a3.396 3.396 0 00-2.243 2.263c-1.553 1.568-2.676-.772-3.366-1.264a2.914 2.914 0 10.433 3.927c.69-.828 1.672-2.08 2.885-.886a3.389 3.389 0 002.415 2.46c1.468 1.527-.828 2.634-1.315 3.311a2.914 2.914 0 104.413.016l-.087-.096a2.928 2.928 0 00-.399-.354c-.823-.687-2.069-1.665-.885-2.871a3.39 3.39 0 002.426-2.436c1.228-1.252 2.22.012 2.916.847a2.922 2.922 0 001.688 1.11 2.914 2.914 0 10.654-5.753l.005.007zm93.321-3.806c.073-.167.177-.318.307-.445a1.443 1.443 0 011.264-.376c.273.052.525.183.725.376.129.128.232.279.305.445.075.174.113.362.111.55a1.405 1.405 0 01-.416 1.01 1.381 1.381 0 01-.448.295c-.35.139-.74.139-1.089 0a1.414 1.414 0 01-.452-.294 1.439 1.439 0 01-.307-.449 1.405 1.405 0 01-.111-.561c-.002-.19.036-.377.111-.551zm.238 1.031c.056.142.139.271.244.38a1.134 1.134 0 00.827.345 1.124 1.124 0 00.821-.344 1.292 1.292 0 00.322-.86 1.235 1.235 0 00-.089-.47 1.14 1.14 0 00-1.064-.721 1.144 1.144 0 00-1.063.72c-.06.15-.09.31-.089.47-.001.164.029.327.091.48zm1.158-1.295a.671.671 0 01.436.119.426.426 0 01.14.354.397.397 0 01-.124.326.576.576 0 01-.308.122l.469.721h-.273l-.448-.708h-.269v.708h-.257V4.476h.634zm-.113.73h.163a.42.42 0 00.138-.032.23.23 0 00.096-.08.289.289 0 00.035-.152.211.211 0 00-.115-.207.378.378 0 00-.115-.036 1.076 1.076 0 00-.129 0h-.339v.532l.266-.025z"/></g><defs><clipPath id="clip0"><path fill="#fff" d="M0 0h116v25H0z"/></clipPath></defs></svg>