<svg width="113" height="39" fill="none" xmlns="http://www.w3.org/2000/svg"><g clip-path="url(#clip0)" fill="#B0AFBE"><path d="M53.94 32.28c-1.061-.063-2.185-.125-3.246-.188-.187 0-.375.063-.562.063.125.188.187.502.375.565.624.188 1.186.377 1.81.502.624.126 1.311.063 1.935.251.438.126.75.566 1.124.88.063.062.063.188.063.314-.125 0-.25 0-.313-.063-.436-.503-.998-.817-1.685-.817-.125 0-.187.063-.25.063.063.126.063.251.125.314.312.44.75.817.999 1.32.25.564.312 1.192.5 1.758l-.937-1.508c-.437-.816-1.061-1.319-1.873-1.633-1.061-.44-2.06-1.004-2.81-1.946-.686-.817-1.685-.817-2.621-.817h-.937c.187.251.375.628.624.817.375.25.812.376 1.249.502.874.126 1.498.565 1.873 1.382.624 1.444 1.623 2.386 3.184 2.7.125.063.25.189.437.314-.187 0-.375 0-.562.063-.125.063-.25.314-.312.44-.063.125.062.25.125.44 0 .125 0 .25-.063.502-.312-1.194-1.186-1.822-2.06-2.575-.562-.503-.936-1.32-1.373-1.947-.125-.126-.313-.189-.438-.251 0 .125-.062.314 0 .44.125.564.25 1.193.438 1.758.187.44.437.816.686 1.256l.188.377c-.188-.063-.313-.063-.5-.126-.812-.188-.374.816-.874.942 0-.816.063-1.633 0-2.386-.062-1.32-.75-2.261-1.81-3.015-.437-.314-.625-.188-.625.314.063 1.256-.312 2.45-.749 3.643-.125.376 0 .816.063 1.256 0 .188.124.314.25.502-.126-.063-.25-.063-.375-.126-.188-.125-.562-.314-.625-.44 0-.439.125-.878.25-1.318.125-.502.375-.942.5-1.445.062-.188-.063-.502-.063-.69-.187.125-.375.188-.5.314-1.06.942-2.122 1.82-2.434 3.517-.125-1.256-.063-1.633.624-2.387.5-.565 1.124-1.005 1.561-1.633.312-.44.5-.942.624-1.444.063-.251-.187-.503-.312-.754-.125.189-.312.44-.437.628-.5.942-1.061 1.696-2.123 1.947-.936.188-1.373.754-1.31 1.696 0 .314 0 .628-.063.879-.063.314-.25.628-.375.942 0-.314 0-.628.063-.88.187-.753-.125-.878-.812-.69-.25.063-.624.063-.874.063-1.248-.063-2.372.125-3.371.942-.063.063-.25.063-.375.063.063-.126.063-.252.125-.377.562-.566 1.249-1.005 2.123-1.005.562 0 1.124.063 1.623-.063.5-.125 1.061-.377 1.373-.753.562-.629.375-.943-.499-1.068-.125 0-.187 0-.312-.063-.063 0-.063-.063-.187-.126.749-.062 1.435-.062 2.122-.125a4.126 4.126 0 001.249-.377c.187-.063.312-.377.437-.565-.25 0-.437-.063-.687-.063-.624-.063-1.31 0-1.935-.126-1.374-.188-2.685-.188-3.87.754-.438.314-.937.502-1.5.754-.124.062-.311 0-.499 0 .125-.189.188-.377.313-.503.936-.502 1.81-1.13 2.809-1.381.811-.252 1.748-.126 2.622-.126.624 0 1.311.126 1.935.063.375-.063.75-.44 1.062-.754.062-.063.062-.377 0-.44a.483.483 0 00-.5-.125c-.25.063-.5.188-.687.251-1.186.565-2.372.565-3.62.126-1.062-.377-2.186-.754-3.372-.314-.062 0-.187-.063-.25-.063.063-.126.125-.314.188-.314.5-.126.936-.314 1.436-.251.686.063 1.373.314 2.06.44.437.125.874.188 1.31.25 2.186.126 3.247-.879 3.247-3.077v-4.647c0-.189-.124-.44-.187-.628-.125.125-.312.251-.437.377-1.498 1.884-3.496 2.386-5.744 2.135-2.934-.377-4.62-2.198-5.369-4.961-.686-2.324-.562-4.648.313-6.909 1.373-3.58 5.369-5.024 8.615-3.58.874.377 1.498 1.257 2.248 1.885.124.063.25.188.312.25.062-.125.187-.313.187-.439.187-1.758.187-1.758 1.873-1.758h2.872c.562 0 .998 0 .998.754 0 .627-.437.627-.936.69-1.748.189-2.06.44-2.06 2.198v14.13c0 1.885.062 1.885 1.873 2.45 1.373.44 2.622 1.256 4.12 1.256.75 0 1.499.126 2.248.188-.125.315-.125.377-.063.44zM33.65 17.898c.25 1.13.375 2.261.75 3.329.686 1.884 2.247 2.952 3.933 2.889 1.935-.063 3.308-1.068 3.995-2.889.874-2.387.874-4.836-.187-7.16-.75-1.632-2.06-2.449-3.808-2.449-1.748 0-3.06.88-3.809 2.45-.562 1.193-.749 2.449-.874 3.83zm75.479.566v3.642c0 .377 0 .817.063 1.193.125.503.249 1.068.874 1.068.624 0 1.061-.377 1.186-.942.125-.753.187-1.507.312-2.198.063-.314.187-.69.437-.816.562-.252.999.062.999.69 0 .754-.062 1.508-.187 2.261-.25 1.508-1.249 2.387-2.747 2.575-1.436.189-2.622-.251-3.184-1.633-.375-.816-.749-.377-1.124-.063-1.935 1.57-4.183 2.073-6.618 1.508-1.56-.377-2.622-1.382-2.871-2.89-.313-1.695.25-3.14 1.748-4.018.874-.503 1.935-.88 2.871-1.194 1.249-.44 2.622-.753 3.871-1.193 1.436-.565 1.811-1.319 1.686-2.826-.125-1.193-.812-1.821-2.185-2.135-1.499-.314-2.997-.189-4.37.502-.438.251-.687.44-.063.942.687.503.812 1.507.5 2.136-.313.627-1.25 1.004-1.936.816-.811-.188-1.186-.816-1.31-1.821-.126-1.445.436-2.575 1.747-3.203 2.435-1.256 4.995-1.445 7.554-.566 1.811.629 2.622 2.073 2.747 3.894.063 1.445 0 2.826 0 4.27zm-2.684.69c0-1.82 0-1.82-1.748-1.193-.5.189-1.062.377-1.561.566-.874.376-1.748.69-2.56 1.193-1.31.816-1.685 1.884-1.123 3.203.499 1.13 1.623 1.633 2.996 1.381 2.622-.565 3.996-2.323 3.996-5.15zM0 22.42c0-.753-.063-1.507 0-2.26 0-.252.25-.691.499-.754.437-.126.936-.126 1.124.44.062.125.125.313.125.439.874 2.512 2.684 3.83 5.244 4.02.874.062 1.935-.126 2.684-.566 1.623-.88 1.561-2.952-.125-3.705-1.186-.503-2.497-.691-3.745-1.068-1.124-.314-2.248-.502-3.31-.942C.75 17.27-.124 15.764 0 13.942c.125-1.821 1.124-3.077 2.872-3.705 2.31-.817 4.62-.691 6.743.565.936.502.936.565 1.498-.314.312-.502.75-.565 1.124-.377.25.126.437.502.437.816.062 1.382 0 2.827 0 4.208 0 .44-.063.817-.624.817-.5 0-.874-.063-1.062-.628a8.286 8.286 0 00-.437-1.13c-1.123-2.199-3.746-3.455-5.868-2.827-1.311.314-1.998 1.13-2.06 2.261-.063.942.561 1.696 1.81 2.072 1.186.377 2.435.566 3.621.88.937.25 1.935.502 2.872.879 1.685.69 2.56 2.01 2.435 3.894-.063 1.946-1.062 3.203-2.81 3.893-2.434.942-4.87.817-7.242-.44a5.292 5.292 0 01-.624-.376c-.437-.377-.812-.314-1.061.251-.063.126-.063.377-.188.44-.374.188-.749.44-1.186.44-.25 0-.25-.503-.25-.88v-2.26zm66.551-5.652v5.276c0 1.507.313 1.82 1.873 1.883h.75c.499 0 .686.252.686.754 0 .44-.187.691-.624.691h-4.807c-.687 0-.5-.628-.562-1.005l-.188-1.13c-.312.25-.624.44-.873.753-1.998 2.073-4.433 2.324-7.055 1.57-1.686-.502-2.685-1.947-2.685-3.956-.062-2.324 0-4.648 0-6.908v-1.194c-.062-1.256-.374-1.57-1.623-1.695h-.874c-.5 0-.75-.189-.75-.691s.188-.754.688-.754h4.495c.624 0 .749.377.749.88v9.671c0 2.638 1.935 3.517 3.87 3.203 2.56-.44 4.183-2.198 4.246-4.836a87.12 87.12 0 000-5.715c0-1.381-.312-1.633-1.686-1.695h-.874c-.437 0-.624-.252-.624-.628 0-.44.125-.817.687-.817h4.495c.624 0 .749.377.749.88-.063 1.758-.063 3.579-.063 5.463zm19.729 1.068c-.188 5.087-3.31 8.039-8.366 8.039-4.807 0-8.179-2.764-8.179-8.04 0-5.337 3.372-8.038 8.366-7.975 4.995 0 8.054 2.952 8.178 7.976zm-13.673.063c0 5.275 3.309 6.468 5.244 6.468 1.998.063 3.746-.628 4.62-2.7 1.062-2.575 1.124-5.15 0-7.725-.811-1.947-2.497-2.7-4.495-2.7-2.06.062-5.369 1.381-5.369 6.657zm-48.946.188h-4.62c-.936 0-1.06.126-.998 1.068.062.879.187 1.82.437 2.637.561 1.696 1.935 2.575 3.683 2.638 1.686.063 3.246-.44 4.245-2.01.25-.44.437-.942.687-1.319.125-.188.437-.44.687-.502 1.123-.251 1.373.063.999 1.13-.874 2.45-2.56 3.769-5.12 4.02-2.934.377-5.618-.189-7.429-2.764-1.311-1.82-1.498-4.019-1.311-6.217.187-1.633.5-3.203 1.56-4.459 1.811-2.198 4.246-2.7 6.868-2.45 4.433.44 5.681 3.895 6.056 7.411.062.754-.375.817-.937.817h-4.807zm-1.436-1.507h2.872c1.374 0 1.561-.189 1.249-1.633-.063-.188-.125-.377-.125-.565-.624-2.01-1.998-3.266-4.37-3.078-2.248.189-3.684 1.947-3.808 4.145-.063.942.062 1.068.936 1.13 1.061.063 2.123 0 3.246 0z"/><path d="M92.086 16.83v4.962c0 1.821.312 2.073 2.06 2.135.312 0 .624-.062.874.063.187.063.5.377.5.566 0 .25-.25.565-.438.816-.124.126-.374.063-.562.063h-7.304c-.312 0-.75-.063-.936-.251-.375-.377 0-1.13.561-1.194.375-.063.812 0 1.187 0 1.123-.063 1.435-.314 1.435-1.444.063-3.077.063-6.092 0-9.17 0-1.13-.312-1.38-1.435-1.444H86.84c-.437 0-.624-.188-.624-.628s.063-.816.624-.816h4.62c.75 0 .75.565.75 1.068-.125 1.632-.125 3.454-.125 5.275zM60.37 38.937c-.311 0-.624.063-.873 0-.188-.063-.375-.188-.625-.251.125-.126.313-.188.375-.314.25-.377.562-.69.562-1.068a65.665 65.665 0 000-4.961c0-.565-.25-.942-.812-1.13-.125-.063-.25-.252-.187-.314.062-.126.187-.189.312-.252.687-.062 1.436-.125 1.935.503.625-.503 1.25-.691 2.06-.691.937.063 1.624.565 1.998 1.382.5 1.13.5 2.26 0 3.328-.624 1.382-2.185 1.821-3.683.942-.624-.314-.687-.125-.624.377.062.754-.375 1.696.874 1.884.062 0 .125.251.187.377 0 .063-.125.125-.25.125-.374.063-.811.063-1.248.063 0 0 0 .063 0 0zm3.996-5.652c-.062-.188-.062-.502-.125-.754-.187-.753-.561-1.256-1.373-1.381-.812-.063-1.311.377-1.623 1.005-.188.314-.25.753-.312 1.13-.125 1.382.686 2.512 1.748 2.512.999 0 1.748-1.005 1.685-2.512zM18.167 8.227h-.749c-.25-.063-.562-.126-.811-.251.187-.126.5-.251.624-.44.187-.25.437-.565.437-.879.062-1.696 0-3.391 0-5.15 0-.502-.125-.879-.75-.942-.124 0-.249-.188-.374-.314.188-.063.312-.188.5-.25 1.373-.19 1.56 0 1.56 1.38v.315c0 1.256.063 1.256 1.124.753 1.56-.69 3.184 0 3.122 1.884V6.47c0 .314.125.69.312.942.125.25.437.376.687.565-.313.063-.687.125-1 .125h-1.186c-.312 0-.561-.125-.811-.188.187-.126.437-.251.562-.502.187-.252.374-.566.437-.88.062-.753.062-1.507 0-2.26 0-.566-.188-1.13-.812-1.32-.687-.188-1.31-.062-1.748.503-.562.628-.811 2.889-.437 3.643a.755.755 0 00.312.314c.25.188.5.314.75.44-.313.062-.625.188-1 .188-.187.188-.499.188-.749.188zm6.119-2.7c0-2.513 1.748-3.894 3.87-3.078.5.189 1 .628 1.311 1.13.812 1.508.562 1.885-1.06 1.885h-2.124c-.686.063-.874.251-.686.942.374 1.381 1.748 1.821 2.81.879.124-.126.186-.251.311-.314l.75-.565c-.063.377 0 .753-.188 1.067-.687.942-1.623 1.068-2.684.88-1.124-.189-1.873-.817-2.186-2.01-.124-.251-.062-.628-.124-.816zm2.684-.691h.874c.75-.063.937-.377.624-1.068-.499-1.068-1.872-1.193-2.56-.251-.186.251-.186.69-.311 1.068.312.062.624.188.936.25.125.064.312 0 .437 0zM71.858 33.41c0-1.946 1.124-3.014 3.122-3.014 1.935 0 3.184 1.193 3.184 3.015 0 1.884-1.311 3.14-3.31 3.077-1.872.063-2.996-1.068-2.996-3.077zm3.06 2.513c1.248.063 2.06-.942 2.06-2.387 0-1.57-.75-2.45-1.998-2.45-1.187 0-1.936.88-1.998 2.325-.063 1.444.749 2.512 1.935 2.512zm6.929-2.324c0-2.386 1.311-3.454 3.434-3.14.749.125 1.31.502 1.623 1.13.749 1.32.437 1.884-1.061 1.884h-2.06c-.625 0-.812.314-.687.88.124.69.437 1.256 1.123 1.444.75.251 1.374 0 1.873-.565.25-.314.312-.942.937-.754.312.126.062.88-.5 1.382-.874.816-1.935.754-2.934.502-.999-.25-1.56-1.005-1.686-2.072-.062-.251-.062-.565-.062-.691zm2.81-.69h.436c.313-.064.687-.126 1-.19-.126-.439-.188-.879-.438-1.193-.5-.69-1.685-.628-2.185.063-.187.314-.25.754-.374 1.068.312.063.624.188.936.251.25.063.437 0 .624 0zm3.121.627c.125-2.323 2.31-3.768 4.432-2.889.812.377 1.374 1.194 1.062 1.884-.063.252-.5.377-.75.566-.124-.252-.436-.503-.436-.691.062-.44.437-.942-.313-1.193-.749-.252-1.685-.063-2.185.565-.749.942-.749 2.763.063 3.642.749.88 1.873.691 2.622-.314.187-.25.5-.502.75-.753.374.502.062.942-.188 1.381-.812 1.13-3.808 1.382-4.62-.44-.25-.564-.312-1.192-.437-1.758zm8.428 3.014c-.874 0-1.311-.439-1.436-1.38-.062-.88 0-1.822-.062-2.701 0-.314 0-.88-.188-1.005-1.186-.566-.437-.942.063-1.382.187-.188.25-.565.374-.816.188-.314.375-.691.562-1.005.125.377.313.816.313 1.193-.063.816.25 1.193 1.123 1.13.188 0 .375.252.562.314-.187.063-.374.252-.5.252-.998-.063-1.185.44-1.123 1.319.062.879 0 1.82.062 2.7 0 .251.063.69.562.69.5 0 .687-.627.687-.69.187-.314.687-.063.562.314-.125.817-.687 1.068-1.56 1.068zm-28.968-3.014V32.47c0-.628 0-1.194-.874-1.32-.125 0-.187-.188-.25-.313.125-.063.188-.251.313-.251.624.062 1.373-.377 1.935.314.062.062.375 0 .562-.063.437-.126.936-.377 1.373-.377.812 0 1.311.628 1.062 1.382-.063.25-.437.44-.687.628-.188-.189-.437-.377-.5-.628-.124-.252-.062-.503-.062-.817-.375.126-.812.189-.999.44-.312.44-.562.942-.624 1.507-.125.565-.063 1.193-.063 1.821 0 .189 0 .44.125.566.25.25.562.502.874.69-.5.063-.999.126-1.436.126h-1.373c-.125 0-.25-.126-.375-.188.063-.063.125-.189.188-.189.998-.188.811-.942.874-1.633-.063-.125-.063-.377-.063-.628z"/><path d="M80.66 34.353v2.826c0 1.444-1.373 2.072-2.684 1.633-.312-.126-.686-.628-.749-.942-.062-.252.25-.754.562-.88.437-.188.75.126.811.628 0 .252.125.503.25.691.25-.188.562-.377.75-.628.124-.314.187-.69.187-1.005V32.47c0-.628 0-1.256-.874-1.32-.125 0-.25-.25-.375-.376.187-.063.312-.188.5-.188.312-.063.624 0 .874 0 .561 0 .811.25.811.816-.062.942-.062 1.947-.062 2.952zM15.982 6.531c0 1.382-.749 2.073-1.873 1.884-.749-.125-1.123-.502-1.186-1.318-.062-1.005 0-2.01 0-3.015 0-.314-.062-.88-.25-.942-.936-.314-.624-.565-.124-1.068.374-.376.5-.942.749-1.444.062-.188.187-.314.312-.44.125.189.25.377.312.566a.54.54 0 010 .44c-.062.878.25 1.318 1.186 1.255.125 0 .312.189.437.251-.125.126-.25.252-.437.252-1.186.25-1.186.25-1.186 1.381 0 .88.063 1.822.125 2.7 0 .252.437.629.5.629.311-.126.561-.377.749-.628.124-.126 0-.377.124-.565.063-.189.25-.377.375-.503.062.251.125.44.187.565zm72.67-1.13c0-1.005.687-1.696 1.686-1.696.998 0 1.748.817 1.685 1.884-.062.942-.874 1.696-1.81 1.633-.812 0-1.561-.816-1.561-1.821zM79.1 28.638c0-.44.312-.817.75-.817.436 0 .81.377.748.88 0 .44-.374.753-.811.753-.375 0-.687-.377-.687-.816z"/></g><defs><clipPath id="clip0"><path fill="#fff" d="M0 0h113v39H0z"/></clipPath></defs></svg>