<svg width="106" height="45" fill="none" xmlns="http://www.w3.org/2000/svg"><g clip-path="url(#clip0)" fill="#B0AFBE"><path d="M88.112 13.436c.12.728.201 1.174.282 1.821.404-.202.727-.364 1.05-.566 2.948-1.862 6.138-2.429 9.49-1.62 3.795.891 6.662 4.21 6.864 8.701.283 7.365.162 14.73.243 22.055 0 .081-.041.162-.162.364H95.743c-.04-.526-.08-1.052-.08-1.537 0-5.261 0-10.522-.04-15.742 0-1.012-.162-2.064-.445-3.035-.444-1.62-1.332-2.226-3.028-2.267-2.423-.08-3.675 1.012-3.837 3.48-.12 1.62-.04 3.279-.08 4.897 0 4.452-.04 8.863-.04 13.314 0 .283-.081.567-.122 1.052-1.373 0-2.705-.04-3.998 0-4.118.162-8.237.405-12.356.567-.525.04-1.01 0-1.898 0-.364-4.856-.727-9.632-1.09-14.488-2.585-.323-2.544-2.225-2.585-4.168-.04-2.428-1.05-3.44-3.432-3.844-2.261-.364-4.079.485-4.644 2.266-.283.89-.404 1.861-.404 2.792-.04 5.018 0 10.077 0 15.095v1.659H38.766c-.08-.567-.121-1.133-.202-1.821-5.169 3.156-10.216 3.763-15.224-.445-.242.121-.565.283-.848.526-4.118 3.601-14.577 3.358-18.817-2.024C1.898 38.202.848 35.693.405 32.86c-.687-4.41-.485-8.781 1.453-12.868 2.019-4.25 5.492-6.475 10.055-7.123 3.796-.566 7.349-.162 10.58 2.064.363.243 1.13.122 1.655-.08 5.37-2.105 10.863-2.833 16.516-1.74 2.544.485 4.603 1.82 6.42 4.208v-3.966h10.5c.04.607.12 1.174.161 1.942.404-.283.727-.485 1.01-.728 2.14-1.7 4.563-2.226 7.268-1.902a4.402 4.402 0 002.06-.283c4.522-1.78 8.924-1.902 13.245.485.565.324 1.292.446 1.978.446 1.575.161 3.15.121 4.806.121zM19.464 25.131c-.687-.971-1.211-1.861-1.898-2.63-1.898-2.105-5.169-1.619-6.219.97-1.332 3.279-1.332 6.678-.282 9.956 1.05 3.318 4.36 4.087 6.945 1.74.808-.728 1.494-1.66 2.261-2.55.202.041.485.122.768.163 1.17-6.637 6.057-8.62 10.7-8.54 2.262.041 4.523.486 6.825.77.485-2.712-.484-4.533-2.867-4.695-1.575-.121-3.19-.08-4.725.203-1.817.364-3.553 1.052-5.33 1.619-.202-.324-.444-.729-.727-1.174-1.898 1.457-3.634 2.752-5.451 4.168zm19.14 6.556c-1.857-.81-3.715-1.133-5.612-.769-1.454.283-2.302 1.457-2.343 3.156-.04 1.7.848 3.076 2.262 3.319 2.06.324 3.997-.04 5.653-1.376.04-1.457.04-2.833.04-4.33zM74.26 9.753c-2.745 0-4.886-2.185-4.845-4.937.04-2.752 2.22-4.856 5.007-4.815 2.665.04 4.805 2.225 4.765 4.896 0 2.752-2.18 4.897-4.926 4.856z"/></g><defs><clipPath id="clip0"><path fill="#fff" d="M0 0h106v45H0z"/></clipPath></defs></svg>