<svg width="117" height="36" fill="none" xmlns="http://www.w3.org/2000/svg"><path d="M.434 35.33v-8h3.663c.363 0 .708.069 1.02.223.31.155.587.343.812.567.224.24.397.497.535.806.121.31.19.601.19.91 0 .292-.051.567-.155.841a3.009 3.009 0 01-.415.721 2.458 2.458 0 01-.64.55c-.258.154-.518.24-.811.291l2.16 3.09h-.795l-2.091-2.987h-2.8v2.987H.435zm.69-3.588h3.007c.277 0 .519-.052.76-.155.225-.103.416-.257.571-.43.156-.17.277-.377.363-.6a1.97 1.97 0 00.138-.704c0-.24-.052-.48-.155-.704a2.08 2.08 0 00-.415-.6 2.092 2.092 0 00-.605-.412 1.8 1.8 0 00-.743-.155H1.108v3.76h.017zm13.496 2.969v.618H8.764v-8H14.5v.636H9.454v2.987h4.423v.583H9.454v3.176h5.167zm1.003.619l3.715-8h.57l3.698 8h-.743l-1.175-2.576h-4.112l-1.193 2.575h-.76zm4.009-7.125l-1.884 3.965h3.716l-1.832-3.965zm5.615 7.125v-8h2.92c.692 0 1.296.103 1.815.309.518.206.95.498 1.313.858.346.36.605.773.778 1.27.172.481.259.996.259 1.545 0 .601-.104 1.15-.294 1.648s-.484.91-.83 1.27c-.362.36-.794.618-1.313.807a4.992 4.992 0 01-1.728.292h-2.92zm6.394-4.018c0-.48-.07-.944-.225-1.356a3.11 3.11 0 00-.674-1.064 3.179 3.179 0 00-1.089-.687c-.432-.171-.915-.257-1.486-.257h-2.246v6.746h2.246c.57 0 1.072-.086 1.504-.258a3.012 3.012 0 001.088-.72c.294-.31.502-.67.657-1.082.155-.378.225-.841.225-1.322zm2.022-3.982l3.006 4.377 3.007-4.377h.76l-3.438 5.012v2.987h-.691v-3.004l-3.405-4.995h.76zm7.292 3.93c0-.48.087-.96.277-1.424.19-.48.449-.893.812-1.27a4.098 4.098 0 011.296-.91c.518-.24 1.106-.36 1.762-.36.778 0 1.434.171 1.987.497.553.326.968.738 1.245 1.253l-.57.344a2.718 2.718 0 00-.536-.687 2.614 2.614 0 00-.657-.446 2.889 2.889 0 00-.743-.24 3.913 3.913 0 00-.76-.07c-.553 0-1.037.104-1.452.31a3.534 3.534 0 00-1.071.79 3.387 3.387 0 00-.657 1.098 3.466 3.466 0 00.035 2.54c.173.412.414.773.725 1.1a3.74 3.74 0 001.09.755 3.22 3.22 0 001.347.291c.26 0 .518-.034.795-.086.276-.051.535-.154.795-.274.259-.12.484-.275.708-.48.225-.19.398-.43.553-.688l.588.292a2.752 2.752 0 01-.605.807 4.13 4.13 0 01-.847.584c-.31.154-.64.274-.985.36-.345.086-.691.12-1.02.12-.604 0-1.157-.12-1.64-.36a3.927 3.927 0 01-1.28-.944 4.664 4.664 0 01-.846-1.322 3.633 3.633 0 01-.346-1.58zm12.805 4.12a4.12 4.12 0 01-1.677-.343 4.098 4.098 0 01-1.296-.91 3.828 3.828 0 01-.83-1.304 4.123 4.123 0 01-.293-1.51c0-.533.104-1.03.311-1.511.207-.481.501-.91.864-1.288.363-.377.795-.67 1.296-.892a3.924 3.924 0 011.624-.326c.605 0 1.175.12 1.676.36a4.148 4.148 0 012.109 2.232c.19.48.294.978.294 1.476a3.98 3.98 0 01-.312 1.545c-.207.48-.5.927-.864 1.287-.362.378-.794.67-1.296.893a4.455 4.455 0 01-1.607.292zm-3.405-4.033c0 .446.087.875.26 1.287.172.412.397.773.708 1.099.294.309.657.566 1.071.755a3.32 3.32 0 001.383.292c.518 0 .985-.103 1.4-.31a3.536 3.536 0 001.07-.789c.294-.326.52-.686.675-1.098.155-.412.242-.824.242-1.253 0-.447-.087-.859-.26-1.27a3.531 3.531 0 00-.708-1.1 3.363 3.363 0 00-1.072-.755 3.232 3.232 0 00-1.365-.274 3.36 3.36 0 00-1.4.291 3.488 3.488 0 00-1.07.773 3.818 3.818 0 00-.692 1.098 3.511 3.511 0 00-.242 1.254zm17.366 3.983V28.6l-3.386 5.236h-.415L60.516 28.6v6.73h-.674v-8h.691l3.594 5.596 3.594-5.596h.692v8h-.692zm3.284 0v-8h3.611c.38 0 .709.068 1.02.223.31.154.57.343.812.566.225.24.398.498.536.807.12.31.19.601.19.91 0 .326-.052.635-.173.927a3.01 3.01 0 01-.501.807c-.225.24-.484.429-.778.566-.31.137-.64.206-1.002.206h-3.007v2.987h-.708zm.691-3.589h2.972c.277 0 .519-.051.76-.154.225-.103.415-.24.57-.412a1.93 1.93 0 00.364-.6c.086-.224.12-.464.12-.705a1.69 1.69 0 00-.155-.72 2.077 2.077 0 00-.415-.601 2.093 2.093 0 00-.604-.412 1.743 1.743 0 00-.744-.155h-2.902v3.76h.034zm10.782 3.022c.588 0 1.055-.103 1.435-.292.38-.189.674-.464.916-.773.224-.326.38-.686.483-1.098a6.02 6.02 0 00.139-1.236V27.33h.673v4.017c0 .532-.069 1.047-.19 1.544-.12.498-.328.91-.622 1.288a3.19 3.19 0 01-1.123.875c-.466.224-1.037.327-1.693.327-.691 0-1.262-.12-1.728-.344a3.084 3.084 0 01-1.124-.91 3.687 3.687 0 01-.604-1.287 6.097 6.097 0 01-.19-1.493V27.33h.674v4.017c0 .429.051.858.138 1.27.086.412.259.772.484 1.099.224.326.535.566.915.755.38.189.847.292 1.417.292zm12.218-6.798h-3.18v7.364h-.674v-7.364h-3.197v-.635h7.05v.635zm1.659 7.365v-7.983h.673v7.982h-.674zm3.957-6.713v6.712h-.674v-8h.535l6.048 6.833v-6.815h.674v7.982h-.622l-5.961-6.712zm15.534 5.528c-.829.824-1.797 1.253-2.903 1.253a3.64 3.64 0 01-1.624-.36 4.442 4.442 0 01-1.296-.928 4.367 4.367 0 01-.847-1.304 3.8 3.8 0 01-.311-1.494c0-.532.104-1.03.311-1.51.208-.481.484-.91.83-1.288.363-.377.777-.67 1.278-.892.484-.224 1.037-.326 1.607-.326.864 0 1.573.154 2.109.48.535.326.95.738 1.226 1.253l-.552.36c-.294-.514-.674-.875-1.158-1.115a3.66 3.66 0 00-1.642-.36 3.148 3.148 0 00-2.402 1.064 3.39 3.39 0 00-.656 1.098 3.506 3.506 0 00-.225 1.27c0 .464.086.893.259 1.305.173.412.415.773.726 1.082.311.309.674.566 1.089.755.414.189.864.275 1.347.275.519 0 1.003-.103 1.469-.326.467-.224.916-.55 1.365-1.03v-1.442h-1.97v-.55h2.575v3.897h-.605v-1.167zM64.334 6.175c-.346.224-.691.36-1.451-.24-.916-.738-1.815-1.304-2.696-1.253-1.071.052-2.506.463-4.182 6.145.622-1.94.622-4.016.121-4.909a1.052 1.052 0 00-1.071-.498c-.899.137-1.624.91-2.592 2.163l-.363.515c-.104.172-.087.155.017.223l.76.412c.139.069.121.069.208-.068l.242-.327c.726-1.012 1.486-1.733 1.71-1.596.398.257.225 1.888-.034 4-.138 1.132-.207 1.441-.57 3.21-.208 1.047-.588 2.231-.709 2.643-.069.24-.069.206.07.292.276.172 1.088.687 1.088.687.173.12.19.085.242-.035.276-.79.916-3.21 1.244-4.274.553-1.734.899-2.644 1.624-4.326 1.14-2.66 1.763-2.9 2.316-2.918.64-.034 1.02.395 1.676.927.881.704 1.538.79 2.177.618.467-.12.657-.326.76-.446.052-.07-.155-1.27-.172-1.288-.017-.017-.035 0-.19.137a.817.817 0 01-.225.206z" fill="#B0AFBE"/><path d="M58.597 20.887L50.2 16.063l-1.071.618 9.47 5.441 9.486-5.441-1.071-.618-8.416 4.824zm-8.64-14.729l8.415-4.823V.099L48.886 5.54v10.883l1.071-.617V6.158zm17.228 0v9.63l1.089.618V5.54L58.787.1v1.236l8.398 4.823z" fill="#B0AFBE"/></svg>