<svg width="139" height="26" fill="none" xmlns="http://www.w3.org/2000/svg"><path d="M26.798 19.468a14.15 14.15 0 01-1.618.949c-.971.509-2.771.763-4.233.64-1.251-.096-2.387-.49-3.238-1.431-1.093-1.208-1.282-2.653-.96-4.197.122-.7.453-1.348.95-1.86a3.574 3.574 0 011.84-1.007c1.487-.373 3.039-.577 4.564-.834.77-.13 1.575-.17 2.164-.763.67-.687.282-2.131-.579-2.498-.862-.366-2.308-.445-3.177 0-.87.446-1.061 1.076-1.113 1.356-.03.125-.044.253-.043.382l-4.298.02s.016-.11.075-.435c.212-1.162.753-2.276 1.651-2.9a8.272 8.272 0 012.536-1.205 9.893 9.893 0 012.654-.344c.748 0 3.71.049 5.315 1.163a3.41 3.41 0 011.148 1.258 3.37 3.37 0 01.39 1.652c.016 2.736.023 6.653.023 8.208.015 1.009.166 2.011.45 2.98a121.1 121.1 0 01-3.998 0 3.582 3.582 0 01-.303-.531 9.69 9.69 0 01-.2-.603zm-.21-5.76c-.954.167-4.118.803-4.767 1.075-.977.412-1.25 1.816-.692 2.699.63.99 3.12.915 4.02.407a2.58 2.58 0 001.426-2.373c0-.779.013-1.809.013-1.809zm-11.811-2.626h-4.125s-.028-.168-.064-.295c-.223-.85-.623-1.551-1.46-1.946-1.435-.679-3.217-.348-4.102 1.12-1 1.66-1.084 3.474-.597 5.3.344 1.272 1.064 2.29 2.495 2.628 1.159.282 2.82-.384 3.333-1.442.238-.472.417-.971.533-1.486h4.077s-.038.234-.056.33c-.41 2.209-1.444 4-3.528 5.057-1.382.695-2.882.845-4.408.763a7.199 7.199 0 01-4.21-1.564c-1.282-1.035-2.23-2.75-2.444-3.96a12.655 12.655 0 01-.143-3.757c.318-2.49 1.538-4.505 3.846-5.695a7.484 7.484 0 013.146-.763 9.24 9.24 0 013.7.478c2.2.832 3.61 2.32 3.938 4.696.016.137.07.536.07.536zm57.12-2.541l-.02-2.676h1.766c.013 6.458 0 13.227 0 19.682V26h-2v-7.674c-.36.48-.749.938-1.161 1.374a5.22 5.22 0 01-3.116 1.373c-2.14.24-4.059-.229-5.577-1.823-1.248-1.316-1.794-2.94-1.997-4.706a10.463 10.463 0 01.318-4.288C60.79 8 62.087 6.25 64.52 5.603c2.334-.62 4.63-.132 6.262 1.422.433.458.807.967 1.115 1.516zm-.133 4.685a11.248 11.248 0 00-.257-2.31c-.446-2.019-1.705-3.44-3.695-3.814-1.99-.374-3.558.063-4.656 1.37-1.026 1.24-1.405 2.722-1.5 4.276-.102 1.679.195 3.307 1.113 4.739 1.044 1.633 2.625 2.215 4.51 1.989a4.37 4.37 0 002.864-1.45c1.192-1.376 1.628-3.306 1.62-4.8zm30.456 5.037c-.35.503-.754.968-1.205 1.386-.751.712-2.564 1.432-3.5 1.432a10.527 10.527 0 01-3.362-.425c-1.21-.374-2.4-1.979-2.448-3.635-.041-1.36.174-2.439 1.397-3.459 1.587-1.272 7.149-1.57 7.892-1.897.744-.329.87-.51.964-.916.206-.895.211-2.251-.812-3.022a3.71 3.71 0 00-1.487-.625c-1.49-.288-2.965-.278-4.247.699a2.815 2.815 0 00-1.095 2.076c-.022.168-.022.34 0 .508H92.36s.015-.254.025-.36c.131-1.898 1.026-3.343 2.8-4.093.78-.322 1.612-.5 2.457-.527a14.275 14.275 0 013.276.254c1.262.255 2.259 1.018 2.67 2.27.253.774.394 1.58.418 2.395.051 2.544.018 5.087.018 7.63 0 .83.369 1.13 1.256 1.077.174 0 .402-.023.402-.023v1.643s-1.523.206-2.402-.168c-.88-.374-.985-1.043-1.026-1.821-.007-.11-.02-.232-.033-.4zm-.169-5.433a1.19 1.19 0 00-.198 0c-.769.2-1.538.427-2.328.6-1.418.305-2.859.56-4.266.92-.35.089-.672.266-.932.515s-.45.56-.55.905c-.593 2.053.894 3.612 2.784 3.693a7.371 7.371 0 002.651-.42c1.282-.44 2.282-1.322 2.603-2.66.228-.967.172-2 .238-3.004.013-.173-.002-.351-.002-.55zM44.27 16.157c0-1.237.623-3.59 1.538-5.21a13.295 13.295 0 014.308-4.578c1.656-1.091 3.471-1.691 5.49-1.358 1.717.285 2.871 1.462 2.602 3.416-.256 1.78-1.313 2.917-2.808 3.762-1.969 1.111-4.125 1.569-6.356 1.78-.485.043-.974.066-1.451.145-.064 0-.257.053-.257.053s-.053.222-.064.288c-.202 1.345-.256 2.686.77 3.775.838.9 1.943 1.164 3.133.958 1.964-.335 3.402-1.49 4.582-3.019l.818-.038s.02.081-.241.56a10.153 10.153 0 01-3.16 3.332 7.411 7.411 0 01-4.733 1.23c-1.579-.14-2.761-1.121-3.525-2.426-.3-.534-.656-1.277-.646-2.67zm3.333-2.887s.756-.054 1.008-.082c1.836-.21 3.561-.776 5.028-1.981 1.228-1.018 2.051-2.254 1.943-3.938-.064-.994-.748-1.625-1.761-1.541-1.013.084-1.903.852-3.077 2.16-1.174 1.307-2.67 3.596-3.141 5.382zm-8.082-6.598c.38-.413.845-.742 1.362-.965a4.046 4.046 0 011.64-.33h1.4v3.904s-1.76-.017-2.481.066a2.918 2.918 0 00-1.552.608c-.446.348-.78.82-.959 1.354a8.523 8.523 0 00-.469 2.569c-.064 2.136-.013 4.578-.028 6.725H34.17V5.718h4.036v2.467c.396-.54.836-1.045 1.315-1.513zm47.832 11.662a16.16 16.16 0 01-1.295 1.447 5.351 5.351 0 01-3.297 1.33 6.646 6.646 0 01-3.241-.473c-1.462-.763-2.605-1.465-2.605-5.865-.064-2.864-.029-6.036 0-8.903h1.948c.016 3.162 0 6.631.016 9.79 0 1.102.197 2.185 1.064 2.969 1.082.98 2.436 1.058 3.772.78 1.71-.353 2.54-1.419 3.076-2.98a6.6 6.6 0 00.477-2.239V5.863h1.908v14.864h-1.795l-.028-2.393zm45.133-.247l4.548-12.364h1.967s-6.6 17.242-7.031 18.212c-.215.488-.402 1.228-1.295 1.699-.892.47-3.712.224-3.712.224l.015-1.433s1.713.082 2.338-.08c.739-.192 1.026-.922 1.282-1.555.257-.633.908-2.271.908-2.271l-5.925-14.796h1.933l4.972 12.364zm-8.385 1.043v1.696s-1.695.028-2.425 0c-1.498-.053-2.382-.86-2.408-2.342-.064-3.582-.105-11.072-.105-11.072h-2.628v-1.71h2.612l.021-4.387h1.938l.021 4.388h2.997v1.711h-3.007v10.23c0 1.17.612 1.623 1.856 1.623.38-.005.758-.051 1.128-.137zM109.538 0h-1.962v20.748h1.962V0zm5.197 5.718h-1.9V20.75h1.9V5.718zM114.73 0h-1.916v3.057h1.916V0z" fill="#B0AFBE"/></svg>