<svg width="470" height="784" fill="none" xmlns="http://www.w3.org/2000/svg"><g clip-path="url(#clip0_1895:17220)"><rect x="74" y="6" width="320" height="685" rx="17.464" fill="#F2F2FA"/><g clip-path="url(#clip1_1895:17220)"><path fill="#fff" d="M87.362 91H380.59v92.328H87.362z"/><path d="M102.637 119.823h1.796v-6.558h.134l2.471 6.558h1.262l2.472-6.558h.133v6.558h1.797v-9.637h-2.311l-2.658 7.053h-.121l-2.664-7.053h-2.311v9.637zm15.02.154c2.151 0 3.099-1.242 3.327-2.164l.013-.067h-1.817l-.02.04c-.133.281-.608.735-1.462.735-1.036 0-1.684-.701-1.704-1.91h5.063v-.608c0-2.224-1.336-3.693-3.48-3.693s-3.513 1.502-3.513 3.84v.007c0 2.357 1.356 3.82 3.593 3.82zm-.046-6.205c.848 0 1.456.548 1.576 1.616h-3.173c.121-1.041.749-1.616 1.597-1.616zm7.24 6.165c1.035 0 1.816-.461 2.197-1.256h.12v1.142h1.95v-10.165h-1.95v3.987h-.12c-.367-.801-1.189-1.295-2.197-1.295-1.864 0-2.986 1.422-2.986 3.787v.013c0 2.351 1.149 3.787 2.986 3.787zm.661-1.616c-1.029 0-1.663-.815-1.663-2.171v-.013c0-1.343.634-2.171 1.663-2.171 1.028 0 1.676.828 1.676 2.177v.014c0 1.349-.641 2.164-1.676 2.164zm6.191-6.98c.601 0 1.095-.481 1.095-1.082a1.09 1.09 0 00-1.095-1.089c-.601 0-1.102.481-1.102 1.089 0 .601.501 1.082 1.102 1.082zm-.982 8.482h1.95v-7.353h-1.95v7.353zm6.726.154c1.917 0 3.065-1.029 3.266-2.632l.006-.04h-1.803l-.013.027c-.174.735-.648 1.115-1.449 1.115-1.042 0-1.623-.821-1.623-2.31v-.014c0-1.469.574-2.284 1.623-2.284.834 0 1.322.468 1.449 1.182l.007.014h1.816v-.021c-.173-1.643-1.329-2.704-3.279-2.704-2.304 0-3.6 1.395-3.6 3.813v.014c0 2.444 1.302 3.84 3.6 3.84zm6.378-.04c.962 0 1.737-.408 2.111-1.089h.12v.975h1.923v-5.022c0-1.57-1.102-2.491-3.052-2.491-1.85 0-3.065.854-3.219 2.143l-.007.061h1.804l.013-.027c.154-.434.601-.681 1.302-.681.802 0 1.236.36 1.236.995v.608l-1.777.106c-1.83.107-2.852.882-2.852 2.204v.014c0 1.336.996 2.204 2.398 2.204zm-.494-2.324v-.014c0-.534.407-.848 1.242-.901l1.483-.094v.541c0 .775-.675 1.369-1.576 1.369-.675 0-1.149-.34-1.149-.901zm6.198 2.21h1.95v-10.165h-1.95v10.165zm6.832 0h2.017v-3.526h1.65l1.797 3.526h2.284l-2.031-3.827c1.102-.434 1.744-1.496 1.744-2.731v-.014c0-1.897-1.256-3.065-3.447-3.065h-4.014v9.637zm2.017-4.996v-3.065h1.75c1.009 0 1.63.601 1.63 1.529v.014c0 .948-.595 1.522-1.603 1.522h-1.777zm9.852 5.15c2.15 0 3.099-1.242 3.326-2.164l.013-.067h-1.817l-.02.04c-.133.281-.607.735-1.462.735-1.036 0-1.683-.701-1.703-1.91h5.062v-.608c0-2.224-1.336-3.693-3.48-3.693-2.143 0-3.513 1.502-3.513 3.84v.007c0 2.357 1.356 3.82 3.594 3.82zm-.047-6.205c.848 0 1.456.548 1.576 1.616h-3.172c.12-1.041.748-1.616 1.596-1.616zm7.854 6.205c1.917 0 3.066-1.029 3.266-2.632l.007-.04h-1.803l-.014.027c-.173.735-.648 1.115-1.449 1.115-1.042 0-1.623-.821-1.623-2.31v-.014c0-1.469.574-2.284 1.623-2.284.835 0 1.322.468 1.449 1.182l.007.014h1.817v-.021c-.174-1.643-1.33-2.704-3.28-2.704-2.304 0-3.6 1.395-3.6 3.813v.014c0 2.444 1.303 3.84 3.6 3.84zm7.641 0c2.264 0 3.626-1.429 3.626-3.827v-.013c0-2.378-1.382-3.827-3.626-3.827-2.244 0-3.627 1.456-3.627 3.827v.013c0 2.391 1.363 3.827 3.627 3.827zm0-1.53c-1.042 0-1.63-.848-1.63-2.297v-.013c0-1.436.595-2.298 1.63-2.298 1.028 0 1.629.862 1.629 2.298v.013c0 1.449-.594 2.297-1.629 2.297zm4.789 1.376h1.95v-4.114c0-1.042.701-1.676 1.81-1.676.3 0 .601.046.895.113v-1.703a2.947 2.947 0 00-.728-.093c-.955 0-1.623.467-1.857 1.262h-.12v-1.142h-1.95v7.353zm7.981.114c1.035 0 1.816-.461 2.197-1.256h.12v1.142h1.951v-10.165h-1.951v3.987h-.12c-.367-.801-1.189-1.295-2.197-1.295-1.864 0-2.986 1.422-2.986 3.787v.013c0 2.351 1.149 3.787 2.986 3.787zm.661-1.616c-1.029 0-1.663-.815-1.663-2.171v-.013c0-1.343.634-2.171 1.663-2.171 1.028 0 1.676.828 1.676 2.177v.014c0 1.349-.641 2.164-1.676 2.164zm8.121 1.656c1.884 0 3.226-.949 3.226-2.405v-.006c0-1.089-.688-1.703-2.157-2.017l-1.222-.261c-.762-.167-1.035-.394-1.035-.788v-.006c0-.495.48-.809 1.155-.809.728 0 1.162.368 1.269.762l.007.033h1.81v-.027c-.081-1.182-1.149-2.143-3.079-2.143-1.837 0-3.066.921-3.066 2.304v.006c0 1.102.695 1.79 2.097 2.091l1.229.26c.748.167 1.042.414 1.042.809v.013c0 .487-.508.808-1.256.808-.768 0-1.215-.327-1.369-.781l-.013-.027h-1.917l.007.027c.14 1.262 1.275 2.157 3.272 2.157z" fill="#1D1D36"/><path d="M101.929 142.051h1.262l.969-2.759h3.833l.969 2.759h1.262l-3.553-9.638h-1.189l-3.553 9.638zm4.094-8.082h.107l1.509 4.302h-3.125l1.509-4.302zm5.383 8.082h1.162v-10.059h-1.162v10.059zm3.032 0h1.162v-10.059h-1.162v10.059zm9.357.127c2.051 0 3.32-1.416 3.32-3.72v-.014c0-2.311-1.269-3.72-3.32-3.72-2.05 0-3.319 1.409-3.319 3.72v.014c0 2.304 1.269 3.72 3.319 3.72zm0-1.029c-1.362 0-2.13-.995-2.13-2.691v-.014c0-1.703.768-2.691 2.13-2.691 1.363 0 2.131.988 2.131 2.691v.014c0 1.696-.768 2.691-2.131 2.691zm5.176.902h1.163v-6.238h1.636v-.962h-1.636v-.768c0-.788.333-1.196 1.162-1.196.207 0 .4.007.541.034v-.929a4.108 4.108 0 00-.775-.066c-1.369 0-2.091.688-2.091 2.124v.801h-1.195v.962h1.195v6.238zm8.095 2.524c1.276 0 1.87-.467 2.465-2.083l2.811-7.641h-1.222l-1.97 5.924h-.107l-1.977-5.924h-1.242l2.665 7.206-.134.428c-.26.828-.661 1.129-1.322 1.129a2.73 2.73 0 01-.481-.034v.955c.16.027.361.04.514.04zm9.077-2.397c2.05 0 3.319-1.416 3.319-3.72v-.014c0-2.311-1.269-3.72-3.319-3.72-2.051 0-3.32 1.409-3.32 3.72v.014c0 2.304 1.269 3.72 3.32 3.72zm0-1.029c-1.363 0-2.131-.995-2.131-2.691v-.014c0-1.703.768-2.691 2.131-2.691 1.362 0 2.13.988 2.13 2.691v.014c0 1.696-.768 2.691-2.13 2.691zm7.106 1.029c1.055 0 1.783-.434 2.137-1.203h.107v1.076h1.162v-7.2h-1.162v4.261c0 1.262-.674 2.037-1.943 2.037-1.149 0-1.617-.621-1.617-1.917v-4.381h-1.162v4.662c0 1.703.842 2.665 2.478 2.665zm5.149-.127h1.163v-4.462c0-1.055.788-1.756 1.896-1.756.254 0 .474.026.715.067v-1.129a3.91 3.91 0 00-.581-.047c-.975 0-1.65.441-1.924 1.196h-.106v-1.069h-1.163v7.2zm11.161.127c1.73 0 2.698-.929 2.992-2.231l.013-.074-1.149.007-.013.04c-.267.802-.882 1.229-1.85 1.229-1.282 0-2.11-1.062-2.11-2.718v-.014c0-1.622.814-2.664 2.11-2.664 1.035 0 1.676.574 1.857 1.282l.006.02h1.156l-.007-.04c-.214-1.282-1.262-2.291-3.012-2.291-2.017 0-3.299 1.456-3.299 3.693v.014c0 2.284 1.289 3.747 3.306 3.747zm4.348-.127h1.162v-10.059h-1.162v10.059zm3.58-8.589c.44 0 .801-.361.801-.802a.804.804 0 00-.801-.801.804.804 0 00-.802.801c0 .441.361.802.802.802zm-.588 8.589h1.162v-7.2h-1.162v7.2zm2.925 0h1.162v-4.261c0-1.263.728-2.037 1.877-2.037s1.683.621 1.683 1.916v4.382h1.162v-4.662c0-1.71-.901-2.665-2.518-2.665-1.062 0-1.736.448-2.097 1.209h-.107v-1.082h-1.162v7.2zm8.175-8.589a.804.804 0 00.801-.802c0-.44-.36-.801-.801-.801a.803.803 0 00-.801.801c0 .441.36.802.801.802zm-.588 8.589h1.162v-7.2h-1.162v7.2zm5.871.127c1.73 0 2.698-.929 2.992-2.231l.013-.074-1.148.007-.014.04c-.267.802-.881 1.229-1.85 1.229-1.282 0-2.11-1.062-2.11-2.718v-.014c0-1.622.815-2.664 2.11-2.664 1.036 0 1.677.574 1.857 1.282l.007.02h1.155l-.007-.04c-.213-1.282-1.262-2.291-3.012-2.291-2.017 0-3.299 1.456-3.299 3.693v.014c0 2.284 1.289 3.747 3.306 3.747zm6.258 0c.968 0 1.723-.421 2.177-1.189h.107v1.062h1.162v-4.929c0-1.496-.981-2.398-2.738-2.398-1.536 0-2.631.761-2.818 1.89l-.007.04h1.162l.007-.02c.187-.561.754-.881 1.616-.881 1.075 0 1.616.481 1.616 1.369v.654l-2.064.127c-1.676.1-2.624.842-2.624 2.124v.013c0 1.31 1.035 2.138 2.404 2.138zm-1.216-2.164V140c0-.714.481-1.102 1.577-1.168l1.923-.121v.655c0 1.028-.861 1.803-2.044 1.803-.834 0-1.456-.427-1.456-1.155zm6.426 2.037h1.162v-10.059h-1.162v10.059zm9.056.127c1.002 0 1.803-.475 2.244-1.276h.107v1.149h1.162v-10.059h-1.162v3.994h-.107c-.394-.768-1.255-1.262-2.244-1.262-1.83 0-3.019 1.463-3.019 3.72v.014c0 2.244 1.196 3.72 3.019 3.72zm.267-1.029c-1.316 0-2.097-1.015-2.097-2.691v-.014c0-1.676.781-2.691 2.097-2.691 1.309 0 2.111 1.028 2.111 2.691v.014c0 1.663-.802 2.691-2.111 2.691zm7.026 1.029c.969 0 1.723-.421 2.178-1.189h.106v1.062h1.163v-4.929c0-1.496-.982-2.398-2.739-2.398-1.536 0-2.631.761-2.818 1.89l-.007.04h1.162l.007-.02c.187-.561.755-.881 1.616-.881 1.076 0 1.616.481 1.616 1.369v.654l-2.063.127c-1.677.1-2.625.842-2.625 2.124v.013c0 1.31 1.035 2.138 2.404 2.138zm-1.215-2.164V140c0-.714.481-1.102 1.576-1.168l1.923-.121v.655c0 1.028-.861 1.803-2.043 1.803-.835 0-1.456-.427-1.456-1.155zm8.916 2.09c.227 0 .448-.027.675-.067v-.988c-.214.02-.328.027-.535.027-.748 0-1.042-.341-1.042-1.189v-4.074h1.577v-.962h-1.577v-1.863h-1.202v1.863h-1.135v.962h1.135v4.368c0 1.376.621 1.923 2.104 1.923zm3.961.074c.968 0 1.723-.421 2.177-1.189h.107v1.062h1.162v-4.929c0-1.496-.982-2.398-2.738-2.398-1.537 0-2.632.761-2.819 1.89l-.007.04h1.163l.006-.02c.187-.561.755-.881 1.616-.881 1.076 0 1.617.481 1.617 1.369v.654l-2.064.127c-1.676.1-2.625.842-2.625 2.124v.013c0 1.31 1.035 2.138 2.405 2.138zm-1.216-2.164V140c0-.714.481-1.102 1.576-1.168l1.924-.121v.655c0 1.028-.862 1.803-2.044 1.803-.835 0-1.456-.427-1.456-1.155zm10.406-6.552c.44 0 .801-.361.801-.802a.804.804 0 00-.801-.801.804.804 0 00-.802.801c0 .441.361.802.802.802zm-.588 8.589h1.162v-7.2h-1.162v7.2zm2.925 0h1.162v-4.261c0-1.263.728-2.037 1.877-2.037s1.683.621 1.683 1.916v4.382h1.162v-4.662c0-1.71-.901-2.665-2.518-2.665-1.062 0-1.736.448-2.097 1.209h-.107v-1.082h-1.162v7.2zm13.952.127c2.051 0 3.32-1.416 3.32-3.72v-.014c0-2.311-1.269-3.72-3.32-3.72-2.05 0-3.319 1.409-3.319 3.72v.014c0 2.304 1.269 3.72 3.319 3.72zm0-1.029c-1.362 0-2.13-.995-2.13-2.691v-.014c0-1.703.768-2.691 2.13-2.691 1.363 0 2.131.988 2.131 2.691v.014c0 1.696-.768 2.691-2.131 2.691zm4.696.902h1.162v-4.261c0-1.263.728-2.037 1.876-2.037 1.149 0 1.684.621 1.684 1.916v4.382h1.162v-4.662c0-1.71-.902-2.665-2.518-2.665-1.062 0-1.737.448-2.097 1.209h-.107v-1.082h-1.162v7.2zm10.499.127c1.696 0 2.725-.962 2.972-1.937l.013-.054h-1.162l-.027.06c-.193.435-.794.895-1.77.895-1.282 0-2.103-.868-2.137-2.357h5.183v-.454c0-2.151-1.189-3.607-3.146-3.607-1.957 0-3.226 1.523-3.226 3.747v.007c0 2.257 1.243 3.7 3.3 3.7zm-.08-6.419c1.062 0 1.85.675 1.97 2.097h-3.981c.127-1.369.942-2.097 2.011-2.097zm10.906 6.419c1.73 0 2.698-.929 2.992-2.231l.014-.074-1.149.007-.014.04c-.267.802-.881 1.229-1.85 1.229-1.282 0-2.11-1.062-2.11-2.718v-.014c0-1.622.815-2.664 2.11-2.664 1.036 0 1.677.574 1.857 1.282l.007.02h1.155l-.006-.04c-.214-1.282-1.263-2.291-3.013-2.291-2.017 0-3.299 1.456-3.299 3.693v.014c0 2.284 1.289 3.747 3.306 3.747zm7.24 0c2.05 0 3.319-1.416 3.319-3.72v-.014c0-2.311-1.269-3.72-3.319-3.72s-3.319 1.409-3.319 3.72v.014c0 2.304 1.269 3.72 3.319 3.72zm0-1.029c-1.363 0-2.131-.995-2.131-2.691v-.014c0-1.703.768-2.691 2.131-2.691 1.362 0 2.131.988 2.131 2.691v.014c0 1.696-.769 2.691-2.131 2.691zm4.695.902h1.162v-4.261c0-1.263.728-2.037 1.877-2.037s1.683.621 1.683 1.916v4.382h1.162v-4.662c0-1.71-.901-2.665-2.518-2.665-1.062 0-1.736.448-2.097 1.209h-.107v-1.082h-1.162v7.2zm9.331 0h1.175l2.665-7.2h-1.229l-1.97 5.931h-.107l-1.97-5.931h-1.229l2.665 7.2zm7.62.127c1.697 0 2.725-.962 2.972-1.937l.014-.054h-1.163l-.026.06c-.194.435-.795.895-1.77.895-1.283 0-2.104-.868-2.137-2.357h5.182v-.454c0-2.151-1.188-3.607-3.145-3.607s-3.226 1.523-3.226 3.747v.007c0 2.257 1.242 3.7 3.299 3.7zm-.08-6.419c1.062 0 1.85.675 1.97 2.097h-3.98c.127-1.369.941-2.097 2.01-2.097zm4.528 6.292h1.162v-4.261c0-1.263.728-2.037 1.877-2.037s1.683.621 1.683 1.916v4.382h1.162v-4.662c0-1.71-.901-2.665-2.518-2.665-1.062 0-1.736.448-2.097 1.209h-.107v-1.082h-1.162v7.2zm8.175-8.589a.804.804 0 00.802-.802.804.804 0 00-.802-.801.803.803 0 00-.801.801c0 .441.36.802.801.802zm-.588 8.589h1.162v-7.2h-1.162v7.2zm5.864.127c1.697 0 2.725-.962 2.972-1.937l.014-.054h-1.162l-.027.06c-.194.435-.795.895-1.77.895-1.282 0-2.104-.868-2.137-2.357h5.183v-.454c0-2.151-1.189-3.607-3.146-3.607-1.957 0-3.226 1.523-3.226 3.747v.007c0 2.257 1.242 3.7 3.299 3.7zm-.08-6.419c1.062 0 1.85.675 1.97 2.097h-3.98c.127-1.369.942-2.097 2.01-2.097zm4.528 6.292h1.163v-4.261c0-1.263.728-2.037 1.876-2.037 1.149 0 1.683.621 1.683 1.916v4.382h1.163v-4.662c0-1.71-.902-2.665-2.518-2.665-1.062 0-1.737.448-2.098 1.209h-.106v-1.082h-1.163v7.2zm10.119.053c.227 0 .447-.027.675-.067v-.988c-.214.02-.328.027-.535.027-.748 0-1.042-.341-1.042-1.189v-4.074h1.577v-.962h-1.577v-1.863h-1.202v1.863h-1.135v.962h1.135v4.368c0 1.376.621 1.923 2.104 1.923zm-242.996 21.947h1.162v-10.059h-1.162v10.059zm5.924.127c2.05 0 3.319-1.416 3.319-3.72v-.014c0-2.311-1.269-3.72-3.319-3.72-2.051 0-3.32 1.409-3.32 3.72v.014c0 2.304 1.269 3.72 3.32 3.72zm0-1.029c-1.363 0-2.131-.995-2.131-2.691v-.014c0-1.703.768-2.691 2.131-2.691 1.362 0 2.13.988 2.13 2.691v.014c0 1.696-.768 2.691-2.13 2.691zm7.64 1.029c1.73 0 2.699-.929 2.993-2.231l.013-.074-1.149.007-.013.04c-.267.802-.882 1.229-1.85 1.229-1.283 0-2.111-1.062-2.111-2.718v-.014c0-1.622.815-2.664 2.111-2.664 1.035 0 1.676.574 1.856 1.282l.007.02h1.156l-.007-.04c-.214-1.282-1.262-2.291-3.012-2.291-2.017 0-3.3 1.456-3.3 3.693v.014c0 2.284 1.289 3.747 3.306 3.747zm6.259 0c.968 0 1.723-.421 2.177-1.189h.107v1.062h1.162v-4.929c0-1.496-.982-2.398-2.739-2.398-1.536 0-2.631.761-2.818 1.89l-.007.04h1.162l.007-.02c.187-.561.755-.881 1.616-.881 1.076 0 1.617.481 1.617 1.369v.654l-2.064.127c-1.676.1-2.625.842-2.625 2.124v.013c0 1.31 1.035 2.138 2.405 2.138zm-1.216-2.164V162c0-.714.481-1.102 1.576-1.168l1.924-.121v.655c0 1.028-.862 1.803-2.044 1.803-.835 0-1.456-.427-1.456-1.155zm8.916 2.09c.227 0 .448-.027.675-.067v-.988c-.214.02-.327.027-.535.027-.748 0-1.041-.341-1.041-1.189v-4.074h1.576v-.962h-1.576v-1.863h-1.203v1.863h-1.135v.962h1.135v4.368c0 1.376.622 1.923 2.104 1.923zm2.598-8.642a.804.804 0 00.802-.802.804.804 0 00-.802-.801.803.803 0 00-.801.801c0 .441.36.802.801.802zm-.587 8.589h1.162v-7.2h-1.162v7.2zm5.884.127c2.05 0 3.319-1.416 3.319-3.72v-.014c0-2.311-1.269-3.72-3.319-3.72-2.051 0-3.32 1.409-3.32 3.72v.014c0 2.304 1.269 3.72 3.32 3.72zm0-1.029c-1.363 0-2.131-.995-2.131-2.691v-.014c0-1.703.768-2.691 2.131-2.691 1.362 0 2.13.988 2.13 2.691v.014c0 1.696-.768 2.691-2.13 2.691zm4.695.902h1.162v-4.261c0-1.263.728-2.037 1.877-2.037 1.148 0 1.683.621 1.683 1.916v4.382h1.162v-4.662c0-1.71-.902-2.665-2.518-2.665-1.062 0-1.737.448-2.097 1.209h-.107v-1.082h-1.162v7.2zm8.509.067a.87.87 0 00.868-.869.866.866 0 00-.868-.868.87.87 0 00-.869.868c0 .475.394.869.869.869z" fill="#6A677E"/><path d="M157.503 164.051h5.851v-1.082h-4.648v-8.556h-1.203v9.638zm9.805.127c1.696 0 2.725-.962 2.972-1.937l.013-.054h-1.162l-.026.06c-.194.435-.795.895-1.77.895-1.283 0-2.104-.868-2.138-2.357h5.183v-.454c0-2.151-1.189-3.607-3.146-3.607-1.956 0-3.225 1.523-3.225 3.747v.007c0 2.257 1.242 3.7 3.299 3.7zm-.08-6.419c1.062 0 1.85.675 1.97 2.097h-3.981c.127-1.369.942-2.097 2.011-2.097zm6.505 6.419c.968 0 1.723-.421 2.177-1.189h.107v1.062h1.162v-4.929c0-1.496-.982-2.398-2.738-2.398-1.536 0-2.632.761-2.819 1.89l-.006.04h1.162l.007-.02c.187-.561.754-.881 1.616-.881 1.075 0 1.616.481 1.616 1.369v.654l-2.064.127c-1.676.1-2.624.842-2.624 2.124v.013c0 1.31 1.035 2.138 2.404 2.138zm-1.216-2.164V162c0-.714.481-1.102 1.577-1.168l1.923-.121v.655c0 1.028-.861 1.803-2.044 1.803-.834 0-1.456-.427-1.456-1.155zm6.359 2.037h1.162v-4.462c0-1.055.788-1.756 1.897-1.756.253 0 .474.026.714.067v-1.129a3.886 3.886 0 00-.581-.047c-.975 0-1.649.441-1.923 1.196h-.107v-1.069h-1.162v7.2zm4.915 0h1.162v-4.261c0-1.263.728-2.037 1.877-2.037s1.683.621 1.683 1.916v4.382h1.162v-4.662c0-1.71-.901-2.665-2.518-2.665-1.061 0-1.736.448-2.097 1.209h-.107v-1.082h-1.162v7.2zm11.141 0h1.122v-7.36h.073l3.046 7.36h1.015l3.045-7.36h.074v7.36h1.122v-9.638h-1.396l-3.299 8.042h-.107l-3.299-8.042h-1.396v9.638zm14.339.127c2.051 0 3.319-1.416 3.319-3.72v-.014c0-2.311-1.268-3.72-3.319-3.72-2.05 0-3.319 1.409-3.319 3.72v.014c0 2.304 1.269 3.72 3.319 3.72zm0-1.029c-1.362 0-2.13-.995-2.13-2.691v-.014c0-1.703.768-2.691 2.13-2.691 1.363 0 2.131.988 2.131 2.691v.014c0 1.696-.768 2.691-2.131 2.691zm4.695.902h1.162v-4.462c0-1.055.789-1.756 1.897-1.756.254 0 .474.026.715.067v-1.129a3.91 3.91 0 00-.581-.047c-.975 0-1.65.441-1.924 1.196h-.107v-1.069h-1.162v7.2zm7.521.127c1.696 0 2.725-.962 2.972-1.937l.013-.054h-1.162l-.027.06c-.193.435-.794.895-1.77.895-1.282 0-2.103-.868-2.137-2.357h5.183v-.454c0-2.151-1.189-3.607-3.146-3.607-1.957 0-3.226 1.523-3.226 3.747v.007c0 2.257 1.243 3.7 3.3 3.7zm-.08-6.419c1.061 0 1.85.675 1.97 2.097h-3.981c.127-1.369.942-2.097 2.011-2.097z" fill="#4B5FF7"/><path fill="#fff" d="M87.362 184.183H380.59v63.262H87.362z"/><g clip-path="url(#clip2_1895:17220)"><path opacity=".35" d="M128.654 214.361c-7.011-4.446-2.138-16.671-11.285-15.645-5.813.599-4.873 5.3-9.575 7.181-5.642 2.223-8.292 4.873-7.352 9.148 1.624 8.036 9.489 5.385 13.251 10.686 4.189 5.898 9.489 7.779 15.559 4.958 6.07-2.65 6.412-11.797-.598-16.328z" fill="#FFF279"/><path d="M123.866 217.523c-1.368 3.847-5.642 5.813-9.489 4.446-3.847-1.368-5.813-5.643-4.446-9.49a6.584 6.584 0 011.197-2.137c1.967-2.394 5.215-3.419 8.293-2.308 2.564.94 4.36 3.249 4.787 5.813.257 1.112.171 2.394-.342 3.676z" fill="#FFA51F"/><path d="M124.211 213.795c-.598.342-1.282.684-2.052 1.026-2.393.94-1.966 3.334-4.872 3.676-4.617.513-2.138-5.642-5.728-7.865-.171-.086-.276-.186-.447-.272 2.07-2.476 5.235-3.442 8.313-2.33a7.48 7.48 0 014.786 5.765z" fill="#FFD443"/><path d="M123.524 228.039a1.71 1.71 0 100-3.42 1.71 1.71 0 000 3.42z" fill="#FFA51F"/><path d="M130.021 217.523a2.565 2.565 0 10.001-5.129 2.565 2.565 0 00-.001 5.129z" fill="#FFD443"/><path d="M123.524 205.383a1.709 1.709 0 10.002-3.418 1.709 1.709 0 00-.002 3.418z" fill="#FFA51F"/><path d="M110.444 206.239a2.565 2.565 0 100-5.13 2.565 2.565 0 000 5.13z" fill="#FFD443"/><path d="M103.862 216.669a1.71 1.71 0 10-.001-3.421 1.71 1.71 0 00.001 3.421z" fill="#FFA51F"/><path d="M110.444 228.893a2.565 2.565 0 10.001-5.129 2.565 2.565 0 00-.001 5.129z" fill="#FFD443"/><path d="M116.942 219.233a4.274 4.274 0 100-8.548 4.274 4.274 0 000 8.548z" fill="#FFF279"/><path opacity=".75" d="M116.942 212.223c1.538 0 2.735 1.282 2.735 2.735" stroke="#FFFCE1" stroke-width="1.282" stroke-miterlimit="10" stroke-linecap="round"/></g><path d="M154.652 212.151h1.589l-3.48-9.637h-1.609l-3.48 9.637h1.536l.889-2.558h3.673l.882 2.558zm-2.772-7.887h.113l1.396 4.074h-2.912l1.403-4.074zm5.517 7.887h1.436V202.04h-1.436v10.111zm3.232 0h1.436V202.04h-1.436v10.111zm6.151-6.191c1.062 0 1.757.741 1.79 1.884h-3.673c.08-1.136.821-1.884 1.883-1.884zm1.784 4.228c-.268.567-.862.881-1.73.881-1.149 0-1.89-.808-1.937-2.083v-.081h5.136v-.5c0-2.285-1.222-3.667-3.246-3.667-2.05 0-3.353 1.476-3.353 3.8s1.276 3.754 3.36 3.754c1.663 0 2.825-.802 3.152-2.104h-1.382zm2.765 1.963h1.436v-4.294c0-1.022.768-1.71 1.856-1.71.254 0 .682.047.802.087v-1.416a3.044 3.044 0 00-.641-.06c-.949 0-1.757.521-1.964 1.235h-.107v-1.115h-1.382v7.273zm7.907-1.349c-1.235 0-1.93-.928-1.93-2.377 0-1.45.695-2.378 1.93-2.378 1.223 0 1.971.928 1.971 2.378 0 1.456-.742 2.377-1.971 2.377zm.02 4.128c2.057 0 3.36-1.055 3.36-2.719v-7.333h-1.376v1.162h-.114c-.407-.788-1.282-1.282-2.284-1.282-1.856 0-3.019 1.456-3.019 3.673 0 2.178 1.149 3.614 3.006 3.614 1.002 0 1.803-.435 2.244-1.223h.107v1.396c0 .962-.708 1.53-1.904 1.53-.968 0-1.576-.341-1.696-.869h-1.469c.153 1.236 1.329 2.051 3.145 2.051zm5.043-2.779h1.429v-7.273h-1.429v7.273zm.715-8.549c.534 0 .928-.38.928-.874 0-.501-.394-.882-.928-.882-.535 0-.929.381-.929.882 0 .494.394.874.929.874zm5.383 2.358c1.062 0 1.756.741 1.79 1.884h-3.674c.08-1.136.822-1.884 1.884-1.884zm1.783 4.228c-.267.567-.862.881-1.73.881-1.149 0-1.89-.808-1.937-2.083v-.081h5.136v-.5c0-2.285-1.222-3.667-3.246-3.667-2.05 0-3.352 1.476-3.352 3.8s1.275 3.754 3.359 3.754c1.663 0 2.825-.802 3.152-2.104h-1.382zm2.598-3.253c0 1.082.641 1.703 2.024 2.031l1.269.293c.728.174 1.068.455 1.068.889 0 .581-.634.982-1.529.982-.868 0-1.403-.348-1.583-.909h-1.436c.127 1.289 1.256 2.071 2.985 2.071 1.737 0 3.013-.915 3.013-2.285 0-1.068-.648-1.663-2.031-1.983l-1.209-.281c-.788-.18-1.155-.454-1.155-.888 0-.568.608-.948 1.409-.948.815 0 1.336.34 1.47.875h1.375c-.14-1.283-1.209-2.044-2.845-2.044-1.643 0-2.825.908-2.825 2.197z" fill="#1D1D36"/><path d="M147.966 226.184v.005h.872v-.005c0-.851.571-1.417 1.417-1.417.797 0 1.413.556 1.413 1.277 0 .581-.226.972-1.157 1.984l-2.5 2.73v.621h4.679v-.812h-3.387v-.08l1.739-1.868c1.187-1.272 1.527-1.859 1.527-2.61 0-1.147-.991-2.029-2.289-2.029-1.342 0-2.314.922-2.314 2.204zm10.159-1.232h1.738c.931 0 1.492.516 1.492 1.383 0 .886-.526 1.382-1.452 1.382h-1.778v-2.765zm0 3.567h1.778l1.548 2.86h1.057l-1.674-3.001c.907-.285 1.453-1.067 1.453-2.073 0-1.303-.912-2.154-2.304-2.154h-2.76v7.228h.902v-2.86zm7.694-1.874c.856 0 1.427.631 1.447 1.588h-2.975c.065-.957.666-1.588 1.528-1.588zm1.422 3.336c-.225.476-.696.732-1.392.732-.917 0-1.513-.677-1.558-1.743v-.041h3.882v-.33c0-1.678-.887-2.715-2.344-2.715-1.483 0-2.435 1.102-2.435 2.8 0 1.708.937 2.79 2.435 2.79 1.182 0 2.013-.566 2.274-1.493h-.862zm6.752-2.349c-.15-.962-.951-1.748-2.264-1.748-1.512 0-2.474 1.092-2.474 2.775 0 1.718.967 2.815 2.479 2.815 1.298 0 2.104-.731 2.259-1.723h-.871c-.16.611-.666.947-1.393.947-.961 0-1.583-.792-1.583-2.039 0-1.222.612-1.999 1.583-1.999.777 0 1.253.436 1.393.972h.871zm3.492 3.842c1.538 0 2.489-1.062 2.489-2.795 0-1.738-.951-2.795-2.489-2.795-1.538 0-2.49 1.057-2.49 2.795 0 1.733.952 2.795 2.49 2.795zm0-.776c-1.022 0-1.598-.742-1.598-2.019 0-1.282.576-2.019 1.598-2.019 1.022 0 1.598.737 1.598 2.019 0 1.277-.576 2.019-1.598 2.019zm3.842.681h.861v-3.346c0-.762.596-1.313 1.418-1.313.17 0 .481.03.551.051v-.862a3.711 3.711 0 00-.431-.025c-.716 0-1.337.371-1.498.897h-.08v-.802h-.821v5.4zm5.755.095c.747 0 1.388-.356 1.728-.957h.081v.862h.821v-7.544h-.861v2.996h-.076c-.305-.591-.941-.947-1.693-.947-1.372 0-2.269 1.102-2.269 2.795 0 1.698.887 2.795 2.269 2.795zm.201-4.814c.976 0 1.588.782 1.588 2.019 0 1.247-.607 2.019-1.588 2.019-.987 0-1.578-.757-1.578-2.019 0-1.257.596-2.019 1.578-2.019zm3.977.797c0 .781.461 1.217 1.473 1.462l.926.226c.576.14.857.391.857.761 0 .496-.521.842-1.247.842-.692 0-1.122-.291-1.268-.747h-.886c.095.897.921 1.473 2.124 1.473 1.227 0 2.163-.666 2.163-1.633 0-.776-.49-1.217-1.507-1.463l-.832-.2c-.636-.155-.936-.386-.936-.756 0-.481.5-.807 1.142-.807.651 0 1.072.286 1.187.717h.851c-.115-.887-.901-1.448-2.033-1.448-1.147 0-2.014.676-2.014 1.573z" fill="#6A677E"/><path d="M355.57 221.312l5.13-5.129-5.13-5.129" stroke="#4B5FF7" stroke-width="1.71" stroke-linecap="round" stroke-linejoin="round"/><path fill="#fff" d="M87.362 248.3H380.59v63.262H87.362z"/><g clip-path="url(#clip3_1895:17220)"><path d="M117.113 294.122h-1.625v1.966h1.625v-1.966z" fill="#8296FF"/><path opacity=".2" d="M105.401 279.418c-8.72-3.761-5.557-16.157 3.419-16.584 9.318-.855 6.754 10.6 11.114 12.994 4.36 2.394 6.24-2.565 10.344 1.111 4.103 3.676 3.847 8.549 1.368 12.567-2.479 4.018-6.839 5.813-6.839 5.813-2.907 1.112-6.327 1.454-9.746-3.248-2.65-3.676-2.736-9.66-9.66-12.653z" fill="#8296FF"/><path d="M120.276 291.044a4.282 4.282 0 01-1.197.855c-.599.342-1.966.769-2.821.769-1.026 0-2.223-.341-2.822-.683-2.051-1.112-2.479-2.993-2.992-5.215-.342-1.368-.684-2.992-1.538-4.617-.513-1.026-1.197-1.966-1.967-2.992-1.966-2.65-3.847-5.471-2.906-9.404 1.111-4.445 5.556-5.043 7.779-4.702l-.256 1.625c-.171 0-4.873-.684-5.899 3.419-.769 3.163.855 5.557 2.65 7.951a25.935 25.935 0 012.052 3.248c.94 1.881 1.368 3.505 1.624 5.044.513 2.223.855 3.42 2.137 4.104.428.171 1.368.513 2.052.513.684 0 1.71-.342 2.052-.513 1.368-.684 1.624-1.881 2.223-4.104.342-1.453.769-3.163 1.709-5.044.599-1.111 1.368-2.137 2.052-3.248 1.795-2.479 3.42-4.788 2.65-7.951-1.026-4.103-5.727-3.59-5.898-3.505l-.257-1.624c2.223-.342 6.668.256 7.78 4.787.94 4.018-1.026 6.669-2.907 9.319-.769 1.026-1.453 1.966-1.966 2.992-.855 1.71-1.197 3.248-1.539 4.616-.342 1.71-.684 3.249-1.795 4.36z" fill="#8296FF"/><path d="M123.097 281.726l-1.283-.684c-.94 1.881-1.367 3.762-1.709 5.129-.513 2.138-.77 3.163-1.881 3.762-.342.171-1.197.427-1.795.513-.599 0-1.454-.342-1.796-.513-1.111-.599-1.453-1.624-1.88-3.762-.342-1.453-.77-3.248-1.71-5.129l-1.454.684-1.025.513c.854 1.624 1.196 3.163 1.453 4.531.513 2.222 1.026 4.36 3.248 5.557.684.342 1.967.769 2.993.769 1.025 0 2.308-.427 2.992-.769 2.222-1.197 2.735-3.335 3.248-5.557.342-1.368.684-2.907 1.454-4.531l-.855-.513zm-10.173-14.618a1.91 1.91 0 000-2.736 1.91 1.91 0 00-2.736 0 1.91 1.91 0 000 2.736 1.91 1.91 0 002.736 0zm9.489.085a1.91 1.91 0 000-2.736 1.91 1.91 0 00-2.736 0 1.91 1.91 0 000 2.736 1.91 1.91 0 002.736 0z" fill="#3D4DCD"/><path d="M117.711 290.959h-2.736v3.249h2.736v-3.249z" fill="#3D4DCD"/></g><path d="M152.367 276.502c2.151 0 3.734-1.269 4.001-3.172h-1.489c-.268 1.089-1.236 1.776-2.512 1.776-1.736 0-2.818-1.409-2.818-3.653 0-2.251 1.082-3.66 2.812-3.66 1.269 0 2.237.761 2.518 1.944h1.489c-.24-1.964-1.883-3.34-4.007-3.34-2.678 0-4.342 1.93-4.342 5.056 0 3.119 1.67 5.049 4.348 5.049zm8.449-.093c2.124 0 3.426-1.423 3.426-3.78 0-2.345-1.309-3.774-3.426-3.774-2.124 0-3.433 1.429-3.433 3.774 0 2.357 1.303 3.78 3.433 3.78zm0-1.276c-1.249 0-1.95-.915-1.95-2.504 0-1.577.701-2.498 1.95-2.498 1.242 0 1.95.921 1.95 2.498 0 1.582-.708 2.504-1.95 2.504zm4.729 1.136h1.436v-4.255c0-1.135.674-1.843 1.736-1.843 1.062 0 1.57.581 1.57 1.75v4.348h1.436v-4.709c0-1.73-.895-2.705-2.518-2.705-1.096 0-1.817.488-2.171 1.296h-.107v-1.156h-1.382v7.274zm10.432.12c1.002 0 1.85-.474 2.284-1.269h.114v1.149h1.376v-10.112h-1.436v3.994h-.107c-.394-.802-1.236-1.276-2.231-1.276-1.837 0-3.019 1.456-3.019 3.754 0 2.304 1.169 3.76 3.019 3.76zm.408-6.225c1.202 0 1.956.955 1.956 2.471 0 1.523-.748 2.465-1.956 2.465-1.216 0-1.944-.929-1.944-2.471 0-1.53.735-2.465 1.944-2.465zm5.122 6.105h1.429v-7.274h-1.429v7.274zm.715-8.549c.534 0 .928-.381.928-.875 0-.501-.394-.882-.928-.882-.535 0-.929.381-.929.882 0 .494.394.875.929.875zm2.905-.535v1.844h-1.155v1.209h1.155v4.107c0 1.403.635 1.964 2.231 1.964.28 0 .548-.034.781-.074v-1.195c-.2.02-.327.033-.547.033-.715 0-1.029-.334-1.029-1.095v-3.74h1.576v-1.209h-1.576v-1.844h-1.436zm4.301 9.084h1.43v-7.274h-1.43v7.274zm.715-8.549c.534 0 .928-.381.928-.875 0-.501-.394-.882-.928-.882s-.928.381-.928.882c0 .494.394.875.928.875zm5.47 8.689c2.124 0 3.426-1.423 3.426-3.78 0-2.345-1.309-3.774-3.426-3.774-2.124 0-3.433 1.429-3.433 3.774 0 2.357 1.302 3.78 3.433 3.78zm0-1.276c-1.249 0-1.95-.915-1.95-2.504 0-1.577.701-2.498 1.95-2.498 1.242 0 1.95.921 1.95 2.498 0 1.582-.708 2.504-1.95 2.504zm4.729 1.136h1.435v-4.255c0-1.135.675-1.843 1.737-1.843s1.569.581 1.569 1.75v4.348h1.436v-4.709c0-1.73-.895-2.705-2.517-2.705-1.096 0-1.817.488-2.171 1.296h-.107v-1.156h-1.382v7.274zm7.607-5.217c0 1.082.641 1.703 2.023 2.031l1.269.294c.728.173 1.069.454 1.069.888 0 .581-.635.982-1.529.982-.869 0-1.403-.348-1.583-.909h-1.436c.127 1.289 1.255 2.071 2.985 2.071 1.737 0 3.012-.915 3.012-2.284 0-1.069-.648-1.663-2.03-1.984l-1.209-.28c-.788-.181-1.155-.455-1.155-.889 0-.567.607-.948 1.409-.948.815 0 1.336.34 1.469.875h1.376c-.14-1.283-1.209-2.044-2.845-2.044-1.643 0-2.825.908-2.825 2.197z" fill="#1D1D36"/><path d="M149.739 295.496h.902v-7.228h-.897l-1.923 1.382v.952l1.838-1.332h.08v6.226zm6.973-6.427h1.738c.932 0 1.493.516 1.493 1.383 0 .887-.526 1.382-1.453 1.382h-1.778v-2.765zm0 3.567h1.778l1.548 2.86h1.057l-1.673-3c.907-.286 1.453-1.067 1.453-2.074 0-1.303-.912-2.154-2.305-2.154h-2.76v7.228h.902v-2.86zm7.694-1.874c.857 0 1.428.632 1.448 1.588h-2.976c.065-.956.666-1.588 1.528-1.588zm1.423 3.337c-.226.475-.697.731-1.393.731-.917 0-1.513-.676-1.558-1.743v-.04h3.882v-.331c0-1.678-.886-2.715-2.344-2.715-1.483 0-2.434 1.102-2.434 2.8 0 1.708.936 2.79 2.434 2.79 1.182 0 2.014-.566 2.274-1.492h-.861zm6.752-2.35c-.15-.961-.952-1.748-2.264-1.748-1.513 0-2.475 1.092-2.475 2.775 0 1.718.967 2.815 2.48 2.815 1.297 0 2.104-.731 2.259-1.723h-.872c-.16.611-.666.947-1.392.947-.962 0-1.583-.792-1.583-2.039 0-1.222.611-1.999 1.583-1.999.776 0 1.252.436 1.392.972h.872zm3.491 3.842c1.538 0 2.49-1.062 2.49-2.795 0-1.738-.952-2.795-2.49-2.795-1.538 0-2.489 1.057-2.489 2.795 0 1.733.951 2.795 2.489 2.795zm0-.776c-1.022 0-1.598-.741-1.598-2.019 0-1.282.576-2.019 1.598-2.019 1.022 0 1.598.737 1.598 2.019 0 1.278-.576 2.019-1.598 2.019zm3.842.681h.862v-3.346c0-.761.596-1.312 1.417-1.312.171 0 .481.03.551.05v-.862a3.693 3.693 0 00-.43-.025c-.717 0-1.338.371-1.498.897h-.08v-.802h-.822v5.4zm5.756.095c.746 0 1.387-.355 1.728-.956h.08v.861h.822v-7.544h-.862v2.996h-.075c-.306-.591-.942-.947-1.693-.947-1.373 0-2.269 1.102-2.269 2.795 0 1.698.886 2.795 2.269 2.795zm.2-4.814c.977 0 1.588.782 1.588 2.019 0 1.247-.606 2.019-1.588 2.019-.987 0-1.578-.757-1.578-2.019 0-1.257.596-2.019 1.578-2.019z" fill="#6A677E"/><path d="M355.798 285.06l5.13-5.129-5.13-5.129" stroke="#4B5FF7" stroke-width="1.71" stroke-linecap="round" stroke-linejoin="round"/><path fill="#fff" d="M87.362 312.417H380.59v63.262H87.362z"/><g clip-path="url(#clip4_1895:17220)"><path opacity=".25" d="M106.17 344.39c-8.72-3.676-5.557-16.158 3.42-16.5 9.318-.855 6.753 10.601 11.113 12.995 4.36 2.393 6.241-2.565 10.344 1.111 4.104 3.676 3.847 8.549 1.368 12.567-2.479 4.018-6.839 5.813-6.839 5.813-2.907 1.111-6.326 1.453-9.746-3.249-2.65-3.761-2.735-9.745-9.66-12.737z" fill="#87E7AD"/><path d="M127.2 345.672a9.559 9.559 0 01-9.575 9.575c-.94 0-1.88-.171-2.735-.427-4.018-1.197-6.925-4.873-6.925-9.233v-.428c.086-2.564 1.283-4.873 2.992-6.582-.513-.941-.769-2.052-.769-3.249 0-2.907 1.71-5.471 4.189-6.583a7.78 7.78 0 013.163-.683c4.018 0 7.352 3.248 7.352 7.352a6.998 6.998 0 01-.769 3.248c.684.684 1.367 1.453 1.795 2.308a9.044 9.044 0 011.282 4.702z" fill="#00C48C"/><path opacity=".5" d="M127.2 345.672a9.56 9.56 0 01-9.575 9.575c-.94 0-1.88-.171-2.735-.428-1.539-3.248-2.565-7.181-6.925-9.66.086-2.565 1.283-4.873 2.992-6.583-.513-.94-.769-2.051-.769-3.248 0-2.907 1.71-5.472 4.189-6.583 4.018 2.736 3.163 10.173 6.583 12.054 2.051 1.111 3.59.599 4.958.171a9.038 9.038 0 011.282 4.702z" fill="#87E7AD"/><path d="M117.626 342.851v17.183m-3.933-16.414l3.933 3.847m3.847-.256l-3.847 3.847" stroke="#01836A" stroke-width="1.282" stroke-miterlimit="10" stroke-linecap="round"/></g><path d="M149.91 340.386v-3.994h4.14v-1.323h-4.14v-2.958h4.521v-1.363h-6.017v9.638h1.496zm7.821-1.089c-.782 0-1.35-.381-1.35-1.035 0-.641.455-.982 1.456-1.049l1.777-.113v.608c0 .901-.802 1.589-1.883 1.589zm-.368 1.209c.955 0 1.75-.414 2.184-1.142h.114v1.022h1.382v-4.969c0-1.536-1.028-2.445-2.852-2.445-1.649 0-2.825.802-2.972 2.051h1.389c.161-.515.715-.809 1.517-.809.981 0 1.489.435 1.489 1.203v.627l-1.97.114c-1.73.107-2.705.862-2.705 2.171 0 1.329 1.022 2.177 2.424 2.177zm5.296-.12h1.436v-4.448c0-.935.662-1.65 1.537-1.65.854 0 1.402.501 1.402 1.322v4.776h1.409v-4.575c0-.855.608-1.523 1.536-1.523.942 0 1.41.481 1.41 1.463v4.635h1.436v-5.009c0-1.516-.855-2.405-2.325-2.405-1.008 0-1.843.515-2.21 1.309h-.114c-.32-.794-1.008-1.309-2.003-1.309-.969 0-1.704.488-2.024 1.309h-.107v-1.169h-1.383v7.274zm11.782 0h1.429v-7.274h-1.429v7.274zm.715-8.549c.534 0 .928-.381.928-.875 0-.501-.394-.882-.928-.882-.535 0-.929.381-.929.882 0 .494.394.875.929.875zm2.464 8.549h1.436v-10.112h-1.436v10.112zm3.887 2.638c1.483 0 2.171-.568 2.792-2.338l2.712-7.574h-1.523l-1.817 5.778h-.113l-1.824-5.778h-1.563l2.632 7.3-.107.354c-.247.735-.634 1.016-1.316 1.016-.133 0-.354-.007-.467-.027v1.235c.133.021.474.034.594.034zm17.96-2.638v-9.638h-1.49v4.048h-4.949v-4.048h-1.496v9.638h1.496v-4.228h4.949v4.228h1.49zm1.85 0h1.429v-7.274h-1.429v7.274zm.714-8.549c.535 0 .929-.381.929-.875 0-.501-.394-.882-.929-.882-.534 0-.928.381-.928.882 0 .494.394.875.928.875zm2.231 3.333c0 1.082.641 1.703 2.024 2.03l1.269.294c.728.173 1.068.454 1.068.888 0 .581-.634.982-1.529.982-.868 0-1.403-.347-1.583-.908h-1.436c.127 1.289 1.256 2.07 2.985 2.07 1.737 0 3.013-.915 3.013-2.284 0-1.069-.648-1.663-2.031-1.984l-1.209-.28c-.788-.181-1.155-.454-1.155-.889 0-.567.608-.948 1.409-.948.815 0 1.336.341 1.469.875h1.376c-.14-1.282-1.209-2.044-2.845-2.044-1.643 0-2.825.909-2.825 2.198zm7.567-3.867v1.843h-1.155v1.209h1.155v4.107c0 1.403.635 1.964 2.231 1.964.28 0 .548-.034.781-.074v-1.195c-.2.02-.327.033-.547.033-.715 0-1.029-.334-1.029-1.095v-3.74h1.576v-1.209h-1.576v-1.843h-1.436zm7.267 9.223c2.124 0 3.426-1.423 3.426-3.78 0-2.344-1.309-3.774-3.426-3.774-2.124 0-3.433 1.43-3.433 3.774 0 2.357 1.302 3.78 3.433 3.78zm0-1.276c-1.249 0-1.951-.915-1.951-2.504 0-1.576.702-2.498 1.951-2.498 1.242 0 1.95.922 1.95 2.498 0 1.583-.708 2.504-1.95 2.504zm4.728 1.136h1.436v-4.295c0-1.022.768-1.71 1.857-1.71.254 0 .681.047.801.087v-1.416a3.031 3.031 0 00-.641-.06c-.948 0-1.756.521-1.963 1.236h-.107v-1.116h-1.383v7.274zm5.811 2.638c1.483 0 2.171-.568 2.792-2.338l2.711-7.574h-1.523l-1.816 5.778h-.114l-1.823-5.778h-1.563l2.632 7.3-.107.354c-.247.735-.635 1.016-1.316 1.016a3.47 3.47 0 01-.468-.027v1.235c.134.021.475.034.595.034z" fill="#1D1D36"/><path d="M150.441 359.784c1.623 0 2.554-1.373 2.554-3.772 0-2.395-.947-3.797-2.554-3.797-1.618 0-2.565 1.397-2.565 3.782 0 2.404.937 3.787 2.565 3.787zm0-.787c-1.067 0-1.658-1.067-1.658-3 0-1.909.601-2.991 1.658-2.991 1.056 0 1.648 1.072 1.648 2.991 0 1.938-.582 3-1.648 3zm7.944-5.81h1.738c.932 0 1.493.516 1.493 1.382 0 .887-.526 1.383-1.453 1.383h-1.778v-2.765zm0 3.566h1.778l1.548 2.86h1.057l-1.673-3c.907-.286 1.453-1.067 1.453-2.074 0-1.302-.912-2.154-2.305-2.154h-2.76v7.228h.902v-2.86zm7.694-1.873c.857 0 1.428.631 1.448 1.588h-2.976c.065-.957.666-1.588 1.528-1.588zm1.423 3.336c-.226.476-.697.731-1.393.731-.917 0-1.513-.676-1.558-1.743v-.04h3.882v-.331c0-1.678-.886-2.715-2.344-2.715-1.483 0-2.434 1.102-2.434 2.8 0 1.708.936 2.79 2.434 2.79 1.182 0 2.014-.566 2.274-1.492h-.861zm6.752-2.35c-.15-.961-.952-1.748-2.264-1.748-1.513 0-2.475 1.092-2.475 2.775 0 1.718.967 2.815 2.48 2.815 1.297 0 2.104-.731 2.259-1.723h-.872c-.16.611-.666.947-1.392.947-.962 0-1.583-.791-1.583-2.039 0-1.222.611-1.998 1.583-1.998.776 0 1.252.435 1.392.971h.872zm3.491 3.842c1.538 0 2.49-1.061 2.49-2.795 0-1.738-.952-2.795-2.49-2.795-1.537 0-2.489 1.057-2.489 2.795 0 1.734.952 2.795 2.489 2.795zm0-.776c-1.022 0-1.598-.741-1.598-2.019 0-1.282.576-2.018 1.598-2.018 1.022 0 1.598.736 1.598 2.018 0 1.278-.576 2.019-1.598 2.019zm3.842.681h.862v-3.346c0-.761.596-1.312 1.417-1.312.171 0 .481.03.551.05v-.862a3.693 3.693 0 00-.43-.025c-.717 0-1.338.371-1.498.897h-.08v-.802h-.822v5.4zm5.756.095c.746 0 1.387-.355 1.728-.956h.08v.861h.822v-7.543h-.862v2.995h-.075c-.306-.591-.942-.947-1.693-.947-1.373 0-2.269 1.102-2.269 2.795 0 1.698.886 2.795 2.269 2.795zm.2-4.813c.977 0 1.588.781 1.588 2.018 0 1.248-.606 2.019-1.588 2.019-.987 0-1.578-.756-1.578-2.019 0-1.257.596-2.018 1.578-2.018zm3.977.796c0 .782.461 1.217 1.473 1.463l.927.225c.576.14.856.391.856.762 0 .496-.521.841-1.247.841-.691 0-1.122-.29-1.267-.746h-.887c.095.896.922 1.472 2.124 1.472 1.227 0 2.164-.666 2.164-1.633 0-.776-.491-1.217-1.508-1.462l-.831-.201c-.636-.155-.937-.385-.937-.756 0-.481.501-.806 1.142-.806.651 0 1.072.285 1.187.716h.852c-.115-.887-.902-1.448-2.034-1.448-1.147 0-2.014.676-2.014 1.573z" fill="#6A677E"/><path d="M355.798 349.178l5.13-5.13-5.13-5.129" stroke="#4B5FF7" stroke-width="1.71" stroke-linecap="round" stroke-linejoin="round"/><path fill="#fff" d="M87.362 376.534H380.59v63.262H87.362z"/><g clip-path="url(#clip5_1895:17220)"><path opacity=".2" d="M106.939 393.204c-5.129 4.275-8.805 13.849-2.735 23.937 11.37 18.979 40.351-.256 24.279-10.43-10.003-6.24-6.583-10.429-11.456-14.276-2.992-2.309-7.352-1.539-10.088.769z" fill="#FFA3A3"/><path fill-rule="evenodd" clip-rule="evenodd" d="M108.333 417.287c.25.251.25.657 0 .907l-4.702 4.702a.642.642 0 01-.907-.907l4.702-4.702a.642.642 0 01.907 0z" fill="#D13A42"/><path d="M110.359 420.134a4.873 4.873 0 10.001-9.745 4.873 4.873 0 00-.001 9.745z" fill="#F4595C"/><path d="M125.421 394.02l-3.627 3.627 6.105 6.106 3.627-3.627-6.105-6.106z" fill="#FF6464"/><path fill-rule="evenodd" clip-rule="evenodd" d="M118.542 395.058a.64.64 0 01.906.004l11.029 11.113a.642.642 0 01-.911.903l-11.028-11.113a.641.641 0 01.004-.907z" fill="#FFA3A3"/><path fill-rule="evenodd" clip-rule="evenodd" d="M124.27 392.493a.641.641 0 01.907.005l7.865 7.95a.641.641 0 11-.912.902l-7.865-7.95a.641.641 0 01.005-.907z" fill="#FF6464"/><path d="M128.483 405.857l-1.197 1.282-11.028 11.029-8.806-8.806 6.241-6.241 5.984-6.069 8.806 8.805z" fill="#FFA3A3"/><path d="M124.55 409.876l-9.746 9.746-8.805-8.806 3.163-3.163s1.197 1.967 7.438 2.052c1.966 0 6.411-.855 7.95.171z" fill="#FF6464"/><path opacity=".2" d="M130.266 400.314l-2.261-2.261-2.799 2.799 2.261 2.261 2.799-2.799z" fill="#FFEAF1"/></g><path d="M149.91 404.503v-9.638h-1.496v9.638h1.496zm1.823 0h1.436v-4.448c0-.935.661-1.65 1.536-1.65.855 0 1.403.501 1.403 1.323v4.775h1.409v-4.575c0-.855.608-1.523 1.536-1.523.942 0 1.409.481 1.409 1.463v4.635h1.436v-5.009c0-1.516-.855-2.405-2.324-2.405-1.009 0-1.843.515-2.211 1.309h-.113c-.321-.794-1.009-1.309-2.004-1.309-.968 0-1.703.488-2.024 1.309h-.107v-1.168h-1.382v7.273zm11.755 0h1.436v-4.448c0-.935.661-1.65 1.536-1.65.855 0 1.402.501 1.402 1.323v4.775h1.41v-4.575c0-.855.607-1.523 1.536-1.523.941 0 1.409.481 1.409 1.463v4.635h1.436v-5.009c0-1.516-.855-2.405-2.324-2.405-1.009 0-1.844.515-2.211 1.309h-.114c-.32-.794-1.008-1.309-2.003-1.309-.969 0-1.703.488-2.024 1.309h-.107v-1.168h-1.382v7.273zm17.886-7.273h-1.436v4.254c0 1.142-.635 1.83-1.797 1.83-1.055 0-1.529-.561-1.529-1.736v-4.348h-1.436v4.722c0 1.709.895 2.691 2.504 2.691 1.102 0 1.844-.467 2.198-1.296h.113v1.156h1.383v-7.273zm1.656 7.273h1.436v-4.254c0-1.136.674-1.844 1.736-1.844 1.062 0 1.57.581 1.57 1.75v4.348h1.436v-4.709c0-1.729-.895-2.705-2.518-2.705-1.095 0-1.817.488-2.171 1.296h-.107v-1.155h-1.382v7.273zm7.801 0h1.429v-7.273h-1.429v7.273zm.714-8.549c.535 0 .929-.381.929-.875 0-.501-.394-.882-.929-.882-.534 0-.928.381-.928.882 0 .494.394.875.928.875zm2.231 8.549h5.757v-1.216h-3.954v-.113l3.914-4.896v-1.048h-5.69v1.215h3.974v.114l-4.001 4.969v.975zm9.624-1.089c-.781 0-1.349-.38-1.349-1.035 0-.641.454-.982 1.456-1.049l1.777-.113v.608c0 .901-.802 1.589-1.884 1.589zm-.367 1.209c.955 0 1.75-.414 2.184-1.142h.114v1.022h1.382v-4.969c0-1.536-1.028-2.445-2.852-2.445-1.649 0-2.825.802-2.972 2.051h1.389c.161-.514.715-.808 1.516-.808.982 0 1.49.434 1.49 1.202v.628l-1.97.113c-1.73.107-2.705.862-2.705 2.171 0 1.329 1.022 2.177 2.424 2.177zm5.804-9.203v1.843h-1.155v1.209h1.155v4.107c0 1.403.634 1.964 2.231 1.964.28 0 .547-.033.781-.073v-1.196c-.2.02-.327.033-.548.033-.714 0-1.028-.334-1.028-1.095v-3.74h1.576v-1.209h-1.576v-1.843h-1.436zm4.301 9.083h1.429v-7.273h-1.429v7.273zm.715-8.549c.534 0 .928-.381.928-.875 0-.501-.394-.882-.928-.882-.535 0-.929.381-.929.882 0 .494.394.875.929.875zm5.47 8.689c2.124 0 3.426-1.422 3.426-3.78 0-2.344-1.309-3.774-3.426-3.774-2.124 0-3.433 1.43-3.433 3.774 0 2.358 1.302 3.78 3.433 3.78zm0-1.275c-1.249 0-1.95-.915-1.95-2.505 0-1.576.701-2.498 1.95-2.498 1.242 0 1.95.922 1.95 2.498 0 1.583-.708 2.505-1.95 2.505zm4.728 1.135h1.436v-4.254c0-1.136.675-1.844 1.737-1.844s1.569.581 1.569 1.75v4.348h1.436v-4.709c0-1.729-.895-2.705-2.518-2.705-1.095 0-1.816.488-2.17 1.296h-.107v-1.155h-1.383v7.273zm7.608-5.216c0 1.082.641 1.703 2.023 2.03l1.269.294c.728.174 1.069.454 1.069.888 0 .581-.635.982-1.53.982-.868 0-1.402-.347-1.582-.908h-1.436c.126 1.289 1.255 2.07 2.985 2.07 1.737 0 3.012-.915 3.012-2.284 0-1.069-.648-1.663-2.03-1.984l-1.209-.28c-.788-.18-1.156-.454-1.156-.888 0-.568.608-.949 1.41-.949.815 0 1.335.341 1.469.875h1.376c-.14-1.282-1.209-2.044-2.845-2.044-1.643 0-2.825.909-2.825 2.198z" fill="#1D1D36"/><path d="M149.739 423.73h.902v-7.228h-.897l-1.923 1.383v.952l1.838-1.333h.08v6.226zm3.016-5.194v.005h.871v-.005c0-.852.571-1.418 1.418-1.418.796 0 1.413.556 1.413 1.278 0 .581-.226.972-1.158 1.983l-2.499 2.73v.621h4.678v-.811h-3.386v-.08l1.738-1.869c1.188-1.272 1.528-1.858 1.528-2.609 0-1.147-.992-2.029-2.289-2.029-1.342 0-2.314.922-2.314 2.204zm10.158-1.232h1.738c.932 0 1.493.516 1.493 1.382 0 .887-.526 1.383-1.452 1.383h-1.779v-2.765zm0 3.566h1.779l1.547 2.86h1.057l-1.673-3c.907-.286 1.453-1.067 1.453-2.074 0-1.302-.912-2.154-2.304-2.154h-2.76v7.228h.901v-2.86zm7.694-1.873c.857 0 1.428.631 1.448 1.588h-2.975c.065-.957.666-1.588 1.527-1.588zm1.423 3.336c-.226.476-.696.731-1.393.731-.916 0-1.512-.676-1.557-1.743v-.04h3.882v-.331c0-1.678-.887-2.715-2.345-2.715-1.482 0-2.434 1.102-2.434 2.801 0 1.708.937 2.79 2.434 2.79 1.182 0 2.014-.566 2.274-1.493h-.861zm6.752-2.349c-.15-.962-.952-1.749-2.264-1.749-1.513 0-2.474 1.092-2.474 2.776 0 1.718.966 2.815 2.479 2.815 1.297 0 2.104-.732 2.259-1.723h-.871c-.161.611-.667.946-1.393.946-.962 0-1.583-.791-1.583-2.038 0-1.223.611-1.999 1.583-1.999.776 0 1.252.436 1.393.972h.871zm3.492 3.842c1.537 0 2.489-1.062 2.489-2.795 0-1.739-.952-2.796-2.489-2.796-1.538 0-2.49 1.057-2.49 2.796 0 1.733.952 2.795 2.49 2.795zm0-.777c-1.022 0-1.598-.741-1.598-2.018 0-1.283.576-2.019 1.598-2.019 1.021 0 1.597.736 1.597 2.019 0 1.277-.576 2.018-1.597 2.018zm3.842.681h.861v-3.346c0-.761.596-1.312 1.418-1.312.17 0 .481.03.551.05v-.862a3.711 3.711 0 00-.431-.025c-.716 0-1.337.371-1.498.897h-.08v-.801h-.821v5.399zm5.755.096c.746 0 1.388-.356 1.728-.957h.08v.861h.822v-7.543h-.862v2.995h-.075c-.305-.591-.942-.947-1.693-.947-1.372 0-2.269 1.102-2.269 2.796 0 1.698.887 2.795 2.269 2.795zm.2-4.814c.977 0 1.588.781 1.588 2.019 0 1.247-.606 2.018-1.588 2.018-.986 0-1.577-.756-1.577-2.018 0-1.258.596-2.019 1.577-2.019zm3.978.796c0 .782.461 1.218 1.472 1.463l.927.225c.576.141.857.391.857.762 0 .496-.521.841-1.248.841-.691 0-1.122-.29-1.267-.746h-.887c.096.897.922 1.473 2.124 1.473 1.228 0 2.164-.667 2.164-1.633 0-.777-.491-1.218-1.508-1.463l-.831-.2c-.636-.156-.937-.386-.937-.757 0-.481.501-.806 1.142-.806.652 0 1.072.285 1.187.716h.852c-.115-.887-.902-1.448-2.034-1.448-1.147 0-2.013.677-2.013 1.573z" fill="#6A677E"/><path d="M355.57 413.664l5.13-5.129-5.13-5.13" stroke="#4B5FF7" stroke-width="1.71" stroke-linecap="round" stroke-linejoin="round"/><rect x="302.343" y="399.616" width="44.678" height="17.984" rx="8.992" fill="#4B5FF7"/><path d="M310.428 406.986v.005h.872v-.005c0-.851.571-1.417 1.417-1.417.797 0 1.413.556 1.413 1.277 0 .581-.226.972-1.157 1.984l-2.5 2.73v.621h4.679v-.812h-3.386v-.08l1.738-1.868c1.187-1.273 1.527-1.859 1.527-2.61 0-1.147-.991-2.029-2.289-2.029-1.342 0-2.314.922-2.314 2.204zm10.149 5.195v-5.606h.08l3.922 5.606h.876v-7.229h-.891v5.626h-.08l-3.922-5.626h-.877v7.229h.892zm8.766-4.734c.856 0 1.427.631 1.447 1.588h-2.975c.065-.957.666-1.588 1.528-1.588zm1.422 3.336c-.225.476-.696.731-1.392.731-.917 0-1.513-.676-1.558-1.743v-.04h3.882v-.33c0-1.678-.887-2.715-2.344-2.715-1.483 0-2.435 1.102-2.435 2.8 0 1.708.937 2.79 2.435 2.79 1.182 0 2.013-.566 2.274-1.493h-.862zm9.077-4.002h-.867l-1.062 4.318h-.08l-1.207-4.318h-.827l-1.207 4.318h-.08l-1.062-4.318h-.872l1.513 5.4h.872l1.202-4.178h.08l1.207 4.178h.877l1.513-5.4zM87.362 440.65H380.59v63.262H87.362z" fill="#fff"/><g clip-path="url(#clip6_1895:17220)"><path opacity=".25" d="M127.115 463.829c-.998-1.845-1.578-8.608-7.509-8.496-5.56.055-5.083 4.592-9.703 5.959-5.54 1.609-8.284 3.886-7.77 8.018.831 7.755 8.515 5.938 11.611 11.29 3.448 5.957 8.303 8.205 14.302 6.068 8.347-2.757 6.973-12.908 4.541-16.354-2.432-3.445-4.475-4.64-5.472-6.485z" fill="#87E7AD"/><path d="M122.242 460.911v14.106c0 1.71-1.77 3.163-3.933 3.163s-3.932-1.453-3.932-3.163v-14.106h7.865zm-12.738-.598a1.966 1.966 0 100-3.931 1.966 1.966 0 000 3.931zm2.223 4.018a.94.94 0 100-1.88.94.94 0 000 1.88zm3.59-6.069a.94.94 0 100-1.881.94.94 0 000 1.881z" fill="#87E7AD"/><path d="M114.035 460.911h8.549" stroke="#00C48C" stroke-width="1.282" stroke-miterlimit="10" stroke-linecap="round"/><path d="M129.268 477.427c0 6.037-4.922 10.959-10.958 10.959-6.037 0-10.959-4.922-10.959-10.959 0-1.578.371-3.157.929-4.55 1.764-3.808 5.572-6.408 9.937-6.408 6.222.093 11.051 4.922 11.051 10.958z" fill="#87E7AD"/><path d="M110.165 473.729c0 4.853 3.202 12.58 8.144 12.58a8.86 8.86 0 008.896-8.896c0-1.347-.27-2.515-.809-3.684-6.649.09-7.965 3.954-16.231 0z" fill="#00C48C"/><path d="M127.205 477.503c0 4.852-3.954 8.806-8.896 8.806a8.858 8.858 0 01-8.895-8.896c0-1.347.269-2.515.809-3.684 6.649.09 8.715 7.728 16.982 3.774z" fill="#01836A"/><path opacity=".35" d="M121.303 461.659h-2.281v5.343h2.281v-5.343z" fill="#F0FDF8"/></g><path d="M154.424 467.243h-4.514v-8.261h-1.496v9.637h6.01v-1.376zm3.681.287c-.782 0-1.35-.38-1.35-1.035 0-.641.455-.982 1.456-1.048l1.777-.114v.608c0 .902-.802 1.589-1.883 1.589zm-.368 1.209c.955 0 1.75-.414 2.184-1.142h.114v1.022h1.382v-4.969c0-1.536-1.028-2.444-2.852-2.444-1.649 0-2.825.801-2.972 2.05h1.389c.161-.514.715-.808 1.517-.808.981 0 1.489.434 1.489 1.202v.628l-1.97.113c-1.73.107-2.705.862-2.705 2.171 0 1.329 1.022 2.177 2.424 2.177zm9.15 0c1.837 0 3.006-1.456 3.006-3.76 0-2.311-1.162-3.753-3.006-3.753-.995 0-1.85.481-2.237 1.275h-.114v-3.994H163.1v10.112h1.383v-1.149h.107c.434.802 1.282 1.269 2.297 1.269zm-.414-6.224c1.216 0 1.944.935 1.944 2.464 0 1.543-.728 2.471-1.944 2.471-1.209 0-1.957-.941-1.963-2.464.006-1.523.761-2.471 1.963-2.471zm9.698-2.218h2.11c1.156 0 1.864.635 1.864 1.683 0 1.076-.668 1.69-1.824 1.69h-2.15v-3.373zm0 4.649h2.11l1.964 3.673h1.73l-2.164-3.92c1.175-.401 1.87-1.456 1.87-2.752 0-1.81-1.249-2.965-3.193-2.965h-3.813v9.637h1.496v-3.673zm9.818-2.518c1.062 0 1.756.741 1.79 1.883h-3.674c.08-1.135.822-1.883 1.884-1.883zm1.783 4.228c-.267.567-.862.881-1.73.881-1.149 0-1.89-.808-1.937-2.084v-.08h5.136v-.501c0-2.284-1.222-3.666-3.246-3.666-2.05 0-3.352 1.476-3.352 3.8s1.275 3.753 3.359 3.753c1.663 0 2.825-.801 3.152-2.103h-1.382zm2.598-3.253c0 1.082.641 1.703 2.024 2.03l1.269.294c.728.174 1.068.454 1.068.888 0 .582-.634.982-1.529.982-.868 0-1.403-.347-1.583-.908h-1.436c.127 1.289 1.256 2.07 2.985 2.07 1.737 0 3.013-.915 3.013-2.284 0-1.068-.648-1.663-2.031-1.983l-1.209-.281c-.788-.18-1.155-.454-1.155-.888 0-.568.608-.949 1.409-.949.815 0 1.336.341 1.469.875h1.376c-.14-1.282-1.209-2.043-2.845-2.043-1.643 0-2.825.908-2.825 2.197zm13.244-2.057h-1.436v4.254c0 1.142-.634 1.83-1.796 1.83-1.056 0-1.53-.561-1.53-1.736v-4.348h-1.436v4.722c0 1.71.895 2.691 2.505 2.691 1.102 0 1.843-.467 2.197-1.295h.114v1.155h1.382v-7.273zm1.723 7.273h1.436v-10.112h-1.436v10.112zm3.674-9.083v1.843h-1.156v1.209h1.156v4.108c0 1.402.634 1.963 2.23 1.963.281 0 .548-.033.782-.073v-1.196c-.201.02-.327.034-.548.034-.715 0-1.028-.334-1.028-1.096v-3.74h1.576v-1.209h-1.576v-1.843h-1.436zm4 3.867c0 1.082.641 1.703 2.024 2.03l1.269.294c.728.174 1.069.454 1.069.888 0 .582-.635.982-1.53.982-.868 0-1.402-.347-1.583-.908h-1.436c.127 1.289 1.256 2.07 2.986 2.07 1.736 0 3.012-.915 3.012-2.284 0-1.068-.648-1.663-2.031-1.983l-1.208-.281c-.788-.18-1.156-.454-1.156-.888 0-.568.608-.949 1.409-.949.815 0 1.336.341 1.47.875h1.376c-.141-1.282-1.209-2.043-2.846-2.043-1.643 0-2.825.908-2.825 2.197z" fill="#1D1D36"/><path d="M149.739 487.847h.902v-7.228h-.897l-1.923 1.382v.952l1.838-1.333h.08v6.227zm5.49.17c1.623 0 2.555-1.373 2.555-3.772 0-2.394-.947-3.797-2.555-3.797-1.618 0-2.564 1.398-2.564 3.782 0 2.404.936 3.787 2.564 3.787zm0-.786c-1.067 0-1.658-1.067-1.658-3.001 0-1.908.601-2.99 1.658-2.99s1.648 1.072 1.648 2.99c0 1.939-.581 3.001-1.648 3.001zm6.462.786c1.623 0 2.555-1.373 2.555-3.772 0-2.394-.947-3.797-2.555-3.797-1.618 0-2.565 1.398-2.565 3.782 0 2.404.937 3.787 2.565 3.787zm0-.786c-1.067 0-1.658-1.067-1.658-3.001 0-1.908.601-2.99 1.658-2.99s1.648 1.072 1.648 2.99c0 1.939-.581 3.001-1.648 3.001zm7.945-5.811h1.738c.931 0 1.492.516 1.492 1.382 0 .887-.526 1.383-1.452 1.383h-1.778v-2.765zm0 3.566h1.778l1.548 2.861h1.057l-1.674-3.001c.907-.285 1.453-1.067 1.453-2.074 0-1.302-.912-2.153-2.304-2.153h-2.76v7.228h.902v-2.861zm7.694-1.873c.856 0 1.427.631 1.447 1.588h-2.975c.065-.957.666-1.588 1.528-1.588zm1.422 3.336c-.225.476-.696.731-1.392.731-.917 0-1.513-.676-1.558-1.743v-.04h3.882v-.33c0-1.678-.887-2.715-2.344-2.715-1.483 0-2.435 1.102-2.435 2.8 0 1.708.937 2.79 2.435 2.79 1.182 0 2.013-.566 2.274-1.493h-.862zm6.752-2.349c-.15-.962-.951-1.748-2.264-1.748-1.512 0-2.474 1.092-2.474 2.775 0 1.718.967 2.815 2.479 2.815 1.298 0 2.104-.731 2.259-1.723h-.871c-.16.611-.666.946-1.393.946-.961 0-1.583-.791-1.583-2.038 0-1.223.612-1.999 1.583-1.999.777 0 1.253.436 1.393.972h.871zm3.492 3.842c1.538 0 2.489-1.062 2.489-2.795 0-1.738-.951-2.795-2.489-2.795-1.538 0-2.49 1.057-2.49 2.795 0 1.733.952 2.795 2.49 2.795zm0-.777c-1.022 0-1.598-.741-1.598-2.018 0-1.283.576-2.019 1.598-2.019 1.022 0 1.598.736 1.598 2.019 0 1.277-.576 2.018-1.598 2.018zm3.842.682h.861v-3.346c0-.762.596-1.313 1.418-1.313.17 0 .481.03.551.05v-.861a3.711 3.711 0 00-.431-.025c-.716 0-1.337.37-1.498.896h-.08v-.801h-.821v5.4zm5.755.095c.747 0 1.388-.356 1.728-.957h.081v.862h.821v-7.544h-.861v2.995h-.076c-.305-.591-.941-.946-1.693-.946-1.372 0-2.269 1.102-2.269 2.795 0 1.698.887 2.795 2.269 2.795zm.201-4.814c.976 0 1.588.782 1.588 2.019 0 1.247-.607 2.018-1.588 2.018-.987 0-1.578-.756-1.578-2.018 0-1.258.596-2.019 1.578-2.019zm3.977.797c0 .781.461 1.217 1.473 1.462l.926.226c.576.14.857.39.857.761 0 .496-.521.842-1.247.842-.692 0-1.122-.291-1.268-.747h-.886c.095.897.921 1.473 2.124 1.473 1.227 0 2.163-.666 2.163-1.633 0-.777-.49-1.217-1.507-1.463l-.832-.2c-.636-.155-.936-.386-.936-.757 0-.48.5-.806 1.142-.806.651 0 1.072.286 1.187.716h.851c-.115-.886-.901-1.447-2.033-1.447-1.147 0-2.014.676-2.014 1.573z" fill="#6A677E"/><path d="M355.57 477.78l5.13-5.129-5.13-5.13" stroke="#4B5FF7" stroke-width="1.71" stroke-linecap="round" stroke-linejoin="round"/><path fill="#fff" d="M87.362 504.768H380.59v63.262H87.362z"/><g clip-path="url(#clip7_1895:17220)"><path opacity=".35" d="M121.261 519.578c-5.49.681-5.968 6.436-8.996 10.328-3.028 3.892-6.736 1.449-8.882 5.961-2.147 4.513.576 9.802 4.902 12.685 5.046 3.316 10.813 4.757 16.724 2.739 4.758-1.73 8.506-5.045 9.66-10.09 1.297-5.19 1.153-10.956-1.874-15.569-2.74-4.468-6.045-6.735-11.534-6.054z" fill="#FFF279"/><path d="M104.46 530.5c0 .085.086.085.086.171 0 .085.085.085.085.171.171.256.428.513.684.769.256.257.513.428.769.684.086 0 .171.086.171.086.086.085.086.085.171.085 2.394 1.453 5.557 1.197 7.609-.855 2.052-2.052 2.394-5.3.94-7.694 0-.085-.085-.085-.085-.171 0-.085-.086-.085-.086-.171-.171-.256-.427-.513-.684-.769-.256-.257-.513-.428-.769-.684l-.171-.171c-.086 0-.086-.086-.171-.086-2.394-1.453-5.557-1.197-7.609.855-2.137 2.137-2.393 5.386-.94 7.78z" fill="#FFD443"/><path d="M104.631 530.671c0 .085.086.085.086.171.171.256.427.512.684.769.256.256.512.427.769.684.085 0 .171.085.171.085l8.549-8.549c0-.085-.086-.085-.086-.171-.171-.256-.427-.513-.684-.769-.256-.256-.513-.427-.769-.684l-.171-.171-8.549 8.635zm16.481-.829a5.795 5.795 0 118.195 8.195l-4.098 4.097-8.195-8.195 4.098-4.097z" fill="#FFA51F"/><path d="M121.137 546.232a5.795 5.795 0 11-8.195-8.196l4.097-4.097 8.195 8.195-4.097 4.098z" fill="#FFD443"/><path opacity=".25" d="M122.568 544.8a3.771 3.771 0 01-5.332-5.332l2.666-2.666 5.332 5.332-2.666 2.666z" fill="#FFFCE1"/></g><path d="M158.165 532.736v-9.637h-1.75l-3.072 7.32h-.114l-3.066-7.32h-1.749v9.637h1.389v-6.959h.093l2.825 6.679h1.136l2.825-6.679h.093v6.959h1.39zm4.808-6.191c1.062 0 1.757.741 1.79 1.883h-3.673c.08-1.135.821-1.883 1.883-1.883zm1.784 4.228c-.268.567-.862.881-1.73.881-1.149 0-1.89-.808-1.937-2.083v-.081h5.136v-.501c0-2.284-1.222-3.666-3.246-3.666-2.05 0-3.353 1.476-3.353 3.8s1.276 3.754 3.36 3.754c1.663 0 2.825-.802 3.152-2.104h-1.382zm5.423 2.084c1.002 0 1.85-.475 2.284-1.269h.114v1.148h1.375v-10.111h-1.436v3.994h-.106c-.394-.802-1.236-1.276-2.231-1.276-1.837 0-3.019 1.456-3.019 3.753 0 2.305 1.169 3.761 3.019 3.761zm.407-6.225c1.202 0 1.957.955 1.957 2.471 0 1.523-.748 2.465-1.957 2.465-1.215 0-1.943-.929-1.943-2.472 0-1.529.734-2.464 1.943-2.464zm5.123 6.104h1.429v-7.273h-1.429v7.273zm.715-8.549c.534 0 .928-.38.928-.875 0-.5-.394-.881-.928-.881-.535 0-.929.381-.929.881 0 .495.394.875.929.875zm8.555 3.654c-.187-1.456-1.289-2.518-3.112-2.518-2.117 0-3.406 1.422-3.406 3.753 0 2.371 1.295 3.801 3.413 3.801 1.796 0 2.918-1.016 3.105-2.478h-1.396c-.187.781-.808 1.195-1.716 1.195-1.196 0-1.937-.941-1.937-2.518 0-1.549.735-2.471 1.937-2.471.962 0 1.549.528 1.716 1.236h1.396zm3.593 3.807c-.781 0-1.349-.381-1.349-1.036 0-.641.454-.981 1.456-1.048l1.777-.114v.608c0 .902-.802 1.59-1.884 1.59zm-.367 1.209c.955 0 1.75-.415 2.184-1.143h.114v1.022h1.382v-4.969c0-1.536-1.028-2.444-2.852-2.444-1.649 0-2.825.801-2.972 2.05h1.389c.161-.514.715-.808 1.516-.808.982 0 1.49.434 1.49 1.202v.628l-1.97.114c-1.73.106-2.705.861-2.705 2.17 0 1.329 1.021 2.178 2.424 2.178zm5.804-9.204v1.843h-1.155v1.209h1.155v4.108c0 1.402.634 1.963 2.231 1.963.28 0 .547-.033.781-.073v-1.196c-.2.02-.327.034-.548.034-.714 0-1.028-.334-1.028-1.096v-3.74h1.576v-1.209h-1.576v-1.843h-1.436zm4.301 9.083h1.429v-7.273h-1.429v7.273zm.715-8.549c.534 0 .928-.38.928-.875 0-.5-.394-.881-.928-.881-.535 0-.929.381-.929.881 0 .495.394.875.929.875zm5.47 8.69c2.124 0 3.426-1.423 3.426-3.781 0-2.344-1.309-3.773-3.426-3.773-2.124 0-3.433 1.429-3.433 3.773 0 2.358 1.302 3.781 3.433 3.781zm0-1.276c-1.249 0-1.95-.915-1.95-2.505 0-1.576.701-2.498 1.95-2.498 1.242 0 1.95.922 1.95 2.498 0 1.583-.708 2.505-1.95 2.505zm4.728 1.135h1.436v-4.254c0-1.135.675-1.843 1.737-1.843s1.569.581 1.569 1.749v4.348h1.436v-4.708c0-1.73-.895-2.705-2.518-2.705-1.095 0-1.816.487-2.17 1.296h-.107v-1.156h-1.383v7.273zm7.608-5.216c0 1.082.641 1.703 2.023 2.031l1.269.293c.728.174 1.069.455 1.069.889 0 .581-.635.981-1.53.981-.868 0-1.402-.347-1.583-.908h-1.435c.126 1.289 1.255 2.071 2.985 2.071 1.736 0 3.012-.915 3.012-2.285 0-1.068-.648-1.663-2.03-1.983l-1.209-.281c-.788-.18-1.156-.454-1.156-.888 0-.568.608-.948 1.41-.948.815 0 1.335.34 1.469.875h1.376c-.14-1.283-1.209-2.044-2.845-2.044-1.643 0-2.825.908-2.825 2.197z" fill="#1D1D36"/><path d="M151.312 551.964h.882v-1.498h1.027v-.806h-1.027v-4.924h-1.308c-1.302 1.948-2.449 3.762-3.095 4.909v.821h3.521v1.498zm-2.6-2.359a72.868 72.868 0 012.545-4.033h.06v4.093h-2.605v-.06zm9.813-4.068h1.738c.932 0 1.493.516 1.493 1.383 0 .886-.526 1.382-1.452 1.382h-1.779v-2.765zm0 3.567h1.779l1.547 2.86h1.057l-1.673-3.001c.907-.285 1.453-1.067 1.453-2.073 0-1.303-.912-2.154-2.304-2.154h-2.76v7.228h.901v-2.86zm7.694-1.874c.857 0 1.428.631 1.448 1.588h-2.975c.065-.957.666-1.588 1.527-1.588zm1.423 3.336c-.226.476-.696.732-1.393.732-.916 0-1.512-.677-1.557-1.744v-.04h3.882v-.33c0-1.678-.887-2.715-2.345-2.715-1.482 0-2.434 1.102-2.434 2.8 0 1.708.937 2.79 2.434 2.79 1.182 0 2.014-.566 2.274-1.493h-.861zm6.752-2.349c-.15-.962-.952-1.748-2.264-1.748-1.513 0-2.474 1.092-2.474 2.775 0 1.718.966 2.815 2.479 2.815 1.297 0 2.104-.731 2.259-1.723h-.871c-.161.611-.667.947-1.393.947-.962 0-1.583-.792-1.583-2.039 0-1.222.611-1.999 1.583-1.999.776 0 1.252.436 1.393.972h.871zm3.492 3.842c1.537 0 2.489-1.062 2.489-2.795 0-1.738-.952-2.795-2.489-2.795-1.538 0-2.49 1.057-2.49 2.795 0 1.733.952 2.795 2.49 2.795zm0-.776c-1.022 0-1.598-.742-1.598-2.019 0-1.282.576-2.019 1.598-2.019 1.021 0 1.597.737 1.597 2.019 0 1.277-.576 2.019-1.597 2.019zm3.842.681h.861v-3.346c0-.762.596-1.313 1.418-1.313.17 0 .481.03.551.05v-.861a3.711 3.711 0 00-.431-.025c-.716 0-1.337.371-1.498.896h-.08v-.801h-.821v5.4zm5.755.095c.746 0 1.388-.356 1.728-.957h.08v.862h.822v-7.544h-.862v2.996h-.075c-.305-.591-.942-.947-1.693-.947-1.372 0-2.269 1.102-2.269 2.795 0 1.698.887 2.795 2.269 2.795zm.2-4.814c.977 0 1.588.782 1.588 2.019 0 1.247-.606 2.019-1.588 2.019-.986 0-1.577-.757-1.577-2.019 0-1.257.596-2.019 1.577-2.019zm3.978.797c0 .781.461 1.217 1.472 1.462l.927.226c.576.14.857.391.857.761 0 .496-.521.842-1.248.842-.691 0-1.122-.291-1.267-.747h-.887c.096.897.922 1.473 2.124 1.473 1.228 0 2.164-.666 2.164-1.633 0-.776-.491-1.217-1.508-1.463l-.831-.2c-.636-.155-.937-.386-.937-.756 0-.481.501-.807 1.142-.807.652 0 1.072.286 1.188.716h.851c-.115-.886-.902-1.447-2.034-1.447-1.147 0-2.013.676-2.013 1.573z" fill="#6A677E"/><path d="M355.57 541.897l5.13-5.129-5.13-5.129" stroke="#4B5FF7" stroke-width="1.71" stroke-linecap="round" stroke-linejoin="round"/><rect x="302.343" y="527.85" width="44.678" height="17.984" rx="8.992" fill="#4B5FF7"/><path d="M313.373 540.414h.882v-1.498h1.027v-.806h-1.027v-4.924h-1.307c-1.303 1.948-2.45 3.762-3.096 4.909v.821h3.521v1.498zm-2.599-2.359a72.311 72.311 0 012.544-4.033h.06v4.093h-2.604v-.06zm9.803 2.359v-5.605h.08l3.922 5.605h.876v-7.228h-.891v5.625h-.08l-3.922-5.625h-.877v7.228h.892zm8.766-4.734c.856 0 1.427.632 1.447 1.588h-2.975c.065-.956.666-1.588 1.528-1.588zm1.422 3.337c-.225.475-.696.731-1.392.731-.917 0-1.513-.676-1.558-1.743v-.04h3.882v-.331c0-1.678-.887-2.715-2.344-2.715-1.483 0-2.435 1.102-2.435 2.8 0 1.708.937 2.79 2.435 2.79 1.182 0 2.013-.566 2.274-1.492h-.862zm9.077-4.003h-.867l-1.062 4.318h-.08l-1.207-4.318h-.827l-1.207 4.318h-.08l-1.062-4.318h-.872l1.513 5.4h.872l1.202-4.178h.08l1.207 4.178h.877l1.513-5.4zm-252.48 33.871H380.59v63.262H87.362z" fill="#fff"/><g clip-path="url(#clip8_1895:17220)"><path opacity=".2" d="M105.144 604.961c-12.225-19.15 9.318-26.502 13.935-18.039 7.523 13.764 14.618 9.832 15.302 20.09.599 10.259-16.927 17.098-29.237-2.051z" fill="#FFA3A3"/><path d="M131.389 587.521a6.244 6.244 0 00-8.891 0l-17.525 17.526a6.244 6.244 0 000 8.891 6.244 6.244 0 008.891 0l17.525-17.526c2.479-2.479 2.479-6.497 0-8.891z" fill="#FFA3A3"/><path d="M127.081 600.703l-8.886 8.886-8.887-8.886 8.887-8.886 8.886 8.886z" fill="#FF6464"/><path d="M118.224 605.218a1.282 1.282 0 110-2.564 1.282 1.282 0 010 2.564zm3.163-3.249a1.282 1.282 0 110-2.564 1.282 1.282 0 010 2.564zm-6.412 0a1.282 1.282 0 110-2.564 1.282 1.282 0 010 2.564zm3.249-3.163a1.282 1.282 0 110-2.564 1.282 1.282 0 010 2.564z" fill="#F4F5FF"/></g><path d="M148.414 587.216v9.638h1.496v-3.246h2.23c1.89 0 3.226-1.296 3.226-3.18 0-1.91-1.296-3.212-3.179-3.212h-3.773zm1.496 1.322h1.883c1.316 0 2.044.668 2.044 1.89 0 1.196-.755 1.864-2.044 1.864h-1.883v-3.754zm6.792 8.316h1.436v-4.295c0-1.022.768-1.71 1.857-1.71.253 0 .681.047.801.087v-1.416a3.038 3.038 0 00-.641-.06c-.948 0-1.757.521-1.964 1.236h-.107v-1.116h-1.382v7.274zm7.934.14c2.124 0 3.427-1.423 3.427-3.78 0-2.345-1.309-3.774-3.427-3.774-2.123 0-3.433 1.429-3.433 3.774 0 2.357 1.303 3.78 3.433 3.78zm0-1.276c-1.249 0-1.95-.915-1.95-2.504 0-1.577.701-2.498 1.95-2.498 1.243 0 1.951.921 1.951 2.498 0 1.582-.708 2.504-1.951 2.504zm10.887-3.76c-.187-1.456-1.289-2.518-3.112-2.518-2.118 0-3.407 1.423-3.407 3.754 0 2.37 1.296 3.8 3.413 3.8 1.797 0 2.919-1.015 3.106-2.478h-1.396c-.187.781-.808 1.195-1.716 1.195-1.196 0-1.937-.941-1.937-2.517 0-1.55.734-2.472 1.937-2.472.961 0 1.549.528 1.716 1.236h1.396zm4.201-1.296c1.062 0 1.756.742 1.79 1.884h-3.674c.081-1.136.822-1.884 1.884-1.884zm1.783 4.228c-.267.568-.861.882-1.73.882-1.148 0-1.89-.809-1.937-2.084v-.08h5.137v-.501c0-2.284-1.223-3.667-3.246-3.667-2.051 0-3.353 1.476-3.353 3.8s1.275 3.754 3.359 3.754c1.663 0 2.825-.802 3.153-2.104h-1.383zm5.423 2.084c1.002 0 1.85-.474 2.285-1.269h.113v1.149h1.376v-10.112h-1.436v3.994h-.107c-.394-.802-1.235-1.276-2.231-1.276-1.836 0-3.018 1.456-3.018 3.754 0 2.304 1.168 3.76 3.018 3.76zm.408-6.225c1.202 0 1.957.955 1.957 2.471 0 1.523-.748 2.465-1.957 2.465-1.216 0-1.944-.929-1.944-2.471 0-1.53.735-2.465 1.944-2.465zm11.227-1.169h-1.436v4.255c0 1.142-.635 1.83-1.797 1.83-1.055 0-1.529-.561-1.529-1.737v-4.348h-1.436v4.722c0 1.71.895 2.692 2.505 2.692 1.102 0 1.843-.468 2.197-1.296h.113v1.156h1.383v-7.274zm1.656 7.274h1.436v-4.295c0-1.022.768-1.71 1.857-1.71.254 0 .681.047.801.087v-1.416a3.031 3.031 0 00-.641-.06c-.948 0-1.756.521-1.963 1.236h-.107v-1.116h-1.383v7.274zm7.848-6.192c1.062 0 1.756.742 1.79 1.884h-3.674c.081-1.136.822-1.884 1.884-1.884zm1.783 4.228c-.267.568-.861.882-1.73.882-1.148 0-1.89-.809-1.937-2.084v-.08h5.137v-.501c0-2.284-1.223-3.667-3.246-3.667-2.051 0-3.353 1.476-3.353 3.8s1.275 3.754 3.359 3.754c1.663 0 2.825-.802 3.153-2.104h-1.383zm2.598-3.253c0 1.082.641 1.703 2.024 2.031l1.269.294c.728.173 1.069.454 1.069.888 0 .581-.635.982-1.53.982-.868 0-1.402-.348-1.583-.909h-1.436c.127 1.289 1.256 2.071 2.986 2.071 1.736 0 3.012-.915 3.012-2.284 0-1.069-.648-1.663-2.031-1.984l-1.208-.281c-.789-.18-1.156-.454-1.156-.888 0-.568.608-.948 1.409-.948.815 0 1.336.34 1.47.875h1.376c-.141-1.283-1.209-2.044-2.846-2.044-1.643 0-2.825.908-2.825 2.197z" fill="#1D1D36"/><path d="M149.739 616.081h.902v-7.228h-.897l-1.923 1.382v.952l1.838-1.332h.08v6.226zm6.973-6.427h1.738c.932 0 1.493.516 1.493 1.383 0 .886-.526 1.382-1.453 1.382h-1.778v-2.765zm0 3.567h1.778l1.548 2.86h1.057l-1.673-3c.907-.286 1.453-1.067 1.453-2.074 0-1.303-.912-2.154-2.305-2.154h-2.76v7.228h.902v-2.86zm7.694-1.874c.857 0 1.428.632 1.448 1.588h-2.976c.065-.956.666-1.588 1.528-1.588zm1.423 3.337c-.226.475-.697.731-1.393.731-.917 0-1.513-.676-1.558-1.743v-.04h3.882v-.331c0-1.678-.886-2.715-2.344-2.715-1.483 0-2.434 1.102-2.434 2.8 0 1.708.936 2.79 2.434 2.79 1.182 0 2.014-.566 2.274-1.492h-.861zm6.752-2.35c-.15-.962-.952-1.748-2.264-1.748-1.513 0-2.475 1.092-2.475 2.775 0 1.718.967 2.815 2.48 2.815 1.297 0 2.104-.731 2.259-1.723h-.872c-.16.611-.666.947-1.392.947-.962 0-1.583-.792-1.583-2.039 0-1.222.611-1.999 1.583-1.999.776 0 1.252.436 1.392.972h.872zm3.491 3.842c1.538 0 2.49-1.062 2.49-2.795 0-1.738-.952-2.795-2.49-2.795-1.538 0-2.489 1.057-2.489 2.795 0 1.733.951 2.795 2.489 2.795zm0-.776c-1.022 0-1.598-.742-1.598-2.019 0-1.282.576-2.019 1.598-2.019 1.022 0 1.598.737 1.598 2.019 0 1.277-.576 2.019-1.598 2.019zm3.842.681h.862v-3.346c0-.761.596-1.312 1.417-1.312.171 0 .481.03.551.05v-.862a3.693 3.693 0 00-.43-.025c-.717 0-1.338.371-1.498.897h-.08v-.802h-.822v5.4zm5.756.095c.746 0 1.387-.355 1.728-.957h.08v.862h.822v-7.544h-.862v2.996h-.075c-.306-.591-.942-.947-1.693-.947-1.373 0-2.269 1.102-2.269 2.795 0 1.698.886 2.795 2.269 2.795zm.2-4.814c.977 0 1.588.782 1.588 2.019 0 1.247-.606 2.019-1.588 2.019-.987 0-1.578-.757-1.578-2.019 0-1.257.596-2.019 1.578-2.019zm3.977.797c0 .781.461 1.217 1.473 1.463l.927.225c.576.14.856.391.856.761 0 .496-.521.842-1.247.842-.691 0-1.122-.291-1.267-.746h-.887c.095.896.922 1.472 2.124 1.472 1.227 0 2.164-.666 2.164-1.633 0-.776-.491-1.217-1.508-1.462l-.831-.201c-.637-.155-.937-.385-.937-.756 0-.481.501-.807 1.142-.807.651 0 1.072.286 1.187.717h.852c-.115-.887-.902-1.448-2.034-1.448-1.147 0-2.014.676-2.014 1.573z" fill="#6A677E"/><path d="M355.57 606.015l5.13-5.13-5.13-5.129" stroke="#4B5FF7" stroke-width="1.71" stroke-linecap="round" stroke-linejoin="round"/><rect x="303.343" y="591.967" width="43.678" height="17.984" rx="8.992" fill="#4B5FF7"/><path d="M313.614 604.531h.902v-7.228h-.897l-1.924 1.383v.951l1.839-1.332h.08v6.226zm6.963 0v-5.605h.08l3.922 5.605h.876v-7.228h-.891v5.625h-.08l-3.922-5.625h-.877v7.228h.892zm8.766-4.733c.856 0 1.427.631 1.447 1.588h-2.975c.065-.957.666-1.588 1.528-1.588zm1.422 3.336c-.225.476-.696.731-1.392.731-.917 0-1.513-.676-1.558-1.743v-.04h3.882v-.331c0-1.678-.887-2.715-2.344-2.715-1.483 0-2.435 1.102-2.435 2.8 0 1.708.937 2.79 2.435 2.79 1.182 0 2.013-.566 2.274-1.492h-.862zm9.077-4.003h-.867l-1.062 4.318h-.08l-1.207-4.318h-.827l-1.207 4.318h-.08l-1.062-4.318h-.872l1.513 5.4h.872l1.202-4.177h.08l1.207 4.177h.877l1.513-5.4zm-252.48 33.87H380.59v63.262H87.362z" fill="#fff"/><g clip-path="url(#clip9_1895:17220)"><path opacity=".2" d="M117.711 676.686c-5.129-6.668-16.756-.427-16.67-9.917 0-5.984 4.787-5.556 6.155-10.6 1.71-6.07 4.018-9.062 8.378-8.635 8.207.855 6.241 10.515 11.883 13.764 6.326 3.676 8.891 7.609 6.753 14.106-2.137 6.582-11.284 7.95-16.499 1.282z" fill="#8296FF"/><path d="M131.133 655.559v17.44c0 .769-.599 1.368-1.368 1.368h-23.51a1.35 1.35 0 01-1.367-1.368v-17.44a1.35 1.35 0 011.367-1.368h23.51c.769 0 1.368.599 1.368 1.368z" fill="#4B5FF7"/><path d="M131.133 662.313v10.686c0 .769-.599 1.368-1.368 1.368h-9.575c.855-.855 1.71-1.967 2.137-3.591 1.625-6.241 4.104-9.147 8.806-8.463zm-18.209-8.122c0 1.026-.171 2.138-.599 3.42-1.026 3.163-4.189 4.873-7.437 4.445v-6.497a1.35 1.35 0 011.367-1.368h6.669z" fill="#3D4DCD"/><path d="M127.2 665.219h-6.753l-1.625 3.42-2.906-10.943-2.65 8.72h-4.446" stroke="#F4F5FF" stroke-width="1.282" stroke-miterlimit="10" stroke-linecap="round" stroke-linejoin="round"/></g><path d="M152.761 660.97l3.427-9.638h-1.59l-2.585 7.768h-.113l-2.598-7.768h-1.63l3.446 9.638h1.643zm4.542 0h1.429v-7.274h-1.429v7.274zm.715-8.549c.534 0 .928-.381.928-.875 0-.501-.394-.882-.928-.882-.535 0-.929.381-.929.882 0 .494.394.875.929.875zm2.905-.534v1.843h-1.155v1.209h1.155v4.107c0 1.403.634 1.964 2.231 1.964.28 0 .547-.034.781-.074v-1.195c-.2.02-.327.033-.548.033-.714 0-1.028-.334-1.028-1.095v-3.74h1.576v-1.209h-1.576v-1.843h-1.436zm6.652 7.994c-.781 0-1.349-.381-1.349-1.035 0-.641.454-.982 1.456-1.049l1.777-.113v.608c0 .901-.802 1.589-1.884 1.589zm-.367 1.209c.955 0 1.75-.414 2.184-1.142h.113v1.022h1.383v-4.969c0-1.536-1.029-2.445-2.852-2.445-1.65 0-2.825.802-2.972 2.051h1.389c.16-.515.715-.809 1.516-.809.982 0 1.49.435 1.49 1.203v.627l-1.971.114c-1.73.107-2.705.862-2.705 2.171 0 1.329 1.022 2.177 2.425 2.177zm5.363-.12h1.436v-10.112h-1.436v10.112zm2.999-5.216c0 1.082.641 1.703 2.023 2.03l1.269.294c.728.173 1.069.454 1.069.888 0 .581-.635.982-1.529.982-.869 0-1.403-.347-1.583-.908h-1.436c.127 1.289 1.255 2.07 2.985 2.07 1.737 0 3.012-.915 3.012-2.284 0-1.069-.648-1.663-2.03-1.984l-1.209-.28c-.788-.181-1.155-.454-1.155-.889 0-.567.607-.948 1.409-.948.815 0 1.336.341 1.469.875h1.376c-.14-1.282-1.209-2.044-2.845-2.044-1.643 0-2.825.909-2.825 2.198z" fill="#1D1D36"/><path d="M149.489 676.866h.916c1.027 0 1.664.521 1.664 1.358 0 .791-.677 1.357-1.628 1.357-.932 0-1.583-.496-1.663-1.267h-.872c.065 1.237 1.077 2.054 2.545 2.054 1.427 0 2.544-.927 2.544-2.119 0-.987-.596-1.668-1.578-1.794v-.08c.792-.19 1.268-.821 1.268-1.683 0-1.052-1.007-1.893-2.269-1.893-1.378 0-2.275.771-2.365 2.023h.877c.075-.776.621-1.237 1.452-1.237.832 0 1.388.491 1.388 1.227 0 .752-.581 1.283-1.403 1.283h-.876v.771zm8.255 3.331h.881V678.7h1.027v-.807h-1.027v-4.924h-1.307c-1.302 1.949-2.449 3.762-3.096 4.909v.822h3.522v1.497zm-2.6-2.359a72.224 72.224 0 012.545-4.032h.06v4.092h-2.605v-.06zm8.285 2.53c1.498 0 2.525-1.002 2.525-2.47 0-1.423-.962-2.419-2.334-2.419-.667 0-1.178.205-1.528.616h-.08l.205-2.319h3.326v-.807h-4.032l-.396 4.098h.847c.295-.516.836-.812 1.492-.812.947 0 1.598.676 1.598 1.668 0 .992-.646 1.653-1.613 1.653-.851 0-1.472-.521-1.553-1.302H161c.08 1.247 1.062 2.094 2.429 2.094zm7.88-6.597h1.738c.931 0 1.492.515 1.492 1.382 0 .887-.525 1.383-1.452 1.383h-1.778v-2.765zm0 3.566h1.778l1.548 2.86h1.057l-1.673-3c.906-.286 1.452-1.067 1.452-2.074 0-1.302-.911-2.154-2.304-2.154h-2.76v7.228h.902v-2.86zm7.694-1.873c.856 0 1.427.631 1.447 1.588h-2.975c.065-.957.666-1.588 1.528-1.588zm1.422 3.336c-.225.476-.696.731-1.392.731-.917 0-1.513-.676-1.558-1.743v-.04h3.882v-.331c0-1.678-.887-2.715-2.344-2.715-1.483 0-2.435 1.102-2.435 2.8 0 1.708.937 2.79 2.435 2.79 1.182 0 2.013-.566 2.274-1.492h-.862zm6.753-2.35c-.151-.961-.952-1.748-2.265-1.748-1.512 0-2.474 1.092-2.474 2.775 0 1.718.967 2.815 2.479 2.815 1.298 0 2.104-.731 2.26-1.723h-.872c-.16.611-.666.947-1.393.947-.961 0-1.583-.791-1.583-2.039 0-1.222.612-1.998 1.583-1.998.777 0 1.253.435 1.393.971h.872zm3.491 3.842c1.538 0 2.489-1.061 2.489-2.795 0-1.738-.951-2.795-2.489-2.795-1.538 0-2.49 1.057-2.49 2.795 0 1.734.952 2.795 2.49 2.795zm0-.776c-1.022 0-1.598-.741-1.598-2.019 0-1.282.576-2.018 1.598-2.018 1.022 0 1.598.736 1.598 2.018 0 1.278-.576 2.019-1.598 2.019zm3.842.681h.861v-3.346c0-.761.597-1.312 1.418-1.312.17 0 .481.03.551.05v-.862a3.698 3.698 0 00-.431-.025c-.716 0-1.337.371-1.497.897h-.081v-.802h-.821v5.4zm5.755.095c.747 0 1.388-.355 1.729-.956h.08v.861h.821v-7.543h-.861v2.995h-.076c-.305-.591-.941-.947-1.693-.947-1.372 0-2.269 1.102-2.269 2.795 0 1.698.887 2.795 2.269 2.795zm.201-4.813c.977 0 1.588.781 1.588 2.018 0 1.248-.606 2.019-1.588 2.019-.987 0-1.578-.756-1.578-2.019 0-1.257.596-2.018 1.578-2.018zm3.977.796c0 .782.461 1.217 1.473 1.463l.926.225c.576.14.857.391.857.762 0 .495-.521.841-1.247.841-.692 0-1.122-.29-1.268-.746h-.886c.095.896.921 1.472 2.124 1.472 1.227 0 2.164-.666 2.164-1.633 0-.776-.491-1.217-1.508-1.462l-.832-.201c-.636-.155-.936-.385-.936-.756 0-.481.5-.806 1.142-.806.651 0 1.072.285 1.187.716h.851c-.115-.887-.901-1.448-2.033-1.448-1.147 0-2.014.676-2.014 1.573z" fill="#6A677E"/><path d="M355.57 670.131l5.13-5.13-5.13-5.129" stroke="#4B5FF7" stroke-width="1.71" stroke-linecap="round" stroke-linejoin="round"/><rect x="302.343" y="656.083" width="44.678" height="17.984" rx="8.992" fill="#4B5FF7"/><path d="M310.428 663.453v.005h.872v-.005c0-.852.571-1.418 1.417-1.418.797 0 1.413.556 1.413 1.278 0 .581-.226.972-1.157 1.983l-2.5 2.73v.621h4.679v-.811h-3.386v-.08l1.738-1.869c1.187-1.272 1.527-1.858 1.527-2.609 0-1.147-.991-2.029-2.289-2.029-1.342 0-2.314.922-2.314 2.204zm10.149 5.194v-5.605h.08l3.922 5.605h.876v-7.228h-.891v5.626h-.08l-3.922-5.626h-.877v7.228h.892zm8.766-4.733c.856 0 1.427.631 1.447 1.588h-2.975c.065-.957.666-1.588 1.528-1.588zm1.422 3.336c-.225.476-.696.731-1.392.731-.917 0-1.513-.676-1.558-1.743v-.04h3.882v-.331c0-1.678-.887-2.715-2.344-2.715-1.483 0-2.435 1.102-2.435 2.801 0 1.708.937 2.79 2.435 2.79 1.182 0 2.013-.566 2.274-1.493h-.862zm9.077-4.002h-.867l-1.062 4.317h-.08l-1.207-4.317h-.827l-1.207 4.317h-.08l-1.062-4.317h-.872l1.513 5.399h.872l1.202-4.177h.08l1.207 4.177h.877l1.513-5.399z" fill="#fff"/></g><rect opacity=".35" x="361.64" y="27.615" width="17.953" height="8.834" rx="1.852" stroke="#1D1D36" stroke-width=".855"/><path opacity=".4" d="M380.875 30.322v3.42a1.855 1.855 0 000-3.42z" fill="#1D1D36"/><rect x="362.922" y="28.898" width="15.388" height="6.269" rx="1.14" fill="#1D1D36"/><path fill-rule="evenodd" clip-rule="evenodd" d="M350.384 29.138c1.902 0 3.731.73 5.109 2.04.104.1.27.1.372-.003l.993-1a.276.276 0 00-.003-.391 9.359 9.359 0 00-12.943 0 .28.28 0 00-.083.194c0 .074.029.144.081.196l.992 1a.264.264 0 00.372.004 7.421 7.421 0 015.11-2.04zm0 3.255c1.045 0 2.053.388 2.827 1.089.105.1.27.097.372-.005l.991-1a.28.28 0 00.081-.198.279.279 0 00-.085-.196 6.148 6.148 0 00-8.37 0 .279.279 0 00-.085.196.28.28 0 00.081.197l.991 1a.267.267 0 00.372.006 4.213 4.213 0 012.825-1.09zm1.985 2.19a.267.267 0 01-.08.198l-1.715 1.729a.266.266 0 01-.38 0l-1.715-1.729a.267.267 0 01-.08-.198.264.264 0 01.089-.194 2.939 2.939 0 013.793 0c.055.05.087.12.088.194zM338.7 27.472h-.855a.855.855 0 00-.855.855v7.41c0 .471.383.854.855.854h.855a.855.855 0 00.855-.855v-7.409a.855.855 0 00-.855-.855zm-4.844 1.995h.855c.472 0 .855.382.855.855v5.414a.855.855 0 01-.855.855h-.855a.855.855 0 01-.855-.855v-5.414c0-.473.383-.855.855-.855zm-3.135 1.995h-.855a.855.855 0 00-.855.855v3.42c0 .471.383.854.855.854h.855a.855.855 0 00.855-.855v-3.42a.855.855 0 00-.855-.854zm-3.989 1.71h-.855a.855.855 0 00-.855.855v1.71c0 .471.383.854.855.854h.855a.855.855 0 00.855-.855v-1.71a.855.855 0 00-.855-.854z" fill="#1D1D36"/><path d="M105.384 36.702c2.298 0 3.663-1.797 3.663-4.84 0-1.146-.219-2.11-.639-2.855-.607-1.159-1.653-1.785-2.974-1.785-1.966 0-3.356 1.321-3.356 3.175 0 1.74 1.252 3.005 2.974 3.005 1.058 0 1.916-.494 2.342-1.352h.106c0 2.066-.783 3.3-2.104 3.3-.776 0-1.377-.426-1.584-1.109h-1.609c.269 1.484 1.528 2.461 3.181 2.461zm.056-4.583c-1.039 0-1.778-.74-1.778-1.772 0-1.008.776-1.779 1.784-1.779s1.785.783 1.785 1.804c0 1.008-.758 1.747-1.791 1.747zm6.301 4.495c.594 0 1.001-.425 1.001-.989 0-.57-.407-.99-1.001-.99-.589 0-1.002.42-1.002.99 0 .564.413.99 1.002.99zm0-4.696c.594 0 1.001-.42 1.001-.983 0-.57-.407-.989-1.001-.989-.589 0-1.002.42-1.002.99 0 .563.413.982 1.002.982zm6.914 4.565h1.546v-1.684h1.221v-1.365h-1.221v-5.986h-2.279c-1.597 2.404-2.868 4.414-3.682 5.91v1.44h4.415v1.685zm-2.918-3.106a68.126 68.126 0 012.855-4.614h.088v4.708h-2.943v-.094zm9.18 3.106h1.616v-9.035h-1.609l-2.361 1.653v1.553l2.248-1.578h.106v7.407zm-27.9 37.105c5.373 0 8.716-3.594 8.716-9.342v-.025c0-5.736-3.356-9.33-8.716-9.33-5.347 0-8.715 3.582-8.715 9.33v.025c0 5.748 3.343 9.342 8.715 9.342zm0-3.206c-2.968 0-4.858-2.354-4.858-6.136v-.025c0-3.782 1.903-6.124 4.858-6.124 2.968 0 4.859 2.355 4.859 6.124v.025c0 3.744-1.853 6.136-4.859 6.136zm11.165 2.893h3.657V65.56c0-1.753 1.039-2.956 2.679-2.956 1.641 0 2.467 1.002 2.467 2.756v7.914h3.657v-8.666c0-3.143-1.678-5.034-4.633-5.034-2.029 0-3.407.94-4.095 2.48h-.075V59.85h-3.657v13.425zm21.208.275c3.832 0 5.685-2.266 6.098-4.245l.038-.138h-3.356l-.025.076c-.263.75-1.177 1.577-2.68 1.577-1.866 0-3.031-1.252-3.068-3.393h9.242V66.3c0-4.058-2.467-6.725-6.4-6.725-3.932 0-6.449 2.73-6.449 7v.013c0 4.295 2.492 6.962 6.6 6.962zm-.088-11.245c1.515 0 2.605.964 2.83 2.818h-5.698c.238-1.816 1.365-2.818 2.868-2.818zm8.86 10.97h3.782v-6.55h3.031l3.368 6.55h4.283l-3.807-7.113c2.004-.789 3.269-2.768 3.269-5.147v-.025c0-3.632-2.405-5.785-6.462-5.785h-7.464v18.07zm3.782-9.417V58.16h3.219c1.865 0 3.055 1.102 3.055 2.83v.025c0 1.778-1.127 2.843-3.005 2.843h-3.269zm18.641 9.692c3.832 0 5.685-2.266 6.098-4.245l.038-.138h-3.356l-.025.076c-.263.75-1.177 1.577-2.68 1.577-1.866 0-3.031-1.252-3.068-3.393h9.242V66.3c0-4.058-2.467-6.725-6.399-6.725-3.933 0-6.45 2.73-6.45 7v.013c0 4.295 2.492 6.962 6.6 6.962zm-.088-11.245c1.515 0 2.605.964 2.83 2.818h-5.698c.238-1.816 1.365-2.818 2.868-2.818zm14.684 11.245c3.581 0 5.898-2.229 6.073-5.159v-.075h-3.406l-.013.113c-.25 1.352-1.164 2.254-2.629 2.254-1.804 0-2.931-1.49-2.931-4.12v-.013c0-2.567 1.127-4.107 2.918-4.107 1.515 0 2.404.976 2.63 2.254l.025.112h3.394v-.087c-.138-2.905-2.455-5.147-6.099-5.147-4.02 0-6.587 2.667-6.587 6.963v.012c0 4.333 2.53 7 6.625 7zm14.32 0c4.057 0 6.649-2.604 6.649-6.987v-.025c0-4.346-2.642-6.963-6.662-6.963-4.007 0-6.637 2.642-6.637 6.963v.025c0 4.37 2.567 6.987 6.65 6.987zm.012-2.867c-1.803 0-2.943-1.49-2.943-4.12v-.025c0-2.593 1.153-4.095 2.918-4.095 1.779 0 2.943 1.502 2.943 4.095v.025c0 2.617-1.139 4.12-2.918 4.12zm8.848 2.592h3.657V65.71c0-1.89 1.052-2.98 2.855-2.98.526 0 1.027.075 1.327.2v-3.218a4.117 4.117 0 00-1.052-.138c-1.59 0-2.73.94-3.118 2.567h-.075V59.85h-3.594v13.425zm14.183.275c1.941 0 3.418-.976 4.132-2.567h.075v2.292h3.657v-18.07h-3.657v6.975h-.075c-.726-1.628-2.229-2.605-4.132-2.605-3.382 0-5.46 2.605-5.46 6.975v.013c0 4.358 2.078 6.987 5.46 6.987zm1.227-3.03c-1.829 0-2.968-1.515-2.968-3.957v-.013c0-2.454 1.152-3.944 2.968-3.944 1.766 0 2.993 1.527 2.993 3.944v.013c0 2.43-1.215 3.957-2.993 3.957z" fill="#1D1D36"/><g filter="url(#filter0_d_1895:17220)"><path d="M315.484 64.518c0-8.499 6.89-15.388 15.388-15.388h34.839c8.499 0 15.388 6.89 15.388 15.388 0 8.498-6.889 15.388-15.388 15.388h-34.839c-8.498 0-15.388-6.89-15.388-15.388z" fill="#fff"/><g clip-path="url(#clip10_1895:17220)"><path fill-rule="evenodd" clip-rule="evenodd" d="M344.459 64.472c0 7.53-6.103 13.633-13.632 13.633s-13.633-6.103-13.633-13.633c0-7.528 6.104-13.632 13.633-13.632 7.529 0 13.632 6.104 13.632 13.632z" fill="#FFD443"/><path fill-rule="evenodd" clip-rule="evenodd" d="M344.459 64.472c0 7.53-6.103 13.633-13.632 13.633s-13.633-6.103-13.633-13.633c0-7.528 6.104-13.632 13.633-13.632 7.529 0 13.632 6.104 13.632 13.632z" fill="#FFA51F"/><path fill-rule="evenodd" clip-rule="evenodd" d="M343.953 60.831c-1.595-5.758-6.86-9.991-13.126-9.991-1.181 0-2.321.166-3.414.448-.009.178-.027.354-.027.535 0 5.93 4.807 10.737 10.737 10.737 2.151 0 4.15-.64 5.83-1.729z" fill="#FFD443"/><path fill-rule="evenodd" clip-rule="evenodd" d="M318.868 57.928a13.564 13.564 0 00-1.674 6.544c0 7.395 5.889 13.4 13.231 13.614a13.566 13.566 0 001.674-6.546c0-7.394-5.89-13.398-13.231-13.612z" fill="#FF6464"/><path fill-rule="evenodd" clip-rule="evenodd" d="M326.735 65.124a2.74 2.74 0 11-5.48 0 2.74 2.74 0 015.48 0z" fill="#D93A4D"/><path d="M359.763 69.018V59.38h-2.017l-2.899 7.02h-.12l-2.899-7.02h-2.017v9.638h1.603V62.24h.094l2.665 6.405h1.229l2.664-6.405h.094v6.78h1.603zm6.398.24c2.224 0 3.854-1.329 4.081-3.299h-1.696c-.234 1.082-1.163 1.763-2.385 1.763-1.643 0-2.665-1.349-2.665-3.526 0-2.17 1.022-3.52 2.659-3.52 1.215 0 2.143.748 2.384 1.904h1.696c-.2-2.01-1.89-3.44-4.08-3.44-2.732 0-4.422 1.93-4.422 5.063 0 3.119 1.697 5.055 4.428 5.055z" fill="#4B5FF7"/><path d="M377.139 69.158c.634 0 1.068-.454 1.068-1.055 0-.608-.434-1.055-1.068-1.055-.628 0-1.069.447-1.069 1.055 0 .601.441 1.055 1.069 1.055z" fill="#fff"/></g></g><path fill="#0F1551" d="M73.684 619.888h320.584v71.811H73.684z"/><path opacity=".1" stroke="#000" stroke-width=".855" d="M73.684 619.46h320.584"/><g filter="url(#filter1_b_1895:17220)"><path fill="#0F1551" d="M73.684 691.699h320.584v-70.956H73.684z"/></g><path stroke="#000" stroke-opacity=".2" stroke-width=".427" d="M73.684 620.957h320.584"/><path d="M102.882 660.665h1.192l-2.609-7.228h-1.208l-2.61 7.228H98.8l.666-1.918h2.755l.661 1.918zm-2.079-5.916h.086l1.047 3.056h-2.184l1.051-3.056zm8.726 2.244c-.14-1.092-.966-1.888-2.334-1.888-1.588 0-2.555 1.067-2.555 2.815 0 1.778.972 2.85 2.56 2.85 1.348 0 2.189-.761 2.329-1.858h-1.047c-.14.586-.606.896-1.287.896-.896 0-1.453-.706-1.453-1.888 0-1.162.551-1.853 1.453-1.853.721 0 1.162.395 1.287.926h1.047zm1.693-3.14v1.382h-.866v.907h.866v3.08c0 1.052.476 1.473 1.674 1.473.21 0 .41-.025.586-.055v-.897c-.151.015-.246.025-.411.025-.536 0-.772-.25-.772-.821v-2.805h1.183v-.907h-1.183v-1.382h-1.077zm3.547 6.812h1.072v-5.455h-1.072v5.455zm.536-6.412c.401 0 .696-.285.696-.656 0-.376-.295-.661-.696-.661-.401 0-.696.285-.696.661 0 .371.295.656.696.656zm6.737.957H120.9l-1.352 4.303h-.086l-1.357-4.303h-1.152l1.969 5.455h1.157l1.963-5.455zm1.112 5.455h1.072v-5.455h-1.072v5.455zm.536-6.412c.401 0 .696-.285.696-.656 0-.376-.295-.661-.696-.661-.401 0-.696.285-.696.661 0 .371.295.656.696.656zm2.5-.4v1.382h-.867v.907h.867v3.08c0 1.052.476 1.473 1.673 1.473.21 0 .411-.025.586-.055v-.897c-.15.015-.246.025-.411.025-.536 0-.771-.25-.771-.821v-2.805h1.182v-.907h-1.182v-1.382h-1.077zm4.067 8.791c1.112 0 1.628-.426 2.094-1.754l2.034-5.68h-1.142l-1.363 4.333h-.085l-1.368-4.333h-1.172l1.974 5.475-.08.266c-.186.551-.476.761-.987.761-.1 0-.265-.005-.351-.02v.927c.101.015.356.025.446.025z" fill="#fff"/><path d="M120.564 635.317h-3.802l1.512-3.936.732-1.846c.046-.097-.045-.243-.137-.243h-4.718c-.091 0-.137.049-.183.146l-2.061 6.802-.413 1.409-.183.68c-.046.098.046.243.183.243h3.115l-1.466 4.908-.824 2.672c-.046.195.183.34.275.146l3.893-5.15 1.787-2.381 2.381-3.158c.092-.098.046-.292-.091-.292z" fill="#FFD443"/><path d="M185.774 660.665v-7.228h-1.117v3.035h-3.711v-3.035h-1.123v7.228h1.123v-3.171h3.711v3.171h1.117zm3.927-4.643c.797 0 1.318.556 1.343 1.412h-2.755c.06-.851.616-1.412 1.412-1.412zm1.338 3.17c-.2.426-.646.662-1.297.662-.862 0-1.418-.607-1.453-1.563v-.06h3.852v-.376c0-1.713-.917-2.75-2.435-2.75-1.537 0-2.514 1.107-2.514 2.85s.957 2.815 2.519 2.815c1.248 0 2.119-.601 2.365-1.578h-1.037zm4.178.657c-.587 0-1.012-.286-1.012-.777 0-.481.34-.736 1.092-.786l1.332-.085v.455c0 .677-.601 1.193-1.412 1.193zm-.276.906c.716 0 1.312-.31 1.638-.856h.085v.766h1.037v-3.727c0-1.152-.771-1.833-2.139-1.833-1.237 0-2.119.601-2.229 1.538h1.042c.12-.386.536-.606 1.137-.606.736 0 1.117.325 1.117.901v.471l-1.478.085c-1.297.08-2.028.646-2.028 1.628 0 .997.766 1.633 1.818 1.633zm4.343-.09h1.077v-7.584h-1.077v7.584zm3.076-6.812v1.382h-.867v.907h.867v3.08c0 1.052.475 1.473 1.673 1.473.21 0 .41-.025.586-.055v-.897c-.151.015-.246.025-.411.025-.536 0-.771-.25-.771-.821v-2.805h1.182v-.907h-1.182v-1.382h-1.077zm3.576 6.812h1.077v-3.186c0-.826.491-1.382 1.373-1.382.761 0 1.167.441 1.167 1.312v3.256h1.077v-3.521c0-1.298-.717-2.034-1.879-2.034-.821 0-1.397.366-1.663.977h-.085v-3.006h-1.067v7.584zm-3.072-21.701l-7.195 7.182a.838.838 0 01-1.183 0l-7.255-7.243a.72.72 0 00-.066-.072 5.095 5.095 0 010-7.201c1.986-1.977 5.227-1.977 7.213 0a.997.997 0 001.399 0c1.994-1.977 5.227-1.977 7.214 0a5.058 5.058 0 011.482 3.913c-.075 1.296-.689 2.503-1.609 3.421zm49.137 21.701v-7.228h-1.122v7.228h1.122zm1.688 0h1.077v-3.191c0-.851.506-1.382 1.302-1.382.797 0 1.177.435 1.177 1.312v3.261h1.077v-3.531c0-1.298-.671-2.029-1.888-2.029-.822 0-1.362.366-1.628.972h-.08v-.867h-1.037v5.455zm6.026-3.912c0 .811.481 1.277 1.518 1.523l.951.22c.546.13.802.341.802.666 0 .436-.476.737-1.147.737-.651 0-1.052-.261-1.187-.682h-1.077c.095.967.941 1.553 2.239 1.553 1.302 0 2.259-.686 2.259-1.713 0-.801-.486-1.247-1.523-1.488l-.907-.21c-.591-.135-.866-.341-.866-.666 0-.426.456-.711 1.057-.711.611 0 1.002.255 1.102.656h1.032c-.105-.962-.907-1.533-2.134-1.533-1.232 0-2.119.681-2.119 1.648zm10.254-1.543h-1.077v3.191c0 .856-.476 1.372-1.348 1.372-.791 0-1.147-.42-1.147-1.302v-3.261h-1.077v3.542c0 1.282.671 2.018 1.879 2.018.826 0 1.382-.35 1.648-.972h.085v.867h1.037v-5.455zm1.563 5.455h1.076v-3.221c0-.766.577-1.282 1.393-1.282.19 0 .511.035.601.065v-1.062a2.274 2.274 0 00-.481-.045c-.711 0-1.317.391-1.472.927h-.081v-.837h-1.036v5.455zm5.85-.816c-.586 0-1.012-.286-1.012-.777 0-.481.341-.736 1.092-.786l1.333-.085v.455c0 .677-.601 1.193-1.413 1.193zm-.275.906c.716 0 1.312-.31 1.638-.856h.085v.766h1.037v-3.727c0-1.152-.772-1.833-2.139-1.833-1.237 0-2.119.601-2.229 1.538h1.042c.12-.386.536-.606 1.137-.606.736 0 1.117.325 1.117.901v.471l-1.478.085c-1.297.08-2.029.646-2.029 1.628 0 .997.767 1.633 1.819 1.633zm4.292-.09h1.077v-3.191c0-.851.506-1.382 1.303-1.382.796 0 1.177.435 1.177 1.312v3.261h1.077v-3.531c0-1.298-.671-2.029-1.889-2.029-.821 0-1.362.366-1.627.972h-.081v-.867h-1.037v5.455zm10.77-3.672c-.14-1.092-.967-1.888-2.334-1.888-1.588 0-2.555 1.067-2.555 2.815 0 1.778.972 2.85 2.56 2.85 1.347 0 2.189-.761 2.329-1.858h-1.047c-.14.586-.606.896-1.287.896-.897 0-1.453-.706-1.453-1.888 0-1.162.551-1.853 1.453-1.853.721 0 1.162.395 1.287.926h1.047zm3.471-.971c.797 0 1.318.556 1.343 1.412h-2.755c.06-.851.616-1.412 1.412-1.412zm1.338 3.17c-.2.426-.646.662-1.297.662-.862 0-1.418-.607-1.453-1.563v-.06h3.852v-.376c0-1.713-.917-2.75-2.435-2.75-1.537 0-2.514 1.107-2.514 2.85s.957 2.815 2.519 2.815c1.248 0 2.119-.601 2.365-1.578h-1.037zm-15.555-27.364v5.225c0 3.092-1.431 5.935-3.809 7.606l-2.11 1.498c-.232.173-.5.25-.786.231a1.51 1.51 0 01-.805-.231l-2.199-1.479c-2.486-1.671-3.97-4.514-3.97-7.625v-5.244c0-.557.394-1.018.894-1.095.322-.058.626-.115.93-.192 1.609-.327 3.058-1.46 4.131-2.516a1.445 1.445 0 011.001-.423c.357 0 .715.134.983.423.358.365.751.729 1.18 1.075.841.673 1.806 1.249 2.861 1.46.268.077.554.135.84.192.501.077.859.538.859 1.095zm50.43 26.893c.081 1.293 1.158 2.119 2.76 2.119 1.714 0 2.786-.866 2.786-2.249 0-1.087-.612-1.688-2.094-2.033l-.797-.196c-.941-.22-1.322-.516-1.322-1.032 0-.651.591-1.077 1.478-1.077.841 0 1.422.416 1.527 1.082h1.092c-.065-1.217-1.137-2.073-2.604-2.073-1.578 0-2.63.856-2.63 2.143 0 1.062.596 1.694 1.903 1.999l.932.226c.957.225 1.377.556 1.377 1.107 0 .641-.661 1.107-1.562 1.107-.967 0-1.638-.436-1.734-1.123h-1.112zm9.137-2.699c.797 0 1.317.556 1.343 1.412h-2.755c.06-.851.616-1.412 1.412-1.412zm1.338 3.17c-.201.426-.647.662-1.298.662-.861 0-1.417-.607-1.452-1.563v-.06h3.852v-.376c0-1.713-.917-2.75-2.435-2.75-1.538 0-2.514 1.107-2.514 2.85s.956 2.815 2.519 2.815c1.247 0 2.119-.601 2.364-1.578h-1.036zm2.775-5.339v1.382h-.867v.907h.867v3.08c0 1.052.475 1.473 1.673 1.473.21 0 .41-.025.586-.055v-.897c-.151.015-.246.025-.411.025-.536 0-.771-.25-.771-.821v-2.805h1.182v-.907h-1.182v-1.382h-1.077zm3.927 0v1.382h-.867v.907h.867v3.08c0 1.052.476 1.473 1.673 1.473.21 0 .411-.025.586-.055v-.897c-.15.015-.246.025-.411.025-.536 0-.771-.25-.771-.821v-2.805h1.182v-.907h-1.182v-1.382h-1.077zm3.546 6.812h1.072v-5.455h-1.072v5.455zm.536-6.412c.401 0 .696-.285.696-.656 0-.376-.295-.661-.696-.661-.401 0-.696.285-.696.661 0 .371.295.656.696.656zm2.119 6.412h1.077v-3.191c0-.851.506-1.382 1.302-1.382.797 0 1.178.435 1.178 1.312v3.261h1.076v-3.531c0-1.298-.671-2.029-1.888-2.029-.821 0-1.362.366-1.628.972h-.08v-.867h-1.037v5.455zm8.435-1.012c-.926 0-1.447-.696-1.447-1.783s.521-1.783 1.447-1.783c.917 0 1.478.696 1.478 1.783 0 1.092-.556 1.783-1.478 1.783zm.015 3.096c1.543 0 2.52-.792 2.52-2.039v-5.5h-1.032v.872h-.085c-.306-.591-.962-.962-1.713-.962-1.393 0-2.264 1.092-2.264 2.755 0 1.633.861 2.71 2.254 2.71.751 0 1.352-.326 1.683-.917h.08v1.047c0 .721-.531 1.147-1.428 1.147-.726 0-1.182-.255-1.272-.651h-1.102c.115.927.997 1.538 2.359 1.538zm3.958-5.996c0 .811.481 1.277 1.517 1.523l.952.22c.546.13.802.341.802.666 0 .436-.476.737-1.147.737-.652 0-1.052-.261-1.188-.682h-1.077c.096.967.942 1.553 2.239 1.553 1.303 0 2.26-.686 2.26-1.713 0-.801-.486-1.247-1.523-1.488l-.907-.21c-.591-.135-.866-.341-.866-.666 0-.426.455-.711 1.057-.711.611 0 1.001.255 1.102.656h1.031c-.105-.962-.906-1.533-2.133-1.533-1.233 0-2.119.681-2.119 1.648zm-6.169-17.423a9.368 9.368 0 000-2.98.513.513 0 00-.393-.411l-1.747-.395a.518.518 0 01-.37-.326 8.859 8.859 0 00-.132-.318.525.525 0 01.031-.491l.955-1.506a.509.509 0 00-.012-.569 9.398 9.398 0 00-2.115-2.112.51.51 0 00-.569-.013l-1.515.957a.52.52 0 01-.489.032 8.158 8.158 0 00-.318-.132.524.524 0 01-.326-.37l-.386-1.744a.51.51 0 00-.412-.395 9.368 9.368 0 00-2.98 0 .51.51 0 00-.412.392l-.395 1.745a.52.52 0 01-.326.37c-.107.042-.213.086-.32.132a.52.52 0 01-.489-.032l-1.507-.953a.509.509 0 00-.568.013 9.432 9.432 0 00-2.115 2.115.507.507 0 00-.013.568l.957 1.515a.52.52 0 01.032.489 8.81 8.81 0 00-.132.317.523.523 0 01-.37.326l-1.739.387a.513.513 0 00-.395.412 9.362 9.362 0 000 2.979.513.513 0 00.393.412l1.747.395a.516.516 0 01.37.326c.042.106.086.213.132.317a.524.524 0 01-.031.491l-.955 1.507a.507.507 0 00.012.568 9.382 9.382 0 002.115 2.113.509.509 0 00.569.012l1.515-.957a.52.52 0 01.489-.031c.104.046.211.09.32.132a.523.523 0 01.326.369l.395 1.747c.046.203.207.36.411.393a9.374 9.374 0 002.981 0 .51.51 0 00.411-.393l.395-1.747a.518.518 0 01.326-.369c.107-.042.214-.086.318-.132a.519.519 0 01.491.033l1.499.953a.51.51 0 00.57-.012 9.435 9.435 0 002.113-2.113.505.505 0 00.013-.568l-.957-1.515a.52.52 0 01-.032-.489c.046-.105.09-.211.132-.318a.525.525 0 01.37-.326l1.745-.386a.514.514 0 00.387-.414zm-9.284 2.278a3.767 3.767 0 11-.001-7.535 3.767 3.767 0 01.001 7.535z" fill="#8296FF"/><rect opacity=".3" x="177.126" y="680.585" width="114.555" height="4.274" rx="2.137" fill="#fff"/><rect x="121.131" y="641.142" width="11.114" height="13.678" rx="5.557" fill="#D93A4D"/><path d="M128.435 644.693a.487.487 0 01-.145.367c-.094.094-.252.141-.474.141h-1.702l-.222 1.291c.279-.057.534-.085.765-.085.325 0 .61.048.855.145.248.097.456.231.624.402.168.171.295.372.381.603.085.228.128.474.128.739 0 .328-.059.627-.175.898-.114.27-.274.503-.479.696-.205.191-.449.34-.731.445a2.578 2.578 0 01-.915.158c-.194 0-.377-.02-.551-.06a2.888 2.888 0 01-.492-.158 3.055 3.055 0 01-.423-.231 2.913 2.913 0 01-.346-.277l.325-.449a.318.318 0 01.273-.146c.071 0 .143.023.214.069.074.045.16.095.256.149.097.055.21.104.338.15.128.046.284.068.466.068a1.3 1.3 0 00.513-.094.987.987 0 00.368-.26c.099-.114.173-.248.222-.402.051-.157.077-.326.077-.509 0-.336-.099-.598-.295-.786-.194-.191-.48-.287-.859-.287-.3 0-.6.054-.902.163l-.659-.188.513-3.001h3.052v.449z" fill="#fff"/><rect x="121.131" y="641.142" width="11.114" height="13.678" rx="5.557" stroke="#fff" stroke-width=".855"/></g><mask id="a" style="mask-type:alpha" maskUnits="userSpaceOnUse" x="0" y="0" width="470" height="784"><path fill-rule="evenodd" clip-rule="evenodd" d="M0 0h470v783.333H0V0zm105.763 10.967c-17.79 0-31.997 11.638-31.997 32.558v610.278c0 24.289 15.113 33.964 34.416 33.964h250.769c19.282 0 34.415-9.654 34.415-33.964V43.525c0-20.92-14.206-32.558-31.996-32.558H105.763zM237.919 31.58a7.833 7.833 0 11-8.704-13.026 7.833 7.833 0 018.704 13.026z" fill="#fff"/></mask><g mask="url(#a)"><g filter="url(#filter2_ddddd_1895:17220)"><path fill-rule="evenodd" clip-rule="evenodd" d="M100.191.59h266.731c9.906.005 19.407 3.892 26.419 10.81 7.013 6.918 10.965 16.302 10.992 26.095v626.01c0 20.354-16.832 38-37.391 38H100.191c-20.559 0-37.391-17.636-37.391-38V37.495c.025-9.79 3.975-19.172 10.983-26.09C80.79 4.489 90.287.6 100.19.59z" fill="#7A605F"/></g><path fill-rule="evenodd" clip-rule="evenodd" d="M100.205.59h266.834c9.91.005 19.414 4.032 26.429 11.199 7.016 7.167 10.97 16.888 10.996 27.034V662.5c0 21.086-16.839 39.367-37.405 39.367H100.205c-20.566 0-37.405-18.27-37.405-39.367V38.823c.025-10.143 3.976-19.862 10.987-27.028S90.297.599 100.205.59z" fill="#7A605F"/><path fill-rule="evenodd" clip-rule="evenodd" d="M404.464 115.801h1.391a1.6 1.6 0 011.138.488c.302.31.472.729.473 1.167v84.098c0 .438-.169.859-.471 1.169-.302.31-.712.485-1.14.487h-1.391v-87.409z" fill="#fff"/><path fill-rule="evenodd" clip-rule="evenodd" d="M404.464 117.063h1.391c.1.002.196.044.267.117.071.073.11.172.11.275v84.099a.396.396 0 01-.11.275.379.379 0 01-.267.116h-1.391v-84.882z" fill="#B5B5B5"/><path fill-rule="evenodd" clip-rule="evenodd" d="M100.205 5.139c-8.729.01-17.099 3.56-23.277 9.872-6.177 6.314-9.66 14.876-9.686 23.812V662.5c0 18.4 14.678 34.82 32.963 34.82h266.834c18.279 0 32.962-16.425 32.962-34.82V38.823c-.025-8.936-3.508-17.498-9.686-23.812-6.178-6.313-14.547-9.863-23.276-9.872H100.205z" fill="url(#paint0_radial_1895:17220)"/><path fill-rule="evenodd" clip-rule="evenodd" d="M100.205 8.676c-7.813.008-15.304 3.185-20.834 8.835-5.53 5.65-8.649 13.314-8.673 21.312V662.5c0 16.456 13.142 31.282 29.507 31.282h266.834c16.36 0 29.507-14.831 29.507-31.282V38.823c-.025-7.998-3.144-15.66-8.674-21.31-5.53-5.65-13.02-8.827-20.833-8.837H100.205z" fill="#000"/><path fill-rule="evenodd" clip-rule="evenodd" d="M233.678 33.563a7.924 7.924 0 004.477-1.391 8.21 8.21 0 002.969-3.703 8.433 8.433 0 00.458-4.767 8.314 8.314 0 00-2.205-4.225 8.002 8.002 0 00-4.127-2.258 7.884 7.884 0 00-4.656.47 8.1 8.1 0 00-3.617 3.038 8.387 8.387 0 00-1.358 4.584c0 2.189.849 4.288 2.36 5.835a7.966 7.966 0 005.699 2.416z" fill="#1A191C"/><path fill-rule="evenodd" clip-rule="evenodd" d="M233.677 30.67a5.136 5.136 0 002.905-.9 5.32 5.32 0 001.926-2.402 5.459 5.459 0 00.296-3.093 5.393 5.393 0 00-1.434-2.74 5.185 5.185 0 00-2.68-1.46 5.11 5.11 0 00-3.02.313 5.257 5.257 0 00-2.341 1.978 5.437 5.437 0 00-.871 2.977c0 1.417.55 2.776 1.529 3.778a5.157 5.157 0 003.69 1.565v-.016z" fill="#262433"/><path fill-rule="evenodd" clip-rule="evenodd" d="M233.677 29.139a3.666 3.666 0 002.074-.642 3.797 3.797 0 001.375-1.715 3.902 3.902 0 00.211-2.208 3.846 3.846 0 00-1.025-1.955 3.701 3.701 0 00-1.913-1.041 3.647 3.647 0 00-2.156.225 3.753 3.753 0 00-1.67 1.414 3.884 3.884 0 00-.618 2.127c0 1.01.392 1.98 1.09 2.694a3.679 3.679 0 002.632 1.116v-.015z" fill="#000"/><path fill-rule="evenodd" clip-rule="evenodd" d="M233.677 28.633a3.182 3.182 0 001.8-.557 3.295 3.295 0 001.193-1.488 3.39 3.39 0 00.183-1.916 3.338 3.338 0 00-.89-1.696 3.21 3.21 0 00-1.661-.903 3.165 3.165 0 00-1.871.196 3.254 3.254 0 00-1.447 1.229 3.36 3.36 0 00-.536 1.845c0 .877.34 1.718.946 2.337a3.19 3.19 0 002.283.969v-.016z" fill="#212B2C"/><path fill-rule="evenodd" clip-rule="evenodd" d="M234.06 22.096v3.61h-3.572a2.595 2.595 0 010-.33c0-.872.338-1.707.94-2.324a3.172 3.172 0 012.269-.962c.128 0 .256.01.383.026l-.02-.02z" fill="url(#paint1_radial_1895:17220)"/><path fill-rule="evenodd" clip-rule="evenodd" d="M236.876 25.683a3.318 3.318 0 01-.825 1.887 3.19 3.19 0 01-1.764 1.006v-2.893h2.589z" fill="url(#paint2_radial_1895:17220)"/><path fill-rule="evenodd" clip-rule="evenodd" d="M404.464 263.592h1.391c.428.001.838.176 1.14.486.302.311.471.731.471 1.169v43.06a1.673 1.673 0 01-.473 1.165c-.302.31-.711.484-1.138.485h-1.391v-46.365z" fill="#fff"/><path fill-rule="evenodd" clip-rule="evenodd" d="M404.464 264.828h1.391c.1.001.196.043.267.117.071.073.11.172.11.275v42.89a.395.395 0 01-.112.272.376.376 0 01-.265.114h-1.391v-43.668z" fill="#B5B5B5"/><path d="M404.464 264.528h1.391a.66.66 0 01.468.201.708.708 0 01.197.49v42.89a.679.679 0 01-.67.686h-1.386v-.598h1.391a.087.087 0 00.085-.088v-42.89a.105.105 0 00-.025-.067.088.088 0 00-.06 0h-1.391v-.624z" fill="#8D8D8D"/><path fill-rule="evenodd" clip-rule="evenodd" d="M76.275 11.475a36.578 36.578 0 00-8.853 12.352 37.354 37.354 0 00-3.14 14.98v623.692a39.367 39.367 0 003.333 15.615 38.55 38.55 0 009.229 12.892c-6.329-7.117-9.857-16.382-9.903-26.006V36.31c-.008-9.177 3.319-18.03 9.334-24.835zm314.71 0a36.574 36.574 0 018.855 12.352 37.35 37.35 0 013.143 14.98v623.692a39.353 39.353 0 01-3.348 15.619 38.557 38.557 0 01-9.244 12.888c6.328-7.117 9.856-16.382 9.903-26.006V36.31c.008-9.177-3.319-18.03-9.334-24.835h.025z" fill="#EEE"/><path fill-rule="evenodd" clip-rule="evenodd" d="M100.205 1.982a35.236 35.236 0 00-15.644 3.676 36.09 36.09 0 00-12.518 10.284A36.336 36.336 0 0184.33 6.647 35.555 35.555 0 0199.268 3.36h268.728a35.555 35.555 0 0114.951 3.285 36.33 36.33 0 0112.299 9.303A36.077 36.077 0 00382.709 5.65a35.227 35.227 0 00-15.67-3.667H100.205zm.489 698.37a35.075 35.075 0 01-15.593-3.683 35.927 35.927 0 01-12.463-10.276 36.13 36.13 0 0012.235 9.289 35.35 35.35 0 0014.89 3.288h267.74a35.356 35.356 0 0014.89-3.291 36.138 36.138 0 0012.234-9.291 35.938 35.938 0 01-12.462 10.279 35.068 35.068 0 01-15.594 3.685H100.694z" fill="#EEE"/><path fill-rule="evenodd" clip-rule="evenodd" d="M172.653 5.139l2.211 1.64h117.535l2.211-1.625-121.957-.015z" fill="#7E757A"/><path fill-rule="evenodd" clip-rule="evenodd" d="M172.653 5.139l2.211 1.134h117.535l2.211-1.134H172.653z" fill="#000"/><path d="M404.464 116.768h1.391a.656.656 0 01.468.201.703.703 0 01.197.485v84.103a.69.69 0 01-.197.485.67.67 0 01-.473.201h-1.386v-.593h1.391a.066.066 0 00.033-.009.073.073 0 00.027-.022.089.089 0 00.025-.062v-84.103a.09.09 0 00-.025-.062.091.091 0 00-.06-.026h-1.391v-.598z" fill="#8D8D8D"/><path fill-rule="evenodd" clip-rule="evenodd" d="M343.787 697.324h6.835v4.543h-6.835v-4.543zm-230.037 0h6.83v4.543h-6.83v-4.543z" fill="#929292"/><path fill-rule="evenodd" clip-rule="evenodd" d="M120.58 698.97v1.382h-6.83v-1.382h6.83z" fill="#AB9793"/><path fill-rule="evenodd" clip-rule="evenodd" d="M62.8 186.228v-6.998h4.432v6.998H62.8zm0-121.094v-6.998h4.432v6.998H62.8z" fill="#929292"/><path fill-rule="evenodd" clip-rule="evenodd" d="M64.281 58.136h2.66v6.998h-2.66v-6.998z" fill="#BFB8B8"/><path fill-rule="evenodd" clip-rule="evenodd" d="M400.026 235.784v-3.043h4.438v3.043h-4.438z" fill="#929292"/><path fill-rule="evenodd" clip-rule="evenodd" d="M400.318 232.741h2.664v3.043h-2.664v-3.043z" fill="#AB9A96"/><path fill-rule="evenodd" clip-rule="evenodd" d="M288.813 5.112V.59h4.437v4.522h-4.437z" fill="#929292"/><path fill-rule="evenodd" clip-rule="evenodd" d="M288.813 2.741V1.364h4.437v1.377h-4.437z" fill="#A89794"/><path fill-rule="evenodd" clip-rule="evenodd" d="M350.622 698.97v1.382h-6.835v-1.382h6.835z" fill="#C48A7F"/><path fill-rule="evenodd" clip-rule="evenodd" d="M64.281 179.23v6.998h2.66v-6.998h-2.66z" fill="#BFB8B8"/><path d="M100.205 5.439c-8.652.008-16.948 3.526-23.071 9.784-6.124 6.257-9.575 14.744-9.6 23.602v623.677c.065 9.089 3.561 17.8 9.757 24.309 5.884 6.219 13.963 10.19 22.914 10.19h266.834c8.946 0 17.025-3.971 22.909-10.19 6.204-6.512 9.703-15.233 9.761-24.33V38.824c-.026-8.856-3.479-17.341-9.602-23.598-6.122-6.257-14.417-9.776-23.068-9.787H100.205zm-23.498 9.38a33.146 33.146 0 0110.778-7.386 32.517 32.517 0 0112.72-2.592h266.834c8.803.016 17.243 3.6 23.472 9.968 6.23 6.368 9.743 15.003 9.773 24.016v623.677c-.06 9.254-3.619 18.125-9.928 24.753-5.959 6.322-14.185 10.386-23.317 10.386H100.205c-9.117 0-17.337-4.044-23.331-10.371-6.307-6.629-9.863-15.5-9.924-24.753V38.824c0-4.462.862-8.88 2.537-13a33.894 33.894 0 017.22-11.005z" fill="#3A2627"/></g><defs><clipPath id="clip0_1895:17220"><rect x="74" y="6" width="320" height="685" rx="17.464" fill="#fff"/></clipPath><clipPath id="clip1_1895:17220"><rect x="87.362" y="91" width="293.228" height="605.263" rx="8.549" fill="#fff"/></clipPath><clipPath id="clip2_1895:17220"><path fill="#fff" transform="translate(100.186 198.716)" d="M0 0h33.683v33.426H0z"/></clipPath><clipPath id="clip3_1895:17220"><path fill="#fff" transform="translate(100.186 262.833)" d="M0 0h34.196v34.196H0z"/></clipPath><clipPath id="clip4_1895:17220"><path fill="#fff" transform="translate(101.041 327.805)" d="M0 0h33.17v33.255H0z"/></clipPath><clipPath id="clip5_1895:17220"><path fill="#fff" transform="translate(101.041 391.067)" d="M0 0h32.229v34.11H0z"/></clipPath><clipPath id="clip6_1895:17220"><path fill="#fff" transform="translate(101.895 455.184)" d="M0 0h33.683v33.426H0z"/></clipPath><clipPath id="clip7_1895:17220"><path fill="#fff" transform="translate(101.895 519.301)" d="M0 0h34.196v34.196H0z"/></clipPath><clipPath id="clip8_1895:17220"><path fill="#fff" transform="matrix(-1 0 0 1 134.381 583.418)" d="M0 0h32.913v33.683H0z"/></clipPath><clipPath id="clip9_1895:17220"><path fill="#fff" transform="translate(101.041 647.534)" d="M0 0h33.939v33.512H0z"/></clipPath><clipPath id="clip10_1895:17220"><path fill="#fff" transform="translate(317.194 50.84)" d="M0 0h62.196v27.357H0z"/></clipPath><radialGradient id="paint0_radial_1895:17220" cx="0" cy="0" r="1" gradientUnits="userSpaceOnUse" gradientTransform="matrix(332.401 0 0 507.057 232.121 375.713)"><stop stop-color="#635E62"/><stop offset=".45" stop-color="#615C60"/><stop offset=".61" stop-color="#5A5659"/><stop offset=".73" stop-color="#4F4B4E"/><stop offset=".82" stop-color="#3E3B3D"/><stop offset=".9" stop-color="#282627"/><stop offset=".97" stop-color="#0D0C0D"/><stop offset="1"/></radialGradient><radialGradient id="paint1_radial_1895:17220" cx="0" cy="0" r="1" gradientUnits="userSpaceOnUse" gradientTransform="matrix(1.77809 0 0 1.82037 232.271 23.88)"><stop stop-color="#8F9D9D"/><stop offset=".01" stop-color="#8E9C9C"/><stop offset="1" stop-color="#314442"/></radialGradient><radialGradient id="paint2_radial_1895:17220" cx="0" cy="0" r="1" gradientUnits="userSpaceOnUse" gradientTransform="matrix(6.96459 0 0 7.78217 1118.06 168.8)"><stop stop-color="#8F9D9D"/><stop offset=".01" stop-color="#8E9C9C"/><stop offset="1" stop-color="#314442"/></radialGradient><filter id="filter0_d_1895:17220" x="295.484" y="39.13" width="105.615" height="70.776" filterUnits="userSpaceOnUse" color-interpolation-filters="sRGB"><feFlood flood-opacity="0" result="BackgroundImageFix"/><feColorMatrix in="SourceAlpha" values="0 0 0 0 0 0 0 0 0 0 0 0 0 0 0 0 0 0 127 0" result="hardAlpha"/><feOffset dy="10"/><feGaussianBlur stdDeviation="10"/><feColorMatrix values="0 0 0 0 0.0588235 0 0 0 0 0.0823529 0 0 0 0 0.317647 0 0 0 0.05 0"/><feBlend in2="BackgroundImageFix" result="effect1_dropShadow_1895:17220"/><feBlend in="SourceGraphic" in2="effect1_dropShadow_1895:17220" result="shape"/></filter><filter id="filter1_b_1895:17220" x="50.446" y="597.505" width="367.061" height="117.433" filterUnits="userSpaceOnUse" color-interpolation-filters="sRGB"><feFlood flood-opacity="0" result="BackgroundImageFix"/><feGaussianBlur in="BackgroundImage" stdDeviation="11.619"/><feComposite in2="SourceAlpha" operator="in" result="effect1_backgroundBlur_1895:17220"/><feBlend in="SourceGraphic" in2="effect1_backgroundBlur_1895:17220" result="shape"/></filter><filter id="filter2_ddddd_1895:17220" x="54.966" y="-7.243" width="435.533" height="794.915" filterUnits="userSpaceOnUse" color-interpolation-filters="sRGB"><feFlood flood-opacity="0" result="BackgroundImageFix"/><feColorMatrix in="SourceAlpha" values="0 0 0 0 0 0 0 0 0 0 0 0 0 0 0 0 0 0 127 0" result="hardAlpha"/><feOffset dx="5.893" dy="5.893"/><feGaussianBlur stdDeviation="2.946"/><feColorMatrix values="0 0 0 0 0 0 0 0 0 0 0 0 0 0 0 0 0 0 0.14 0"/><feBlend in2="BackgroundImageFix" result="effect1_dropShadow_1895:17220"/><feColorMatrix in="SourceAlpha" values="0 0 0 0 0 0 0 0 0 0 0 0 0 0 0 0 0 0 127 0" result="hardAlpha"/><feOffset dx="11.785" dy="11.785"/><feGaussianBlur stdDeviation="5.893"/><feColorMatrix values="0 0 0 0 0 0 0 0 0 0 0 0 0 0 0 0 0 0 0.14 0"/><feBlend in2="effect1_dropShadow_1895:17220" result="effect2_dropShadow_1895:17220"/><feColorMatrix in="SourceAlpha" values="0 0 0 0 0 0 0 0 0 0 0 0 0 0 0 0 0 0 127 0" result="hardAlpha"/><feOffset dx="17.678" dy="17.678"/><feGaussianBlur stdDeviation="8.839"/><feColorMatrix values="0 0 0 0 0 0 0 0 0 0 0 0 0 0 0 0 0 0 0.14 0"/><feBlend in2="effect2_dropShadow_1895:17220" result="effect3_dropShadow_1895:17220"/><feColorMatrix in="SourceAlpha" values="0 0 0 0 0 0 0 0 0 0 0 0 0 0 0 0 0 0 127 0" result="hardAlpha"/><feOffset dx="29.463" dy="29.463"/><feGaussianBlur stdDeviation="14.731"/><feColorMatrix values="0 0 0 0 0 0 0 0 0 0 0 0 0 0 0 0 0 0 0.06 0"/><feBlend in2="effect3_dropShadow_1895:17220" result="effect4_dropShadow_1895:17220"/><feColorMatrix in="SourceAlpha" values="0 0 0 0 0 0 0 0 0 0 0 0 0 0 0 0 0 0 127 0" result="hardAlpha"/><feOffset dx="39.167" dy="39.167"/><feGaussianBlur stdDeviation="23.5"/><feColorMatrix values="0 0 0 0 0 0 0 0 0 0 0 0 0 0 0 0 0 0 0.06 0"/><feBlend in2="effect4_dropShadow_1895:17220" result="effect5_dropShadow_1895:17220"/><feBlend in="SourceGraphic" in2="effect5_dropShadow_1895:17220" result="shape"/></filter></defs></svg>