<svg width="320" height="630" fill="none" xmlns="http://www.w3.org/2000/svg"><g clip-path="url(#clip0_2010:17357)"><g filter="url(#filter0_dd_2010:17357)"><rect x="13" y="13" width="277" height="579" rx="25" fill="#C4C4C4"/></g><rect x="13" y="13" width="277" height="579" rx="25" fill="#fff"/><rect x="22" y="22" width="259.082" height="561" rx="20" fill="#F2F2FA"/><rect opacity=".35" x="254.714" y="34.321" width="14.509" height="7.139" rx="1.497" stroke="#1D1D36" stroke-width=".691"/><path opacity=".4" d="M270.259 36.509v2.763a1.499 1.499 0 000-2.763" fill="#1D1D36"/><rect x="255.75" y="35.357" width="12.436" height="5.066" rx=".921" fill="#1D1D36"/><path fill-rule="evenodd" clip-rule="evenodd" d="M245.618 35.551c1.537 0 3.015.59 4.129 1.649.084.081.218.08.3-.003l.802-.808a.224.224 0 00-.002-.316 7.563 7.563 0 00-10.46 0 .222.222 0 00-.066.157.219.219 0 00.064.159l.802.808a.214.214 0 00.301.003 5.996 5.996 0 014.13-1.649zm0 2.631c.844 0 1.659.314 2.285.88.084.08.218.079.3-.004l.801-.808a.223.223 0 00-.003-.318 4.97 4.97 0 00-6.765 0 .225.225 0 00-.003.318l.801.808a.215.215 0 00.3.004 3.408 3.408 0 012.284-.88zm1.604 1.77a.218.218 0 01-.065.16l-1.386 1.397a.215.215 0 01-.307 0l-1.386-1.397a.218.218 0 01.007-.317 2.374 2.374 0 013.065 0c.045.04.071.097.072.157zm-11.047-5.746h-.691a.691.691 0 00-.691.69v5.988c0 .382.31.691.691.691h.691a.69.69 0 00.691-.69v-5.988a.69.69 0 00-.691-.691zm-3.915 1.612h.691a.69.69 0 01.691.69v4.376a.69.69 0 01-.691.691h-.691a.691.691 0 01-.691-.69v-4.376c0-.382.31-.691.691-.691zm-2.533 1.612h-.691a.69.69 0 00-.691.69v2.764c0 .382.309.69.691.69h.691a.69.69 0 00.691-.69V38.12a.69.69 0 00-.691-.69zm-3.224 1.381h-.691a.69.69 0 00-.691.691v1.382c0 .382.309.69.691.69h.691a.69.69 0 00.691-.69v-1.382c0-.381-.31-.69-.691-.69z" fill="#1D1D36"/><path d="M44.244 46.238c2.688 0 4.284-2.102 4.284-5.662 0-1.34-.256-2.468-.747-3.34-.71-1.355-1.933-2.087-3.479-2.087-2.3 0-3.926 1.545-3.926 3.713 0 2.036 1.465 3.516 3.48 3.516 1.237 0 2.24-.579 2.739-1.582h.124c0 2.417-.915 3.86-2.46 3.86-.909 0-1.612-.498-1.854-1.297h-1.882c.315 1.736 1.787 2.879 3.72 2.879zm.066-5.361c-1.216 0-2.08-.865-2.08-2.073 0-1.18.908-2.08 2.087-2.08 1.18 0 2.087.915 2.087 2.109 0 1.18-.886 2.044-2.095 2.044zm7.37 5.258c.695 0 1.171-.498 1.171-1.157 0-.666-.476-1.157-1.172-1.157-.688 0-1.172.49-1.172 1.157 0 .66.484 1.157 1.172 1.157zm0-5.493c.695 0 1.171-.49 1.171-1.15 0-.666-.476-1.157-1.172-1.157-.688 0-1.172.49-1.172 1.157 0 .66.484 1.15 1.172 1.15zm8.087 5.34h1.81v-1.97h1.427v-1.597h-1.428v-7.002H58.91c-1.868 2.812-3.354 5.163-4.306 6.914v1.684h5.163v1.97zm-3.413-3.633a79.592 79.592 0 013.34-5.398h.102v5.508h-3.442v-.11zm10.739 3.632h1.89V35.413H67.1l-2.76 1.933v1.817l2.629-1.846h.124v8.664zM33.722 98.638c.091 2.743 2.328 4.413 5.84 4.413 3.623 0 5.92-1.791 5.92-4.625 0-2.227-1.275-3.482-4.2-4.11l-1.771-.374c-1.68-.384-2.388-.89-2.388-1.79 0-1.084 1.012-1.802 2.52-1.802 1.528 0 2.61.749 2.712 1.983h2.864c-.05-2.641-2.186-4.392-5.587-4.392-3.258 0-5.586 1.781-5.586 4.473 0 2.136 1.326 3.502 4.018 4.079l1.902.415c1.761.394 2.46.92 2.46 1.872 0 1.073-1.114 1.852-2.743 1.852-1.62 0-2.874-.79-3.016-1.994h-2.945zm23.161 4.16h3.249l-5.08-14.604h-3.593l-5.07 14.604h3.136l1.114-3.542h5.13l1.114 3.542zm-3.714-11.81h.07l1.873 5.98h-3.815l1.872-5.98zm11.775-.406h2.601c1.518 0 2.47.911 2.47 2.328 0 1.447-.901 2.328-2.44 2.328h-2.63v-4.656zm0 6.872h2.45l2.722 5.344h3.461l-3.077-5.8c1.68-.657 2.652-2.276 2.652-4.148 0-2.885-1.923-4.656-5.283-4.656h-5.981v14.604h3.056v-5.344zm9.934 1.184c.09 2.743 2.328 4.413 5.84 4.413 3.622 0 5.92-1.791 5.92-4.625 0-2.227-1.276-3.482-4.2-4.11l-1.771-.374c-1.68-.384-2.389-.89-2.389-1.79 0-1.084 1.012-1.802 2.52-1.802 1.528 0 2.611.749 2.712 1.983h2.864c-.05-2.641-2.185-4.392-5.586-4.392-3.259 0-5.586 1.781-5.586 4.473 0 2.136 1.325 3.502 4.017 4.079l1.903.415c1.761.394 2.46.92 2.46 1.872 0 1.073-1.114 1.852-2.743 1.852-1.62 0-2.874-.79-3.016-1.994h-2.945zm20.59-.485v-2.581h-6.65v2.58h6.65zm9.195 4.898c3.582 0 6.082-2.065 6.426-5.323h-2.975c-.324 1.73-1.63 2.793-3.441 2.793-2.338 0-3.805-1.923-3.805-5.04 0-3.077 1.487-5.01 3.795-5.01 1.781 0 3.157 1.174 3.441 2.965h2.975c-.233-3.268-2.904-5.495-6.416-5.495-4.231 0-6.912 2.844-6.912 7.55 0 4.716 2.661 7.56 6.912 7.56zm15.166-15.11c-4.332 0-7.044 2.905-7.044 7.56 0 4.645 2.712 7.55 7.044 7.55 4.321 0 7.043-2.905 7.043-7.55 0-4.655-2.722-7.56-7.043-7.56zm0 2.55c2.388 0 3.916 1.944 3.916 5.01 0 3.056-1.528 4.989-3.916 4.989-2.399 0-3.927-1.933-3.927-4.989 0-3.066 1.538-5.01 3.927-5.01zm16.43 12.307l4.909-14.604h-3.33l-3.34 11.456h-.07l-3.34-11.456h-3.421l4.909 14.604h3.683zm12.747-4.645v-2.581h-6.649v2.58h6.649zm2.384-5.567v.051h2.834v-.05c0-1.347 1.042-2.338 2.459-2.338 1.356 0 2.318.87 2.318 1.963 0 1.012-.456 1.75-1.933 3.228l-5.506 5.303v2.055h10.616v-2.429h-6.588v-.061l3.562-3.43c1.609-1.6 2.824-2.966 2.824-4.787 0-2.44-2.115-4.22-5.192-4.22-3.188 0-5.394 1.953-5.394 4.715zM34.896 122.06c0 3.542.931 6.386 3.006 8.875h2.712c-1.488-1.761-2.672-5.515-2.672-8.886 0-3.37 1.184-7.114 2.672-8.855h-2.712c-2.065 2.459-3.006 5.303-3.006 8.866zm14.002 5.991c3.583 0 6.082-2.065 6.426-5.323H52.35c-.324 1.73-1.63 2.793-3.44 2.793-2.339 0-3.806-1.923-3.806-5.04 0-3.077 1.488-5.01 3.795-5.01 1.781 0 3.158 1.174 3.441 2.965h2.975c-.232-3.268-2.904-5.495-6.416-5.495-4.23 0-6.912 2.844-6.912 7.55 0 4.716 2.662 7.56 6.912 7.56zm15.166-15.11c-4.332 0-7.044 2.905-7.044 7.56 0 4.645 2.712 7.55 7.044 7.55 4.321 0 7.044-2.905 7.044-7.55 0-4.655-2.723-7.56-7.044-7.56zm0 2.55c2.388 0 3.916 1.944 3.916 5.01 0 3.056-1.528 4.989-3.916 4.989-2.399 0-3.927-1.933-3.927-4.989 0-3.066 1.538-5.01 3.927-5.01zm16.43 12.307l4.909-14.604h-3.33l-3.34 11.456h-.07l-3.34-11.456h-3.42l4.908 14.604h3.684zm9.722 0v-14.604h-3.057v14.604h3.057zm2.687-14.604v14.604h5.576c4.382 0 6.963-2.723 6.963-7.358s-2.581-7.246-6.963-7.246h-5.576zm3.056 2.52h2.156c2.692 0 4.21 1.68 4.21 4.736 0 3.158-1.478 4.818-4.21 4.818h-2.156v-9.554zm18.405 7.439v-2.581h-6.65v2.581h6.65zm5.743 4.645h3.026v-14.604h-3.036l-3.775 2.621v2.753l3.724-2.571h.061v11.801zm11.857.324c3.845 0 6.133-2.915 6.133-7.753 0-1.953-.415-3.592-1.225-4.837-1.012-1.731-2.763-2.672-4.868-2.672-3.259 0-5.627 2.146-5.627 5.151 0 2.773 2.095 4.818 4.848 4.818 1.923 0 3.36-.962 3.886-2.389h.061c.081 3.35-1.144 5.263-3.158 5.263-1.174 0-2.135-.648-2.429-1.629h-3.016c.405 2.388 2.601 4.048 5.395 4.048zm.06-7.591c-1.518 0-2.661-1.113-2.661-2.611 0-1.467 1.184-2.621 2.682-2.621 1.487 0 2.651 1.154 2.651 2.642 0 1.477-1.154 2.59-2.672 2.59zm13.263 1.529c0-4.119-1.244-6.791-2.995-8.866h-2.723c1.215 1.427 2.672 4.848 2.672 8.855 0 4.008-1.457 7.449-2.672 8.886h2.723c1.761-2.105 2.995-4.777 2.995-8.875zm17.347-5.111h-3.086l-2.247 8.238h-.061l-2.257-8.238h-3.167l3.754 10.849h3.34l3.724-10.849zm5.218 8.885c-1.002 0-1.67-.506-1.67-1.315 0-.769.627-1.265 1.731-1.346l2.287-.142v.79c0 1.173-1.063 2.013-2.348 2.013zm-.972 2.136c1.356 0 2.702-.678 3.31-1.832h.06v1.66h2.854v-7.459c0-2.186-1.811-3.623-4.594-3.623-2.875 0-4.666 1.447-4.777 3.552h2.702c.142-.799.84-1.346 1.943-1.346 1.113 0 1.822.587 1.822 1.599v.719l-2.733.162c-2.702.162-4.22 1.305-4.22 3.279 0 1.953 1.569 3.289 3.633 3.289zm18.253-6.983c-.132-2.459-1.994-4.271-4.929-4.271-3.249 0-5.323 2.166-5.323 5.647 0 3.542 2.074 5.668 5.343 5.668 2.854 0 4.767-1.65 4.919-4.21h-2.753c-.182 1.184-.951 1.892-2.135 1.892-1.468 0-2.379-1.214-2.379-3.35 0-2.095.911-3.329 2.369-3.329 1.214 0 1.973.809 2.145 1.953h2.743zm11.552 0c-.131-2.459-1.993-4.271-4.928-4.271-3.249 0-5.323 2.166-5.323 5.647 0 3.542 2.074 5.668 5.343 5.668 2.854 0 4.767-1.65 4.919-4.21h-2.753c-.182 1.184-.951 1.892-2.136 1.892-1.467 0-2.378-1.214-2.378-3.35 0-2.095.911-3.329 2.368-3.329 1.215 0 1.974.809 2.146 1.953h2.742zm1.747 6.811h2.955v-10.849h-2.955v10.849zm1.477-12.043c.891 0 1.579-.679 1.579-1.529 0-.86-.688-1.528-1.579-1.528-.89 0-1.579.668-1.579 1.528 0 .85.689 1.529 1.579 1.529zm3.71 12.043h2.955v-6.224c0-1.407.84-2.378 2.166-2.378 1.325 0 1.993.809 1.993 2.226v6.376h2.955v-6.993c0-2.541-1.356-4.059-3.764-4.059-1.67 0-2.814.79-3.391 2.136h-.06v-1.933h-2.854v10.849zm17.068-8.896c1.316 0 2.216.951 2.277 2.338h-4.605c.102-1.356 1.033-2.338 2.328-2.338zm2.318 5.576c-.274.83-1.104 1.367-2.186 1.367-1.508 0-2.49-1.063-2.49-2.611v-.183h7.479v-.9c0-3.3-1.994-5.435-5.151-5.435-3.209 0-5.233 2.247-5.233 5.708 0 3.471 2.004 5.607 5.344 5.607 2.682 0 4.625-1.427 4.949-3.553h-2.712z" fill="#1D1D36"/><g filter="url(#filter1_d_2010:17357)"><rect x="216" y="51" width="54" height="26" rx="13" fill="#fff"/></g><rect x="216" y="51" width="54" height="26" rx="13" fill="#fff"/><g clip-path="url(#clip1_2010:17357)"><path fill-rule="evenodd" clip-rule="evenodd" d="M239.539 64.107c0 6.085-4.933 11.017-11.018 11.017-6.084 0-11.017-4.932-11.017-11.017 0-6.084 4.933-11.017 11.017-11.017 6.085 0 11.018 4.933 11.018 11.017" fill="#FFD443"/><path fill-rule="evenodd" clip-rule="evenodd" d="M239.539 64.107c0 6.085-4.933 11.017-11.018 11.017-6.084 0-11.017-4.932-11.017-11.017 0-6.084 4.933-11.017 11.017-11.017 6.085 0 11.018 4.933 11.018 11.017" fill="#FFA51F"/><path fill-rule="evenodd" clip-rule="evenodd" d="M239.129 61.165c-1.288-4.654-5.544-8.075-10.607-8.075-.955 0-1.877.134-2.76.362-.007.144-.021.286-.021.432a8.677 8.677 0 008.677 8.678 8.63 8.63 0 004.711-1.397" fill="#FFD443"/><path fill-rule="evenodd" clip-rule="evenodd" d="M218.857 58.818a10.956 10.956 0 00-1.353 5.289c0 5.976 4.759 10.828 10.692 11.002a10.959 10.959 0 001.353-5.29c0-5.976-4.759-10.828-10.692-11.001" fill="#FF6464"/><path fill-rule="evenodd" clip-rule="evenodd" d="M225.214 64.633a2.214 2.214 0 11-4.428 0 2.214 2.214 0 014.428 0" fill="#D93A4D"/><path d="M252.319 68.144v-7.789h-1.631l-2.342 5.673h-.097l-2.343-5.673h-1.63v7.789h1.296v-5.479h.075l2.154 5.177h.993l2.154-5.176h.075v5.478h1.296zm5.17.194c1.798 0 3.115-1.074 3.298-2.666h-1.371c-.189.874-.939 1.425-1.927 1.425-1.327 0-2.153-1.09-2.153-2.85 0-1.754.826-2.844 2.148-2.844.982 0 1.733.604 1.927 1.538h1.371c-.162-1.625-1.528-2.78-3.298-2.78-2.208 0-3.573 1.56-3.573 4.091 0 2.521 1.371 4.086 3.578 4.086z" fill="#4B5FF7"/><path d="M266.32 68.257c.513 0 .864-.367.864-.852 0-.492-.351-.853-.864-.853-.507 0-.863.361-.863.853 0 .485.356.852.863.852z" fill="#fff"/></g><path d="M36.012 70.926v-7.788h-.972v7.788h.972zm1.522 0h.928v-3.605c0-.82.589-1.48 1.35-1.48.734 0 1.214.443 1.214 1.134v3.951h.928v-3.74c0-.74.54-1.344 1.35-1.344.82 0 1.225.42 1.225 1.279v3.805h.928v-4.02c0-1.22-.663-1.9-1.85-1.9-.805 0-1.469.404-1.782 1.02h-.086c-.27-.605-.82-1.02-1.609-1.02-.777 0-1.36.372-1.625 1.02h-.086v-.918h-.885v5.818zm9.273 0h.928v-3.605c0-.82.589-1.48 1.35-1.48.734 0 1.214.443 1.214 1.134v3.951h.928v-3.74c0-.74.54-1.344 1.35-1.344.82 0 1.225.42 1.225 1.279v3.805h.928v-4.02c0-1.22-.663-1.9-1.85-1.9-.805 0-1.469.404-1.782 1.02h-.086c-.27-.605-.82-1.02-1.609-1.02-.777 0-1.36.372-1.624 1.02h-.087v-.918h-.885v5.818zm13.98-5.818h-.929v3.443c0 1.02-.561 1.63-1.587 1.63-.928 0-1.317-.485-1.317-1.532v-3.541h-.928v3.767c0 1.377.68 2.154 1.986 2.154.89 0 1.512-.367 1.803-1.015h.086v.912h.886v-5.818zm1.403 5.818h.928v-3.443c0-1.02.6-1.641 1.528-1.641s1.37.496 1.37 1.543v3.541h.93V67.16c0-1.382-.73-2.154-2.036-2.154-.89 0-1.457.378-1.748 1.02h-.087v-.917h-.885v5.818zm6.132 0h.928v-5.818h-.928v5.818zm.464-7a.65.65 0 00.647-.648.65.65 0 00-.647-.648.65.65 0 00-.648.648.65.65 0 00.648.648zm1.754 7h4.48v-.777h-3.357v-.086l3.34-4.259v-.696h-4.458v.777h3.352v.086l-3.357 4.275v.68zm7.54-.712c-.674 0-1.176-.346-1.176-.94 0-.582.388-.89 1.273-.95l1.566-.102v.535c0 .83-.707 1.457-1.663 1.457zm-.172.815c.777 0 1.414-.34 1.792-.96h.086v.857h.885v-3.983c0-1.21-.793-1.938-2.213-1.938-1.241 0-2.159.616-2.283 1.55h.94c.129-.46.615-.724 1.31-.724.87 0 1.318.394 1.318 1.112v.529l-1.679.102c-1.355.081-2.121.68-2.121 1.722 0 1.063.837 1.733 1.965 1.733zm4.523-7.427v1.506h-.94v.777h.94v3.53c0 1.112.48 1.554 1.678 1.554.184 0 .362-.021.546-.053v-.783a3.92 3.92 0 01-.432.021c-.605 0-.864-.291-.864-.977v-3.292h1.296v-.777h-1.296v-1.506h-.928zm3.303 7.324h.928v-5.818h-.928v5.818zm.464-7a.65.65 0 00.648-.648.65.65 0 00-.648-.648.65.65 0 00-.647.648.65.65 0 00.647.648zm4.28 7.103c1.658 0 2.683-1.144 2.683-3.012 0-1.873-1.025-3.012-2.683-3.012-1.656 0-2.682 1.139-2.682 3.012 0 1.868 1.025 3.012 2.682 3.012zm0-.837c-1.1 0-1.721-.799-1.721-2.175 0-1.382.62-2.175 1.721-2.175 1.102 0 1.722.793 1.722 2.175 0 1.376-.62 2.175-1.722 2.175zm3.795.734h.928v-3.443c0-1.02.6-1.641 1.528-1.641s1.37.496 1.37 1.543v3.541h.93V67.16c0-1.382-.73-2.154-2.036-2.154-.89 0-1.457.378-1.748 1.02h-.087v-.917h-.885v5.818zm5.975-4.226c0 .842.497 1.312 1.587 1.576l.999.243c.62.151.922.421.922.82 0 .535-.561.907-1.343.907-.745 0-1.21-.313-1.366-.804h-.955c.102.966.993 1.587 2.288 1.587 1.323 0 2.332-.718 2.332-1.76 0-.836-.529-1.311-1.625-1.576l-.896-.216c-.685-.167-1.009-.415-1.009-.815 0-.518.54-.869 1.231-.869.701 0 1.155.308 1.279.772h.917c-.124-.955-.971-1.56-2.191-1.56-1.236 0-2.17.729-2.17 1.695z" fill="#4B5FF7"/><g filter="url(#filter2_dd_2010:17357)"><rect x="33" y="144" width="237" height="351" rx="7" fill="#C4C4C4"/></g><rect x="33" y="144" width="237" height="351" rx="7" fill="#fff"/><path fill-rule="evenodd" clip-rule="evenodd" d="M50.656 165.073c0-1.766-.604-2.786-2.413-2.786-1.825 0-2.413 1.02-2.413 2.786 0 1.765.588 2.801 2.413 2.801 1.81 0 2.413-1.036 2.413-2.801zm1.72-.046c0 2.893-1.161 4.446-4.133 4.446-2.973 0-4.135-1.553-4.135-4.446 0-2.892 1.162-4.445 4.135-4.445 2.972 0 4.134 1.553 4.134 4.445zm16.03-.792c-.074-1.218-.192-2.086-1.958-2.086-1.706 0-2.25.822-2.383 2.086h4.34zm1.618 1.537h-5.96c.104 1.34.619 2.178 2.458 2.178 1.31 0 1.957-.351 2.59-.822l.912 1.233c-.942.746-1.928 1.111-3.502 1.111-3.443 0-4.12-1.994-4.12-4.445 0-2.421.736-4.446 4.09-4.446 3.473 0 3.59 2.497 3.532 5.191zm-8.883-1.644v5.177h-1.707v-4.827c0-1.248-.117-2.131-1.824-2.131-1.884 0-2.207.944-2.207 2.284v4.674h-1.722v-8.42l1.34-.106.146.746c.398-.502 1.192-.944 3.017-.944 2.56 0 2.957 1.431 2.957 3.547z" fill="#5E64A5"/><path fill-rule="evenodd" clip-rule="evenodd" d="M111.525 160.64c-2.825 0-3.604 1.872-3.604 4.4 0 2.557.765 4.461 3.545 4.461 1.707 0 2.59-.335 3.091-1.005l.191.913 1.309-.137v-11.738h-1.721v4.035c-.383-.594-1.163-.929-2.811-.929zm.324 1.675c1.884 0 2.487.73 2.487 2.725 0 2.025-.662 2.847-2.487 2.847-1.765 0-2.192-1.157-2.192-2.847 0-1.66.427-2.725 2.192-2.725z" fill="#0F1551"/><path d="M104.384 160.823l-1.34.106v8.419h1.722v-4.384c0-1.477.559-2.436 2.531-2.452v-1.781c-1.398.031-2.399.488-2.737 1.066l-.176-.974z" fill="#0F1551"/><path fill-rule="evenodd" clip-rule="evenodd" d="M93.471 165.07c0-2.892 1.162-4.445 4.134-4.445 2.972 0 4.135 1.553 4.135 4.445 0 2.893-1.163 4.446-4.135 4.446-2.972 0-4.134-1.553-4.134-4.446zm4.134-2.74c1.81 0 2.413 1.02 2.413 2.786s-.603 2.801-2.413 2.801c-1.824 0-2.413-1.035-2.413-2.801 0-1.766.589-2.786 2.413-2.786z" fill="#0F1551"/><path d="M85.582 165.07c0-2.573.824-4.445 4.149-4.445 1.471 0 2.472.533 3.148 1.324l-1.25 1.218c-.368-.396-.883-.822-1.898-.822-1.898 0-2.428 1.051-2.428 2.771s.5 2.801 2.428 2.801c.853 0 1.383-.274 1.986-.852l1.148 1.126c-.883.853-1.692 1.31-3.208 1.31-3.237 0-4.075-1.843-4.075-4.431z" fill="#0F1551"/><path fill-rule="evenodd" clip-rule="evenodd" d="M81.072 160.625c-3.355 0-4.09 2.024-4.09 4.445 0 2.451.677 4.446 4.12 4.446 1.574 0 2.56-.365 3.501-1.112l-.912-1.233c-.633.472-1.28.822-2.59.822-1.839 0-2.353-.837-2.457-2.177h5.96c.058-2.694-.06-5.191-3.532-5.191zm-2.428 3.654h4.34c-.073-1.218-.19-2.086-1.956-2.086-1.707 0-2.251.822-2.384 2.086z" fill="#0F1551"/><path d="M73.46 160.823l-1.34.106v8.419h1.721v-4.384c0-1.477.56-2.436 2.531-2.452v-1.781c-1.398.031-2.398.488-2.736 1.066l-.177-.974z" fill="#0F1551"/><path fill-rule="evenodd" clip-rule="evenodd" d="M119.928 157.923c0 .273.009.547.017.773l.027.72h.402l-.1-1.882h-.537l-.194.626c-.06.209-.122.458-.173.675h-.008a9.743 9.743 0 00-.154-.672l-.178-.629h-.548l-.116 1.882h.381l.032-.715c.009-.153.015-.331.022-.507l.01-.271h.006c.043.245.105.513.164.734l.195.728h.321l.221-.734c.07-.22.145-.488.202-.728h.008zm-3.129-.031h.488v1.524h.413v-1.524h.497v-.358h-1.398v.358z" fill="#0F1551"/><path d="M203.854 161.543l2.047-6.142h-1.383l-1.371 4.695h-.076l-1.397-4.695h-1.451l2.077 6.142h1.554zm6.219 0h1.392l-2.132-6.142h-1.512l-2.132 6.142h1.29l.472-1.464h2.158l.464 1.464zm-1.575-4.865h.077l.762 2.409h-1.609l.77-2.409zm6.071 5.023c1.481 0 2.562-.915 2.669-2.243h-1.252c-.123.676-.677 1.111-1.413 1.111-.971 0-1.571-.805-1.571-2.099s.6-2.095 1.567-2.095c.732 0 1.29.464 1.413 1.171h1.252c-.094-1.337-1.209-2.303-2.665-2.303-1.784 0-2.882 1.23-2.882 3.227 0 2.001 1.102 3.231 2.882 3.231zm6.189 0c1.482 0 2.563-.915 2.67-2.243h-1.252c-.123.676-.677 1.111-1.413 1.111-.971 0-1.571-.805-1.571-2.099s.6-2.095 1.566-2.095c.733 0 1.29.464 1.414 1.171h1.251c-.093-1.337-1.209-2.303-2.665-2.303-1.783 0-2.882 1.23-2.882 3.227 0 2.001 1.103 3.231 2.882 3.231zm4.866-.158v-6.142h-1.285v6.142h1.285zm2.448 0v-3.844h.077l2.835 3.844h1.064v-6.142h-1.23v3.827h-.077l-2.826-3.827h-1.073v6.142h1.23zm9.144 0h1.392l-2.133-6.142h-1.511l-2.133 6.142h1.29l.473-1.464h2.158l.464 1.464zm-1.575-4.865h.077l.762 2.409h-1.61l.771-2.409zm5.853 4.865v-5.044h1.844v-1.098h-4.973v1.098h1.844v5.044h1.285zm3.993 0v-6.142h-1.285v6.142h1.285zm3.904-6.3c-1.805 0-2.958 1.235-2.958 3.227 0 1.992 1.136 3.231 2.958 3.231 1.818 0 2.95-1.239 2.95-3.231 0-1.988-1.136-3.227-2.95-3.227zm0 1.128c1.001 0 1.639.813 1.639 2.099 0 1.281-.638 2.103-1.639 2.103-1.009 0-1.643-.822-1.643-2.103 0-1.286.647-2.099 1.643-2.099zm5.126 5.172v-3.844h.076l2.835 3.844h1.065v-6.142h-1.231v3.827h-.076l-2.827-3.827h-1.073v6.142h1.231zm-104.233 7.366c.056.9.805 1.475 1.92 1.475 1.192 0 1.938-.603 1.938-1.565 0-.756-.425-1.175-1.457-1.415l-.554-.136c-.655-.153-.92-.359-.92-.718 0-.453.411-.749 1.028-.749.586 0 .99.289 1.063.752h.76c-.045-.846-.791-1.442-1.812-1.442-1.098 0-1.83.596-1.83 1.491 0 .739.415 1.178 1.324 1.391l.649.157c.665.157.958.387.958.77 0 .446-.46.77-1.087.77-.673 0-1.14-.303-1.206-.781h-.774zm7.918 1.353h.83l-1.816-5.029h-.84l-1.816 5.029h.802l.464-1.335h1.916l.46 1.335zm-1.446-4.116h.059l.729 2.126h-1.52l.732-2.126zm3.712-.227h1.101c.603 0 .973.331.973.878 0 .562-.349.882-.952.882h-1.122v-1.76zm0 2.426h1.101l1.025 1.917h.902l-1.129-2.046c.614-.209.976-.76.976-1.436 0-.944-.652-1.547-1.666-1.547h-1.99v5.029h.781v-1.917zm3.527.564c.056.9.805 1.475 1.92 1.475 1.192 0 1.938-.603 1.938-1.565 0-.756-.425-1.175-1.457-1.415l-.554-.136c-.655-.153-.92-.359-.92-.718 0-.453.411-.749 1.028-.749.586 0 .99.289 1.063.752h.76c-.045-.846-.791-1.442-1.812-1.442-1.098 0-1.83.596-1.83 1.491 0 .739.415 1.178 1.324 1.391l.648.157c.666.157.959.387.959.77 0 .446-.46.77-1.088.77-.672 0-1.139-.303-1.205-.781h-.774zm6.876-.306v-.736h-2.286v.736h2.286zm3.029 1.781c1.122 0 1.948-.662 2.087-1.656h-.777c-.139.568-.645.927-1.31.927-.906 0-1.471-.735-1.471-1.906 0-1.175.565-1.91 1.467-1.91.663 0 1.168.397 1.314 1.014h.777c-.125-1.024-.982-1.742-2.091-1.742-1.397 0-2.265 1.007-2.265 2.638 0 1.627.871 2.635 2.269 2.635zm5.036-5.273c-1.443 0-2.349 1.01-2.349 2.634 0 1.621.889 2.639 2.349 2.639 1.457 0 2.342-1.021 2.342-2.639 0-1.62-.892-2.634-2.342-2.634zm0 .728c.955 0 1.544.739 1.544 1.906 0 1.161-.589 1.91-1.544 1.91-.965 0-1.551-.749-1.551-1.91 0-1.167.603-1.906 1.551-1.906zm5.277 4.423l1.787-5.029h-.829l-1.349 4.053h-.059l-1.356-4.053h-.85l1.798 5.029h.858zm4.314-1.659v-.736h-2.286v.736h2.286zm.837-1.917v.01h.739v-.01c0-.537.372-.899.927-.899.519 0 .913.345.913.805 0 .369-.164.634-.837 1.335l-1.701 1.77v.565h3.388v-.701h-2.3v-.059l1.119-1.133c.843-.854 1.101-1.289 1.101-1.823 0-.829-.704-1.435-1.659-1.435-.99 0-1.69.648-1.69 1.575zm6.235 1.474c0 1.269.327 2.311 1.007 3.175h.662c-.505-.641-.896-1.979-.896-3.178 0-1.192.394-2.531.896-3.172h-.662c-.68.864-1.007 1.907-1.007 3.175zm4.503 2.224c1.122 0 1.948-.662 2.087-1.656h-.777c-.139.568-.645.927-1.31.927-.907 0-1.471-.735-1.471-1.906 0-1.175.564-1.91 1.467-1.91.662 0 1.168.397 1.314 1.014h.777c-.125-1.024-.983-1.742-2.091-1.742-1.397 0-2.265 1.007-2.265 2.638 0 1.627.871 2.635 2.269 2.635zm5.036-5.273c-1.443 0-2.349 1.01-2.349 2.634 0 1.621.888 2.639 2.349 2.639 1.456 0 2.342-1.021 2.342-2.639 0-1.62-.892-2.634-2.342-2.634zm0 .728c.955 0 1.544.739 1.544 1.906 0 1.161-.589 1.91-1.544 1.91-.966 0-1.551-.749-1.551-1.91 0-1.167.603-1.906 1.551-1.906zm5.276 4.423l1.788-5.029h-.829l-1.349 4.053h-.059l-1.356-4.053h-.85l1.798 5.029h.857zm3.224 0v-5.029h-.781v5.029h.781zm1.039-5.029v5.029h1.815c1.499 0 2.367-.924 2.367-2.531 0-1.582-.875-2.498-2.367-2.498h-1.815zm.78.711h.948c1.042 0 1.659.662 1.659 1.798 0 1.154-.606 1.809-1.659 1.809h-.948v-3.607zm6.444 2.659v-.736h-2.286v.736h2.286zm2.085 1.659h.78v-5.029h-.777l-1.324.934v.798l1.261-.892h.06v4.189zm3.711.122c1.259 0 1.994-1.001 1.994-2.705 0-.61-.105-1.126-.31-1.53-.324-.676-.91-1.038-1.652-1.038-1.067 0-1.823.728-1.823 1.756 0 .969.697 1.677 1.655 1.677.596 0 1.077-.279 1.318-.764h.059c-.014 1.213-.463 1.91-1.234 1.91-.46 0-.815-.251-.937-.662h-.788c.154.822.826 1.356 1.718 1.356zm.035-2.503c-.617 0-1.049-.432-1.049-1.042a1.03 1.03 0 011.056-1.042c.596 0 1.053.457 1.053 1.06 0 .592-.446 1.024-1.06 1.024zm4.203.279c0-1.268-.327-2.311-1.003-3.175h-.663c.502.641.896 1.98.896 3.172 0 1.199-.394 2.537-.896 3.178h.663c.676-.864 1.003-1.906 1.003-3.175zm6.089-1.694h-.795l-.941 2.994h-.059l-.944-2.994h-.802l1.37 3.796h.805l1.366-3.796zm1.645 3.228c-.408 0-.704-.199-.704-.541 0-.334.237-.512.76-.547l.927-.059v.317c0 .471-.418.83-.983.83zm-.192.63c.499 0 .913-.216 1.14-.596h.059v.534h.722v-2.593c0-.802-.537-1.276-1.488-1.276-.861 0-1.475.418-1.551 1.07h.725c.083-.268.372-.422.791-.422.512 0 .777.227.777.628v.327l-1.028.06c-.903.055-1.412.449-1.412 1.132 0 .694.533 1.136 1.265 1.136zm5.977-2.617c-.097-.76-.672-1.314-1.624-1.314-1.104 0-1.777.742-1.777 1.959 0 1.237.676 1.983 1.781 1.983.937 0 1.523-.53 1.62-1.293h-.728c-.098.408-.422.624-.896.624-.623 0-1.01-.492-1.01-1.314 0-.809.383-1.29 1.01-1.29.502 0 .809.276.896.645h.728zm3.848 0c-.097-.76-.673-1.314-1.624-1.314-1.105 0-1.777.742-1.777 1.959 0 1.237.676 1.983 1.781 1.983.937 0 1.523-.53 1.62-1.293h-.728c-.098.408-.422.624-.896.624-.624 0-1.011-.492-1.011-1.314 0-.809.384-1.29 1.011-1.29.502 0 .809.276.896.645h.728zm.648 2.555h.746v-3.796h-.746v3.796zm.373-4.461c.279 0 .485-.199.485-.457 0-.261-.206-.46-.485-.46s-.484.199-.484.46c0 .258.205.457.484.457zm1.251 4.461h.75v-2.22c0-.593.352-.962.906-.962s.819.303.819.913v2.269h.749v-2.457c0-.903-.467-1.412-1.314-1.412-.571 0-.948.255-1.132.676h-.056v-.603h-.722v3.796zm5.615-3.231c.554 0 .917.387.934.983h-1.917c.042-.593.429-.983.983-.983zm.931 2.206c-.14.296-.45.46-.903.46-.599 0-.986-.422-1.011-1.087v-.042h2.68v-.261c0-1.192-.637-1.914-1.693-1.914-1.07 0-1.75.77-1.75 1.983s.666 1.959 1.753 1.959c.868 0 1.474-.418 1.645-1.098h-.721zM47.659 198.488l1.963-5.842H48.29l-1.336 4.583h-.028l-1.336-4.583h-1.368l1.963 5.842h1.474zm5.756 0h1.3l-2.033-5.842h-1.437l-2.028 5.842h1.255l.445-1.417h2.053l.445 1.417zm-1.486-4.724h.029l.749 2.392H51.18l.748-2.392zm5.684 4.825c1.433 0 2.433-.826 2.57-2.129h-1.19c-.13.692-.651 1.117-1.376 1.117-.935 0-1.522-.769-1.522-2.016 0-1.231.595-2.004 1.518-2.004.712 0 1.263.47 1.376 1.186h1.19c-.093-1.307-1.161-2.198-2.566-2.198-1.692 0-2.765 1.138-2.765 3.02 0 1.886 1.065 3.024 2.765 3.024zm5.91 0c1.433 0 2.433-.826 2.571-2.129h-1.19c-.13.692-.652 1.117-1.377 1.117-.935 0-1.522-.769-1.522-2.016 0-1.231.595-2.004 1.518-2.004.713 0 1.263.47 1.377 1.186h1.19c-.093-1.307-1.162-2.198-2.567-2.198-1.692 0-2.765 1.138-2.765 3.02 0 1.886 1.065 3.024 2.765 3.024zm4.55-.101v-5.842h-1.222v5.842h1.222zm2.142 0v-3.826h.036l2.733 3.826h1.012v-5.842h-1.17v3.806h-.032l-2.729-3.806h-1.02v5.842h1.17zm8.627-1.012h-2.648v-1.474h2.498v-.939h-2.498v-1.409h2.648v-1.008h-3.87v5.842h3.87v-1.012zm3.696 1.012v-3.826h.036l2.733 3.826h1.012v-5.842h-1.17v3.806h-.033l-2.728-3.806h-1.02v5.842h1.17zm8.582 0h1.3l-2.033-5.842H88.95l-2.028 5.842h1.255l.445-1.417h2.052l.446 1.417zm-1.486-4.724h.028l.75 2.392h-1.527l.749-2.392zm9.57 4.724v-5.842h-1.417l-1.66 4.142h-.032l-1.66-4.142h-1.417v5.842h1.09v-3.943h.032l1.587 3.886h.769l1.587-3.886h.032v3.943h1.089zm4.842-1.012h-2.648v-1.474h2.498v-.939h-2.498v-1.409h2.648v-1.008h-3.871v5.842h3.871v-1.012zM44.62 219.14c.104 1.937 1.708 3.161 4.082 3.161 2.539 0 4.134-1.254 4.134-3.258 0-1.566-.913-2.449-3.11-2.969l-1.18-.289c-1.38-.341-1.944-.787-1.944-1.544 0-.95.883-1.603 2.175-1.603 1.291 0 2.174.646 2.27 1.715h1.619c-.052-1.848-1.603-3.117-3.867-3.117-2.286 0-3.896 1.269-3.896 3.117 0 1.491.912 2.412 2.88 2.887l1.387.334c1.388.341 1.974.838 1.974 1.669 0 .958-.972 1.655-2.323 1.655-1.41 0-2.442-.697-2.56-1.758h-1.64zm16.854 2.983h1.759l-3.867-10.709H57.57l-3.867 10.709h1.73l.98-2.894h4.081l.98 2.894zm-3.043-8.928h.044l1.596 4.698h-3.236l1.596-4.698zm7.903-.386h2.285c1.284 0 2.064.727 2.064 1.922 0 1.225-.735 1.93-2.02 1.93h-2.33v-3.852zm0 5.195h2.285l2.182 4.119h1.915l-2.397-4.379c1.306-.438 2.078-1.61 2.078-3.057 0-1.997-1.373-3.273-3.577-3.273h-4.15v10.709h1.662v-4.119zm7.457 1.136c.104 1.937 1.707 3.161 4.082 3.161 2.538 0 4.134-1.254 4.134-3.258 0-1.566-.913-2.449-3.11-2.969l-1.18-.289c-1.38-.341-1.945-.787-1.945-1.544 0-.95.884-1.603 2.175-1.603s2.174.646 2.271 1.715h1.618c-.052-1.848-1.603-3.117-3.867-3.117-2.286 0-3.896 1.269-3.896 3.117 0 1.491.913 2.412 2.88 2.887l1.387.334c1.388.341 1.974.838 1.974 1.669 0 .958-.972 1.655-2.322 1.655-1.41 0-2.442-.697-2.561-1.758h-1.64zm14.708-.639v-1.447h-4.868v1.447h4.868zm6.626 3.8c2.464 0 4.142-1.299 4.55-3.51H98.02c-.334 1.291-1.395 2.056-2.887 2.056-1.967 0-3.214-1.581-3.214-4.082 0-2.479 1.262-4.075 3.206-4.075 1.455 0 2.598.898 2.895 2.271h1.647c-.282-2.234-2.115-3.725-4.542-3.725-2.99 0-4.905 2.137-4.905 5.529 0 3.414 1.9 5.536 4.905 5.536zm10.938-11.065c-3.087 0-5.017 2.13-5.017 5.536 0 3.407 1.93 5.529 5.017 5.529 3.08 0 5.017-2.122 5.017-5.529 0-3.406-1.937-5.536-5.017-5.536zm0 1.462c2.034 0 3.31 1.573 3.31 4.074 0 2.494-1.276 4.067-3.31 4.067-2.033 0-3.317-1.573-3.317-4.067 0-2.501 1.284-4.074 3.317-4.074zm11.339 9.425l3.822-10.709h-1.773l-2.924 8.839h-.045l-2.917-8.839h-1.803l3.822 10.709h1.818zm9.565-3.622v-1.447h-4.868v1.447h4.868zm1.862-3.948v.015h1.573v-.022c0-1.114.883-1.96 2.056-1.96 1.113 0 1.974.757 1.974 1.707 0 .839-.341 1.403-1.647 2.761l-3.867 3.941v1.128h7.325v-1.403h-5.084v-.037l2.68-2.694c1.565-1.603 2.233-2.531 2.233-3.777 0-1.7-1.521-2.999-3.562-2.999-2.13 0-3.681 1.41-3.681 3.34zm13.052 3.362c0 2.583.683 4.676 2.145 6.494h1.41c-1.069-1.247-1.908-4.06-1.908-6.501 0-2.442.839-5.248 1.908-6.494h-1.41c-1.462 1.811-2.145 3.903-2.145 6.501zm9.602 4.386c2.464 0 4.141-1.299 4.55-3.51h-1.656c-.333 1.291-1.395 2.056-2.887 2.056-1.966 0-3.213-1.581-3.213-4.082 0-2.479 1.262-4.075 3.206-4.075 1.455 0 2.598.898 2.894 2.271h1.648c-.282-2.234-2.115-3.725-4.542-3.725-2.991 0-4.906 2.137-4.906 5.529 0 3.414 1.9 5.536 4.906 5.536zm10.938-11.065c-3.087 0-5.017 2.13-5.017 5.536 0 3.407 1.93 5.529 5.017 5.529 3.08 0 5.017-2.122 5.017-5.529 0-3.406-1.937-5.536-5.017-5.536zm0 1.462c2.034 0 3.31 1.573 3.31 4.074 0 2.494-1.276 4.067-3.31 4.067-2.033 0-3.317-1.573-3.317-4.067 0-2.501 1.284-4.074 3.317-4.074zm11.339 9.425l3.822-10.709h-1.774l-2.924 8.839h-.044l-2.917-8.839h-1.803l3.822 10.709h1.818zm6.931 0v-10.709h-1.663v10.709h1.663zm2.232-10.709v10.709h3.778c3.191 0 5.069-1.989 5.069-5.373 0-3.377-1.885-5.336-5.069-5.336h-3.778zm1.663 1.432h1.959c2.263 0 3.525 1.395 3.525 3.919 0 2.53-1.254 3.918-3.525 3.918h-1.959v-7.837zm13.773 5.655v-1.447h-4.869v1.447h4.869zm4.244 3.622h1.625v-10.709h-1.64l-2.821 2.003v1.633l2.798-1.989h.038v9.062zm8.088.2c2.686 0 4.275-2.122 4.275-5.707 0-1.254-.223-2.308-.661-3.161-.69-1.44-1.967-2.249-3.555-2.249-2.264 0-3.911 1.558-3.911 3.703 0 2.034 1.521 3.54 3.555 3.54 1.38 0 2.508-.697 2.939-1.751h.03c0 2.701-.98 4.245-2.65 4.245-.987 0-1.803-.586-2.056-1.462h-1.67c.319 1.699 1.796 2.842 3.704 2.842zm.059-5.232c-1.299 0-2.256-.95-2.256-2.234 0-1.247 1.002-2.234 2.278-2.234 1.277 0 2.271.995 2.271 2.264 0 1.262-.979 2.204-2.293 2.204zm8.964.824c0-3.258-1.054-5.158-2.145-6.501h-1.41c.735.853 1.907 3.287 1.907 6.494 0 3.206-1.165 5.64-1.907 6.501h1.41c1.091-1.351 2.145-3.251 2.145-6.494zm-168.147 11.4H49.89l-1.96 6.242h-.03l-1.959-6.242h-1.706l2.812 7.808h1.722l2.798-7.808zm3.747 6.673c-.861 0-1.425-.446-1.425-1.129 0-.667.541-1.091 1.499-1.157l1.922-.119v.616c0 1.017-.876 1.789-1.996 1.789zm-.446 1.269c1.025 0 2.012-.55 2.464-1.418h.038v1.284h1.536v-5.381c0-1.566-1.21-2.568-3.102-2.568-1.93 0-3.132 1.04-3.221 2.45h1.514c.14-.698.72-1.143 1.647-1.143.98 0 1.566.519 1.566 1.388v.601l-2.137.126c-1.856.104-2.902.942-2.902 2.308 0 1.403 1.069 2.353 2.597 2.353zm12.556-5.255c-.14-1.536-1.365-2.828-3.376-2.828-2.22 0-3.674 1.566-3.674 4.045 0 2.524 1.454 4.052 3.688 4.052 1.878 0 3.207-1.128 3.377-2.79h-1.543c-.186.905-.832 1.447-1.819 1.447-1.247 0-2.07-.994-2.07-2.709 0-1.677.816-2.709 2.055-2.709 1.047 0 1.67.661 1.834 1.492h1.528zm8.11 0c-.14-1.536-1.365-2.828-3.376-2.828-2.219 0-3.674 1.566-3.674 4.045 0 2.524 1.455 4.052 3.689 4.052 1.878 0 3.206-1.128 3.377-2.79h-1.544c-.186.905-.831 1.447-1.818 1.447-1.247 0-2.07-.994-2.07-2.709 0-1.677.816-2.709 2.055-2.709 1.046 0 1.67.661 1.833 1.492h1.529zm1.462 5.121h1.603v-7.808h-1.603v7.808zm.801-8.95c.52 0 .935-.409.935-.913a.924.924 0 00-.935-.921.922.922 0 00-.928.921.92.92 0 00.928.913zm2.7 8.95H82.1v-4.549c0-1.21.728-2.012 1.856-2.012 1.113 0 1.662.646 1.662 1.819v4.742h1.61v-5.054c0-1.789-.986-2.887-2.708-2.887-1.203 0-2.034.549-2.457 1.44h-.037v-1.307h-1.529v7.808zm11.807-6.657c1.12 0 1.877.838 1.915 2.033h-3.904c.081-1.18.868-2.033 1.989-2.033zm1.907 4.364c-.215.683-.89 1.143-1.803 1.143-1.284 0-2.1-.898-2.1-2.256v-.097h5.514v-.549c0-2.368-1.351-3.897-3.518-3.897-2.204 0-3.615 1.633-3.615 4.082 0 2.464 1.388 4.015 3.682 4.015 1.788 0 3.139-1.016 3.362-2.441H94.21zm-48.447 32.655v-3.825h.036l2.733 3.825h1.012v-5.841h-1.17v3.805h-.032l-2.729-3.805h-1.02v5.841h1.17zm8.582 0h1.3l-2.032-5.841h-1.438l-2.028 5.841h1.255l.446-1.417H53.9l.445 1.417zm-1.485-4.724h.028l.749 2.393h-1.526l.748-2.393zm9.57 4.724v-5.841h-1.417l-1.66 4.141h-.033l-1.66-4.141h-1.416v5.841h1.089v-3.943h.032l1.587 3.887h.77l1.586-3.887h.032v3.943h1.09zm4.841-1.012h-2.648V265h2.498v-.939h-2.498v-1.409h2.648v-1.008h-3.87v5.841h3.87v-1.012zm-22.637 14.193c.127 1.892 1.7 3.124 3.97 3.124 2.465 0 4.009-1.224 4.009-3.183 0-1.537-.898-2.39-3.117-2.947l-1.121-.297c-1.455-.378-2.048-.861-2.048-1.67 0-1.046.964-1.766 2.352-1.766 1.395 0 2.323.705 2.442 1.855h1.336c-.06-1.796-1.603-3.057-3.733-3.057-2.227 0-3.785 1.247-3.785 3.028 0 1.454.875 2.323 2.85 2.827l1.373.357c1.44.371 2.07.927 2.07 1.833 0 1.054-1.054 1.818-2.5 1.818-1.53 0-2.628-.764-2.754-1.922h-1.344zm15.933-4.772h-1.291v4.534c0 1.314-.757 2.175-2.011 2.175-1.195 0-1.782-.675-1.782-1.93v-4.779h-1.291v5.009c0 1.752.987 2.843 2.672 2.843 1.187 0 1.989-.497 2.449-1.388h.03v1.254h1.224v-7.718zm1.773 7.718H68.1v-1.061h-4.268v-.022l4.245-5.693v-.942h-5.729v1.061h4.267v.022l-4.274 5.715v.92zm7.598 0h1.291v-7.718h-1.29v7.718zm.646-9.017a.81.81 0 00.809-.802.804.804 0 00-.81-.801.803.803 0 00-.8.801c0 .438.363.802.8.802zm5.743 2.286c1.217 0 2.026.92 2.055 2.212H74.19c.082-1.284.928-2.212 2.138-2.212zm2.026 4.52c-.216.727-.935 1.224-1.915 1.224-1.388 0-2.256-.972-2.256-2.449v-.074h5.536v-.49c0-2.338-1.284-3.852-3.37-3.852-2.13 0-3.495 1.626-3.495 4.023 0 2.427 1.344 3.963 3.555 3.963 1.685 0 2.991-.995 3.214-2.345h-1.27zm5.994-.735c.126 1.892 1.7 3.124 3.97 3.124 2.464 0 4.008-1.224 4.008-3.183 0-1.537-.898-2.39-3.117-2.947l-1.12-.297c-1.455-.378-2.05-.861-2.05-1.67 0-1.046.966-1.766 2.353-1.766 1.396 0 2.324.705 2.442 1.855h1.336c-.06-1.796-1.603-3.057-3.733-3.057-2.227 0-3.785 1.247-3.785 3.028 0 1.454.876 2.323 2.85 2.827l1.373.357c1.44.371 2.07.927 2.07 1.833 0 1.054-1.053 1.818-2.5 1.818-1.53 0-2.628-.764-2.754-1.922h-1.343zm9.594 2.946h1.292v-4.839c0-1.068.742-1.87 1.766-1.87.958 0 1.581.609 1.581 1.536v5.173h1.291v-4.905c0-1.047.72-1.804 1.744-1.804 1.017 0 1.604.624 1.604 1.677v5.032h1.291v-5.328c0-1.529-.987-2.524-2.516-2.524-1.084 0-1.989.549-2.42 1.47h-.03c-.333-.935-1.112-1.47-2.166-1.47-1.04 0-1.826.549-2.19 1.366h-.03v-1.232h-1.217v7.718zm12.542 0h1.291v-7.718h-1.291v7.718zm.645-9.017a.81.81 0 00.809-.802.804.804 0 00-.809-.801.803.803 0 00-.801.801c0 .438.364.802.801.802zm3.064-.564v1.863h-1.15v1.061h1.15v4.653c0 1.485.549 2.064 1.967 2.064.304 0 .66-.023.816-.06v-1.083a4.986 4.986 0 01-.534.037c-.661 0-.957-.319-.957-1.024v-4.587h1.499v-1.061h-1.499v-1.863h-1.292zm4.496 9.581h1.292v-4.497c0-1.336.794-2.212 2.078-2.212 1.209 0 1.825.735 1.825 1.959v4.75h1.292v-4.987c0-1.722-1.024-2.865-2.716-2.865-1.173 0-2.019.505-2.45 1.366h-.029v-4.223h-1.292v10.709zm56.869-16.127v-5.841h-1.222v5.841h1.222zm2.142 0v-3.825h.036l2.733 3.825h1.012v-5.841h-1.17v3.805h-.033l-2.728-3.805h-1.02v5.841h1.17zm7.392-5.942c-1.733 0-2.818 1.161-2.818 3.024 0 1.858 1.085 3.02 2.818 3.02 1.728 0 2.817-1.162 2.817-3.02 0-1.863-1.089-3.024-2.817-3.024zm0 1.02c.955 0 1.566.777 1.566 2.004 0 1.222-.611 1.995-1.566 1.995-.96 0-1.571-.773-1.571-1.995 0-1.227.615-2.004 1.571-2.004zm6.189 5.024c1.433 0 2.433-.826 2.571-2.13h-1.19c-.13.692-.652 1.118-1.377 1.118-.935 0-1.522-.77-1.522-2.016 0-1.231.595-2.004 1.518-2.004.713 0 1.263.469 1.377 1.186h1.19c-.093-1.308-1.162-2.198-2.567-2.198-1.692 0-2.765 1.137-2.765 3.02 0 1.886 1.065 3.024 2.765 3.024zm4.55-5.943h-1.222v3.777c0 1.287.951 2.166 2.449 2.166 1.494 0 2.445-.879 2.445-2.166v-3.777h-1.222v3.655c0 .749-.442 1.239-1.223 1.239-.785 0-1.227-.49-1.227-1.239v-3.655zm8.425 4.829h-2.555v-4.829h-1.222v5.841h3.777v-1.012zm4.55 1.012h1.299l-2.032-5.841h-1.437l-2.028 5.841h1.255l.445-1.417h2.052l.446 1.417zm-1.486-4.724h.028l.749 2.393h-1.526l.749-2.393zm5.21 4.724v-4.833h1.692v-1.008h-4.603v1.008h1.688v4.833h1.223zm3.591 0v-5.841h-1.223v5.841h1.223zm3.607-5.942c-1.733 0-2.818 1.161-2.818 3.024 0 1.858 1.085 3.02 2.818 3.02 1.728 0 2.817-1.162 2.817-3.02 0-1.863-1.089-3.024-2.817-3.024zm0 1.02c.955 0 1.566.777 1.566 2.004 0 1.222-.611 1.995-1.566 1.995-.96 0-1.571-.773-1.571-1.995 0-1.227.615-2.004 1.571-2.004zm4.777 4.922v-3.825h.036l2.732 3.825h1.012v-5.841h-1.169v3.805h-.033l-2.728-3.805h-1.02v5.841h1.17zm6.4-5.841v5.841h2.23c1.753 0 2.785-1.089 2.785-2.943s-1.032-2.898-2.785-2.898h-2.23zm1.222 1.008h.862c1.077 0 1.685.672 1.685 1.894 0 1.263-.592 1.927-1.685 1.927h-.862v-3.821zm8.165 4.833h1.3l-2.032-5.841h-1.437l-2.029 5.841h1.255l.446-1.417h2.052l.445 1.417zm-1.485-4.724h.028l.749 2.393h-1.526l.749-2.393zm5.21 4.724v-4.833h1.692v-1.008h-4.603v1.008h1.688v4.833h1.223zm6.238-1.012h-2.648V265h2.498v-.939h-2.498v-1.409h2.648v-1.008h-3.87v5.841h3.87v-1.012zm-64.813 17.139v-10.709h-1.551l-3.696 8.936h-.059l-3.696-8.936h-1.551v10.709h1.247v-8.253h.052l3.414 8.179h1.128l3.414-8.179h.052v8.253h1.246zm4.459-.965c-.927 0-1.543-.482-1.543-1.217 0-.727.593-1.187 1.633-1.254l2.063-.126v.631c0 1.113-.935 1.966-2.153 1.966zm-.289 1.099c1.039 0 2.019-.579 2.479-1.462h.03v1.328h1.224v-5.336c0-1.536-1.143-2.516-2.954-2.516-1.825 0-2.968 1.024-3.057 2.36h1.246c.164-.757.787-1.224 1.782-1.224 1.068 0 1.692.564 1.692 1.506v.646l-2.212.126c-1.781.104-2.798.935-2.798 2.256 0 1.388 1.032 2.316 2.568 2.316zm5.632-.134h1.291v-4.809c0-1.091.653-1.811 1.655-1.811.312 0 .586.037.69.074v-1.254c-.104-.015-.297-.052-.519-.052-.906 0-1.618.542-1.87 1.395h-.03v-1.261h-1.217v7.718zm11.085 0h1.291v-10.709h-1.306l-2.85 2.048v1.41l2.835-2.041h.03v9.292zm7.672.178c2.62 0 4.149-2.107 4.149-5.714 0-1.165-.171-2.13-.527-2.954-.653-1.536-1.929-2.405-3.54-2.405-2.197 0-3.792 1.544-3.792 3.659 0 2.034 1.514 3.54 3.555 3.54 1.365 0 2.538-.69 2.991-1.751h.022c-.037 2.842-1.061 4.46-2.843 4.46-1.061 0-1.929-.638-2.211-1.61h-1.358c.326 1.677 1.729 2.775 3.554 2.775zm.075-5.046c-1.403 0-2.435-1.017-2.435-2.412 0-1.344 1.084-2.412 2.457-2.412a2.419 2.419 0 012.449 2.449c0 1.365-1.054 2.375-2.471 2.375zm6.433 6.998l1.017-3.777h-1.373l-.72 3.777h1.076zm5.831-9.752v.008h1.291v-.008c0-1.195.95-2.1 2.204-2.1 1.18 0 2.123.824 2.123 1.855 0 .891-.342 1.462-1.781 2.976l-3.771 3.971v.92h7.066v-1.187h-5.218v-.03l2.709-2.798c1.789-1.848 2.331-2.738 2.331-3.933 0-1.64-1.507-2.939-3.422-2.939-2.018 0-3.532 1.395-3.532 3.265zm12.682 7.8c2.493 0 3.933-2.159 3.933-5.544 0-3.362-1.447-5.521-3.933-5.521-2.486 0-3.949 2.174-3.949 5.529 0 3.384 1.448 5.536 3.949 5.536zm0-1.165c-1.678 0-2.605-1.707-2.605-4.379 0-2.612.95-4.349 2.605-4.349s2.59 1.722 2.59 4.357c0 2.672-.92 4.371-2.59 4.371zm5.513-6.635v.008h1.291v-.008c0-1.195.95-2.1 2.204-2.1 1.18 0 2.123.824 2.123 1.855 0 .891-.342 1.462-1.781 2.976l-3.771 3.971v.92h7.066v-1.187h-5.218v-.03l2.709-2.798c1.789-1.848 2.331-2.738 2.331-3.933 0-1.64-1.507-2.939-3.422-2.939-2.018 0-3.532 1.395-3.532 3.265zm11.665 7.622h1.291v-10.709h-1.306l-2.85 2.048v1.41l2.835-2.041h.03v9.292zM44.376 303.821c.036 1.097.93 1.765 2.335 1.765 1.45 0 2.369-.717 2.369-1.85 0-.891-.51-1.393-1.68-1.644l-.709-.15c-.672-.154-.955-.356-.955-.716 0-.433.405-.721 1.008-.721.611 0 1.044.3 1.085.794h1.145c-.02-1.057-.874-1.757-2.234-1.757-1.304 0-2.235.712-2.235 1.789 0 .854.53 1.401 1.607 1.631l.761.166c.705.158.984.369.984.749 0 .429-.445.741-1.097.741-.648 0-1.15-.316-1.206-.797h-1.178zm8.092-4.279c-1.733 0-2.818 1.161-2.818 3.024 0 1.858 1.085 3.02 2.818 3.02 1.728 0 2.817-1.162 2.817-3.02 0-1.863-1.089-3.024-2.817-3.024zm0 1.02c.955 0 1.566.777 1.566 2.004 0 1.222-.61 1.995-1.566 1.995-.96 0-1.57-.773-1.57-1.995 0-1.227.614-2.004 1.57-2.004zm4.83-.919h-1.223v3.777c0 1.287.951 2.166 2.449 2.166 1.494 0 2.445-.879 2.445-2.166v-3.777h-1.223v3.655c0 .749-.44 1.239-1.222 1.239-.785 0-1.227-.49-1.227-1.239v-3.655zm5.87.955h1.04c.607 0 .987.365.987.931 0 .579-.36.931-.975.931h-1.053v-1.862zm0 2.749h.979l1.089 2.137h1.384l-1.23-2.319c.672-.263 1.06-.911 1.06-1.66 0-1.154-.769-1.862-2.113-1.862h-2.392v5.841h1.222v-2.137zm6.67 2.239c1.434 0 2.433-.826 2.571-2.13h-1.19c-.13.692-.652 1.118-1.376 1.118-.936 0-1.523-.77-1.523-2.016 0-1.231.596-2.004 1.519-2.004.712 0 1.263.469 1.376 1.186h1.19c-.093-1.308-1.162-2.198-2.567-2.198-1.692 0-2.764 1.137-2.764 3.02 0 1.886 1.064 3.024 2.764 3.024zm7.198-1.114H74.39v-1.473h2.497v-.939H74.39v-1.409h2.647v-1.008h-3.87v5.841h3.87v-1.012zm-30.568 17.139v-8.379h.067l5.863 8.379h1.3v-10.709h-1.322v8.409h-.067l-5.863-8.409h-1.299v10.709h1.321zm13.848 0v-4.609l3.8-6.1h-1.522l-2.924 4.809h-.044l-2.924-4.809H55.18l3.8 6.1v4.609h1.336zm6.619-10.709h-1.336v6.954c0 2.286 1.595 3.933 4.252 3.933s4.253-1.647 4.253-3.933v-6.954h-1.336v6.865c0 1.618-1.061 2.79-2.917 2.79-1.855 0-2.916-1.172-2.916-2.79v-6.865zm19.382 9.507h-5.165v-9.507h-1.336v10.709h6.501v-1.202zm4.073.238c-.927 0-1.543-.483-1.543-1.218 0-.727.593-1.187 1.632-1.254l2.064-.126v.631c0 1.113-.936 1.967-2.153 1.967zm-.29 1.098c1.04 0 2.02-.579 2.48-1.462h.03v1.328h1.224v-5.336c0-1.536-1.143-2.516-2.954-2.516-1.826 0-2.969 1.024-3.058 2.36h1.247c.163-.757.787-1.224 1.781-1.224 1.07 0 1.693.564 1.693 1.506v.646l-2.212.126c-1.781.104-2.798.935-2.798 2.256 0 1.388 1.031 2.316 2.568 2.316zm5.633-.134h1.29v-4.542c0-1.306.795-2.167 2.012-2.167 1.188 0 1.774.683 1.774 1.93v4.779h1.291v-5.009c0-1.752-.979-2.843-2.671-2.843-1.195 0-2.02.535-2.45 1.366h-.03v-1.232h-1.216v7.718zm11.413-1.076c-1.329 0-2.197-1.083-2.197-2.813 0-1.729.868-2.827 2.197-2.827 1.343 0 2.241 1.128 2.241 2.827 0 1.7-.898 2.813-2.241 2.813zm.044 3.986c2.13 0 3.488-1.225 3.488-3.066v-7.562h-1.232v1.299h-.022c-.512-.898-1.418-1.433-2.508-1.433-1.997 0-3.288 1.544-3.288 3.963 0 2.398 1.291 3.949 3.258 3.949 1.083 0 1.996-.549 2.471-1.388h.03v1.217c0 1.15-.809 1.922-2.145 1.922-.965 0-1.729-.467-1.982-1.172h-1.328c.215 1.313 1.559 2.271 3.258 2.271zm8.63-2.776c2.13 0 3.57-1.536 3.57-3.993 0-2.464-1.44-3.993-3.57-3.993-2.137 0-3.577 1.529-3.577 3.993 0 2.457 1.44 3.993 3.577 3.993zm0-1.136c-1.365 0-2.263-1.039-2.263-2.857 0-1.818.898-2.857 2.263-2.857 1.366 0 2.256 1.039 2.256 2.857 0 1.818-.89 2.857-2.256 2.857zm5.135 1.002h1.291v-4.542c0-1.306.794-2.167 2.011-2.167 1.188 0 1.774.683 1.774 1.93v4.779h1.291v-5.009c0-1.752-.979-2.843-2.672-2.843-1.194 0-2.018.535-2.449 1.366h-.029v-1.232h-1.217v7.718zm11.368-6.731c1.217 0 2.026.92 2.056 2.212h-4.193c.081-1.284.927-2.212 2.137-2.212zm2.026 4.52c-.215.727-.935 1.224-1.915 1.224-1.387 0-2.256-.972-2.256-2.449v-.074h5.537v-.49c0-2.338-1.284-3.852-3.37-3.852-2.13 0-3.495 1.626-3.495 4.023 0 2.427 1.343 3.963 3.555 3.963 1.684 0 2.991-.995 3.213-2.345h-1.269z" fill="#1D1D36"/><path d="M137.072 350a1.767 1.767 0 110 3.537 1.769 1.769 0 110-3.537zm7.075 0a1.768 1.768 0 11.002 3.536 1.768 1.768 0 01-.002-3.536zm14.151 0a1.768 1.768 0 11.002 3.536 1.768 1.768 0 01-.002-3.536zm7.077 0a1.768 1.768 0 11.002 3.536 1.768 1.768 0 01-.002-3.536zm-21.228 3.538a1.769 1.769 0 110 3.538 1.769 1.769 0 010-3.538zm10.614 0a1.769 1.769 0 110 3.538 1.769 1.769 0 010-3.538z" fill="#6A677E"/><path d="M158.298 353.538a1.769 1.769 0 110 3.538 1.769 1.769 0 010-3.538zm-21.226 3.537a1.768 1.768 0 110 3.536 1.768 1.768 0 010-3.536zm7.075 0a1.769 1.769 0 110 3.538 1.769 1.769 0 010-3.538z" fill="#6A677E"/><path d="M147.686 357.075a1.769 1.769 0 110 3.538 1.769 1.769 0 010-3.538zm7.075 0a1.769 1.769 0 110 3.538 1.769 1.769 0 010-3.538z" fill="#6A677E"/><path d="M158.298 357.075a1.769 1.769 0 110 3.538 1.769 1.769 0 010-3.538z" fill="#6A677E"/><path d="M161.837 357.075a1.769 1.769 0 110 3.538 1.769 1.769 0 010-3.538zm-17.69 3.538a1.769 1.769 0 110 3.538 1.769 1.769 0 010-3.538z" fill="#6A677E"/><path d="M147.686 360.613a1.769 1.769 0 110 3.538 1.769 1.769 0 010-3.538zm7.075 0a1.769 1.769 0 110 3.538 1.769 1.769 0 010-3.538z" fill="#6A677E"/><path d="M158.298 360.613a1.769 1.769 0 110 3.538 1.769 1.769 0 010-3.538zm-17.687 3.538a1.768 1.768 0 110 3.536 1.768 1.768 0 010-3.536zm7.075 0a1.769 1.769 0 110 3.538 1.769 1.769 0 010-3.538z" fill="#6A677E"/><path d="M151.223 364.151a1.768 1.768 0 110 3.536 1.768 1.768 0 010-3.536z" fill="#6A677E"/><path d="M154.761 364.151a1.769 1.769 0 110 3.538 1.769 1.769 0 010-3.538z" fill="#6A677E"/><path d="M158.298 364.151a1.769 1.769 0 110 3.538 1.769 1.769 0 010-3.538zm-21.226 3.538a1.768 1.768 0 110 3.536 1.768 1.768 0 010-3.536zm10.614 0a1.769 1.769 0 110 3.538 1.769 1.769 0 010-3.538z" fill="#6A677E"/><path d="M151.223 367.689a1.768 1.768 0 110 3.536 1.768 1.768 0 010-3.536z" fill="#6A677E"/><path d="M154.761 367.688a1.769 1.769 0 110 3.538 1.769 1.769 0 010-3.538zm-17.689 3.538a1.768 1.768 0 110 3.536 1.768 1.768 0 010-3.536zm7.075 0a1.769 1.769 0 110 3.538 1.769 1.769 0 010-3.538zm7.076 0a1.768 1.768 0 110 3.536 1.768 1.768 0 010-3.536zm7.075 0a1.769 1.769 0 110 3.538 1.769 1.769 0 010-3.538zm7.077 0a1.769 1.769 0 110 3.538 1.769 1.769 0 010-3.538zm-24.764 3.539a1.768 1.768 0 110 3.536 1.768 1.768 0 010-3.536z" fill="#6A677E"/><path d="M144.147 374.765a1.769 1.769 0 110 3.538 1.769 1.769 0 010-3.538zm7.076 0a1.768 1.768 0 110 3.536 1.768 1.768 0 010-3.536zm7.075 0a1.769 1.769 0 110 3.538 1.769 1.769 0 010-3.538z" fill="#6A677E"/><path d="M161.837 374.765a1.769 1.769 0 110 3.538 1.769 1.769 0 010-3.538zm-53.067 3.537a1.769 1.769 0 110 3.538 1.769 1.769 0 010-3.538zm7.076 0a1.769 1.769 0 110 3.538 1.769 1.769 0 010-3.538zm14.15 0a1.769 1.769 0 110 3.538 1.769 1.769 0 010-3.538z" fill="#6A677E"/><path d="M133.534 378.302a1.769 1.769 0 110 3.538 1.769 1.769 0 010-3.538zm7.077 0a1.768 1.768 0 110 3.536 1.768 1.768 0 010-3.536zm10.612 0a1.768 1.768 0 110 3.536 1.768 1.768 0 010-3.536zm10.614 0a1.769 1.769 0 110 3.538 1.769 1.769 0 010-3.538zm14.151 0a1.769 1.769 0 110 3.538 1.769 1.769 0 010-3.538zm10.614 0a1.769 1.769 0 110 3.538 1.769 1.769 0 010-3.538zm7.073 0a1.769 1.769 0 110 3.538 1.769 1.769 0 010-3.538zm-77.829 3.537a1.769 1.769 0 110 3.538 1.769 1.769 0 010-3.538zm7.073 0a1.769 1.769 0 110 3.538 1.769 1.769 0 010-3.538z" fill="#6A677E"/><path d="M126.458 381.839a1.769 1.769 0 110 3.538 1.769 1.769 0 010-3.538zm7.076 0a1.769 1.769 0 110 3.538 1.769 1.769 0 010-3.538z" fill="#6A677E"/><path d="M137.072 381.839a1.768 1.768 0 110 3.536 1.768 1.768 0 010-3.536zm10.614 0a1.769 1.769 0 110 3.538 1.769 1.769 0 010-3.538z" fill="#6A677E"/><path d="M151.223 381.839a1.768 1.768 0 110 3.536 1.768 1.768 0 010-3.536z" fill="#6A677E"/><path d="M154.761 381.839a1.769 1.769 0 110 3.538 1.769 1.769 0 010-3.538zm7.076 0a1.769 1.769 0 110 3.538 1.769 1.769 0 010-3.538z" fill="#6A677E"/><path d="M165.375 381.839a1.769 1.769 0 110 3.538 1.769 1.769 0 010-3.538zm7.074 0a1.769 1.769 0 110 3.538 1.769 1.769 0 010-3.538z" fill="#6A677E"/><path d="M175.988 381.839a1.769 1.769 0 110 3.538 1.769 1.769 0 010-3.538zm7.075 0a1.769 1.769 0 110 3.538 1.769 1.769 0 010-3.538zm7.075 0a1.768 1.768 0 110 3.536 1.768 1.768 0 010-3.536z" fill="#6A677E"/><path d="M193.675 381.839a1.769 1.769 0 110 3.538 1.769 1.769 0 010-3.538zm-81.368 3.538a1.769 1.769 0 110 3.538 1.769 1.769 0 010-3.538z" fill="#6A677E"/><path d="M115.846 385.377a1.769 1.769 0 110 3.538 1.769 1.769 0 010-3.538zm10.612 0a1.769 1.769 0 110 3.538 1.769 1.769 0 010-3.538z" fill="#6A677E"/><path d="M129.996 385.377a1.769 1.769 0 110 3.538 1.769 1.769 0 010-3.538zm7.076 0a1.768 1.768 0 110 3.536 1.768 1.768 0 010-3.536z" fill="#6A677E"/><path d="M140.611 385.377a1.768 1.768 0 110 3.536 1.768 1.768 0 010-3.536zm7.075 0a1.769 1.769 0 110 3.538 1.769 1.769 0 010-3.538z" fill="#6A677E"/><path d="M151.223 385.377a1.768 1.768 0 110 3.536 1.768 1.768 0 010-3.536zm10.614 0a1.769 1.769 0 110 3.538 1.769 1.769 0 010-3.538zm21.226 0a1.769 1.769 0 110 3.538 1.769 1.769 0 010-3.538z" fill="#6A677E"/><path d="M186.602 385.377a1.769 1.769 0 110 3.538 1.769 1.769 0 010-3.538zm7.073 0a1.769 1.769 0 110 3.538 1.769 1.769 0 010-3.538zm-81.368 3.538a1.769 1.769 0 110 3.538 1.769 1.769 0 010-3.538zm14.151 0a1.769 1.769 0 110 3.538 1.769 1.769 0 010-3.538zm7.076 0a1.769 1.769 0 110 3.538 1.769 1.769 0 010-3.538zm7.077 0a1.768 1.768 0 110 3.536 1.768 1.768 0 010-3.536zm10.612 0a1.768 1.768 0 110 3.536 1.768 1.768 0 010-3.536zm7.075 0a1.769 1.769 0 110 3.538 1.769 1.769 0 010-3.538z" fill="#6A677E"/><path d="M161.837 388.915a1.769 1.769 0 110 3.538 1.769 1.769 0 010-3.538z" fill="#6A677E"/><path d="M165.375 388.915a1.769 1.769 0 110 3.538 1.769 1.769 0 010-3.538zm7.074 0a1.769 1.769 0 110 3.538 1.769 1.769 0 010-3.538z" fill="#6A677E"/><path d="M175.988 388.915a1.769 1.769 0 110 3.538 1.769 1.769 0 010-3.538z" fill="#6A677E"/><path d="M179.526 388.915a1.768 1.768 0 110 3.536 1.768 1.768 0 010-3.536z" fill="#6A677E"/><path d="M183.063 388.915a1.769 1.769 0 110 3.538 1.769 1.769 0 010-3.538zm-70.756 3.538a1.769 1.769 0 110 3.538 1.769 1.769 0 010-3.538zm14.151 0a1.769 1.769 0 110 3.538 1.769 1.769 0 010-3.538z" fill="#6A677E"/><path d="M129.996 392.453a1.769 1.769 0 110 3.538 1.769 1.769 0 010-3.538z" fill="#6A677E"/><path d="M133.534 392.453a1.769 1.769 0 110 3.538 1.769 1.769 0 010-3.538zm10.613 0a1.769 1.769 0 110 3.538 1.769 1.769 0 010-3.538z" fill="#6A677E"/><path d="M147.686 392.453a1.769 1.769 0 110 3.538 1.769 1.769 0 010-3.538z" fill="#6A677E"/><path d="M151.223 392.453a1.768 1.768 0 110 3.536 1.768 1.768 0 010-3.536zm14.152 0a1.769 1.769 0 110 3.538 1.769 1.769 0 010-3.538zm7.074 0a1.769 1.769 0 110 3.538 1.769 1.769 0 010-3.538z" fill="#6A677E"/><path d="M175.988 392.453a1.769 1.769 0 110 3.538 1.769 1.769 0 010-3.538zm17.687 0a1.769 1.769 0 110 3.538 1.769 1.769 0 010-3.538zm-42.452 3.538a1.768 1.768 0 110 3.536 1.768 1.768 0 010-3.536z" fill="#6A677E"/><path d="M154.761 395.991a1.769 1.769 0 110 3.538 1.769 1.769 0 010-3.538zm7.076 0a1.769 1.769 0 110 3.538 1.769 1.769 0 010-3.538z" fill="#6A677E"/><path d="M165.375 395.991a1.769 1.769 0 110 3.538 1.769 1.769 0 010-3.538zm7.074 0a1.769 1.769 0 110 3.538 1.769 1.769 0 010-3.538z" fill="#6A677E"/><path d="M175.988 395.991a1.769 1.769 0 110 3.538 1.769 1.769 0 010-3.538zm14.15 0a1.768 1.768 0 110 3.536 1.768 1.768 0 010-3.536z" fill="#6A677E"/><path d="M193.675 395.991a1.769 1.769 0 110 3.538 1.769 1.769 0 010-3.538zm-84.905 3.539a1.769 1.769 0 110 3.538 1.769 1.769 0 010-3.538z" fill="#6A677E"/><path d="M112.307 399.53a1.769 1.769 0 110 3.538 1.769 1.769 0 010-3.538z" fill="#6A677E"/><path d="M115.846 399.53a1.769 1.769 0 110 3.538 1.769 1.769 0 010-3.538z" fill="#6A677E"/><path d="M119.382 399.53a1.768 1.768 0 110 3.536 1.768 1.768 0 010-3.536z" fill="#6A677E"/><path d="M122.919 399.53a1.769 1.769 0 110 3.538 1.769 1.769 0 010-3.538z" fill="#6A677E"/><path d="M126.458 399.53a1.769 1.769 0 110 3.538 1.769 1.769 0 010-3.538z" fill="#6A677E"/><path d="M129.996 399.53a1.769 1.769 0 110 3.538 1.769 1.769 0 010-3.538zm21.227 0a1.768 1.768 0 110 3.536 1.768 1.768 0 010-3.536z" fill="#6A677E"/><path d="M154.761 399.528a1.769 1.769 0 110 3.538 1.769 1.769 0 010-3.538zm7.076 0a1.769 1.769 0 110 3.538 1.769 1.769 0 010-3.538zm10.612 0a1.769 1.769 0 110 3.538 1.769 1.769 0 010-3.538zm10.614 0a1.769 1.769 0 110 3.538 1.769 1.769 0 010-3.538z" fill="#6A677E"/><path d="M186.602 399.528a1.769 1.769 0 110 3.538 1.769 1.769 0 010-3.538zm7.073 0a1.769 1.769 0 110 3.538 1.769 1.769 0 010-3.538zm-77.829 3.538a1.769 1.769 0 110 3.538 1.769 1.769 0 010-3.538zm7.073 0a1.769 1.769 0 110 3.538 1.769 1.769 0 010-3.538zm24.767 0a1.769 1.769 0 110 3.538 1.769 1.769 0 010-3.538z" fill="#6A677E"/><path d="M151.223 403.066a1.768 1.768 0 110 3.536 1.768 1.768 0 010-3.536zm7.075 0a1.769 1.769 0 110 3.538 1.769 1.769 0 010-3.538z" fill="#6A677E"/><path d="M161.837 403.066a1.769 1.769 0 110 3.538 1.769 1.769 0 010-3.538zm7.075 0a1.769 1.769 0 110 3.538 1.769 1.769 0 010-3.538zm7.076 0a1.769 1.769 0 110 3.538 1.769 1.769 0 010-3.538z" fill="#6A677E"/><path d="M179.526 403.066a1.768 1.768 0 110 3.536 1.768 1.768 0 010-3.536z" fill="#6A677E"/><path d="M183.063 403.066a1.769 1.769 0 110 3.538 1.769 1.769 0 010-3.538zm-74.293 3.538a1.769 1.769 0 110 3.538 1.769 1.769 0 010-3.538z" fill="#6A677E"/><path d="M112.307 406.604a1.769 1.769 0 110 3.538 1.769 1.769 0 010-3.538zm7.075 0a1.768 1.768 0 110 3.536 1.768 1.768 0 010-3.536zm7.076 0a1.769 1.769 0 110 3.538 1.769 1.769 0 010-3.538z" fill="#6A677E"/><path d="M129.996 406.604a1.769 1.769 0 110 3.538 1.769 1.769 0 010-3.538zm7.076 0a1.768 1.768 0 110 3.536 1.768 1.768 0 010-3.536zm14.151 0a1.768 1.768 0 110 3.536 1.768 1.768 0 010-3.536zm7.075 0a1.769 1.769 0 110 3.538 1.769 1.769 0 010-3.538z" fill="#6A677E"/><path d="M161.837 406.604a1.769 1.769 0 110 3.538 1.769 1.769 0 010-3.538z" fill="#6A677E"/><path d="M165.375 406.604a1.769 1.769 0 110 3.538 1.769 1.769 0 010-3.538z" fill="#6A677E"/><path d="M168.912 406.604a1.769 1.769 0 110 3.538 1.769 1.769 0 010-3.538z" fill="#6A677E"/><path d="M172.449 406.604a1.769 1.769 0 110 3.538 1.769 1.769 0 010-3.538z" fill="#6A677E"/><path d="M175.988 406.604a1.769 1.769 0 110 3.538 1.769 1.769 0 010-3.538z" fill="#6A677E"/><path d="M179.526 406.604a1.768 1.768 0 110 3.536 1.768 1.768 0 010-3.536zm10.612 0a1.768 1.768 0 110 3.536 1.768 1.768 0 010-3.536zm-53.066 3.537a1.768 1.768 0 110 3.536 1.768 1.768 0 010-3.536z" fill="#6A677E"/><path d="M140.611 410.141a1.768 1.768 0 110 3.536 1.768 1.768 0 010-3.536z" fill="#6A677E"/><path d="M144.147 410.141a1.769 1.769 0 110 3.538 1.769 1.769 0 010-3.538zm10.614 0a1.769 1.769 0 110 3.538 1.769 1.769 0 010-3.538zm10.614 0a1.769 1.769 0 110 3.538 1.769 1.769 0 010-3.538zm14.151 0a1.768 1.768 0 110 3.536 1.768 1.768 0 010-3.536zm14.149 0a1.769 1.769 0 110 3.538 1.769 1.769 0 010-3.538zm-56.603 3.539a1.768 1.768 0 110 3.536 1.768 1.768 0 010-3.536zm7.075 0a1.769 1.769 0 110 3.538 1.769 1.769 0 010-3.538z" fill="#6A677E"/><path d="M147.686 413.68a1.769 1.769 0 110 3.538 1.769 1.769 0 010-3.538z" fill="#6A677E"/><path d="M151.223 413.68a1.768 1.768 0 110 3.536 1.768 1.768 0 010-3.536zm14.152 0a1.769 1.769 0 110 3.538 1.769 1.769 0 010-3.538zm7.074 0a1.769 1.769 0 110 3.538 1.769 1.769 0 010-3.538zm7.077 0a1.768 1.768 0 110 3.536 1.768 1.768 0 010-3.536zm14.149 0a1.769 1.769 0 110 3.538 1.769 1.769 0 010-3.538zm-53.064 3.537a1.768 1.768 0 110 3.536 1.768 1.768 0 010-3.536z" fill="#6A677E"/><path d="M144.147 417.217a1.769 1.769 0 110 3.538 1.769 1.769 0 010-3.538z" fill="#6A677E"/><path d="M147.686 417.217a1.769 1.769 0 110 3.538 1.769 1.769 0 010-3.538zm10.612 0a1.769 1.769 0 110 3.538 1.769 1.769 0 010-3.538z" fill="#6A677E"/><path d="M161.837 417.217a1.769 1.769 0 110 3.538 1.769 1.769 0 010-3.538z" fill="#6A677E"/><path d="M165.375 417.217a1.769 1.769 0 110 3.538 1.769 1.769 0 010-3.538zm14.151 0a1.768 1.768 0 110 3.536 1.768 1.768 0 010-3.536zm10.612 0a1.768 1.768 0 110 3.536 1.768 1.768 0 010-3.536zm-45.991 3.539a1.769 1.769 0 110 3.538 1.769 1.769 0 010-3.538zm7.076 0a1.768 1.768 0 110 3.536 1.768 1.768 0 010-3.536zm10.614 0a1.769 1.769 0 110 3.538 1.769 1.769 0 010-3.538z" fill="#6A677E"/><path d="M165.375 420.756a1.769 1.769 0 110 3.538 1.769 1.769 0 010-3.538z" fill="#6A677E"/><path d="M168.912 420.756a1.769 1.769 0 110 3.538 1.769 1.769 0 010-3.538z" fill="#6A677E"/><path d="M172.449 420.756a1.769 1.769 0 110 3.538 1.769 1.769 0 010-3.538z" fill="#6A677E"/><path d="M175.988 420.756a1.769 1.769 0 110 3.538 1.769 1.769 0 010-3.538z" fill="#6A677E"/><path d="M179.526 420.756a1.768 1.768 0 110 3.536 1.768 1.768 0 010-3.536zm10.612 0a1.768 1.768 0 110 3.536 1.768 1.768 0 010-3.536zm-45.991 3.536a1.769 1.769 0 110 3.538 1.769 1.769 0 010-3.538z" fill="#6A677E"/><path d="M147.686 424.292a1.769 1.769 0 110 3.538 1.769 1.769 0 010-3.538z" fill="#6A677E"/><path d="M151.223 424.292a1.768 1.768 0 110 3.536 1.768 1.768 0 010-3.536zm7.075 0a1.769 1.769 0 110 3.538 1.769 1.769 0 010-3.538z" fill="#6A677E"/><path d="M161.837 424.292a1.769 1.769 0 110 3.538 1.769 1.769 0 010-3.538zm7.075 0a1.769 1.769 0 110 3.538 1.769 1.769 0 010-3.538zm10.614 0a1.768 1.768 0 110 3.536 1.768 1.768 0 010-3.536zm7.076 0a1.769 1.769 0 110 3.538 1.769 1.769 0 010-3.538z" fill="#6A677E"/><path d="M190.138 424.292a1.768 1.768 0 110 3.536 1.768 1.768 0 010-3.536zm-53.066 3.539a1.768 1.768 0 110 3.536 1.768 1.768 0 010-3.536z" fill="#6A677E"/><path d="M140.611 427.831a1.768 1.768 0 110 3.536 1.768 1.768 0 010-3.536zm7.075 0a1.769 1.769 0 110 3.538 1.769 1.769 0 010-3.538zm17.689 0a1.769 1.769 0 110 3.538 1.769 1.769 0 010-3.538zm10.613 0a1.769 1.769 0 110 3.538 1.769 1.769 0 010-3.538z" fill="#6A677E"/><path d="M179.526 427.831a1.768 1.768 0 110 3.536 1.768 1.768 0 010-3.536z" fill="#6A677E"/><path d="M183.063 427.831a1.769 1.769 0 110 3.538 1.769 1.769 0 010-3.538zm7.075 0a1.768 1.768 0 110 3.536 1.768 1.768 0 010-3.536z" fill="#6A677E"/><path d="M193.675 427.831a1.769 1.769 0 110 3.538 1.769 1.769 0 010-3.538zm-53.064 3.539a1.768 1.768 0 110 3.536 1.768 1.768 0 010-3.536zm7.075 0a1.769 1.769 0 110 3.538 1.769 1.769 0 010-3.538zm10.612 0a1.769 1.769 0 110 3.538 1.769 1.769 0 010-3.538zm7.077 0a1.769 1.769 0 110 3.538 1.769 1.769 0 010-3.538zm10.613 0a1.769 1.769 0 110 3.538 1.769 1.769 0 010-3.538z" fill="#6A677E"/><path d="M179.526 431.37a1.768 1.768 0 110 3.536 1.768 1.768 0 010-3.536zm-42.454 3.536a1.768 1.768 0 110 3.536 1.768 1.768 0 010-3.536zm10.614 0a1.769 1.769 0 110 3.538 1.769 1.769 0 010-3.538zm17.689 0a1.769 1.769 0 110 3.538 1.769 1.769 0 010-3.538z" fill="#6A677E"/><path d="M168.912 434.906a1.769 1.769 0 110 3.538 1.769 1.769 0 010-3.538zm14.151 0a1.769 1.769 0 110 3.538 1.769 1.769 0 010-3.538zm10.612 0a1.769 1.769 0 110 3.538 1.769 1.769 0 010-3.538zm-70.365-84.902h-7.855c-3.828 0-7.071 2.53-8.108 5.986a8.205 8.205 0 00-.347 2.372v8.042c0 4.611 3.794 8.36 8.455 8.36l3.927.001 3.928-.001c4.66 0 8.454-3.75 8.454-8.361v-8.041c0-4.608-3.793-8.358-8.454-8.358zm4.74 16.4c0 2.561-2.126 4.646-4.741 4.646h-3.927l-3.926-.001c-2.615 0-4.741-2.084-4.741-4.645v-8.042c0-.8.207-1.553.572-2.211a4.707 4.707 0 011.449-1.59 4.775 4.775 0 012.719-.842h7.855c2.614 0 4.74 2.083 4.74 4.643v8.042zm58.94-16.403h-7.855c-3.828 0-7.071 2.529-8.108 5.986a8.196 8.196 0 00-.347 2.372v8.041c0 4.611 3.794 8.361 8.455 8.361l3.927.001 3.928-.001c4.66 0 8.455-3.75 8.455-8.361v-8.041c0-4.609-3.794-8.358-8.455-8.358zm4.74 16.399c0 2.562-2.126 4.646-4.741 4.646l-3.927.001-3.926-.001c-2.615 0-4.741-2.084-4.741-4.646v-8.041c0-.8.207-1.553.572-2.212a4.717 4.717 0 011.449-1.59 4.782 4.782 0 012.719-.841h7.855c2.614 0 4.74 2.083 4.74 4.643v8.041zm-68.42 47.281h-7.854c-3.829 0-7.072 2.529-8.109 5.986a8.33 8.33 0 00-.346 2.372v8.041c0 4.611 3.794 8.361 8.455 8.361l3.927.001 3.927-.001c4.661 0 8.455-3.75 8.455-8.361v-8.041c0-4.609-3.794-8.358-8.455-8.358zm4.741 16.399c0 2.562-2.127 4.646-4.742 4.646l-3.926.001-3.926-.001c-2.615 0-4.742-2.084-4.742-4.646v-8.041c0-.8.208-1.553.573-2.212a4.723 4.723 0 011.448-1.59 4.784 4.784 0 012.719-.841h7.855c2.614 0 4.741 2.083 4.741 4.643v8.041z" fill="#6A677E"/><path d="M116.981 367.688c-1.602 0-2.905-1.277-2.905-2.845v-4.925c0-.489.128-.951.351-1.354.215-.388.52-.722.887-.974a2.931 2.931 0 011.665-.515h4.811c1.6 0 2.903 1.275 2.903 2.843v4.925c0 1.568-1.303 2.845-2.903 2.845h-4.809zm63.678 0c-1.602 0-2.905-1.277-2.905-2.845v-4.925c0-.489.128-.951.351-1.354.215-.388.52-.722.887-.974a2.931 2.931 0 011.665-.515h4.811c1.6 0 2.902 1.275 2.902 2.843v4.925c0 1.568-1.302 2.845-2.902 2.845h-4.809zm-63.678 63.681c-1.602 0-2.905-1.277-2.905-2.845V423.6c0-.49.128-.951.351-1.355a2.925 2.925 0 012.552-1.489h4.811c1.6 0 2.903 1.275 2.903 2.843v4.925c0 1.568-1.303 2.845-2.903 2.845h-4.809z" fill="#6A677E"/></g><defs><filter id="filter0_dd_2010:17357" x="-9" y="-5" width="337" height="639" filterUnits="userSpaceOnUse" color-interpolation-filters="sRGB"><feFlood flood-opacity="0" result="BackgroundImageFix"/><feColorMatrix in="SourceAlpha" values="0 0 0 0 0 0 0 0 0 0 0 0 0 0 0 0 0 0 127 0" result="hardAlpha"/><feOffset dx="8" dy="12"/><feGaussianBlur stdDeviation="15"/><feColorMatrix values="0 0 0 0 0.171875 0 0 0 0 0.194375 0 0 0 0 0.3125 0 0 0 0.1 0"/><feBlend in2="BackgroundImageFix" result="effect1_dropShadow_2010:17357"/><feColorMatrix in="SourceAlpha" values="0 0 0 0 0 0 0 0 0 0 0 0 0 0 0 0 0 0 127 0" result="hardAlpha"/><feOffset dx="1" dy="2"/><feGaussianBlur stdDeviation="5"/><feColorMatrix values="0 0 0 0 0.172549 0 0 0 0 0.196078 0 0 0 0 0.313726 0 0 0 0.06 0"/><feBlend in2="effect1_dropShadow_2010:17357" result="effect2_dropShadow_2010:17357"/><feBlend in="SourceGraphic" in2="effect2_dropShadow_2010:17357" result="shape"/></filter><filter id="filter1_d_2010:17357" x="215" y="51" width="56" height="28" filterUnits="userSpaceOnUse" color-interpolation-filters="sRGB"><feFlood flood-opacity="0" result="BackgroundImageFix"/><feColorMatrix in="SourceAlpha" values="0 0 0 0 0 0 0 0 0 0 0 0 0 0 0 0 0 0 127 0" result="hardAlpha"/><feOffset dy="1"/><feGaussianBlur stdDeviation=".5"/><feComposite in2="hardAlpha" operator="out"/><feColorMatrix values="0 0 0 0 0.0588235 0 0 0 0 0.0823529 0 0 0 0 0.317647 0 0 0 0.1 0"/><feBlend in2="BackgroundImageFix" result="effect1_dropShadow_2010:17357"/><feBlend in="SourceGraphic" in2="effect1_dropShadow_2010:17357" result="shape"/></filter><filter id="filter2_dd_2010:17357" x="19" y="134" width="265" height="382" filterUnits="userSpaceOnUse" color-interpolation-filters="sRGB"><feFlood flood-opacity="0" result="BackgroundImageFix"/><feColorMatrix in="SourceAlpha" values="0 0 0 0 0 0 0 0 0 0 0 0 0 0 0 0 0 0 127 0" result="hardAlpha"/><feOffset dy="7"/><feGaussianBlur stdDeviation="7"/><feComposite in2="hardAlpha" operator="out"/><feColorMatrix values="0 0 0 0 0.0588235 0 0 0 0 0.0823529 0 0 0 0 0.317647 0 0 0 0.05 0"/><feBlend in2="BackgroundImageFix" result="effect1_dropShadow_2010:17357"/><feColorMatrix in="SourceAlpha" values="0 0 0 0 0 0 0 0 0 0 0 0 0 0 0 0 0 0 127 0" result="hardAlpha"/><feOffset dy="-3"/><feGaussianBlur stdDeviation="3.5"/><feComposite in2="hardAlpha" operator="out"/><feColorMatrix values="0 0 0 0 0.0588235 0 0 0 0 0.0823529 0 0 0 0 0.317647 0 0 0 0.05 0"/><feBlend in2="effect1_dropShadow_2010:17357" result="effect2_dropShadow_2010:17357"/><feBlend in="SourceGraphic" in2="effect2_dropShadow_2010:17357" result="shape"/></filter><clipPath id="clip0_2010:17357"><path fill="#fff" d="M0 0h320v630H0z"/></clipPath><clipPath id="clip1_2010:17357"><path fill="#fff" transform="translate(217.504 53.09)" d="M0 0h50.636v22.108H0z"/></clipPath></defs></svg>