<svg width="720" height="728" fill="none" xmlns="http://www.w3.org/2000/svg"><path d="M340.544 195.742C241.767 325.306-15.16 249.055.703 401.408c11.293 108.462 112.271 92.746 150.782 182.359C197.137 689.998 253.14 740.36 345.373 725.423c173.139-28.038 120.065-175.944 235.548-244.131 128.649-75.96 171.691-175.347 113.806-289.909-57.885-114.563-255.406-125.205-354.183 4.359z" fill="#F4F5FF"/><g filter="url(#filter0_d)"><g clip-path="url(#clip0)"><rect x="180.001" y="19" width="277.86" height="601.659" rx="22.393" fill="#F2F2FA"/><g clip-path="url(#clip1)"><path fill="#0F1551" d="M179.829 19.04h278.03v601.685h-278.03z"/><path fill="#0F1551" d="M186.537 482.637h265.751v86.348H186.537z"/><g filter="url(#filter1_d)"><rect x="191.693" y="137.666" width="255.788" height="359.586" rx="7.414" fill="#fff"/><path fill-rule="evenodd" clip-rule="evenodd" d="M210.582 160.828c0-1.895-.647-2.989-2.59-2.989-1.957 0-2.589 1.094-2.589 2.989 0 1.895.632 3.007 2.589 3.007 1.943 0 2.59-1.112 2.59-3.007zm1.847-.048c0 3.104-1.248 4.77-4.437 4.77s-4.437-1.666-4.437-4.77c0-3.105 1.248-4.771 4.437-4.771s4.437 1.666 4.437 4.771zm17.2-.85c-.079-1.307-.205-2.238-2.1-2.238-1.832 0-2.416.882-2.558 2.238h4.658zm1.737 1.649h-6.394c.11 1.438.663 2.337 2.637 2.337 1.405 0 2.099-.376 2.779-.882l.978 1.323c-1.01.8-2.068 1.193-3.757 1.193-3.695 0-4.421-2.141-4.421-4.771 0-2.598.789-4.771 4.389-4.771 3.726 0 3.853 2.68 3.789 5.571zm-9.532-1.764v5.555h-1.832v-5.179c0-1.34-.126-2.288-1.958-2.288-2.021 0-2.368 1.014-2.368 2.451v5.016h-1.847v-9.035l1.436-.115.158.801c.427-.539 1.279-1.013 3.237-1.013 2.748 0 3.174 1.536 3.174 3.807z" fill="#5E64A5"/><path fill-rule="evenodd" clip-rule="evenodd" d="M275.903 156.071c-3.032 0-3.868 2.009-3.868 4.721 0 2.745.821 4.787 3.805 4.787 1.831 0 2.779-.359 3.316-1.078l.205.98 1.405-.147v-12.596h-1.847v4.329c-.411-.637-1.248-.996-3.016-.996zm.347 1.797c2.022 0 2.669.784 2.669 2.924 0 2.173-.71 3.055-2.669 3.055-1.894 0-2.352-1.241-2.352-3.055 0-1.781.458-2.924 2.352-2.924z" fill="#0F1551"/><path d="M268.239 156.267l-1.437.114v9.035h1.847v-4.705c0-1.585.6-2.614 2.716-2.631v-1.911c-1.5.032-2.574.523-2.937 1.143l-.189-1.045z" fill="#0F1551"/><path fill-rule="evenodd" clip-rule="evenodd" d="M256.528 160.825c0-3.104 1.247-4.771 4.437-4.771 3.189 0 4.436 1.667 4.436 4.771s-1.247 4.771-4.436 4.771c-3.19 0-4.437-1.667-4.437-4.771zm4.437-2.941c1.942 0 2.589 1.095 2.589 2.99 0 1.895-.647 3.006-2.589 3.006-1.958 0-2.59-1.111-2.59-3.006 0-1.895.632-2.99 2.59-2.99z" fill="#0F1551"/><path d="M248.062 160.825c0-2.761.884-4.771 4.452-4.771 1.579 0 2.653.572 3.379 1.421l-1.342 1.308c-.394-.425-.947-.883-2.037-.883-2.037 0-2.605 1.128-2.605 2.974 0 1.846.537 3.006 2.605 3.006.916 0 1.485-.294 2.132-.914l1.231 1.208c-.947.915-1.815 1.405-3.442 1.405-3.473 0-4.373-1.977-4.373-4.754z" fill="#0F1551"/><path fill-rule="evenodd" clip-rule="evenodd" d="M243.222 156.054c-3.6 0-4.389 2.173-4.389 4.771 0 2.63.726 4.771 4.421 4.771 1.69 0 2.747-.392 3.758-1.193l-.979-1.323c-.679.506-1.374.882-2.779.882-1.974 0-2.526-.899-2.637-2.336h6.395c.063-2.892-.063-5.572-3.79-5.572zm-2.605 3.921h4.658c-.079-1.306-.205-2.238-2.1-2.238-1.832 0-2.415.882-2.558 2.238z" fill="#0F1551"/><path d="M235.053 156.267l-1.437.114v9.035h1.847v-4.705c0-1.585.6-2.614 2.716-2.631v-1.911c-1.5.032-2.574.523-2.937 1.143l-.189-1.045z" fill="#0F1551"/><path fill-rule="evenodd" clip-rule="evenodd" d="M284.921 153.155c0 .293.009.587.018.829l.029.773h.431l-.107-2.019h-.576l-.209.671c-.064.225-.13.492-.185.725h-.009a10.04 10.04 0 00-.165-.722l-.191-.674h-.588l-.125 2.019h.409l.034-.767c.01-.165.017-.355.024-.544l.011-.291h.006c.046.263.113.551.177.788l.208.781h.345l.237-.788c.076-.236.157-.524.217-.781h.009zm-3.358-.033h.524v1.636h.443v-1.636h.533v-.384h-1.5v.384z" fill="#0F1551"/><path d="M373.275 157.528h1.7l2.197-6.592h-1.553l-1.453 5.057h-.082l-1.458-5.057h-1.548l2.197 6.592zm3.669 0h1.448l.488-1.599h2.326l.489 1.599h1.452l-2.293-6.592h-1.622l-2.288 6.592zm3.06-5.276h.083l.804 2.645h-1.695l.808-2.645zm6.469 5.445c1.59 0 2.718-.941 2.86-2.32l.004-.051h-1.343l-.009.037c-.146.703-.717 1.165-1.507 1.165-1.042 0-1.686-.877-1.686-2.293v-.01c0-1.416.644-2.288 1.681-2.288.786 0 1.375.502 1.517 1.242v.032h1.343v-.055c-.128-1.393-1.298-2.389-2.86-2.389-1.914 0-3.093 1.32-3.093 3.458v.01c0 2.138 1.184 3.462 3.093 3.462zm6.642 0c1.59 0 2.719-.941 2.86-2.32l.005-.051h-1.343l-.009.037c-.147.703-.718 1.165-1.508 1.165-1.042 0-1.686-.877-1.686-2.293v-.01c0-1.416.644-2.288 1.681-2.288.786 0 1.376.502 1.517 1.242v.032h1.343v-.055c-.128-1.393-1.297-2.389-2.86-2.389-1.914 0-3.092 1.32-3.092 3.458v.01c0 2.138 1.183 3.462 3.092 3.462zm3.842-.169h1.38v-6.592h-1.38v6.592zm2.687 0h1.32v-4.216h.073l3.052 4.216h1.142v-6.592h-1.321v4.199h-.073l-3.042-4.199h-1.151v6.592zm6.427 0h1.448l.489-1.599h2.326l.488 1.599h1.453l-2.293-6.592h-1.622l-2.289 6.592zm3.061-5.276h.082l.804 2.645h-1.695l.809-2.645zm4.856 5.276h1.38v-5.454h1.978v-1.138h-5.336v1.138h1.978v5.454zm4.285 0h1.38v-6.592h-1.38v6.592zm5.569.169c1.946 0 3.171-1.334 3.171-3.462v-.01c0-2.128-1.229-3.458-3.171-3.458-1.941 0-3.175 1.325-3.175 3.458v.01c0 2.128 1.215 3.462 3.175 3.462zm0-1.169c-1.087 0-1.768-.9-1.768-2.293v-.01c0-1.398.695-2.288 1.768-2.288 1.069 0 1.764.89 1.764 2.288v.01c0 1.393-.69 2.293-1.764 2.293zm4.189 1h1.321v-4.216h.073l3.051 4.216h1.142v-6.592h-1.32v4.199h-.073l-3.042-4.199h-1.152v6.592zm-108.47 9.487c1.256 0 2.06-.643 2.06-1.675v-.004c0-.8-.463-1.257-1.597-1.5l-.587-.131c-.699-.149-.983-.411-.983-.811v-.004c0-.509.467-.804 1.099-.804.655-.004 1.077.318 1.148.759l.008.049h.811l-.003-.053c-.06-.838-.808-1.485-1.953-1.485-1.144 0-1.952.644-1.956 1.575v.004c0 .796.472 1.305 1.567 1.537l.591.127c.715.153 1.006.423 1.006.838v.004c0 .501-.489.845-1.178.845-.722 0-1.241-.314-1.286-.804l-.004-.041h-.823l.004.048c.075.909.856 1.526 2.076 1.526zm2.509-.131h.879l.49-1.458h2.065l.486 1.458h.883l-1.949-5.397h-.905l-1.949 5.397zm2.368-4.45h.063l.778 2.318h-1.615l.774-2.318zm3.134 4.45h.838v-2.075h1.182l1.099 2.075h.969l-1.212-2.206c.658-.221 1.047-.812 1.047-1.538v-.007c0-1.002-.688-1.646-1.795-1.646h-2.128v5.397zm.838-2.756v-1.938h1.182c.647 0 1.043.367 1.043.965v.008c0 .613-.374.965-1.017.965h-1.208zm5.864 2.887c1.257 0 2.061-.643 2.061-1.675v-.004c0-.8-.464-1.257-1.597-1.5l-.587-.131c-.7-.149-.984-.411-.984-.811v-.004c0-.509.468-.804 1.1-.804.654-.004 1.077.318 1.148.759l.007.049h.812l-.004-.053c-.06-.838-.808-1.485-1.952-1.485-1.145 0-1.952.644-1.956 1.575v.004c0 .796.471 1.305 1.567 1.537l.591.127c.714.153 1.006.423 1.006.838v.004c0 .501-.49.845-1.178.845-.722 0-1.242-.314-1.287-.804l-.004-.041h-.822l.003.048c.075.909.857 1.526 2.076 1.526zm2.82-1.933h2.502v-.745h-2.502v.745zm5.73 1.933c1.204 0 2.083-.688 2.24-1.724v-.022h-.83l-.007.015c-.154.609-.689.991-1.403.991-.972 0-1.578-.804-1.578-2.084v-.007c0-1.283.606-2.087 1.574-2.087.711 0 1.253.43 1.41 1.092v.011h.831l.003-.018c-.142-1.074-1.054-1.826-2.244-1.826-1.5 0-2.431 1.085-2.431 2.828v.007c0 1.74.935 2.824 2.435 2.824zm5.404 0c1.56 0 2.517-1.099 2.517-2.827v-.008c0-1.731-.964-2.824-2.517-2.824-1.548 0-2.52 1.089-2.52 2.824v.008c0 1.731.95 2.827 2.52 2.827zm0-.74c-1.039 0-1.664-.823-1.664-2.087v-.008c0-1.275.643-2.083 1.664-2.083s1.661.808 1.661 2.083v.008c0 1.264-.636 2.087-1.661 2.087zm4.743.609h.924l1.922-5.397h-.909l-1.443 4.387h-.064l-1.444-4.387h-.909l1.923 5.397zm3.078-1.802h2.502v-.745h-2.502v.745zm3.422 1.802h3.635v-.714h-2.494v-.075l1.144-1.141c.98-.972 1.264-1.443 1.264-2.057v-.011c0-.89-.74-1.53-1.746-1.53-1.085 0-1.848.696-1.852 1.683l.008.008h.785l.004-.011c0-.591.404-.988 1.01-.988.591 0 .954.389.954.917v.011c0 .437-.206.714-.92 1.459l-1.792 1.881v.568zm7.727 1.354h.711c-.55-.699-.961-2.184-.961-3.504 0-1.313.411-2.805.961-3.505h-.711c-.74.95-1.081 2.106-1.081 3.505s.341 2.55 1.081 3.504zm3.751-1.223c1.205 0 2.084-.688 2.241-1.724v-.022h-.831l-.007.015c-.153.609-.688.991-1.403.991-.972 0-1.578-.804-1.578-2.084v-.007c0-1.283.606-2.087 1.575-2.087.71 0 1.253.43 1.41 1.092v.011h.83l.004-.018c-.142-1.074-1.055-1.826-2.244-1.826-1.5 0-2.431 1.085-2.431 2.828v.007c0 1.74.935 2.824 2.434 2.824zm5.405 0c1.559 0 2.517-1.099 2.517-2.827v-.008c0-1.731-.965-2.824-2.517-2.824-1.549 0-2.521 1.089-2.521 2.824v.008c0 1.731.95 2.827 2.521 2.827zm0-.74c-1.04 0-1.664-.823-1.664-2.087v-.008c0-1.275.643-2.083 1.664-2.083s1.66.808 1.66 2.083v.008c0 1.264-.635 2.087-1.66 2.087zm4.742.609h.924l1.922-5.397h-.908l-1.444 4.387h-.064l-1.443-4.387h-.909l1.922 5.397zm3.55 0h.837v-5.397h-.837v5.397zm1.952 0h1.949c1.608 0 2.539-.995 2.539-2.708v-.007c0-1.694-.939-2.682-2.539-2.682h-1.949v5.397zm.838-.722v-3.953h1.017c1.118 0 1.78.729 1.78 1.971v.008c0 1.253-.65 1.974-1.78 1.974h-1.017zm4.443-1.08h2.502v-.745h-2.502v.745zm4.742 1.802h.838v-5.397h-.838l-1.421 1.01v.823l1.358-.969h.063v4.533zm3.976-5.528c-1.133 0-1.956.793-1.956 1.878v.007c0 1.033.741 1.796 1.769 1.796.733 0 1.223-.386 1.418-.819h.074c-.018 1.133-.389 2.087-1.335 2.087-.505 0-.856-.262-1.01-.674l-.011-.037h-.834l.011.045c.176.815.887 1.376 1.844 1.376 1.335 0 2.132-1.077 2.132-2.906v-.007c0-1.983-1.021-2.746-2.102-2.746zm-.004 3.004c-.65 0-1.125-.479-1.125-1.141v-.007c0-.648.504-1.152 1.137-1.152.635 0 1.133.516 1.133 1.174v.004c0 .65-.498 1.122-1.145 1.122zm3.441 3.878c.737-.954 1.077-2.105 1.077-3.504s-.336-2.555-1.077-3.505h-.71c.549.7.961 2.192.961 3.505 0 1.32-.412 2.805-.961 3.504h.71zm5.281-1.354h.864l1.466-4.061h-.852l-1.01 3.238h-.064l-1.013-3.238h-.861l1.47 4.061zm3.879.068c.538 0 .965-.232 1.204-.644h.064v.576h.804v-2.779c0-.852-.576-1.361-1.597-1.361-.924 0-1.564.445-1.661 1.111l-.004.026h.782l.004-.015c.097-.288.392-.453.841-.453.55 0 .831.247.831.692v.359l-1.1.064c-.969.06-1.515.482-1.515 1.208v.008c0 .736.572 1.208 1.347 1.208zm-.539-1.242v-.008c0-.366.254-.568.815-.602l.992-.063v.348c0 .523-.446.92-1.051.92-.438 0-.756-.221-.756-.595zm5.225 1.253c1.006 0 1.586-.542 1.732-1.332l.007-.033h-.778l-.007.018c-.131.438-.445.67-.954.67-.669 0-1.085-.546-1.085-1.444v-.007c0-.875.408-1.414 1.085-1.414.539 0 .868.299.957.699l.004.012.778-.004v-.019c-.112-.789-.722-1.365-1.743-1.365-1.185 0-1.907.804-1.907 2.091v.007c0 1.313.725 2.121 1.911 2.121zm4.129 0c1.006 0 1.586-.542 1.732-1.332l.007-.033h-.778l-.007.018c-.131.438-.445.67-.954.67-.669 0-1.085-.546-1.085-1.444v-.007c0-.875.408-1.414 1.085-1.414.539 0 .868.299.958.699l.003.012.778-.004v-.019c-.112-.789-.722-1.365-1.743-1.365-1.185 0-1.907.804-1.907 2.091v.007c0 1.313.725 2.121 1.911 2.121zm2.843-4.866a.51.51 0 00.508-.505.512.512 0 00-.508-.509.51.51 0 00-.509.509c0 .277.228.505.509.505zm-.408 4.787h.808v-4.061h-.808v4.061zm1.75 0h.812v-2.382c0-.655.37-1.062.965-1.062.594 0 .875.333.875 1.006v2.438h.808v-2.629c0-.969-.501-1.511-1.41-1.511-.591 0-.98.262-1.178.696h-.06v-.617h-.812v4.061zm6.059.079c1.04 0 1.601-.599 1.736-1.133l.007-.034-.782.004-.015.03c-.097.209-.407.467-.927.467-.67 0-1.096-.452-1.111-1.23h2.88v-.285c0-1.219-.696-2.038-1.829-2.038s-1.866.849-1.866 2.117v.004c0 1.286.718 2.098 1.907 2.098zm-.037-3.553c.55 0 .957.351 1.021 1.077h-2.065c.071-.7.49-1.077 1.044-1.077zm-226.441 33.033h1.599l2.098-6.268h-1.455l-1.429 4.926h-.026l-1.434-4.926h-1.451l2.098 6.268zm3.159 0h1.377l.469-1.52h2.202l.47 1.52h1.381l-2.181-6.268h-1.542l-2.176 6.268zm2.936-5.052h.026l.782 2.55h-1.594l.786-2.55zm6.091 5.161c1.516 0 2.615-.951 2.737-2.285l.004-.048h-1.277l-.009.044c-.169.742-.699 1.177-1.455 1.177-1.004 0-1.647-.817-1.647-2.138v-.004c0-1.312.643-2.12 1.647-2.12.782 0 1.294.452 1.442 1.143l.018.074h1.277l-.005-.04c-.121-1.329-1.212-2.289-2.732-2.289-1.829 0-2.985 1.216-2.985 3.236v.005c0 2.02 1.152 3.245 2.985 3.245zm6.342 0c1.517 0 2.616-.951 2.737-2.285l.005-.048h-1.278l-.008.044c-.17.742-.7 1.177-1.456 1.177-1.003 0-1.646-.817-1.646-2.138v-.004c0-1.312.643-2.12 1.646-2.12.782 0 1.295.452 1.443 1.143l.017.074h1.277l-.004-.04c-.122-1.329-1.212-2.289-2.733-2.289-1.828 0-2.984 1.216-2.984 3.236v.005c0 2.02 1.151 3.245 2.984 3.245zm3.554-.109h1.312v-6.268h-1.312v6.268zm2.355 0h1.307v-4.105h.026l2.841 4.105h1.139v-6.268h-1.308v4.075h-.026l-2.833-4.075h-1.146v6.268zm6.36 0h4.153v-1.081h-2.842v-1.577h2.681v-1.026h-2.681v-1.503h2.842v-1.081h-4.153v6.268zm6.863 0h1.308v-4.105h.026l2.841 4.105h1.138v-6.268h-1.307v4.075h-.026l-2.833-4.075h-1.147v6.268zm5.961 0h1.377l.469-1.52h2.202l.47 1.52h1.381l-2.181-6.268h-1.542l-2.176 6.268zm2.936-5.052h.026l.782 2.55h-1.594l.786-2.55zm3.606 5.052h1.169v-4.24h.034l1.695 4.24h.825l1.69-4.24h.039v4.24h1.169v-6.268h-1.516l-1.782 4.505h-.026l-1.781-4.505h-1.516v6.268zm7.663 0h4.153v-1.081h-2.841v-1.577h2.681v-1.026h-2.681v-1.503h2.841v-1.081h-4.153v6.268zm-55.068 25.848c2.724 0 4.381-1.33 4.381-3.424v-.008c0-1.776-1.02-2.74-3.393-3.242l-1.259-.263c-1.433-.31-2.086-.836-2.086-1.696v-.008c0-1.004.908-1.681 2.333-1.689 1.362 0 2.286.646 2.445 1.713l.008.111h1.737l-.008-.135c-.12-1.928-1.76-3.234-4.158-3.234-2.429 0-4.157 1.346-4.165 3.306v.008c0 1.704 1.091 2.739 3.345 3.217l1.25.263c1.522.334 2.151.836 2.151 1.76v.008c0 1.075-.972 1.768-2.509 1.768s-2.596-.661-2.756-1.72l-.016-.104h-1.736l.008.12c.143 2.023 1.848 3.249 4.428 3.249zm5.319-.191h1.872l1.043-3.106h4.388l1.044 3.106h1.879l-4.149-11.493h-1.928l-4.149 11.493zm5.089-9.589h.04l1.696 5.049h-3.432l1.696-5.049zm6.681 9.589h1.784v-4.412h2.453l2.342 4.412h2.054l-2.572-4.683c1.378-.47 2.23-1.712 2.23-3.273v-.016c0-2.159-1.482-3.521-3.831-3.521h-4.46V222.1zm1.784-5.878v-4.117h2.453c1.37 0 2.214.764 2.214 2.039v.016c0 1.306-.788 2.062-2.166 2.062h-2.501zm12.431 6.069c2.724 0 4.38-1.33 4.38-3.424v-.008c0-1.776-1.019-2.74-3.393-3.242l-1.258-.263c-1.433-.31-2.087-.836-2.087-1.696v-.008c0-1.004.908-1.681 2.334-1.689 1.362 0 2.286.646 2.445 1.713l.008.111h1.736l-.008-.135c-.119-1.928-1.76-3.234-4.157-3.234-2.429 0-4.158 1.346-4.165 3.306v.008c0 1.704 1.091 2.739 3.345 3.217l1.25.263c1.521.334 2.15.836 2.15 1.76v.008c0 1.075-.971 1.768-2.508 1.768-1.538 0-2.597-.661-2.756-1.72l-.016-.104h-1.736l.008.12c.143 2.023 1.847 3.249 4.428 3.249zm6.179-4.078h5.121v-1.553h-5.121v1.553zm12.351 4.078c2.541 0 4.444-1.537 4.803-3.823l.008-.079h-1.768l-.024.071c-.43 1.458-1.49 2.254-3.019 2.254-2.126 0-3.504-1.704-3.504-4.364v-.008c0-2.66 1.37-4.349 3.504-4.349 1.545 0 2.612.821 2.995 2.167l.048.159h1.768l-.016-.072c-.359-2.27-2.262-3.831-4.795-3.831-3.257 0-5.328 2.278-5.328 5.926v.008c0 3.647 2.071 5.941 5.328 5.941zm11.674 0c3.322 0 5.384-2.286 5.384-5.933v-.016c0-3.64-2.07-5.926-5.384-5.926-3.305 0-5.383 2.278-5.383 5.926v.016c0 3.655 2.07 5.933 5.383 5.933zm0-1.577c-2.182 0-3.568-1.68-3.568-4.356v-.016c0-2.676 1.394-4.349 3.568-4.349 2.183 0 3.561 1.681 3.561 4.349v.016c0 2.652-1.354 4.356-3.561 4.356zm10.209 1.386h1.968l4.093-11.493h-1.919l-3.138 9.51h-.04l-3.138-9.51h-1.919l4.093 11.493zm7.047-3.887h5.122v-1.553h-5.122v1.553zm7.27 3.887h7.861v-1.505h-5.471v-.072l2.612-2.564c2.063-2.039 2.676-2.971 2.676-4.285v-.016c0-1.856-1.577-3.242-3.783-3.242-2.246 0-3.99 1.49-3.99 3.544v.048h1.688v-.048c.016-1.162.98-2.07 2.326-2.07 1.163 0 1.991.78 1.999 1.871v.016c0 .892-.342 1.498-1.872 3.027l-4.046 4.07v1.226zm16.229 2.788h1.513c-1.163-1.354-2.047-4.468-2.047-7.144 0-2.684.884-5.783 2.047-7.137h-1.513c-1.585 1.968-2.302 4.285-2.302 7.137 0 2.843.709 5.168 2.302 7.144zm8.066-2.597c2.541 0 4.445-1.537 4.803-3.823l.008-.079h-1.768l-.024.071c-.43 1.458-1.489 2.254-3.019 2.254-2.126 0-3.504-1.704-3.504-4.364v-.008c0-2.66 1.37-4.349 3.504-4.349 1.546 0 2.613.821 2.995 2.167l.048.159h1.768l-.016-.072c-.358-2.27-2.262-3.831-4.795-3.831-3.257 0-5.328 2.278-5.328 5.926v.008c0 3.647 2.071 5.941 5.328 5.941zm11.675 0c3.321 0 5.384-2.286 5.384-5.933v-.016c0-3.64-2.071-5.926-5.384-5.926-3.305 0-5.384 2.278-5.384 5.926v.016c0 3.655 2.071 5.933 5.384 5.933zm0-1.577c-2.182 0-3.568-1.68-3.568-4.356v-.016c0-2.676 1.393-4.349 3.568-4.349 2.182 0 3.56 1.681 3.56 4.349v.016c0 2.652-1.354 4.356-3.56 4.356zm10.209 1.386h1.967l4.094-11.493h-1.92l-3.138 9.51h-.04l-3.138-9.51h-1.919l4.094 11.493zm7.612 0h1.784v-11.493h-1.784V222.1zm4.18 0h4.054c3.425 0 5.44-2.134 5.44-5.766v-.016c0-3.616-2.031-5.711-5.44-5.711h-4.054V222.1zm1.784-1.545v-8.41h2.103c2.421 0 3.783 1.489 3.783 4.189v.016c0 2.716-1.346 4.205-3.783 4.205h-2.103zm9.604-2.342h5.121v-1.553h-5.121v1.553zm9.731 3.887h1.744v-11.493h-1.76l-3.027 2.151v1.688l3.003-2.07h.04v9.724zm8.966-11.684c-2.421 0-4.197 1.649-4.197 3.943v.016c0 2.174 1.585 3.775 3.791 3.775 1.561 0 2.716-.813 3.178-1.848h.04c-.016 2.421-.805 4.492-2.868 4.492-1.091 0-1.847-.542-2.166-1.402l-.032-.079h-1.784l.016.095c.374 1.712 1.904 2.883 3.958 2.883 2.876 0 4.588-2.262 4.588-6.093v-.015c0-4.134-2.166-5.767-4.524-5.767zm0 6.284c-1.394 0-2.421-.987-2.421-2.373v-.016c0-1.338 1.083-2.397 2.445-2.397a2.412 2.412 0 012.437 2.437v.008c0 1.362-1.059 2.341-2.461 2.341zm7.318 8.188c1.585-1.976 2.302-4.301 2.302-7.144 0-2.844-.717-5.161-2.302-7.137h-1.513c1.163 1.354 2.047 4.453 2.047 7.137 0 2.676-.884 5.79-2.047 7.144h1.513zM206.709 238.1h1.848l3.003-8.378h-1.792l-2.103 6.698h-.04l-2.102-6.698h-1.832l3.018 8.378zm8.401.151c1.107 0 2.079-.573 2.565-1.473h.032v1.322h1.728v-5.774c0-1.681-1.298-2.764-3.345-2.764-2.063 0-3.313 1.107-3.433 2.549l-.008.087h1.625l.016-.071c.143-.669.757-1.139 1.752-1.139 1.067 0 1.665.557 1.665 1.481v.629l-2.278.136c-1.983.119-3.114 1.011-3.114 2.469v.016c0 1.505 1.123 2.532 2.795 2.532zm-1.059-2.572v-.016c0-.709.574-1.163 1.609-1.227l2.047-.127v.653c0 1.091-.916 1.912-2.127 1.912-.924 0-1.529-.462-1.529-1.195zm10.934 2.588c2.015 0 3.416-1.29 3.6-2.97l.008-.056h-1.657l-.008.064c-.207.908-.884 1.521-1.943 1.521-1.33 0-2.214-1.075-2.214-2.907v-.008c0-1.792.868-2.907 2.206-2.907 1.123 0 1.76.693 1.943 1.513l.016.064h1.641l-.008-.056c-.144-1.577-1.45-2.963-3.608-2.963-2.389 0-3.95 1.681-3.95 4.333v.008c0 2.684 1.529 4.364 3.974 4.364zm8.703 0c2.015 0 3.417-1.29 3.6-2.97l.008-.056h-1.656l-.008.064c-.207.908-.884 1.521-1.944 1.521-1.33 0-2.214-1.075-2.214-2.907v-.008c0-1.792.868-2.907 2.206-2.907 1.123 0 1.761.693 1.944 1.513l.016.064h1.64l-.008-.056c-.143-1.577-1.449-2.963-3.608-2.963-2.389 0-3.95 1.681-3.95 4.333v.008c0 2.684 1.529 4.364 3.974 4.364zm6.036-9.836a.99.99 0 100-1.983.998.998 0 00-1.004.996c0 .541.446.987 1.004.987zm-.86 9.669h1.72v-8.378h-1.72v8.378zm3.773 0h1.721v-4.882c0-1.306.78-2.182 1.991-2.182 1.195 0 1.784.709 1.784 1.967v5.097h1.728v-5.424c0-1.927-1.059-3.114-2.899-3.114-1.266 0-2.126.574-2.564 1.426h-.04v-1.266h-1.721v8.378zm12.742.167c2.031 0 3.321-1.21 3.592-2.54l.016-.088h-1.633l-.024.064c-.215.629-.892 1.155-1.911 1.155-1.37 0-2.238-.924-2.27-2.509h5.933v-.582c0-2.516-1.441-4.205-3.791-4.205-2.349 0-3.862 1.752-3.862 4.373v.008c0 2.644 1.489 4.324 3.95 4.324zm-.08-7.295c1.123 0 1.936.709 2.079 2.158h-4.205c.151-1.401 1.011-2.158 2.126-2.158zm-51.222 39.027h1.307v-4.106h.026l2.842 4.106h1.138v-6.269h-1.308v4.075h-.026l-2.832-4.075h-1.147v6.269zm5.96 0h1.377l.469-1.521h2.203l.469 1.521h1.382l-2.181-6.269h-1.542l-2.177 6.269zm2.937-5.053H213l.782 2.55h-1.595l.787-2.55zm3.605 5.053h1.169v-4.24h.035l1.694 4.24h.825l1.69-4.24h.039v4.24h1.169v-6.269h-1.516l-1.781 4.505h-.026l-1.781-4.505h-1.517v6.269zm7.664 0h4.153v-1.082h-2.841v-1.577h2.68v-1.025h-2.68v-1.503h2.841v-1.082h-4.153v6.269zm-19.573 18.086h1.418v-9.071h.04l6.324 9.071h1.393v-11.492h-1.417v9.071h-.04l-6.324-9.071h-1.394v11.492zm13.65.16c1.107 0 2.103-.598 2.588-1.506h.032v1.346h1.386v-5.726c0-1.657-1.226-2.716-3.186-2.716-1.951 0-3.138 1.099-3.257 2.461l-.008.088h1.338l.016-.072c.159-.741.828-1.25 1.895-1.25 1.155 0 1.816.613 1.816 1.624v.693l-2.373.136c-1.904.111-3.003.995-3.003 2.405v.016c0 1.505 1.107 2.501 2.756 2.501zm-1.338-2.501v-.016c0-.773.637-1.266 1.744-1.33l2.214-.135v.677c0 1.202-1.003 2.102-2.309 2.102-.996 0-1.649-.502-1.649-1.298zm7.382 2.341h1.385v-4.874c0-1.409.853-2.341 2.159-2.341 1.274 0 1.903.74 1.903 2.086v5.129h1.386v-5.376c0-1.887-1.051-3.066-2.867-3.066-1.259 0-2.103.566-2.549 1.338h-.032v-1.179h-1.385v8.283zm12.311.16c1.872 0 3.234-1.219 3.457-2.796l.008-.056h-1.362l-.016.064c-.231.924-.956 1.561-2.087 1.561-1.434 0-2.421-1.139-2.421-3.066v-.008c0-1.88.964-3.074 2.405-3.074 1.219 0 1.888.732 2.095 1.561l.016.063h1.354l-.008-.063c-.176-1.418-1.394-2.788-3.457-2.788-2.302 0-3.823 1.673-3.823 4.285v.008c0 2.636 1.49 4.309 3.839 4.309zm5.813 2.628c1.497 0 2.222-.685 2.811-2.27l3.234-8.801h-1.458l-2.294 6.898h-.032l-2.285-6.898h-1.482l3.075 8.291-.168.47c-.334.94-.82 1.163-1.696 1.163-.167 0-.327-.024-.446-.048v1.131c.175.032.47.064.741.064zm15.01-2.596c2.628 0 4.245-1.291 4.245-3.33v-.007c0-1.753-.988-2.708-3.345-3.226l-1.275-.279c-1.497-.326-2.19-.916-2.19-1.856v-.007c0-1.108 1.004-1.84 2.541-1.848 1.457 0 2.437.693 2.612 1.863l.016.112h1.433l-.007-.12c-.128-1.879-1.769-3.177-4.015-3.177-2.365 0-4.037 1.322-4.045 3.209v.008c0 1.681 1.051 2.692 3.297 3.186l1.274.279c1.577.35 2.238.916 2.238 1.927v.008c0 1.187-1.043 1.936-2.7 1.936-1.664 0-2.779-.709-2.947-1.864l-.016-.112h-1.433l.008.112c.143 1.967 1.824 3.186 4.309 3.186zm5.987-.192h1.386v-5.192c0-1.155.797-2.023 1.896-2.023 1.027 0 1.696.661 1.696 1.664v5.551h1.386v-5.264c0-1.131.772-1.951 1.871-1.951 1.092 0 1.721.677 1.721 1.816v5.399h1.386v-5.718c0-1.649-1.06-2.724-2.7-2.724-1.163 0-2.135.598-2.597 1.593h-.032c-.358-1.011-1.194-1.593-2.325-1.593-1.067 0-1.896.55-2.27 1.37h-.032v-1.211h-1.386v8.283zm15.808.16c1.107 0 2.103-.598 2.589-1.506h.031v1.346h1.386v-5.726c0-1.657-1.226-2.716-3.185-2.716-1.952 0-3.138 1.099-3.258 2.461l-.008.088h1.338l.016-.072c.159-.741.828-1.25 1.896-1.25 1.154 0 1.815.613 1.815 1.624v.693l-2.373.136c-1.903.111-3.003.995-3.003 2.405v.016c0 1.505 1.108 2.501 2.756 2.501zm-1.338-2.501v-.016c0-.773.637-1.266 1.744-1.33l2.214-.135v.677c0 1.202-1.003 2.102-2.309 2.102-.996 0-1.649-.502-1.649-1.298zm7.382 2.341h1.386v-5.176c0-1.171.7-1.944 1.776-1.944.334 0 .629.04.74.08v-1.346c-.111-.016-.318-.056-.557-.056-.972 0-1.736.582-2.007 1.497h-.032v-1.338h-1.306v8.283zm8.002.16c.271 0 .566-.032.741-.056v-1.123c-.119.008-.279.032-.446.032-.741 0-1.131-.247-1.131-1.131v-5.018h1.577v-1.147h-1.577v-2.238h-1.433v2.238h-1.211v1.147h1.211v5.026c0 1.585.748 2.27 2.269 2.27zm45.675-18.246h1.312v-6.269h-1.312v6.269zm2.355 0h1.307v-4.106h.026l2.841 4.106h1.139v-6.269h-1.308v4.075h-.026l-2.833-4.075h-1.146v6.269zm9.188.108c1.863 0 3.023-1.247 3.023-3.241v-.008c0-1.99-1.164-3.237-3.023-3.237-1.855 0-3.024 1.243-3.024 3.237v.008c0 1.994 1.16 3.241 3.024 3.241zm0-1.112c-1.03 0-1.686-.817-1.686-2.129v-.008c0-1.312.66-2.125 1.686-2.125 1.029 0 1.685.817 1.685 2.125v.008c0 1.299-.643 2.129-1.685 2.129zm6.659 1.112c1.516 0 2.616-.951 2.737-2.285l.004-.048h-1.277l-.008.044c-.17.743-.7 1.177-1.456 1.177-1.003 0-1.646-.817-1.646-2.137v-.005c0-1.312.643-2.12 1.646-2.12.782 0 1.295.452 1.443 1.143l.017.074h1.277l-.004-.039c-.122-1.33-1.212-2.29-2.733-2.29-1.829 0-2.984 1.217-2.984 3.237v.004c0 2.02 1.151 3.245 2.984 3.245zm6.182 0c1.616 0 2.624-.934 2.624-2.324v-4.053h-1.312v3.936c0 .812-.469 1.329-1.312 1.329-.843 0-1.316-.517-1.316-1.329v-3.936h-1.312v4.053c0 1.394 1.021 2.324 2.628 2.324zm3.671-.108h4.053v-1.082h-2.741v-5.187h-1.312v6.269zm4.431 0h1.377l.469-1.521h2.203l.469 1.521h1.382l-2.181-6.269h-1.542l-2.177 6.269zm2.937-5.053h.026l.782 2.55h-1.595l.787-2.55zm4.253 5.053h1.312v-5.187h1.816v-1.082h-4.94v1.082h1.812v5.187zm3.853 0h1.312v-6.269h-1.312v6.269zm5.183.108c1.863 0 3.023-1.247 3.023-3.241v-.008c0-1.99-1.164-3.237-3.023-3.237-1.855 0-3.024 1.243-3.024 3.237v.008c0 1.994 1.16 3.241 3.024 3.241zm0-1.112c-1.03 0-1.686-.817-1.686-2.129v-.008c0-1.312.661-2.125 1.686-2.125 1.029 0 1.685.817 1.685 2.125v.008c0 1.299-.643 2.129-1.685 2.129zm3.87 1.004h1.308v-4.106h.026l2.841 4.106h1.138v-6.269h-1.307v4.075h-.026l-2.833-4.075h-1.147v6.269zm8.124 0h2.394c1.881 0 2.989-1.169 2.989-3.159v-.008c0-1.986-1.113-3.102-2.989-3.102h-2.394v6.269zm1.312-1.087v-4.1h.925c1.152 0 1.808.716 1.808 2.024v.009c0 1.355-.635 2.067-1.808 2.067h-.925zm4.257 1.087h1.378l.469-1.521h2.202l.469 1.521h1.382l-2.181-6.269h-1.542l-2.177 6.269zm2.937-5.053h.026l.782 2.55h-1.594l.786-2.55zm4.253 5.053h1.312v-5.187h1.816v-1.082h-4.939v1.082h1.811v5.187zm3.853 0h4.153v-1.082h-2.841v-1.577h2.681v-1.025h-2.681v-1.503h2.841v-1.082h-4.153v6.269zm-76.724 18.086h1.338v-8.88h.047l3.672 8.88h1.211l3.671-8.88h.048v8.88h1.338v-11.492h-1.657l-3.982 9.685h-.048l-3.982-9.685h-1.656v11.492zm15.8.16c1.107 0 2.102-.598 2.588-1.506h.032v1.346h1.386v-5.726c0-1.657-1.227-2.716-3.186-2.716-1.951 0-3.138 1.099-3.258 2.461l-.008.088h1.338l.016-.072c.16-.741.829-1.25 1.896-1.25 1.155 0 1.816.613 1.816 1.624v.693l-2.374.136c-1.903.111-3.002.995-3.002 2.405v.016c0 1.505 1.107 2.501 2.756 2.501zm-1.338-2.501v-.016c0-.773.637-1.266 1.744-1.33l2.214-.135v.677c0 1.202-1.004 2.102-2.31 2.102-.995 0-1.648-.502-1.648-1.298zm7.381 2.341h1.386v-5.176c0-1.171.701-1.944 1.776-1.944.334 0 .629.04.741.08v-1.346c-.112-.016-.319-.056-.558-.056-.972 0-1.736.582-2.007 1.497h-.032v-1.338h-1.306v8.283zm11.896 0h1.386v-11.492h-1.402l-3.058 2.198v1.442l3.042-2.119h.032v9.971zm8.624-11.683c-2.35 0-4.07 1.64-4.07 3.902v.016c0 2.182 1.625 3.799 3.815 3.799 1.561 0 2.74-.828 3.202-1.848h.032c-.016 2.525-.845 4.739-3.059 4.739-1.178 0-1.999-.589-2.341-1.537l-.032-.087h-1.458l.024.103c.383 1.673 1.84 2.788 3.791 2.788 2.812 0 4.46-2.262 4.46-6.133v-.016c0-4.261-2.246-5.726-4.364-5.726zm-.008 6.459c-1.513 0-2.604-1.075-2.604-2.573v-.016c0-1.449 1.162-2.596 2.628-2.596 1.473 0 2.62 1.171 2.62 2.644v.008c0 1.466-1.139 2.533-2.644 2.533zm5.398 7.478h.988l1.163-3.894h-1.45l-.701 3.894zm7.197-2.254h7.59v-1.274h-5.623v-.032l2.732-2.803c2.111-2.159 2.692-3.106 2.692-4.365v-.016c0-1.8-1.521-3.193-3.6-3.193-2.142 0-3.862 1.473-3.862 3.464v.048h1.385v-.04c0-1.234 1.068-2.222 2.501-2.222 1.251 0 2.135.844 2.143 2.015v.016c0 .956-.359 1.577-1.912 3.194l-4.046 4.221v.987zm13.522.192c2.645 0 4.229-2.286 4.229-5.934v-.016c0-3.648-1.584-5.925-4.229-5.925-2.644 0-4.213 2.277-4.213 5.925v.016c0 3.648 1.569 5.934 4.213 5.934zm0-1.251c-1.752 0-2.771-1.8-2.771-4.683v-.016c0-2.883 1.019-4.667 2.771-4.667s2.788 1.784 2.788 4.667v.016c0 2.883-1.036 4.683-2.788 4.683zm6.004 1.059h7.59v-1.274h-5.623v-.032l2.732-2.803c2.111-2.159 2.692-3.106 2.692-4.365v-.016c0-1.8-1.521-3.193-3.6-3.193-2.142 0-3.863 1.473-3.863 3.464v.048h1.386v-.04c0-1.234 1.067-2.222 2.501-2.222 1.25 0 2.134.844 2.142 2.015v.016c0 .956-.358 1.577-1.911 3.194l-4.046 4.221v.987zm12.447 0h1.386v-11.492h-1.402l-3.058 2.198v1.442l3.042-2.119h.032v9.971zm-220.165 23.353c1.581 0 2.529-.765 2.529-1.968v-.005c0-.986-.591-1.52-1.903-1.781l-.665-.134c-.721-.144-1.043-.374-1.043-.769v-.005c0-.447.404-.756 1.078-.76.647 0 1.099.3 1.164.791l.004.052h1.239l-.005-.083c-.061-1.099-.951-1.824-2.402-1.824-1.39 0-2.389.756-2.389 1.903v.004c0 .943.625 1.533 1.863 1.781l.661.13c.777.161 1.086.374 1.086.8v.004c0 .478-.457.795-1.182.795-.717 0-1.234-.304-1.316-.791l-.009-.047h-1.238l.004.069c.074 1.156 1.034 1.838 2.524 1.838zm6.16 0c1.864 0 3.024-1.247 3.024-3.241v-.009c0-1.989-1.164-3.236-3.024-3.236-1.855 0-3.023 1.242-3.023 3.236v.009c0 1.994 1.16 3.241 3.023 3.241zm0-1.112c-1.029 0-1.685-.817-1.685-2.129v-.009c0-1.312.66-2.124 1.685-2.124 1.03 0 1.686.817 1.686 2.124v.009c0 1.299-.643 2.129-1.686 2.129zm6.499 1.112c1.616 0 2.624-.934 2.624-2.324v-4.054h-1.312v3.936c0 .813-.469 1.33-1.312 1.33-.843 0-1.316-.517-1.316-1.33v-3.936h-1.312v4.054c0 1.394 1.021 2.324 2.628 2.324zm3.671-.109h1.312v-2.272h1.051l1.169 2.272h1.486l-1.321-2.467c.695-.274 1.134-.96 1.134-1.786v-.009c0-1.259-.834-2.007-2.242-2.007h-2.589v6.269zm1.312-3.267v-1.976h1.117c.647 0 1.06.382 1.06.981v.009c0 .617-.391.986-1.043.986h-1.134zm7.177 3.376c1.516 0 2.615-.952 2.737-2.285l.004-.048h-1.277l-.009.043c-.169.743-.699 1.178-1.455 1.178-1.004 0-1.647-.817-1.647-2.138v-.004c0-1.312.643-2.12 1.647-2.12.782 0 1.294.452 1.442 1.142l.017.074h1.278l-.005-.039c-.121-1.329-1.212-2.289-2.732-2.289-1.829 0-2.985 1.216-2.985 3.236v.005c0 2.02 1.151 3.245 2.985 3.245zm3.553-.109h4.153v-1.082h-2.841v-1.577h2.681v-1.025h-2.681v-1.503h2.841v-1.082h-4.153v6.269zm-30.068 18.087h1.418v-9.071h.04l6.324 9.071h1.393v-11.493h-1.417v9.072h-.04l-6.324-9.072h-1.394v11.493zm14.845 0h1.433v-4.946l4.078-6.547h-1.633l-3.138 5.161h-.047l-3.138-5.161h-1.633l4.078 6.547v4.946zm11.674.191c2.851 0 4.556-1.72 4.556-4.221v-7.463h-1.434v7.367c0 1.769-1.131 2.995-3.122 2.995-1.991 0-3.138-1.226-3.138-2.995v-7.367h-1.434v7.463c0 2.501 1.721 4.221 4.572 4.221zm10.685-.191h6.977v-1.29h-5.543v-10.203h-1.434v11.493zm11.038.159c1.107 0 2.102-.597 2.588-1.505h.032v1.346h1.386v-5.726c0-1.657-1.227-2.716-3.186-2.716-1.951 0-3.138 1.099-3.258 2.461l-.008.087h1.338l.016-.071c.16-.741.829-1.251 1.896-1.251 1.155 0 1.816.614 1.816 1.625v.693l-2.374.135c-1.903.112-3.002.996-3.002 2.406v.015c0 1.506 1.107 2.501 2.756 2.501zm-1.339-2.501v-.015c0-.773.638-1.267 1.745-1.331l2.214-.135v.677c0 1.203-1.004 2.103-2.31 2.103-.995 0-1.649-.502-1.649-1.299zm7.382 2.342h1.386v-4.874c0-1.41.852-2.342 2.158-2.342 1.274 0 1.904.741 1.904 2.087v5.129h1.385v-5.376c0-1.888-1.051-3.066-2.867-3.066-1.258 0-2.102.565-2.548 1.338h-.032v-1.179h-1.386v8.283zm12.383 2.947c2.246 0 3.656-1.259 3.656-3.178v-8.052h-1.386v1.402h-.032c-.51-.924-1.433-1.561-2.604-1.561-2.103 0-3.544 1.672-3.544 4.245v.008c0 2.588 1.425 4.269 3.512 4.269 1.187 0 2.142-.59 2.636-1.506h.032v1.06c0 1.282-.828 2.086-2.286 2.086-1.131 0-1.919-.366-2.182-.963l-.032-.072h-1.394l.016.072c.271 1.226 1.561 2.19 3.608 2.19zm-.095-4.094c-1.474 0-2.398-1.163-2.398-3.042v-.008c0-1.84.924-3.019 2.398-3.019 1.401 0 2.365 1.195 2.365 3.019v.008c0 1.84-.956 3.042-2.365 3.042zm9.253 1.306c2.286 0 3.831-1.656 3.831-4.3v-.016c0-2.645-1.553-4.285-3.839-4.285s-3.831 1.648-3.831 4.285v.016c0 2.636 1.537 4.3 3.839 4.3zm.008-1.226c-1.466 0-2.429-1.123-2.429-3.074v-.016c0-1.936.971-3.059 2.413-3.059 1.465 0 2.421 1.115 2.421 3.059v.016c0 1.943-.948 3.074-2.405 3.074zm5.502 1.067h1.386v-4.874c0-1.41.852-2.342 2.158-2.342 1.274 0 1.903.741 1.903 2.087v5.129h1.386v-5.376c0-1.888-1.051-3.066-2.867-3.066-1.258 0-2.103.565-2.549 1.338h-.031v-1.179h-1.386v8.283zm12.287.159c1.808 0 3.162-1.083 3.433-2.453l.016-.079h-1.362l-.024.071c-.239.709-.98 1.235-2.031 1.235-1.473 0-2.413-.996-2.445-2.7h5.965v-.51c0-2.485-1.377-4.165-3.639-4.165-2.262 0-3.728 1.76-3.728 4.324v.008c0 2.605 1.434 4.269 3.815 4.269zm-.095-7.375c1.21 0 2.102.757 2.238 2.366h-4.532c.151-1.545 1.091-2.366 2.294-2.366z" fill="#1D1D36"/><path d="M304.627 389.389a1.769 1.769 0 110 3.538 1.769 1.769 0 010-3.538zm7.076 0a1.769 1.769 0 11-.002 3.538 1.769 1.769 0 01.002-3.538zm14.15 0a1.769 1.769 0 110 3.538 1.769 1.769 0 010-3.538zm7.077 0a1.769 1.769 0 110 3.538 1.769 1.769 0 010-3.538zm-21.227 3.539a1.769 1.769 0 11-.002 3.538 1.769 1.769 0 01.002-3.538zm10.614 0a1.769 1.769 0 110 3.538 1.769 1.769 0 010-3.538z" fill="#6A677E"/><path d="M325.853 392.928a1.769 1.769 0 110 3.538 1.769 1.769 0 010-3.538zm-21.226 3.536a1.769 1.769 0 110 3.538 1.769 1.769 0 010-3.538zm7.076 0a1.769 1.769 0 11-.002 3.538 1.769 1.769 0 01.002-3.538z" fill="#6A677E"/><path d="M315.242 396.464a1.769 1.769 0 110 3.538 1.769 1.769 0 010-3.538zm7.075 0a1.769 1.769 0 110 3.538 1.769 1.769 0 010-3.538z" fill="#6A677E"/><path d="M325.853 396.464a1.769 1.769 0 110 3.538 1.769 1.769 0 010-3.538z" fill="#6A677E"/><path d="M329.392 396.464a1.769 1.769 0 110 3.538 1.769 1.769 0 010-3.538zm-17.689 3.539a1.769 1.769 0 11-.002 3.538 1.769 1.769 0 01.002-3.538z" fill="#6A677E"/><path d="M315.242 400.003a1.769 1.769 0 110 3.538 1.769 1.769 0 010-3.538zm7.075 0a1.769 1.769 0 110 3.538 1.769 1.769 0 010-3.538z" fill="#6A677E"/><path d="M325.853 400.003a1.769 1.769 0 110 3.538 1.769 1.769 0 010-3.538zm-17.687 3.538a1.768 1.768 0 11.002 3.536 1.768 1.768 0 01-.002-3.536zm7.076 0a1.768 1.768 0 11.002 3.536 1.768 1.768 0 01-.002-3.536z" fill="#6A677E"/><path d="M318.778 403.541a1.768 1.768 0 11.002 3.536 1.768 1.768 0 01-.002-3.536z" fill="#6A677E"/><path d="M322.317 403.541a1.768 1.768 0 11.002 3.536 1.768 1.768 0 01-.002-3.536z" fill="#6A677E"/><path d="M325.853 403.541a1.768 1.768 0 11.002 3.536 1.768 1.768 0 01-.002-3.536zm-21.226 3.538a1.769 1.769 0 110 3.538 1.769 1.769 0 010-3.538zm10.615 0a1.769 1.769 0 110 3.538 1.769 1.769 0 010-3.538z" fill="#6A677E"/><path d="M318.778 407.079a1.769 1.769 0 110 3.538 1.769 1.769 0 010-3.538z" fill="#6A677E"/><path d="M322.317 407.078a1.769 1.769 0 110 3.538 1.769 1.769 0 010-3.538zm-17.69 3.538a1.769 1.769 0 110 3.538 1.769 1.769 0 010-3.538zm7.076 0a1.769 1.769 0 11-.002 3.538 1.769 1.769 0 01.002-3.538zm7.075 0a1.769 1.769 0 110 3.538 1.769 1.769 0 010-3.538zm7.075 0a1.769 1.769 0 110 3.538 1.769 1.769 0 010-3.538zm7.077 0a1.769 1.769 0 110 3.538 1.769 1.769 0 010-3.538zm-24.764 3.538a1.769 1.769 0 110 3.538 1.769 1.769 0 010-3.538z" fill="#6A677E"/><path d="M311.703 414.154a1.769 1.769 0 11-.002 3.538 1.769 1.769 0 01.002-3.538zm7.075 0a1.769 1.769 0 110 3.538 1.769 1.769 0 010-3.538zm7.075 0a1.769 1.769 0 110 3.538 1.769 1.769 0 010-3.538z" fill="#6A677E"/><path d="M329.392 414.154a1.769 1.769 0 110 3.538 1.769 1.769 0 010-3.538zm-53.067 3.538a1.769 1.769 0 110 3.538 1.769 1.769 0 010-3.538zm7.077 0a1.769 1.769 0 110 3.538 1.769 1.769 0 010-3.538zm14.15 0a1.768 1.768 0 110 3.536 1.768 1.768 0 010-3.536z" fill="#6A677E"/><path d="M301.089 417.692a1.769 1.769 0 110 3.538 1.769 1.769 0 010-3.538zm7.077 0a1.769 1.769 0 110 3.538 1.769 1.769 0 010-3.538zm10.612 0a1.769 1.769 0 110 3.538 1.769 1.769 0 010-3.538zm10.614 0a1.769 1.769 0 110 3.538 1.769 1.769 0 010-3.538zm14.151 0a1.769 1.769 0 110 3.538 1.769 1.769 0 010-3.538zm10.615 0a1.769 1.769 0 110 3.538 1.769 1.769 0 010-3.538zm7.073 0a1.769 1.769 0 110 3.538 1.769 1.769 0 010-3.538zm-77.829 3.537a1.769 1.769 0 110 3.538 1.769 1.769 0 010-3.538zm7.073 0a1.769 1.769 0 110 3.538 1.769 1.769 0 010-3.538z" fill="#6A677E"/><path d="M294.014 421.229a1.769 1.769 0 110 3.538 1.769 1.769 0 010-3.538zm7.075 0a1.769 1.769 0 110 3.538 1.769 1.769 0 010-3.538z" fill="#6A677E"/><path d="M304.627 421.229a1.769 1.769 0 110 3.538 1.769 1.769 0 010-3.538zm10.615 0a1.769 1.769 0 110 3.538 1.769 1.769 0 010-3.538z" fill="#6A677E"/><path d="M318.778 421.229a1.769 1.769 0 110 3.538 1.769 1.769 0 010-3.538z" fill="#6A677E"/><path d="M322.317 421.229a1.769 1.769 0 110 3.538 1.769 1.769 0 010-3.538zm7.075 0a1.769 1.769 0 110 3.538 1.769 1.769 0 010-3.538z" fill="#6A677E"/><path d="M332.93 421.229a1.769 1.769 0 110 3.538 1.769 1.769 0 010-3.538zm7.074 0a1.769 1.769 0 110 3.538 1.769 1.769 0 010-3.538z" fill="#6A677E"/><path d="M343.543 421.229a1.769 1.769 0 110 3.538 1.769 1.769 0 010-3.538zm7.076 0a1.769 1.769 0 110 3.538 1.769 1.769 0 010-3.538zm7.074 0a1.769 1.769 0 110 3.538 1.769 1.769 0 010-3.538z" fill="#6A677E"/><path d="M361.231 421.229a1.769 1.769 0 110 3.538 1.769 1.769 0 010-3.538zm-81.368 3.538a1.769 1.769 0 110 3.538 1.769 1.769 0 010-3.538z" fill="#6A677E"/><path d="M283.402 424.767a1.769 1.769 0 110 3.538 1.769 1.769 0 010-3.538zm10.612 0a1.769 1.769 0 110 3.538 1.769 1.769 0 010-3.538z" fill="#6A677E"/><path d="M297.552 424.767a1.768 1.768 0 110 3.536 1.768 1.768 0 010-3.536zm7.075 0a1.769 1.769 0 110 3.538 1.769 1.769 0 010-3.538z" fill="#6A677E"/><path d="M308.166 424.767a1.769 1.769 0 110 3.538 1.769 1.769 0 010-3.538zm7.076 0a1.769 1.769 0 110 3.538 1.769 1.769 0 010-3.538z" fill="#6A677E"/><path d="M318.778 424.767a1.769 1.769 0 110 3.538 1.769 1.769 0 010-3.538zm10.614 0a1.769 1.769 0 110 3.538 1.769 1.769 0 010-3.538zm21.227 0a1.769 1.769 0 110 3.538 1.769 1.769 0 010-3.538z" fill="#6A677E"/><path d="M354.158 424.767a1.769 1.769 0 110 3.538 1.769 1.769 0 010-3.538zm7.073 0a1.769 1.769 0 110 3.538 1.769 1.769 0 010-3.538zm-81.368 3.537a1.769 1.769 0 110 3.538 1.769 1.769 0 010-3.538zm14.151 0a1.769 1.769 0 110 3.538 1.769 1.769 0 010-3.538zm7.075 0a1.769 1.769 0 110 3.538 1.769 1.769 0 010-3.538zm7.077 0a1.769 1.769 0 110 3.538 1.769 1.769 0 010-3.538zm10.612 0a1.769 1.769 0 110 3.538 1.769 1.769 0 010-3.538zm7.075 0a1.769 1.769 0 110 3.538 1.769 1.769 0 010-3.538z" fill="#6A677E"/><path d="M329.392 428.304a1.769 1.769 0 110 3.538 1.769 1.769 0 010-3.538z" fill="#6A677E"/><path d="M332.93 428.304a1.769 1.769 0 110 3.538 1.769 1.769 0 010-3.538zm7.074 0a1.769 1.769 0 110 3.538 1.769 1.769 0 010-3.538z" fill="#6A677E"/><path d="M343.543 428.304a1.769 1.769 0 110 3.538 1.769 1.769 0 010-3.538z" fill="#6A677E"/><path d="M347.081 428.304a1.769 1.769 0 110 3.538 1.769 1.769 0 010-3.538z" fill="#6A677E"/><path d="M350.619 428.304a1.769 1.769 0 110 3.538 1.769 1.769 0 010-3.538zm-70.756 3.539a1.769 1.769 0 110 3.538 1.769 1.769 0 010-3.538zm14.151 0a1.769 1.769 0 110 3.538 1.769 1.769 0 010-3.538z" fill="#6A677E"/><path d="M297.552 431.843a1.768 1.768 0 110 3.536 1.768 1.768 0 010-3.536z" fill="#6A677E"/><path d="M301.089 431.843a1.769 1.769 0 110 3.538 1.769 1.769 0 010-3.538zm10.614 0a1.769 1.769 0 11-.002 3.538 1.769 1.769 0 01.002-3.538z" fill="#6A677E"/><path d="M315.242 431.843a1.769 1.769 0 110 3.538 1.769 1.769 0 010-3.538z" fill="#6A677E"/><path d="M318.778 431.843a1.769 1.769 0 110 3.538 1.769 1.769 0 010-3.538zm14.152 0a1.769 1.769 0 110 3.538 1.769 1.769 0 010-3.538zm7.074 0a1.769 1.769 0 110 3.538 1.769 1.769 0 010-3.538z" fill="#6A677E"/><path d="M343.543 431.843a1.769 1.769 0 110 3.538 1.769 1.769 0 010-3.538zm17.688 0a1.769 1.769 0 110 3.538 1.769 1.769 0 010-3.538zm-42.453 3.538a1.769 1.769 0 110 3.538 1.769 1.769 0 010-3.538z" fill="#6A677E"/><path d="M322.317 435.381a1.769 1.769 0 110 3.538 1.769 1.769 0 010-3.538zm7.075 0a1.769 1.769 0 110 3.538 1.769 1.769 0 010-3.538z" fill="#6A677E"/><path d="M332.93 435.381a1.769 1.769 0 110 3.538 1.769 1.769 0 010-3.538zm7.074 0a1.769 1.769 0 110 3.538 1.769 1.769 0 010-3.538z" fill="#6A677E"/><path d="M343.543 435.381a1.769 1.769 0 110 3.538 1.769 1.769 0 010-3.538zm14.15 0a1.769 1.769 0 110 3.538 1.769 1.769 0 010-3.538z" fill="#6A677E"/><path d="M361.231 435.381a1.769 1.769 0 110 3.538 1.769 1.769 0 010-3.538zm-84.906 3.538a1.769 1.769 0 110 3.538 1.769 1.769 0 010-3.538z" fill="#6A677E"/><path d="M279.863 438.919a1.769 1.769 0 110 3.538 1.769 1.769 0 010-3.538z" fill="#6A677E"/><path d="M283.402 438.919a1.769 1.769 0 110 3.538 1.769 1.769 0 010-3.538z" fill="#6A677E"/><path d="M286.937 438.919a1.769 1.769 0 110 3.538 1.769 1.769 0 010-3.538z" fill="#6A677E"/><path d="M290.475 438.919a1.769 1.769 0 110 3.538 1.769 1.769 0 010-3.538z" fill="#6A677E"/><path d="M294.014 438.919a1.769 1.769 0 110 3.538 1.769 1.769 0 010-3.538z" fill="#6A677E"/><path d="M297.552 438.919a1.768 1.768 0 110 3.536 1.768 1.768 0 010-3.536zm21.226 0a1.769 1.769 0 110 3.538 1.769 1.769 0 010-3.538z" fill="#6A677E"/><path d="M322.317 438.918a1.769 1.769 0 110 3.538 1.769 1.769 0 010-3.538zm7.075 0a1.769 1.769 0 110 3.538 1.769 1.769 0 010-3.538zm10.612 0a1.769 1.769 0 110 3.538 1.769 1.769 0 010-3.538zm10.615 0a1.769 1.769 0 110 3.538 1.769 1.769 0 010-3.538z" fill="#6A677E"/><path d="M354.158 438.918a1.769 1.769 0 110 3.538 1.769 1.769 0 010-3.538zm7.073 0a1.769 1.769 0 110 3.538 1.769 1.769 0 010-3.538zm-77.829 3.538a1.769 1.769 0 110 3.538 1.769 1.769 0 010-3.538zm7.073 0a1.769 1.769 0 110 3.538 1.769 1.769 0 010-3.538zm24.767 0a1.769 1.769 0 110 3.538 1.769 1.769 0 010-3.538z" fill="#6A677E"/><path d="M318.778 442.456a1.769 1.769 0 110 3.538 1.769 1.769 0 010-3.538zm7.075 0a1.769 1.769 0 110 3.538 1.769 1.769 0 010-3.538z" fill="#6A677E"/><path d="M329.392 442.456a1.769 1.769 0 110 3.538 1.769 1.769 0 010-3.538zm7.076 0a1.769 1.769 0 110 3.538 1.769 1.769 0 010-3.538zm7.075 0a1.769 1.769 0 110 3.538 1.769 1.769 0 010-3.538z" fill="#6A677E"/><path d="M347.081 442.456a1.769 1.769 0 110 3.538 1.769 1.769 0 010-3.538z" fill="#6A677E"/><path d="M350.619 442.456a1.769 1.769 0 110 3.538 1.769 1.769 0 010-3.538zm-74.294 3.538a1.769 1.769 0 110 3.538 1.769 1.769 0 010-3.538z" fill="#6A677E"/><path d="M279.863 445.994a1.769 1.769 0 110 3.538 1.769 1.769 0 010-3.538zm7.074 0a1.769 1.769 0 110 3.538 1.769 1.769 0 010-3.538zm7.077 0a1.769 1.769 0 110 3.538 1.769 1.769 0 010-3.538z" fill="#6A677E"/><path d="M297.552 445.994a1.768 1.768 0 110 3.536 1.768 1.768 0 010-3.536zm7.075 0a1.769 1.769 0 110 3.538 1.769 1.769 0 010-3.538zm14.151 0a1.769 1.769 0 110 3.538 1.769 1.769 0 010-3.538zm7.075 0a1.769 1.769 0 110 3.538 1.769 1.769 0 010-3.538z" fill="#6A677E"/><path d="M329.392 445.994a1.769 1.769 0 110 3.538 1.769 1.769 0 010-3.538z" fill="#6A677E"/><path d="M332.93 445.994a1.769 1.769 0 110 3.538 1.769 1.769 0 010-3.538z" fill="#6A677E"/><path d="M336.468 445.994a1.769 1.769 0 110 3.538 1.769 1.769 0 010-3.538z" fill="#6A677E"/><path d="M340.004 445.994a1.769 1.769 0 110 3.538 1.769 1.769 0 010-3.538z" fill="#6A677E"/><path d="M343.543 445.994a1.769 1.769 0 110 3.538 1.769 1.769 0 010-3.538z" fill="#6A677E"/><path d="M347.081 445.994a1.769 1.769 0 110 3.538 1.769 1.769 0 010-3.538zm10.612 0a1.769 1.769 0 110 3.538 1.769 1.769 0 010-3.538zm-53.066 3.537a1.769 1.769 0 110 3.538 1.769 1.769 0 010-3.538z" fill="#6A677E"/><path d="M308.166 449.531a1.769 1.769 0 110 3.538 1.769 1.769 0 010-3.538z" fill="#6A677E"/><path d="M311.703 449.531a1.769 1.769 0 11-.002 3.538 1.769 1.769 0 01.002-3.538zm10.614 0a1.769 1.769 0 110 3.538 1.769 1.769 0 010-3.538zm10.613 0a1.769 1.769 0 110 3.538 1.769 1.769 0 010-3.538zm14.151 0a1.769 1.769 0 110 3.538 1.769 1.769 0 010-3.538zm14.15 0a1.769 1.769 0 110 3.538 1.769 1.769 0 010-3.538zm-56.604 3.538a1.769 1.769 0 110 3.538 1.769 1.769 0 010-3.538z" fill="#6A677E"/><path d="M311.703 453.069a1.769 1.769 0 11-.002 3.538 1.769 1.769 0 01.002-3.538z" fill="#6A677E"/><path d="M315.242 453.069a1.769 1.769 0 110 3.538 1.769 1.769 0 010-3.538z" fill="#6A677E"/><path d="M318.778 453.069a1.769 1.769 0 110 3.538 1.769 1.769 0 010-3.538zm14.152 0a1.769 1.769 0 110 3.538 1.769 1.769 0 010-3.538zm7.074 0a1.769 1.769 0 110 3.538 1.769 1.769 0 010-3.538zm7.077 0a1.769 1.769 0 110 3.538 1.769 1.769 0 010-3.538zm14.15 0a1.769 1.769 0 110 3.538 1.769 1.769 0 010-3.538zm-53.065 3.538a1.769 1.769 0 110 3.538 1.769 1.769 0 010-3.538z" fill="#6A677E"/><path d="M311.703 456.607a1.769 1.769 0 11-.002 3.538 1.769 1.769 0 01.002-3.538z" fill="#6A677E"/><path d="M315.242 456.607a1.769 1.769 0 110 3.538 1.769 1.769 0 010-3.538zm10.611 0a1.769 1.769 0 110 3.538 1.769 1.769 0 010-3.538z" fill="#6A677E"/><path d="M329.392 456.607a1.769 1.769 0 110 3.538 1.769 1.769 0 010-3.538z" fill="#6A677E"/><path d="M332.93 456.607a1.769 1.769 0 110 3.538 1.769 1.769 0 010-3.538zm14.151 0a1.769 1.769 0 110 3.538 1.769 1.769 0 010-3.538zm10.612 0a1.769 1.769 0 110 3.538 1.769 1.769 0 010-3.538zm-45.99 3.539a1.768 1.768 0 110 3.536 1.768 1.768 0 010-3.536zm7.075 0a1.768 1.768 0 11.002 3.536 1.768 1.768 0 01-.002-3.536zm10.614 0a1.768 1.768 0 11.002 3.536 1.768 1.768 0 01-.002-3.536z" fill="#6A677E"/><path d="M332.93 460.146a1.768 1.768 0 11.002 3.536 1.768 1.768 0 01-.002-3.536z" fill="#6A677E"/><path d="M336.468 460.146a1.768 1.768 0 11.002 3.536 1.768 1.768 0 01-.002-3.536z" fill="#6A677E"/><path d="M340.004 460.146a1.768 1.768 0 11.002 3.536 1.768 1.768 0 01-.002-3.536z" fill="#6A677E"/><path d="M343.543 460.146a1.768 1.768 0 11.002 3.536 1.768 1.768 0 01-.002-3.536z" fill="#6A677E"/><path d="M347.081 460.146a1.768 1.768 0 11.002 3.536 1.768 1.768 0 01-.002-3.536zm10.612 0a1.768 1.768 0 11.002 3.536 1.768 1.768 0 01-.002-3.536zm-45.99 3.536a1.769 1.769 0 11-.002 3.538 1.769 1.769 0 01.002-3.538z" fill="#6A677E"/><path d="M315.242 463.682a1.769 1.769 0 110 3.538 1.769 1.769 0 010-3.538z" fill="#6A677E"/><path d="M318.778 463.682a1.769 1.769 0 110 3.538 1.769 1.769 0 010-3.538zm7.075 0a1.769 1.769 0 110 3.538 1.769 1.769 0 010-3.538z" fill="#6A677E"/><path d="M329.392 463.682a1.769 1.769 0 110 3.538 1.769 1.769 0 010-3.538zm7.076 0a1.769 1.769 0 110 3.538 1.769 1.769 0 010-3.538zm10.613 0a1.769 1.769 0 110 3.538 1.769 1.769 0 010-3.538zm7.077 0a1.769 1.769 0 110 3.538 1.769 1.769 0 010-3.538z" fill="#6A677E"/><path d="M357.693 463.682a1.769 1.769 0 110 3.538 1.769 1.769 0 010-3.538zm-53.066 3.539a1.769 1.769 0 110 3.538 1.769 1.769 0 010-3.538z" fill="#6A677E"/><path d="M308.166 467.221a1.769 1.769 0 110 3.538 1.769 1.769 0 010-3.538zm7.076 0a1.769 1.769 0 110 3.538 1.769 1.769 0 010-3.538zm17.688 0a1.769 1.769 0 110 3.538 1.769 1.769 0 010-3.538zm10.613 0a1.769 1.769 0 110 3.538 1.769 1.769 0 010-3.538z" fill="#6A677E"/><path d="M347.081 467.221a1.769 1.769 0 110 3.538 1.769 1.769 0 010-3.538z" fill="#6A677E"/><path d="M350.619 467.221a1.769 1.769 0 110 3.538 1.769 1.769 0 010-3.538zm7.074 0a1.769 1.769 0 110 3.538 1.769 1.769 0 010-3.538z" fill="#6A677E"/><path d="M361.231 467.221a1.769 1.769 0 110 3.538 1.769 1.769 0 010-3.538zm-53.065 3.538a1.769 1.769 0 110 3.538 1.769 1.769 0 010-3.538zm7.076 0a1.769 1.769 0 110 3.538 1.769 1.769 0 010-3.538zm10.611 0a1.769 1.769 0 110 3.538 1.769 1.769 0 010-3.538zm7.077 0a1.769 1.769 0 110 3.538 1.769 1.769 0 010-3.538zm10.613 0a1.769 1.769 0 110 3.538 1.769 1.769 0 010-3.538z" fill="#6A677E"/><path d="M347.081 470.759a1.769 1.769 0 110 3.538 1.769 1.769 0 010-3.538zm-42.454 3.537a1.769 1.769 0 110 3.538 1.769 1.769 0 010-3.538zm10.615 0a1.769 1.769 0 110 3.538 1.769 1.769 0 010-3.538zm17.688 0a1.769 1.769 0 110 3.538 1.769 1.769 0 010-3.538z" fill="#6A677E"/><path d="M336.468 474.296a1.769 1.769 0 110 3.538 1.769 1.769 0 010-3.538zm14.151 0a1.769 1.769 0 110 3.538 1.769 1.769 0 010-3.538zm10.612 0a1.769 1.769 0 110 3.538 1.769 1.769 0 010-3.538zm-70.366-84.902h-7.855c-3.828 0-7.071 2.529-8.108 5.986a8.215 8.215 0 00-.347 2.372v8.041c0 4.611 3.794 8.361 8.455 8.361l3.928.001 3.927-.001c4.661 0 8.455-3.75 8.455-8.361v-8.041c0-4.609-3.794-8.358-8.455-8.358zm4.74 16.399c0 2.562-2.126 4.646-4.741 4.646l-3.926.001-3.927-.001c-2.615 0-4.741-2.084-4.741-4.646v-8.041c0-.8.208-1.553.573-2.212a4.723 4.723 0 011.448-1.59 4.782 4.782 0 012.719-.841h7.855c2.614 0 4.74 2.083 4.74 4.643v8.041zm58.94-16.402h-7.855c-3.828 0-7.071 2.529-8.108 5.986a8.2 8.2 0 00-.346 2.372v8.041c0 4.611 3.793 8.36 8.454 8.36l3.928.001 3.927-.001c4.661 0 8.455-3.749 8.455-8.36v-8.041c0-4.609-3.794-8.358-8.455-8.358zm4.74 16.399c0 2.562-2.126 4.646-4.741 4.646h-3.926l-3.927-.001c-2.615 0-4.741-2.084-4.741-4.645v-8.041c0-.8.208-1.554.573-2.212a4.714 4.714 0 011.448-1.59 4.782 4.782 0 012.719-.842h7.855c2.614 0 4.74 2.083 4.74 4.644v8.041zm-68.419 47.281h-7.855c-3.828 0-7.071 2.529-8.108 5.986a8.18 8.18 0 00-.347 2.372v8.041c0 4.611 3.794 8.361 8.455 8.361h3.927l3.928-.001c4.661 0 8.455-3.749 8.455-8.36v-8.041c0-4.609-3.794-8.358-8.455-8.358zm4.74 16.399c0 2.562-2.126 4.646-4.741 4.646l-3.927.001-3.926-.001c-2.615 0-4.741-2.085-4.741-4.646v-8.041c0-.8.207-1.554.573-2.212a4.703 4.703 0 011.448-1.59 4.782 4.782 0 012.719-.842h7.855c2.614 0 4.74 2.083 4.74 4.644v8.041z" fill="#6A677E"/><path d="M284.536 407.078c-1.602 0-2.904-1.277-2.904-2.846v-4.924c0-.49.127-.951.35-1.354.215-.389.52-.722.887-.974a2.937 2.937 0 011.665-.516h4.811c1.6 0 2.903 1.276 2.903 2.844v4.924c0 1.569-1.303 2.846-2.903 2.846h-4.809zm63.678 0c-1.602 0-2.904-1.277-2.904-2.846v-4.924c0-.49.127-.951.35-1.354.215-.389.52-.722.887-.974a2.937 2.937 0 011.665-.516h4.811c1.6 0 2.903 1.276 2.903 2.844v4.924c0 1.569-1.303 2.846-2.903 2.846h-4.809zm-63.678 63.681c-1.602 0-2.904-1.277-2.904-2.845v-4.925c0-.49.127-.951.35-1.354.215-.388.52-.722.887-.974a2.936 2.936 0 011.665-.515h4.811c1.6 0 2.903 1.275 2.903 2.843v4.925c0 1.568-1.303 2.845-2.903 2.845h-4.809z" fill="#6A677E"/></g><rect x="191.567" y="510.302" width="255.691" height="68.743" rx="8.383" fill="#5466F7"/><path fill-rule="evenodd" clip-rule="evenodd" d="M212.596 518.558a1.2 1.2 0 00-1.191 0l-8.4 4.8a1.2 1.2 0 00.596 2.242v8.4a1.2 1.2 0 100 2.4h16.8a1.2 1.2 0 000-2.4v-8.4a1.199 1.199 0 00.595-2.242l-8.4-4.8zm-5.395 8.242a1.2 1.2 0 00-1.2 1.2v3.6a1.2 1.2 0 102.4 0V528a1.2 1.2 0 00-1.2-1.2zm3.6 1.2a1.2 1.2 0 112.4 0v3.6a1.2 1.2 0 01-2.4 0V528zm6-1.2a1.2 1.2 0 00-1.2 1.2v3.6a1.2 1.2 0 102.4 0V528a1.2 1.2 0 00-1.2-1.2z" fill="#fff"/><rect x="191.567" y="530.422" width="255.691" height="68.743" rx="8.383" fill="#00C48C"/><path fill="#0F1551" d="M180.24 19.04h276.82v32.48H180.24z"/><rect opacity=".35" x="428.885" y="32.205" width="15.502" height="7.628" rx="1.599" stroke="#fff" stroke-width=".738"/><path opacity=".4" d="M445.494 34.542v2.953a1.602 1.602 0 000-2.953z" fill="#fff"/><rect x="429.992" y="33.312" width="13.287" height="5.413" rx=".984" fill="#fff"/><path fill-rule="evenodd" clip-rule="evenodd" d="M419.166 33.52c1.642 0 3.222.63 4.412 1.761a.228.228 0 00.321-.002l.857-.864a.237.237 0 00-.002-.338 8.081 8.081 0 00-11.176 0 .238.238 0 00-.003.338l.857.864c.089.088.232.09.321.002a6.409 6.409 0 014.413-1.761zm0 2.81a3.64 3.64 0 012.441.94.23.23 0 00.321-.003l.856-.864a.242.242 0 00.07-.17.24.24 0 00-.073-.17 5.31 5.31 0 00-7.228 0 .238.238 0 00-.003.34l.855.864a.23.23 0 00.321.004 3.64 3.64 0 012.44-.94zm1.714 1.892a.233.233 0 01-.07.17l-1.48 1.493a.23.23 0 01-.328 0l-1.481-1.492a.233.233 0 01.007-.339 2.539 2.539 0 013.276 0 .233.233 0 01.076.168zm-11.803-6.141h-.738a.738.738 0 00-.738.739v6.397c0 .408.33.739.738.739h.738a.738.738 0 00.738-.739V32.82a.738.738 0 00-.738-.739zm-4.183 1.723h.738c.408 0 .738.33.738.738v4.675c0 .408-.33.739-.738.739h-.738a.738.738 0 01-.738-.739v-4.675c0-.407.33-.738.738-.738zm-2.707 1.722h-.738a.738.738 0 00-.738.738v2.953c0 .408.33.738.738.738h.738c.408 0 .739-.33.739-.738v-2.953a.739.739 0 00-.739-.738zm-3.445 1.477h-.738a.738.738 0 00-.738.738v1.476c0 .408.331.738.738.738h.738c.408 0 .739-.33.739-.738v-1.476a.739.739 0 00-.739-.738z" fill="#fff"/><path d="M203.83 43.9c2.439 0 4.109-1.26 4.109-3.098 0-1.362-.908-2.432-2.285-2.688v-.125c1.135-.285 1.853-1.186 1.853-2.322 0-1.67-1.523-2.863-3.669-2.863s-3.677 1.194-3.677 2.863c0 1.128.732 2.044 1.86 2.322v.125c-1.384.293-2.285 1.355-2.285 2.695 0 1.831 1.67 3.09 4.094 3.09zm.008-1.472c-1.275 0-2.154-.725-2.154-1.78 0-1.055.879-1.78 2.154-1.78 1.267 0 2.146.725 2.146 1.78 0 1.055-.872 1.78-2.146 1.78zm0-5.01c-1.077 0-1.817-.637-1.817-1.567 0-.945.733-1.597 1.817-1.597 1.076 0 1.809.652 1.809 1.597 0 .93-.74 1.567-1.809 1.567zm7.282 6.372c.695 0 1.171-.498 1.171-1.157 0-.667-.476-1.157-1.171-1.157-.689 0-1.172.49-1.172 1.157 0 .659.483 1.157 1.172 1.157zm0-5.493c.695 0 1.171-.49 1.171-1.15 0-.666-.476-1.157-1.171-1.157-.689 0-1.172.49-1.172 1.157 0 .66.483 1.15 1.172 1.15zm3.29-2.139v.03h1.772v-.03c0-1.077.747-1.802 1.853-1.802 1.04 0 1.802.674 1.802 1.604 0 .748-.359 1.297-1.802 2.762l-3.523 3.603v1.311h7.339v-1.604h-4.746v-.124l2.212-2.22c1.795-1.772 2.373-2.71 2.373-3.845 0-1.765-1.509-3.04-3.596-3.04-2.168 0-3.684 1.378-3.684 3.355zm14.064 7.478h1.809v-1.97h1.428v-1.597h-1.428v-7.002h-2.666c-1.868 2.813-3.354 5.164-4.306 6.914v1.685h5.163v1.97zm-3.413-3.633a79.28 79.28 0 013.34-5.398h.102v5.508h-3.442v-.11z" fill="#fff"/><path fill-rule="evenodd" clip-rule="evenodd" d="M204.104 551.25h2.432c.112-1.933.48-3.714 1.048-5.147a7.508 7.508 0 00-3.48 5.147zm7.397-8.75c-5.523 0-10 4.477-10 10s4.477 10 10 10 10-4.477 10-10-4.477-10-10-10zm0 2.5c-.095 0-.291.04-.582.327-.297.293-.621.779-.921 1.478-.486 1.134-.841 2.677-.957 4.445h4.919c-.115-1.768-.471-3.311-.957-4.445-.299-.699-.624-1.185-.921-1.478-.291-.287-.486-.327-.581-.327zm4.964 6.25c-.112-1.933-.48-3.714-1.047-5.147a7.503 7.503 0 013.479 5.147h-2.432zm-2.505 2.5h-4.919c.116 1.768.471 3.311.957 4.445.3.699.624 1.185.921 1.478.291.287.487.327.582.327.095 0 .29-.04.581-.327.297-.293.622-.779.921-1.478.486-1.134.842-2.677.957-4.445zm1.458 5.147c.567-1.433.935-3.214 1.047-5.147h2.432a7.503 7.503 0 01-3.479 5.147zm-7.834 0c-.568-1.433-.936-3.214-1.048-5.147h-2.432a7.508 7.508 0 003.48 5.147z" fill="#fff"/><circle cx="436.829" cy="105.041" r="10" fill="#fff"/><path stroke="#0F1551" stroke-width="1.5" stroke-linecap="round" d="M431.75 105.25h10.5m-5.171 5.041V99.79"/></g><path d="M204.589 101.386h.115L208.209 114h3.646l4.9-18.46h-4.004l-2.917 13.368h-.103l-3.454-13.369h-3.262l-3.454 13.369h-.103l-2.904-13.369h-4.004L197.437 114h3.646l3.506-12.614zm17.815 10.132c-1.267 0-2.111-.64-2.111-1.663 0-.972.793-1.599 2.187-1.702l2.892-.179v.998c0 1.484-1.344 2.546-2.968 2.546zm-1.229 2.699c1.715 0 3.416-.857 4.184-2.315h.077V114h3.607v-9.429c0-2.763-2.29-4.58-5.808-4.58-3.633 0-5.898 1.83-6.038 4.491h3.416c.179-1.011 1.061-1.702 2.456-1.702 1.407 0 2.303.742 2.303 2.022v.908l-3.455.205c-3.415.204-5.334 1.65-5.334 4.145 0 2.469 1.983 4.157 4.592 4.157zm10.702-.217h3.736V95.54h-3.736V114zm6.673 0h3.735V95.54h-3.735V114zm12.736-11.245c1.663 0 2.801 1.202 2.878 2.955h-5.821c.128-1.714 1.305-2.955 2.943-2.955zm2.929 7.049c-.345 1.049-1.394 1.727-2.763 1.727-1.906 0-3.147-1.343-3.147-3.301V108h9.454v-1.139c0-4.17-2.52-6.87-6.512-6.87-4.055 0-6.614 2.84-6.614 7.216 0 4.388 2.533 7.087 6.755 7.087 3.39 0 5.846-1.804 6.256-4.49h-3.429zm6.8-12.678v3.16h-1.931v2.814h1.931v7.203c0 2.674 1.254 3.748 4.478 3.748.755 0 1.394-.064 1.778-.153v-2.751c-.23.038-.575.064-.908.064-1.1 0-1.612-.499-1.612-1.548V103.1h2.533v-2.814h-2.533v-3.16h-3.736z" fill="#fff"/></g><rect x="175.27" y="14.269" width="287.321" height="611.12" rx="27.124" stroke="#fff" stroke-width="9.462"/></g><g filter="url(#filter2_ddd)"><rect x="308" y="486" width="223" height="186" rx="15" fill="#fff"/></g><g clip-path="url(#clip2)"><path d="M417.673 518.395c20.024 18.531 55.017-6.512 59.231 23.092 2.672 18.761-13.102 19.593-15.27 36.102-2.567 19.572-8.941 30.035-23.372 30.693-27.085 1.237-25.083-25.654-45.145-33.21-22.337-8.421-32.796-23.768-28.726-45.176 4.072-21.402 33.259-30.032 53.282-11.501z" fill="#8296FF" fill-opacity=".2"/><path d="M447.447 574.055c-.992 0-1.799.794-1.799 1.771 0 .977.807 1.771 1.799 1.771.991 0 1.798-.794 1.798-1.771 0-.977-.807-1.771-1.798-1.771zm0 2.41a.653.653 0 01-.65-.639c0-.346.298-.639.65-.639.351 0 .649.293.649.639a.653.653 0 01-.649.639z" fill="#8296FF"/><path d="M390.905 601.423a.581.581 0 00-.813 0l-.928.915-.929-.915a.581.581 0 00-.813 0 .56.56 0 000 .8l.929.916-.929.915a.56.56 0 000 .8.579.579 0 00.813 0l.929-.915.928.915a.579.579 0 00.813 0 .56.56 0 000-.8l-.929-.915.929-.916a.56.56 0 000-.8z" fill="#4B5FF7"/><path d="M464.459 522.884h-32.76c-2.979 0-5.41 2.192-5.41 4.876v13.679h38.17v-18.555z" fill="#3D4DCD"/><path d="M455.045 586.707l-75.07-4.622 2.908-54.802 75.069 4.621-2.907 54.803z" fill="#fff"/><path d="M464.459 534.902v55.247c0 1.875-1.543 3.395-3.447 3.395h-81.684c-1.904 0-3.447-1.52-3.447-3.395v-51.796c0-1.875 1.543-3.395 3.447-3.395h85.131v-.056z" fill="#4B5FF7"/><path d="M396.035 581.951c-3.557-10.088-11.659-16.351-20.154-18.308v26.506c0 1.876 1.543 3.396 3.447 3.396h26.671c-4.369-2.85-8.137-6.415-9.964-11.594z" fill="#4C54EE"/><path d="M420.17 584.593c11.407 0 20.653-9.107 20.653-20.342 0-11.234-9.246-20.342-20.653-20.342-11.406 0-20.653 9.108-20.653 20.342 0 11.235 9.247 20.342 20.653 20.342z" fill="#8296FF"/><path d="M435.703 564.251c0 7.677-5.747 14.009-13.201 15.074-.739.113-1.536.169-2.332.169a15.619 15.619 0 01-13.713-8.126c-1.138-2.129-1.82-4.595-1.82-7.173 0-6.781 4.495-12.553 10.696-14.514 1.537-.504 3.13-.728 4.78-.728 2.56 0 5.007.616 7.112 1.681 5.064 2.578 8.478 7.733 8.478 13.617z" fill="#F4F5FF"/><path d="M393.106 551.306c0 .873-.722 1.585-1.609 1.585-.888 0-1.61-.712-1.61-1.585v-14.793c0-.874.722-1.585 1.61-1.585.087 0 .168.018.251.03h2.671c-.565-1.067-1.666-1.728-2.922-1.728a3.3 3.3 0 00-.592.059c-.058.01-.115.023-.173.036-.14.033-.276.075-.409.126-.067.025-.133.049-.198.078a3.324 3.324 0 00-.652.393c-.04.031-.078.063-.117.095-.723.603-1.193 1.492-1.193 2.496v14.793c0 1.81 1.495 3.283 3.334 3.283 1.837 0 3.333-1.473 3.333-3.283v-9.862h-1.724v9.862z" fill="#8296FF"/><path d="M428.055 562.488a1.495 1.495 0 00-2.093 0l-4.696 4.625v-8.798a1.47 1.47 0 00-1.48-1.458c-.818 0-1.48.653-1.48 1.458v8.691l-4.527-4.458a1.495 1.495 0 00-2.093 0 1.442 1.442 0 000 2.061l7.106 6.999.001.002a1.49 1.49 0 001.047.427 1.49 1.49 0 001.047-.427l.001-.002 7.167-7.059a1.442 1.442 0 000-2.061z" fill="#4B5FF7"/></g><path d="M338.054 643.561h4.981c4.111 0 6.491-2.544 6.491-6.922v-.019c0-4.331-2.399-6.855-6.491-6.855h-4.981v13.796zm2.141-1.846V631.61h2.601c2.858 0 4.551 1.864 4.551 5.038v.019c0 3.203-1.664 5.048-4.551 5.048h-2.601zm15.785 2.046c3.04 0 4.904-2.036 4.904-5.382v-.019c0-3.346-1.874-5.383-4.904-5.383-3.041 0-4.914 2.046-4.914 5.383v.019c0 3.346 1.864 5.382 4.914 5.382zm0-1.73c-1.788 0-2.792-1.348-2.792-3.652v-.019c0-2.304 1.004-3.652 2.792-3.652 1.778 0 2.791 1.348 2.791 3.652v.019c0 2.294-1.013 3.652-2.791 3.652zm8.365 1.53h2.113l2.141-7.744h.163l2.151 7.744h2.132l2.859-10.383h-2.056l-1.855 8.012h-.162l-2.142-8.012h-1.969l-2.142 8.012h-.153l-1.864-8.012h-2.084l2.868 10.383zm13.069 0h2.075v-6.09c0-1.674.946-2.716 2.466-2.716 1.521 0 2.238.851 2.238 2.572v6.234h2.065v-6.721c0-2.477-1.281-3.863-3.605-3.863-1.51 0-2.505.669-3.011 1.778h-.153v-1.577h-2.075v10.383zm11.224 0h2.075v-14.456h-2.075v14.456zm8.949.2c3.04 0 4.904-2.036 4.904-5.382v-.019c0-3.346-1.874-5.383-4.904-5.383-3.04 0-4.914 2.046-4.914 5.383v.019c0 3.346 1.864 5.382 4.914 5.382zm0-1.73c-1.788 0-2.792-1.348-2.792-3.652v-.019c0-2.304 1.004-3.652 2.792-3.652 1.778 0 2.791 1.348 2.791 3.652v.019c0 2.294-1.013 3.652-2.791 3.652zm9.618 1.702c1.376 0 2.466-.593 3.078-1.645h.163v1.473h2.055v-7.104c0-2.18-1.472-3.48-4.082-3.48-2.362 0-3.997 1.138-4.245 2.84l-.01.067h1.998l.01-.039c.249-.736 1.004-1.157 2.151-1.157 1.406 0 2.123.631 2.123 1.769v.918l-2.811.162c-2.476.153-3.872 1.234-3.872 3.088v.02c0 1.883 1.463 3.088 3.442 3.088zm-1.377-3.174v-.02c0-.936.65-1.453 2.084-1.539l2.534-.162v.889c0 1.338-1.138 2.352-2.687 2.352-1.118 0-1.931-.564-1.931-1.52zm12.773 3.174c1.453 0 2.591-.67 3.193-1.807h.162v1.635h2.065v-14.456h-2.065v5.717h-.162c-.555-1.118-1.769-1.826-3.193-1.826-2.639 0-4.303 2.075-4.303 5.364v.019c0 3.26 1.693 5.354 4.303 5.354zm.592-1.769c-1.74 0-2.782-1.358-2.782-3.585v-.019c0-2.228 1.042-3.586 2.782-3.586 1.721 0 2.792 1.368 2.792 3.586v.019c0 2.218-1.061 3.585-2.792 3.585zm12.286 1.597h2.141v-5.307h3.021l2.811 5.307h2.476l-3.097-5.641c1.682-.564 2.676-2.075 2.676-3.929v-.02c0-2.562-1.759-4.206-4.589-4.206h-5.439v13.796zm2.141-7.047v-4.952h3.021c1.654 0 2.668.937 2.668 2.467v.019c0 1.568-.956 2.466-2.601 2.466h-3.088zm14.14 7.247c2.658 0 4.092-1.529 4.436-2.897l.019-.086-1.998.01-.038.076c-.249.536-1.042 1.196-2.371 1.196-1.711 0-2.801-1.157-2.84-3.146h7.362v-.726c0-3.117-1.778-5.211-4.675-5.211s-4.771 2.17-4.771 5.411v.01c0 3.289 1.836 5.363 4.876 5.363zm-.096-9.082c1.406 0 2.448.899 2.61 2.753h-5.277c.182-1.788 1.252-2.753 2.667-2.753zm10.89 9.082c2.572 0 4.053-1.386 4.426-3.403l.019-.086h-1.988l-.019.048c-.335 1.118-1.138 1.711-2.438 1.711-1.712 0-2.773-1.396-2.773-3.69v-.02c0-2.237 1.042-3.613 2.773-3.613 1.376 0 2.218.764 2.447 1.787l.01.029 1.988-.01v-.047c-.286-2.018-1.845-3.49-4.455-3.49-3.03 0-4.876 2.056-4.876 5.344v.02c0 3.355 1.855 5.42 4.886 5.42zm10.583 0c3.04 0 4.905-2.036 4.905-5.382v-.019c0-3.346-1.874-5.383-4.905-5.383-3.04 0-4.914 2.046-4.914 5.383v.019c0 3.346 1.864 5.382 4.914 5.382zm0-1.73c-1.788 0-2.791-1.348-2.791-3.652v-.019c0-2.304 1.003-3.652 2.791-3.652 1.778 0 2.792 1.348 2.792 3.652v.019c0 2.294-1.014 3.652-2.792 3.652zm6.769 1.53h2.075v-6.205c0-1.501 1.08-2.476 2.667-2.476.392 0 .746.047 1.119.124v-1.912a4.552 4.552 0 00-.909-.096c-1.386 0-2.352.65-2.724 1.75h-.153v-1.568h-2.075v10.383zm10.746.172c1.453 0 2.591-.67 3.193-1.807h.163v1.635h2.065v-14.456h-2.065v5.717h-.163c-.554-1.118-1.769-1.826-3.193-1.826-2.639 0-4.302 2.075-4.302 5.364v.019c0 3.26 1.692 5.354 4.302 5.354zm.593-1.769c-1.74 0-2.782-1.358-2.782-3.585v-.019c0-2.228 1.042-3.586 2.782-3.586 1.721 0 2.791 1.368 2.791 3.586v.019c0 2.218-1.061 3.585-2.791 3.585zm11.08 1.797c2.467 0 4.302-1.309 4.302-3.231v-.019c0-1.501-.956-2.352-2.954-2.821l-1.644-.372c-1.166-.278-1.644-.679-1.644-1.329v-.019c0-.832.822-1.396 1.959-1.396 1.167 0 1.903.545 2.104 1.271v.019h1.979v-.009c-.182-1.692-1.702-2.878-4.073-2.878-2.352 0-4.035 1.3-4.035 3.107v.01c0 1.52.909 2.409 2.869 2.858l1.654.383c1.204.277 1.692.717 1.692 1.367v.019c0 .851-.889 1.434-2.17 1.434-1.234 0-1.989-.526-2.247-1.31l-.01-.009h-2.074v.009c.2 1.74 1.787 2.916 4.292 2.916z" fill="#1D1D36"/><g filter="url(#filter3_ddd)"><rect x="423.2" y="331.606" width="223" height="186" rx="15" fill="#fff"/></g><g clip-path="url(#clip3)"><path d="M538.628 442.804c7.149 12.018 22.223 14.661 33.788 7.846 3.152-1.86 20.021-12.941 18.13-36.255-2.084-25.689-34.707-17.543-43.774-29.529s2.145-18.555-10.736-28.169c-12.882-9.614-30.469-4.843-41.695 7.878-11.225 12.722-14.947 29.328-14.947 29.328-2.267 10.978.533 29.159 16.67 30.505 16.137 1.345 31.083-4.846 42.564 18.396z" fill="#87E6AD" fill-opacity=".2"/><path d="M499.316 382.772c-.477 0-.946-.175-1.308-.492a1.942 1.942 0 01-.666-1.366c-.062-1.104.741-2.041 1.827-2.131 1.124-.066 2.048.743 2.138 1.833.062 1.121-.74 2.058-1.826 2.149-.055.004-.11.007-.165.007zm-.016-2.839l-.052.001c-.448.038-.789.441-.763.916.012.215.11.414.275.558.174.152.39.227.625.207h.001a.86.86 0 00.778-.917c-.036-.432-.411-.765-.864-.765zm67.736 42.115c-.479 0-.951-.175-1.314-.494a1.952 1.952 0 01-.67-1.371c-.062-1.111.745-2.052 1.835-2.143a2.017 2.017 0 012.149 1.842c.062 1.127-.744 2.067-1.835 2.159-.055.004-.11.007-.165.007zm-.017-2.857l-.053.001c-.452.038-.797.445-.771.927a.808.808 0 00.279.563c.175.154.398.23.631.208h.001a.868.868 0 00.787-.928c-.036-.435-.416-.771-.874-.771z" fill="#00C48C"/><path d="M484.929 409.208l86.052-46.687-54.356 49.633-31.696-2.946z" fill="#87E6AD"/><path d="M516.625 412.154l6.911 31.268 47.445-80.901-54.356 49.633z" fill="#00C48C"/><path d="M525.32 413.211l-1.783 30.211 14.769-25.184-12.986-5.027z" fill="#01836A" fill-opacity=".5"/><path d="M570.981 362.521l-9.561 64.663-36.1-13.973 45.661-50.69z" fill="#87E6AD"/><path d="M505.893 441.474l.926-.933a.58.58 0 000-.817.57.57 0 00-.81 0l-.926.934-.926-.934a.57.57 0 00-.81 0 .582.582 0 000 .817l.926.933-.926.934a.581.581 0 000 .816.569.569 0 00.81 0l.926-.933.926.933a.569.569 0 00.81 0 .58.58 0 000-.816l-.926-.934z" fill="#00C48C"/></g><path d="M459.348 488.312c3.06 0 5.018-1.566 5.018-4.079v-.01c0-1.948-1.129-3.059-3.888-3.651l-1.43-.319c-1.703-.364-2.395-1.002-2.395-1.976v-.009c0-1.239 1.138-1.958 2.677-1.958 1.594-.009 2.623.774 2.796 1.848l.018.119h1.976l-.009-.128c-.146-2.04-1.967-3.615-4.754-3.615-2.786 0-4.753 1.566-4.762 3.834v.009c0 1.94 1.147 3.178 3.815 3.743l1.439.309c1.74.374 2.45 1.03 2.45 2.04v.009c0 1.221-1.193 2.059-2.869 2.059-1.757 0-3.023-.765-3.132-1.958l-.01-.101h-2.003l.009.119c.182 2.213 2.086 3.715 5.054 3.715zm11.047-.127c2.531 0 3.897-1.457 4.225-2.759l.018-.082-1.903.009-.036.073c-.237.51-.993 1.138-2.259 1.138-1.63 0-2.668-1.102-2.704-2.996h7.012v-.692c0-2.969-1.694-4.963-4.453-4.963-2.76 0-4.545 2.067-4.545 5.154v.009c0 3.133 1.749 5.109 4.645 5.109zm-.091-8.651c1.338 0 2.331.856 2.486 2.622h-5.027c.173-1.703 1.193-2.622 2.541-2.622zm6.21 8.46h1.977v-5.801c0-1.594.901-2.587 2.349-2.587 1.448 0 2.131.811 2.131 2.45v5.938h1.967v-6.402c0-2.359-1.22-3.679-3.433-3.679-1.439 0-2.386.637-2.869 1.693h-.145v-1.502h-1.977v9.89zm14.207.164c1.384 0 2.468-.638 3.042-1.722h.154v1.558h1.967v-13.77h-1.967v5.446h-.154c-.529-1.065-1.685-1.739-3.042-1.739-2.514 0-4.098 1.976-4.098 5.109v.018c0 3.105 1.612 5.1 4.098 5.1zm.564-1.685c-1.657 0-2.65-1.293-2.65-3.415v-.018c0-2.122.993-3.415 2.65-3.415 1.64 0 2.66 1.302 2.66 3.415v.018c0 2.113-1.011 3.415-2.66 3.415zm14.189 1.685c1.311 0 2.349-.565 2.932-1.567h.155v1.403h1.958v-6.767c0-2.076-1.403-3.314-3.889-3.314-2.249 0-3.806 1.083-4.043 2.704l-.009.064h1.903l.009-.036c.237-.702.956-1.102 2.049-1.102 1.339 0 2.022.601 2.022 1.684v.875l-2.677.154c-2.359.146-3.689 1.175-3.689 2.942v.018c0 1.794 1.394 2.942 3.279 2.942zm-1.312-3.024v-.018c0-.893.62-1.384 1.986-1.466l2.413-.155v.847c0 1.275-1.084 2.24-2.559 2.24-1.066 0-1.84-.537-1.84-1.448zm17.749 3.178c3.06 0 5.018-1.566 5.018-4.079v-.01c0-1.948-1.129-3.059-3.888-3.651l-1.43-.319c-1.703-.364-2.395-1.002-2.395-1.976v-.009c0-1.239 1.138-1.958 2.677-1.958 1.594-.009 2.623.774 2.796 1.848l.018.119h1.976l-.009-.128c-.146-2.04-1.967-3.615-4.754-3.615-2.786 0-4.753 1.566-4.762 3.834v.009c0 1.94 1.147 3.178 3.815 3.743l1.439.309c1.74.374 2.45 1.03 2.45 2.04v.009c0 1.221-1.193 2.059-2.869 2.059-1.757 0-3.023-.765-3.132-1.958l-.01-.101h-2.003l.009.119c.182 2.213 2.086 3.715 5.054 3.715zm11.047-.127c2.531 0 3.897-1.457 4.225-2.759l.018-.082-1.903.009-.036.073c-.237.51-.993 1.138-2.259 1.138-1.63 0-2.668-1.102-2.704-2.996h7.012v-.692c0-2.969-1.694-4.963-4.453-4.963-2.76 0-4.545 2.067-4.545 5.154v.009c0 3.133 1.749 5.109 4.645 5.109zm-.091-8.651c1.338 0 2.331.856 2.486 2.622h-5.027c.173-1.703 1.193-2.622 2.541-2.622zm10.372 8.651c2.45 0 3.861-1.321 4.217-3.242l.018-.082h-1.894l-.019.045c-.318 1.066-1.083 1.631-2.322 1.631-1.63 0-2.641-1.33-2.641-3.516v-.018c0-2.131.993-3.442 2.641-3.442 1.312 0 2.113.728 2.331 1.703l.01.027 1.894-.009v-.046c-.273-1.921-1.758-3.323-4.244-3.323-2.887 0-4.644 1.957-4.644 5.09v.018c0 3.197 1.766 5.164 4.653 5.164zm9.189 0c1.439 0 2.44-.619 2.914-1.685h.155v1.494h1.967v-9.89h-1.967v5.801c0 1.593-.847 2.586-2.432 2.586-1.448 0-2.049-.81-2.049-2.45v-5.937h-1.976v6.402c0 2.34 1.157 3.679 3.388 3.679zm7.303-.191h1.977v-5.911c0-1.429 1.029-2.358 2.54-2.358.374 0 .711.045 1.066.118v-1.821a4.32 4.32 0 00-.865-.091c-1.321 0-2.241.619-2.596 1.666h-.145v-1.493h-1.977v9.89zm10.783.191c2.531 0 3.897-1.457 4.225-2.759l.018-.082-1.903.009-.036.073c-.237.51-.993 1.138-2.259 1.138-1.63 0-2.668-1.102-2.704-2.996h7.012v-.692c0-2.969-1.694-4.963-4.453-4.963-2.76 0-4.545 2.067-4.545 5.154v.009c0 3.133 1.749 5.109 4.645 5.109zm-.091-8.651c1.338 0 2.331.856 2.486 2.622h-5.027c.173-1.703 1.193-2.622 2.541-2.622zm10.955 8.46h8.196v-1.758h-6.156v-11.383h-2.04v13.141zm11.001-11.657c.674 0 1.238-.555 1.238-1.229 0-.683-.564-1.239-1.238-1.239a1.24 1.24 0 00-1.239 1.239c0 .674.556 1.229 1.239 1.229zm-.993 11.657h1.967v-9.89h-1.967v9.89zm4.262 0h1.976v-5.801c0-1.594.902-2.587 2.35-2.587s2.131.811 2.131 2.45v5.938h1.967v-6.402c0-2.359-1.22-3.679-3.433-3.679-1.439 0-2.386.637-2.869 1.693h-.146v-1.502h-1.976v9.89zm10.691 0h1.977v-3.597l.847-.847 3.405 4.444h2.405l-4.399-5.719 4.125-4.171h-2.313l-3.925 4.171h-.145v-8.051h-1.977v13.77z" fill="#1D1D36"/><defs><clipPath id="clip0"><rect x="180.001" y="19" width="277.86" height="601.659" rx="22.393" fill="#fff"/></clipPath><clipPath id="clip1"><path fill="#fff" transform="translate(179.829 19.04)" d="M0 0h278.03v601.685H0z"/></clipPath><clipPath id="clip2"><path fill="#fff" transform="translate(363.529 508.247)" d="M0 0h113.679v100.077H0z"/></clipPath><clipPath id="clip3"><path fill="#fff" transform="translate(478.707 351.606)" d="M0 0h111.986v102.731H0z"/></clipPath><filter id="filter0_d" x="155.087" y="1.812" width="327.687" height="651.486" filterUnits="userSpaceOnUse" color-interpolation-filters="sRGB"><feFlood flood-opacity="0" result="BackgroundImageFix"/><feColorMatrix in="SourceAlpha" values="0 0 0 0 0 0 0 0 0 0 0 0 0 0 0 0 0 0 127 0" result="hardAlpha"/><feOffset dy="7.726"/><feGaussianBlur stdDeviation="7.726"/><feColorMatrix values="0 0 0 0 0.0588235 0 0 0 0 0.0823529 0 0 0 0 0.317647 0 0 0 0.12 0"/><feBlend in2="BackgroundImageFix" result="effect1_dropShadow"/><feBlend in="SourceGraphic" in2="effect1_dropShadow" result="shape"/></filter><filter id="filter1_d" x="176.865" y="130.251" width="285.444" height="389.242" filterUnits="userSpaceOnUse" color-interpolation-filters="sRGB"><feFlood flood-opacity="0" result="BackgroundImageFix"/><feColorMatrix in="SourceAlpha" values="0 0 0 0 0 0 0 0 0 0 0 0 0 0 0 0 0 0 127 0" result="hardAlpha"/><feOffset dy="7.414"/><feGaussianBlur stdDeviation="7.414"/><feColorMatrix values="0 0 0 0 0.0588235 0 0 0 0 0.0823529 0 0 0 0 0.317647 0 0 0 0.05 0"/><feBlend in2="BackgroundImageFix" result="effect1_dropShadow"/><feBlend in="SourceGraphic" in2="effect1_dropShadow" result="shape"/></filter><filter id="filter2_ddd" x="286" y="479" width="267" height="230" filterUnits="userSpaceOnUse" color-interpolation-filters="sRGB"><feFlood flood-opacity="0" result="BackgroundImageFix"/><feColorMatrix in="SourceAlpha" values="0 0 0 0 0 0 0 0 0 0 0 0 0 0 0 0 0 0 127 0" result="hardAlpha"/><feOffset dy="15"/><feGaussianBlur stdDeviation="11"/><feColorMatrix values="0 0 0 0 0.113725 0 0 0 0 0.113725 0 0 0 0 0.211765 0 0 0 0.15 0"/><feBlend in2="BackgroundImageFix" result="effect1_dropShadow"/><feColorMatrix in="SourceAlpha" values="0 0 0 0 0 0 0 0 0 0 0 0 0 0 0 0 0 0 127 0" result="hardAlpha"/><feOffset dy="1"/><feGaussianBlur stdDeviation="1.5"/><feColorMatrix values="0 0 0 0 0.113725 0 0 0 0 0.113725 0 0 0 0 0.211765 0 0 0 0.05 0"/><feBlend in2="effect1_dropShadow" result="effect2_dropShadow"/><feColorMatrix in="SourceAlpha" values="0 0 0 0 0 0 0 0 0 0 0 0 0 0 0 0 0 0 127 0" result="hardAlpha"/><feOffset dy="3"/><feGaussianBlur stdDeviation="3.5"/><feColorMatrix values="0 0 0 0 0.0588235 0 0 0 0 0.0823529 0 0 0 0 0.317647 0 0 0 0.04 0"/><feBlend in2="effect2_dropShadow" result="effect3_dropShadow"/><feBlend in="SourceGraphic" in2="effect3_dropShadow" result="shape"/></filter><filter id="filter3_ddd" x="401.2" y="324.606" width="267" height="230" filterUnits="userSpaceOnUse" color-interpolation-filters="sRGB"><feFlood flood-opacity="0" result="BackgroundImageFix"/><feColorMatrix in="SourceAlpha" values="0 0 0 0 0 0 0 0 0 0 0 0 0 0 0 0 0 0 127 0" result="hardAlpha"/><feOffset dy="15"/><feGaussianBlur stdDeviation="11"/><feColorMatrix values="0 0 0 0 0.113725 0 0 0 0 0.113725 0 0 0 0 0.211765 0 0 0 0.15 0"/><feBlend in2="BackgroundImageFix" result="effect1_dropShadow"/><feColorMatrix in="SourceAlpha" values="0 0 0 0 0 0 0 0 0 0 0 0 0 0 0 0 0 0 127 0" result="hardAlpha"/><feOffset dy="1"/><feGaussianBlur stdDeviation="1.5"/><feColorMatrix values="0 0 0 0 0.113725 0 0 0 0 0.113725 0 0 0 0 0.211765 0 0 0 0.05 0"/><feBlend in2="effect1_dropShadow" result="effect2_dropShadow"/><feColorMatrix in="SourceAlpha" values="0 0 0 0 0 0 0 0 0 0 0 0 0 0 0 0 0 0 127 0" result="hardAlpha"/><feOffset dy="3"/><feGaussianBlur stdDeviation="3.5"/><feColorMatrix values="0 0 0 0 0.0588235 0 0 0 0 0.0823529 0 0 0 0 0.317647 0 0 0 0.04 0"/><feBlend in2="effect2_dropShadow" result="effect3_dropShadow"/><feBlend in="SourceGraphic" in2="effect3_dropShadow" result="shape"/></filter></defs></svg>