<svg width="22" height="22" fill="none" xmlns="http://www.w3.org/2000/svg"><path d="M3.256 19.14c2.785 2.39 6.498 3.107 9.98 2.789 3.404-.32 5.957-2.471 7.504-5.5 1.934-3.746 1.47-7.89-.232-11.556-1.393-3.348-4.1-5.66-7.736-4.623-3.482 1.116-.62 5.021-3.482 6.695C6.428 8.618 2.714 6.387.316 10.85c-.929 1.674.232 5.978 2.94 8.29z" fill="#87E7AD"/><path d="M6.5 7.434C6.5 4.991 8.52 3 11 3s4.5 1.99 4.5 4.434c0 2.443-2.02 4.434-4.5 4.434v3.44" stroke="#0F1551" stroke-width="1.5" stroke-miterlimit="10" stroke-linecap="round"/><path d="M10.99 19a1 1 0 100-2 1 1 0 000 2z" fill="#0F1551"/></svg>