<svg width="22" height="22" fill="none" xmlns="http://www.w3.org/2000/svg"><path d="M.866 5.974c-1.402 3.17-.98 6.631.393 9.733 1.275 2.963 3.996 4.613 7.223 5.14 3.963.665 7.663-.91 10.58-3.432 2.607-2.167 4.01-5.337 1.946-8.203C18.972 6.448 14.37 10.572 12 8.5c-2.37-2.071.516-6.514-4.28-7.455C5.869.652 2.229 2.87.867 5.975z" fill="#FFF279"/><path d="M3.525 18.55L3 13.823 13.204 3.619a2.128 2.128 0 013.001 0l2.176 2.176a2.128 2.128 0 010 3.001L8.177 19l-4.652-.45zm8.179-13.28l4.647 4.647m-2.334-1.841L7.112 14.98" stroke="#0F1551" stroke-width="1.5" stroke-miterlimit="10" stroke-linecap="round" stroke-linejoin="round"/></svg>