<svg width="22" height="22" fill="none" xmlns="http://www.w3.org/2000/svg"><path d="M14.122 5.073c-3.024.388-3.27 3.332-4.904 5.346-1.635 2.015-3.678.775-4.822 3.1-1.145 2.324.327 5.114 2.697 6.586 2.779 1.704 5.885 2.48 9.154 1.394 2.616-.93 4.66-2.634 5.313-5.19.736-2.713.654-5.657-1.062-8.059-1.553-2.402-3.351-3.564-6.376-3.177z" fill="#FC8888"/><path d="M6.722 10.5h.01m3.768 0h.01m3.768 0h.01m4.712 0a8.5 8.5 0 01-12.519 7.492L2 19l1.317-3.953A8.5 8.5 0 1119 10.5z" stroke="#0F1551" stroke-width="1.5" stroke-linecap="round" stroke-linejoin="round"/></svg>