<svg width="22" height="23" fill="none" xmlns="http://www.w3.org/2000/svg"><path d="M6.355.011C12.8.507 6.955 6.964 15.5 12c5.296 3.128 3.95 15.71-7.977 7.482C-4.405 11.255-.09-.409 6.355.011z" fill="#FC8888"/><path d="M17 10.267c0 3.293-2.707 6-6 6a5.98 5.98 0 01-6-6" stroke="#0F1551" stroke-width="1.5" stroke-miterlimit="10" stroke-linecap="round" stroke-linejoin="round"/><path d="M11 13.104a3.084 3.084 0 01-3.078-3.079V5.579A3.084 3.084 0 0111 2.5a3.084 3.084 0 013.079 3.079v4.446c.062 1.697-1.32 3.079-3.08 3.079zm0 3.396v3" stroke="#0F1551" stroke-width="1.5" stroke-miterlimit="10" stroke-linecap="round" stroke-linejoin="round"/></svg>