<svg width="22" height="22" fill="none" xmlns="http://www.w3.org/2000/svg"><path d="M.009 15.398c.454-6.741 5.218-4.148 10.21-13.112 3.1-5.555 17.47-.74 9.302 11.779S-.369 22.139.009 15.398z" fill="#FFF279"/><path d="M8.314 17.152H2v-3.85c0-1.504 1.225-2.725 2.827-2.725.094 0 .189-.094.189-.188 0-.093 0-.093-.095-.187-.942-.752-1.507-1.973-1.507-3.288A4.417 4.417 0 017.843 2.5c1.885 0 3.581 1.221 4.146 2.912" stroke="#0F1551" stroke-width="1.5" stroke-miterlimit="10"/><path d="M20 15.65v3.85H8.314v-3.85a2.73 2.73 0 012.733-2.725c.189 0 .283-.281.189-.375-.943-.752-1.508-1.973-1.508-3.288 0-2.442 1.98-4.32 4.43-4.32 2.45 0 4.429 1.972 4.429 4.32 0 1.315-.566 2.442-1.508 3.288-.189.094-.095.375.188.375A2.73 2.73 0 0120 15.65z" stroke="#0F1551" stroke-width="1.5" stroke-miterlimit="10"/></svg>