<svg width="22" height="22" fill="none" xmlns="http://www.w3.org/2000/svg"><path d="M10.084 21.958c3.21-.36 6.003-2.46 8.024-5.08 1.972-2.566 2.299-5.745 1.458-8.803C18.54 4.28 15.75 1.882 12.46.655 9.559-.574 6.446-.216 4.758 2.98c-1.54 3.142 2.63 3.722 1.819 6.802-.812 3.08-4.516 4.187-3.353 8.775.418 1.74 3.747 3.76 6.86 3.401z" fill="#87E7AD"/><path d="M8.993 16.651c-1.58 1.799-4.178 1.799-5.815 0-1.58-1.862-1.58-4.816.057-6.614l3.669-4.175c1.58-1.798 4.177-1.798 5.814 0 1.58 1.799 1.58 4.753 0 6.615" stroke="#0F1551" stroke-width="1.5" stroke-miterlimit="10" stroke-linecap="round" stroke-linejoin="round"/><path d="M13 5.349c1.58-1.799 4.177-1.799 5.814 0 1.58 1.798 1.58 4.752 0 6.614l-3.669 4.11c-1.58 1.799-4.177 1.799-5.814 0-1.58-1.798-1.58-4.752 0-6.614" stroke="#0F1551" stroke-width="1.5" stroke-miterlimit="10" stroke-linecap="round" stroke-linejoin="round"/></svg>