<svg width="22" height="22" fill="none" xmlns="http://www.w3.org/2000/svg"><path d="M8.368 19.14c2.025 2.39 4.726 3.107 7.258 2.789 2.476-.32 4.333-2.471 5.458-5.5 1.406-3.746 1.069-7.89-.169-11.556-1.013-3.348-2.982-5.66-5.627-4.623C12.757 1.366 13.582 4.326 11.5 6 9.418 7.674 7 7 6.23 10.85c-.53 2.65.168 5.978 2.138 8.29z" fill="#9EACFC"/><path d="M18.156 8.275v9.192c0 .876-.664 1.533-1.55 1.533H5.468c-.885 0-1.549-.657-1.549-1.533V8.275" stroke="#0F1551" stroke-width="1.5" stroke-miterlimit="10"/><path d="M20 9.954l-7.967-6.57a1.485 1.485 0 00-1.992 0L2 9.953" stroke="#0F1551" stroke-width="1.5" stroke-miterlimit="10" stroke-linecap="round"/></svg>