<svg width="23" height="23" fill="none" xmlns="http://www.w3.org/2000/svg"><path d="M15.998 7.069c-2.689.365-2.907 3.136-4.36 5.032-1.453 1.896-3.27.729-4.286 2.917-1.017 2.187.29 4.813 2.397 6.198 2.47 1.604 5.231 2.334 8.138 1.313 2.325-.875 4.14-2.48 4.722-4.886.654-2.552.581-5.324-.944-7.584-1.38-2.26-2.98-3.355-5.667-2.99z" fill="#FC8888"/><path d="M11 20c3.866 0 7-3.116 7-6.96 0-3.843-3.134-6.958-7-6.958S4 9.197 4 13.04C4 16.884 7.134 20 11 20z" stroke="#0F1551" stroke-width="1.5" stroke-miterlimit="10"/><path d="M7.295 7.306V5.844C7.295 3.766 8.897 2 11 2c1.001 0 1.903.416 2.604 1.143a3.843 3.843 0 011.102 2.701v1.462" stroke="#0F1551" stroke-width="1.5" stroke-miterlimit="10"/><path d="M11.619 13.641a1.53 1.53 0 00.926-1.403c0-.845-.691-1.53-1.544-1.53-.853 0-1.544.685-1.544 1.53 0 .628.381 1.167.926 1.403v1.862h1.236v-1.862z" fill="#0F1551"/></svg>