<svg width="55" height="55" fill="none" xmlns="http://www.w3.org/2000/svg"><path d="M2.474 39.94c5.782 8.952 20.113 20.322 36.899 12.376 31.483-14.91 9.122-69.47-12.233-46.93C15.645 20.31 9.738 15.224 2.962 22.358c-4.128 4.418-3.608 12.745-.488 17.582z" fill="#D5D9F6"/><path d="M35.07 29.95c2.947-2.254 4.823-5.728 4.823-9.694C39.893 13.503 34.351 8 27.407 8c-3.95 0-7.517 1.876-9.81 4.752a11.955 11.955 0 00-2.613 7.504c0 3.97 1.881 7.447 4.834 9.7-5.702.364-9.773 4.58-10.818 8.918C13.857 44.187 20.17 48 28.307 48 34.9 48 42.005 44.396 46 39.127c-.25-1.092-.755-2.488-1.775-4.051-1.972-2.934-5.34-4.934-9.156-5.127z" fill="#4B5FF7"/><path d="M15.09 44.09c9.566-2.247 15.437-5.569 17.307-11.231.317-.853.474-1.629.553-2.56.08-.775.08-1.705.08-2.713-.573-9.8-6.57-12.968-12.72-16.217l-.892-.472a12.665 12.665 0 00-1.822 1.855c-1.656 2.064-2.611 4.69-2.611 7.504 0 3.97 1.88 7.447 4.833 9.7-.454.03-.898.083-1.33.159l.241.185c-.65.036-1.29.116-1.917.236C12.705 31.894 9.85 35.344 9 38.874c1.819 1.99 3.842 3.77 6.09 5.217z" fill="#6874FF"/></svg>