<svg width="55" height="55" fill="none" xmlns="http://www.w3.org/2000/svg"><g clip-path="url(#clip0)"><path d="M4.098 32.341c-2.203 1.913-3.465 4.541-3.855 6.9-1.31 7.8 2.79 13.585 9.358 15.22 5.914 1.476 13.46-.128 20.353-4.199 13.332-7.877 25.937-24.382 24.996-37.25-.37-5.165-3.6-9.775-7.89-11.722-3.51-1.575-9.102-2.362-14.072 1.579-3.813 3.031-4.92 5.583-6.22 9.524-.512 1.564-.873 3.105-1.546 4.66-1.072 2.489-2.896 5.04-4.92 7.168-1.109 1.16-2.388 2.138-3.758 2.84-1.414.732-2.787.96-4.206 1.412-2.751.897-5.766 1.725-8.24 3.868z" fill="#F7F2C7"/><path d="M32.107 26.412h-7.411c-1.944 0-3.51-1.591-3.51-3.566 0-1.975 1.566-3.566 3.51-3.566h7.411c1.944 0 3.51 1.591 3.51 3.566 0 1.974-1.58 3.566-3.51 3.566zm-11.502 10.33h-7.411c-1.944 0-3.51-1.591-3.51-3.566 0-1.975 1.566-3.566 3.51-3.566h7.411c1.944 0 3.51 1.591 3.51 3.566 0 1.974-1.58 3.566-3.51 3.566z" fill="#FFA51F"/><path d="M20.606 16.082h-7.411c-1.944 0-3.51-1.592-3.51-3.567 0-1.974 1.566-3.566 3.51-3.566h7.411c1.944 0 3.51 1.592 3.51 3.566 0 1.975-1.58 3.567-3.51 3.567z" fill="#FFD443"/><path d="M20.606 16.082h-7.411c-1.944 0-3.51-1.592-3.51-3.567 0-1.974 1.566-3.566 3.51-3.566h7.411c1.944 0 3.51 1.592 3.51 3.566 0 1.975-1.58 3.567-3.51 3.567z" fill="#FFC83A"/><path d="M13.383 26.412c1.939 0 3.51-1.597 3.51-3.566 0-1.97-1.571-3.566-3.51-3.566-1.938 0-3.51 1.596-3.51 3.566 0 1.97 1.572 3.566 3.51 3.566z" fill="#FFD443"/><path opacity=".25" d="M13.383 26.412c1.939 0 3.51-1.597 3.51-3.566 0-1.97-1.571-3.566-3.51-3.566-1.938 0-3.51 1.596-3.51 3.566 0 1.97 1.572 3.566 3.51 3.566z" fill="#FFA51F"/><path d="M24.682 47.087c1.938 0 3.51-1.597 3.51-3.566 0-1.97-1.572-3.566-3.51-3.566-1.939 0-3.51 1.596-3.51 3.566 0 1.97 1.571 3.566 3.51 3.566z" fill="#FFA51F"/><path d="M39.33 36.742h-7.412c-1.943 0-3.51-1.591-3.51-3.566 0-1.975 1.567-3.566 3.51-3.566h7.412c1.944 0 3.51 1.591 3.51 3.566 0 1.975-1.581 3.566-3.51 3.566zM13.383 47.087c1.939 0 3.51-1.597 3.51-3.566 0-1.97-1.571-3.566-3.51-3.566-1.938 0-3.51 1.596-3.51 3.566 0 1.97 1.572 3.566 3.51 3.566zm17.571-31.005c1.939 0 3.51-1.597 3.51-3.567 0-1.969-1.571-3.566-3.51-3.566-1.938 0-3.51 1.597-3.51 3.566 0 1.97 1.572 3.567 3.51 3.567z" fill="#FFC83A"/><path d="M42.84 26.412c1.939 0 3.51-1.597 3.51-3.566 0-1.97-1.571-3.566-3.51-3.566-1.938 0-3.51 1.596-3.51 3.566 0 1.97 1.572 3.566 3.51 3.566z" fill="#FFA51F"/></g><defs><clipPath id="clip0"><rect width="55" height="55" rx="6.875" fill="#fff"/></clipPath></defs></svg>