<svg width="22" height="22" fill="none" xmlns="http://www.w3.org/2000/svg"><path d="M4.007 15.398c.372-6.741 4.27-4.148 8.354-13.112 2.537-5.555 14.293-.74 7.61 11.779-6.682 12.519-16.273 8.074-15.964 1.333z" fill="#87E7AD"/><path d="M8.143 11l1.905 1.905 3.809-3.81m-6.823-5.05a3.257 3.257 0 001.853-.767 3.257 3.257 0 014.226 0c.521.445 1.17.713 1.853.768a3.257 3.257 0 012.988 2.988c.055.683.323 1.332.768 1.853a3.257 3.257 0 010 4.226 3.257 3.257 0 00-.768 1.853 3.257 3.257 0 01-2.988 2.988 3.257 3.257 0 00-1.853.768 3.257 3.257 0 01-4.226 0 3.257 3.257 0 00-1.853-.768 3.257 3.257 0 01-2.988-2.988 3.257 3.257 0 00-.768-1.853 3.257 3.257 0 010-4.226c.445-.521.713-1.17.768-1.853a3.257 3.257 0 012.988-2.988z" stroke="#0F1551" stroke-width="1.5" stroke-linecap="round" stroke-linejoin="round"/></svg>