<svg width="22" height="22" fill="none" xmlns="http://www.w3.org/2000/svg"><path d="M7.006 15.428c.311-6.71 4.876-3.383 7.003-13.052 1.267-5.76 11.983-.738 6.38 11.725-5.653 12.462-13.642 8.037-13.383 1.327z" fill="#9EACFC"/><path d="M1 11c3.733 8.667 16.267 8.667 20 0-3.733-8.667-16.323-8.667-20 0z" stroke="#0F1551" stroke-width="1.5" stroke-miterlimit="10"/><path d="M11 15.643c2.51 0 4.546-2.079 4.546-4.643 0-2.564-2.035-4.643-4.545-4.643S6.455 8.436 6.455 11c0 2.564 2.035 4.643 4.546 4.643z" stroke="#0F1551" stroke-width="1.5" stroke-miterlimit="10"/><path d="M11 11.929a.92.92 0 00.91-.929.919.919 0 00-.91-.929.919.919 0 00-.908.929.92.92 0 00.909.929z" fill="#0F1551" stroke="#0F1551" stroke-width="1.5" stroke-miterlimit="10"/></svg>