<svg width="55" height="55" fill="none" xmlns="http://www.w3.org/2000/svg"><g clip-path="url(#clip0)"><path d="M13.207 46.204C7.515 39.14 2.57 32.032.7 23.014-1.087 14.742.368 7.343 7.14 2.855c6.732-4.447 16.209-3.35 20.32.873 4.11 4.222 4.603 7.332 9.623 11.382s13.53-2.046 17.038 10.228c3.303 11.558-2.894 22.57-15.36 27.889-3.033 1.288-6.315 1.912-9.64 1.746l-.112-.012c-.797-.08-1.628-.162-2.422-.32-4.737-.874-9.432-3.534-13.38-8.438z" fill="#F6DEDE"/><path d="M39.647 20.21h-4.86v-4.86c.12-4.03-3.2-7.35-7.348-7.35-4.03 0-7.349 3.32-7.349 7.35v4.86h-4.741C11.319 20.21 8 23.529 8 27.56c0 4.03 3.319 7.349 7.349 7.349h4.741v4.742c0 4.03 3.319 7.349 7.349 7.349s7.349-3.32 7.349-7.35v-4.74h4.86c4.03 0 7.348-3.32 7.348-7.35.119-4.03-3.2-7.35-7.349-7.35z" fill="#FF6464"/><path d="M34.79 20.21h4.859c4.148 0 7.467 3.319 7.349 7.35 0 4.03-3.32 7.349-7.35 7.349H34.79v4.742c0 4.029-3.32 7.349-7.35 7.349s-7.349-3.32-7.349-7.35v-4.74h-3.607c-.044-2.554.933-4.961 3.08-6.507 2-1.431 3.142-1.04 4.405-.605 1.066.366 2.22.763 4.048.118 1.54-.553 2.584-2.298 3.689-4.142.892-1.49 1.822-3.044 3.083-4.085v.522z" fill="#FF9291"/></g><defs><clipPath id="clip0"><rect width="55" height="55" rx="6.875" fill="#fff"/></clipPath></defs></svg>