<svg width="640" height="565" fill="none" xmlns="http://www.w3.org/2000/svg"><g clip-path="url(#clip0)"><path fill-rule="evenodd" clip-rule="evenodd" d="M356.722 538.995C193.225 539.208-.556 532.55.002 386.661.383 286.369 98.155 279.113 118 190c19.714-81.129 59.685-148.881 143-164C389.563 2.67 420.246 71.81 475 142.5c59.465 76.773 165 85.005 165 231.276 0 122.431-119.781 165.007-283.278 165.219z" fill="#F5F5F7"/><g opacity=".75"><mask id="a" maskUnits="userSpaceOnUse" x="145" y="0" width="344" height="221"><path d="M145 0v220.634h343.364V0H145z" fill="#EBEBF0"/></mask><g mask="url(#a)"><path d="M451.938 176.154c-1.696 0-3.12-1.426-3.12-3.124v-46.788c0-1.698 1.424-3.124 3.12-3.124 1.696 0 3.12 1.426 3.12 3.124v46.788c-.067 1.698-1.424 3.124-3.12 3.124zm-23.063-.815c-1.696 0-3.12-1.426-3.12-3.124v-66.278c0-1.698 1.424-3.124 3.12-3.124 1.696 0 3.12 1.426 3.12 3.124v66.278c0 1.698-1.424 3.124-3.12 3.124z" fill="#BBBAC9"/><path d="M488.432 145.188v9.303c-.204.068-.34.068-.543.136-2.713.611-5.494 1.087-8.276 1.562-.678.136-1.356.204-1.967.34-.61.068-1.221.203-1.831.271-1.492.204-2.917.408-4.409.544-5.427.611-10.921.95-16.415 1.018h-2.375c-1.288 0-2.577 0-3.866-.068a175.192 175.192 0 01-16.822-1.222 196.706 196.706 0 01-6.241-.883 157.005 157.005 0 01-18.111-3.939 182.821 182.821 0 01-12.752-3.938 201.648 201.648 0 01-14.109-5.501c-.204-.068-.407-.136-.543-.271-5.155-2.241-10.107-4.618-14.855-7.199-2.781-1.494-5.562-2.988-8.207-4.55a140.83 140.83 0 01-6.309-3.802c-.407-.272-.746-.476-1.153-.747a164.73 164.73 0 01-6.715-4.415c-.136-.067-.272-.135-.339-.271a759.024 759.024 0 00-5.223-3.599l-2.239-1.63a295.096 295.096 0 01-12.142-9.439c-2.917-2.377-5.63-4.754-8.207-6.995a162.131 162.131 0 01-4.816-4.414c-1.832-1.698-1.968-4.618-.204-6.451a4.244 4.244 0 012.171-1.29 4.331 4.331 0 012.916.203c.475.204.95.476 1.357.883 2.103 1.97 4.409 4.007 6.783 6.18.068.068.136.068.204.135 3.663 3.192 7.665 6.52 11.938 9.779a245.9 245.9 0 0010.175 7.47c1.424 1.019 2.849 1.97 4.341 2.988.271.204.543.34.814.543.136.068.204.136.339.272a143.83 143.83 0 006.309 4.007c.474.339 1.017.611 1.492.95 2.17 1.291 4.409 2.581 6.647 3.871 4.749 2.649 9.7 5.229 14.855 7.538 4.749 2.173 9.633 4.21 14.72 6.044 4.138 1.494 8.411 2.92 12.752 4.142 5.834 1.698 11.939 3.056 18.111 4.143 2.035.339 4.138.679 6.241.95 5.494.747 11.124 1.155 16.822 1.291 2.035.068 4.138.068 6.241.068a151.407 151.407 0 0016.415-1.087c.068 0 .203 0 .339-.068 1.357-.136 2.713-.339 4.07-.543.61-.068 1.221-.204 1.831-.272.679-.136 1.357-.204 1.967-.339 1.154-.204 2.239-.408 3.392-.612.068 0 .136 0 .203-.067a79.04 79.04 0 005.224-1.019zm-215.976 30.151c-1.696 0-3.121-1.426-3.121-3.123V112.32c0-1.697 1.425-3.123 3.121-3.123 1.695 0 3.12 1.426 3.12 3.123v59.896a3.114 3.114 0 01-3.12 3.123zm-23.945 0c-1.695 0-3.12-1.426-3.12-3.123v-41.56c0-1.698 1.425-3.124 3.12-3.124 1.696 0 3.121 1.426 3.121 3.124v41.56a3.114 3.114 0 01-3.121 3.123zm-22.859 0c-1.696 0-3.12-1.426-3.12-3.123v-29.948c0-1.698 1.424-3.124 3.12-3.124 1.696 0 3.12 1.426 3.12 3.124v29.948a3.113 3.113 0 01-3.12 3.123z" fill="#BBBAC9"/><path d="M161.28 159.652c-10.854 0-22.114-.814-33.713-2.444-2.51-.34-4.205-2.649-3.866-5.161.339-2.513 2.645-4.211 5.155-3.871 29.168 4.142 56.029 2.852 79.838-3.735 18.993-5.229 36.086-13.921 50.874-25.669 25.165-20.033 34.933-42.24 35.001-42.443 1.017-2.309 3.663-3.395 5.969-2.377 2.306 1.019 3.391 3.667 2.374 5.976-.407 1.019-10.785 24.583-37.714 45.974-15.737 12.563-33.984 21.731-54.13 27.367-15.466 4.21-32.152 6.383-49.788 6.383z" fill="#BBBAC9"/><path d="M479.613 132.965a114.52 114.52 0 008.818 3.734v11.613a74.07 74.07 0 01-5.426-2.037c-1.153-.476-2.239-.883-3.392-1.427-1.017-.475-2.035-.882-3.052-1.358-.272-.136-.475-.203-.679-.339-.271-.136-.542-.272-.814-.34a161.22 161.22 0 01-20.01-11.273 144.992 144.992 0 01-6.24-4.346 192.929 192.929 0 01-16.823-13.785 179.83 179.83 0 01-6.24-5.976l-.882-.883c-7.054-7.198-12.82-14.057-17.229-19.897-.678-.883-1.357-1.766-1.967-2.648 0-.068-.068-.068-.068-.136a185.71 185.71 0 01-2.985-4.21c-.61-.951-1.221-1.766-1.763-2.581-2.646-4.007-4.138-6.451-4.274-6.723-.203-.407-.407-.815-.542-1.29 0-.136-.068-.272-.068-.34a5.33 5.33 0 012.645-5.772c.679-.407 1.425-.611 2.171-.68.61-.067 1.221 0 1.831.137 1.425.34 2.714 1.222 3.46 2.58.068.068.61 1.019 1.628 2.649 3.391 5.364 11.938 17.995 25.233 31.441 10.243 10.39 24.759 22.682 43.005 31.917 1.086.747 2.374 1.358 3.663 1.97z" fill="#D2D1DD"/><path d="M294.501 87.466l20.214-3.26 6.444-6.451 16.008 16.026 65.322-6.315V38.368H294.501v49.098z" fill="#D2D1DD"/><path d="M294.482 187.154h12.753V49.911h-12.753v137.243zm-7.8-143.626h28.421v-5.161h-28.421v5.16z" fill="#D2D1DD"/><path d="M294.501 49.913l-7.869-6.384h28.422l-7.801 6.383h-12.752z" fill="#D2D1DD"/><path d="M349.591 167.625h7.529V49.939h-7.529v117.686zm-42.396 0h7.529V49.939h-7.529v117.686z" fill="#BBBAC9"/><path d="M351.255 60.42h28.896v-6.383h-28.896v6.384zm-44.011 0h27.811v-6.383h-27.811v6.384zM111.423 194.829v-7.674h377.008v4.958c5.495-.883-377.008 2.716-377.008 2.716z" fill="#BBBAC9"/><path d="M335.089 211.893h14.516v-24.787h-14.516v24.787z" fill="#BBBAC9"/><path d="M380.127 211.672h14.72V38.37h-14.72v173.302z" fill="#D2D1DD"/><path d="M307.244 208.298h15.67V84.908h-15.67v123.39z" fill="#BBBAC9"/><path d="M330.856 87.471l-9.689-9.7-9.689 9.7 9.689 9.7 9.689-9.7zm18.785 123.543h15.669V84.908h-15.669v126.106z" fill="#BBBAC9"/><path d="M373.192 87.447l-9.689-9.7-9.688 9.7 9.688 9.7 9.689-9.7z" fill="#BBBAC9"/><path d="M294.482 211.694h12.753v-41.628h-12.753v41.628z" fill="#D2D1DD"/><path d="M483.208 146.275c1.696.679 3.46 1.29 5.223 1.901v6.587c-.203-.068-.339-.136-.542-.204a171.676 171.676 0 01-8.276-3.055 61.098 61.098 0 01-1.967-.815c-.61-.272-1.221-.544-1.831-.747-1.357-.612-2.714-1.223-4.07-1.902-.068-.068-.204-.068-.339-.136-5.766-2.784-11.26-5.772-16.416-9.031-2.102-1.359-4.205-2.717-6.24-4.075-6.173-4.21-11.735-8.692-16.822-13.106-2.171-1.902-4.274-3.803-6.241-5.705-7.461-7.062-13.498-13.853-18.111-19.421a327.062 327.062 0 01-7.122-8.964c-.136-.204-.272-.408-.407-.544-1.018-1.358-.814-3.327.542-4.346.543-.475 1.221-.679 1.9-.679a2.99 2.99 0 012.442 1.223c.203.203.339.475.542.679 0 .068.068.068.068.135.611.815 1.289 1.63 1.967 2.581 4.138 5.297 10.175 12.699 18.111 20.712a270.275 270.275 0 006.241 6.044c5.019 4.618 10.581 9.303 16.822 13.853 2.035 1.426 4.07 2.92 6.24 4.346a168.726 168.726 0 0020.486 11.477c.067.068.203.068.271.136s.203.068.271.136h.068c1.153.543 2.306 1.018 3.46 1.493 1.288.408 2.509.951 3.73 1.427z" fill="#BBBAC9"/><path d="M474.526 176.154c-1.696 0-3.12-1.426-3.12-3.124v-27.095c0-1.698 1.424-3.124 3.12-3.124 1.696 0 3.12 1.426 3.12 3.124v27.095c0 1.698-1.424 3.124-3.12 3.124zm-271.327-.815c-1.695 0-3.12-1.426-3.12-3.123v-22.274c0-1.698 1.425-3.124 3.12-3.124 1.696 0 3.121 1.426 3.121 3.124v22.274a3.114 3.114 0 01-3.121 3.123zm-23.062 0c-1.696 0-3.12-1.426-3.12-3.123v-29.948c0-1.698 1.424-3.124 3.12-3.124 1.696 0 3.12 1.426 3.12 3.124v29.948c0 1.697-1.424 3.123-3.12 3.123zm-23.131-1.901c-1.696 0-3.12-1.426-3.12-3.124v-39.726c0-1.698 1.424-3.124 3.12-3.124 1.696 0 3.12 1.426 3.12 3.124v39.726a3.113 3.113 0 01-3.12 3.124z" fill="#BBBAC9"/><path d="M488.364 167.598h-80.788v19.557h80.788v-19.557zm-376.978 19.569h268.749v-19.558H111.386v19.558z" fill="#D2D1DD"/><path d="M335.089 167.625h14.516V49.939h-14.516v117.686z" fill="#D2D1DD"/><path d="M335.089 211.93h14.516V103.345h-14.516V211.93z" fill="#D2D1DD"/><path d="M250.343 159.313h-2.917c-26.726-.408-53.384-7.063-77.057-19.082-22.791-11.613-41.309-27.367-53.519-45.567-1.424-2.105-.814-4.89 1.221-6.315 2.103-1.426 4.884-.815 6.308 1.222 11.193 16.705 28.964 31.781 50.06 42.511 22.452 11.408 47.754 17.656 73.123 18.131 26.657.408 52.366-5.432 76.242-17.52 26.929-13.582 50.806-34.701 71.02-62.748 1.492-2.037 4.341-2.512 6.376-1.018s2.51 4.346 1.018 6.383c-21.028 29.269-46.058 51.339-74.276 65.6-24.352 12.155-50.467 18.403-77.599 18.403z" fill="#BBBAC9"/><path d="M249.529 150.756c-1.56 0-3.121 0-4.545-.067-26.183-.747-52.027-7.742-74.683-20.237-22.045-12.156-39.613-28.657-50.738-47.74-.881-1.494-.339-3.395 1.086-4.278 1.492-.883 3.391-.34 4.273 1.087 10.582 18.063 27.268 33.75 48.364 45.43 21.774 12.02 46.6 18.743 71.834 19.49 59.149 1.698 112.736-28.861 150.789-86.176.95-1.426 2.917-1.833 4.342-.883 1.424.951 1.831 2.92.881 4.347-50.873 76.532-115.042 89.027-151.603 89.027z" fill="#D2D1DD"/><path d="M394.879 211.67h12.752V49.233h-12.752V211.67zm-7.868-168.142h28.421v-5.161h-28.421v5.16z" fill="#BBBAC9"/><path d="M394.824 49.913l-7.801-6.384h28.421l-7.868 6.383h-12.752z" fill="#BBBAC9"/></g></g><path d="M157.278 153.269h-.95c-.136 0-.271 0-.407-.068-.475-.068-.882-.136-1.221-.136-.136 0-.271-.068-.339-.068-.136 0-.272-.067-.407-.067v.814l3.527 4.618v1.562l.204.068v-6.655c-.204-.068-.272-.068-.407-.068zm-1.764-36.602c-.204.067-.475.135-.678.135l-1.018.204-1.017.204v1.901c.61.476 1.221.883 1.831 1.358.611.408 1.153.883 1.764 1.291l1.221.815v-6.655c-.679.339-1.425.543-2.103.747zm2.103 45.566c-.136.136-.204.272-.272.407l-.067.068c0 .068 0 .204-.068.272.135.136.271.204.407.34v-1.087zm-.272 3.328l.272.271v-.339l-.272.068zm0 0l.272.271v-.339l-.272.068zm.272-3.328c-.136.136-.204.272-.272.407l-.067.068c0 .068 0 .204-.068.272.135.136.271.204.407.34v-1.087zm-.339-8.964h-.95c-.136 0-.271 0-.407-.068-.475-.068-.882-.136-1.221-.136-.136 0-.271-.068-.339-.068-.136 0-.272-.067-.407-.067v.814l3.527 4.618v1.562l.204.068v-6.655c-.204-.068-.272-.068-.407-.068zm-1.764-36.602c-.204.067-.475.135-.678.135l-1.018.204-1.017.204v1.901c.61.476 1.221.883 1.831 1.358.611.408 1.153.883 1.764 1.291l1.221.815v-6.655c-.679.339-1.425.543-2.103.747zm1.831 48.894l.272.271v-.339l-.272.068zm.272-3.328c-.136.136-.204.272-.272.407l-.067.068c0 .068 0 .204-.068.272.135.136.271.204.407.34v-1.087zm-.339-8.964h-.95c-.136 0-.271 0-.407-.068-.475-.068-.882-.136-1.221-.136-.136 0-.271-.068-.339-.068-.136 0-.272-.067-.407-.067v.814l3.527 4.618v1.562l.204.068v-6.655c-.204-.068-.272-.068-.407-.068zm-1.764-36.602c-.204.067-.475.135-.678.135l-1.018.204-1.017.204v1.901c.61.476 1.221.883 1.831 1.358.611.408 1.153.883 1.764 1.291l1.221.815v-6.655c-.679.339-1.425.543-2.103.747zm1.831 48.894l.272.271v-.339l-.272.068zm.272-3.328c-.136.136-.204.272-.272.407l-.067.068c0 .068 0 .204-.068.272.135.136.271.204.407.34v-1.087zm-.339-8.964h-.95c-.136 0-.271 0-.407-.068-.475-.068-.882-.136-1.221-.136-.136 0-.271-.068-.339-.068-.136 0-.272-.067-.407-.067v.814l3.527 4.618v1.562l.204.068v-6.655c-.204-.068-.272-.068-.407-.068zm-1.764-36.602c-.204.067-.475.135-.678.135l-1.018.204-1.017.204v1.901c.61.476 1.221.883 1.831 1.358.611.408 1.153.883 1.764 1.291l1.221.815v-6.655c-.679.339-1.425.543-2.103.747zm1.831 48.894l.272.271v-.339l-.272.068zm.272-3.328c-.136.136-.204.272-.272.407l-.067.068c0 .068 0 .204-.068.272.135.136.271.204.407.34v-1.087zm-.339-8.964h-.95c-.136 0-.271 0-.407-.068-.475-.068-.882-.136-1.221-.136-.136 0-.271-.068-.339-.068-.136 0-.272-.067-.407-.067v.814l3.527 4.618v1.562l.204.068v-6.655c-.204-.068-.272-.068-.407-.068zm-1.764-36.602c-.204.067-.475.135-.678.135l-1.018.204-1.017.204v1.901c.61.476 1.221.883 1.831 1.358.611.408 1.153.883 1.764 1.291l1.221.815v-6.655c-.679.339-1.425.543-2.103.747zm1.831 48.894l.272.271v-.339l-.272.068zm.272-3.328c-.136.136-.204.272-.272.407l-.067.068c0 .068 0 .204-.068.272.135.136.271.204.407.34v-1.087zm-.339-8.964h-.95c-.136 0-.271 0-.407-.068-.475-.068-.882-.136-1.221-.136-.136 0-.271-.068-.339-.068-.136 0-.272-.067-.407-.067v.814l3.527 4.618v1.562l.204.068v-6.655c-.204-.068-.272-.068-.407-.068zm-1.764-36.602c-.204.067-.475.135-.678.135l-1.018.204-1.017.204v1.901c.61.476 1.221.883 1.831 1.358.611.408 1.153.883 1.764 1.291l1.221.815v-6.655c-.679.339-1.425.543-2.103.747zm1.831 48.894l.272.271v-.339l-.272.068zm.272-3.328c-.136.136-.204.272-.272.407l-.067.068c0 .068 0 .204-.068.272.135.136.271.204.407.34v-1.087zm-.339-8.964h-.95c-.136 0-.271 0-.407-.068-.475-.068-.882-.136-1.221-.136-.136 0-.271-.068-.339-.068-.136 0-.272-.067-.407-.067v.814l3.527 4.618v1.562l.204.068v-6.655c-.204-.068-.272-.068-.407-.068zm-1.764-36.602c-.204.067-.475.135-.678.135l-1.018.204-1.017.204v1.901c.61.476 1.221.883 1.831 1.358.611.408 1.153.883 1.764 1.291l1.221.815v-6.655c-.679.339-1.425.543-2.103.747zm2.103 49.097v-.339l-.272.136.272.203zm-.339-3.124l-.068.068c0 .068 0 .204-.068.272.136.136.271.204.407.34v-1.087a1.421 1.421 0 01-.271.407zm-.475-9.439h-.475c-.136 0-.271 0-.407-.068-.475-.068-.882-.136-1.221-.136-.136 0-.271-.067-.339-.067-.136 0-.272-.068-.407-.068v.815l3.527 4.617v1.562l.204.068v-6.655h-.34c-.203 0-.407-.068-.542-.068zm-1.289-36.534c-.204.067-.475.135-.678.135l-1.018.204-1.017.204v1.901c.61.476 1.221.883 1.831 1.358.611.408 1.153.883 1.764 1.291l1.221.815v-6.655c-.679.339-1.425.543-2.103.747zM145 0v220.634h343.364V0H145zm330.815 208.071H157.617V12.631h318.198v195.44zm-320.301-91.404c-.204.067-.475.135-.678.135l-1.018.204-1.017.204v1.901c.61.476 1.221.883 1.831 1.358.611.408 1.153.883 1.764 1.291l1.221.815v-6.655c-.679.339-1.425.543-2.103.747zm1.764 36.602h-.95c-.136 0-.271 0-.407-.068-.475-.068-.882-.136-1.221-.136-.136 0-.271-.068-.339-.068-.136 0-.272-.067-.407-.067v.814l3.527 4.618v1.562l.204.068v-6.655c-.204-.068-.272-.068-.407-.068zm.339 8.964c-.136.136-.204.272-.272.407l-.067.068c0 .068 0 .204-.068.272.135.136.271.204.407.34v-1.087zm-.272 3.328l.272.271v-.339l-.272.068zm-1.831-48.894c-.204.067-.475.135-.678.135l-1.018.204-1.017.204v1.901c.61.476 1.221.883 1.831 1.358.611.408 1.153.883 1.764 1.291l1.221.815v-6.655c-.679.339-1.425.543-2.103.747zm1.764 36.602h-.95c-.136 0-.271 0-.407-.068-.475-.068-.882-.136-1.221-.136-.136 0-.271-.068-.339-.068-.136 0-.272-.067-.407-.067v.814l3.527 4.618v1.562l.204.068v-6.655c-.204-.068-.272-.068-.407-.068zm.339 8.964c-.136.136-.204.272-.272.407l-.067.068c0 .068 0 .204-.068.272.135.136.271.204.407.34v-1.087zm-.272 3.328l.272.271v-.339l-.272.068zm-1.831-48.894c-.204.067-.475.135-.678.135l-1.018.204-1.017.204v1.901c.61.476 1.221.883 1.831 1.358.611.408 1.153.883 1.764 1.291l1.221.815v-6.655c-.679.339-1.425.543-2.103.747zm1.764 36.602h-.95c-.136 0-.271 0-.407-.068-.475-.068-.882-.136-1.221-.136-.136 0-.271-.068-.339-.068-.136 0-.272-.067-.407-.067v.814l3.527 4.618v1.562l.204.068v-6.655c-.204-.068-.272-.068-.407-.068zm.339 8.964c-.136.136-.204.272-.272.407l-.067.068c0 .068 0 .204-.068.272.135.136.271.204.407.34v-1.087zm-.272 3.328l.272.271v-.339l-.272.068zm-1.831-48.894c-.204.067-.475.135-.678.135l-1.018.204-1.017.204v1.901c.61.476 1.221.883 1.831 1.358.611.408 1.153.883 1.764 1.291l1.221.815v-6.655c-.679.339-1.425.543-2.103.747zm1.764 36.602h-.95c-.136 0-.271 0-.407-.068-.475-.068-.882-.136-1.221-.136-.136 0-.271-.068-.339-.068-.136 0-.272-.067-.407-.067v.814l3.527 4.618v1.562l.204.068v-6.655c-.204-.068-.272-.068-.407-.068zm.339 8.964c-.136.136-.204.272-.272.407l-.067.068c0 .068 0 .204-.068.272.135.136.271.204.407.34v-1.087zm-.272 3.328l.272.271v-.339l-.272.068zm-1.831-48.894c-.204.067-.475.135-.678.135l-1.018.204-1.017.204v1.901c.61.476 1.221.883 1.831 1.358.611.408 1.153.883 1.764 1.291l1.221.815v-6.655c-.679.339-1.425.543-2.103.747zm1.764 36.602h-.95c-.136 0-.271 0-.407-.068-.475-.068-.882-.136-1.221-.136-.136 0-.271-.068-.339-.068-.136 0-.272-.067-.407-.067v.814l3.527 4.618v1.562l.204.068v-6.655c-.204-.068-.272-.068-.407-.068zm.339 8.964c-.136.136-.204.272-.272.407l-.067.068c0 .068 0 .204-.068.272.135.136.271.204.407.34v-1.087zm-.272 3.328l.272.271v-.339l-.272.068zm-1.831-48.894c-.204.067-.475.135-.678.135l-1.018.204-1.017.204v1.901c.61.476 1.221.883 1.831 1.358.611.408 1.153.883 1.764 1.291l1.221.815v-6.655c-.679.339-1.425.543-2.103.747zm1.764 36.602h-.95c-.136 0-.271 0-.407-.068-.475-.068-.882-.136-1.221-.136-.136 0-.271-.068-.339-.068-.136 0-.272-.067-.407-.067v.814l3.527 4.618v1.562l.204.068v-6.655c-.204-.068-.272-.068-.407-.068zm.339 8.964c-.136.136-.204.272-.272.407l-.067.068c0 .068 0 .204-.068.272.135.136.271.204.407.34v-1.087zm-.272 3.328l.272.271v-.339l-.272.068z" fill="#EBEBF0"/><path d="M576.367 559.581a2.142 2.142 0 01-2.159-2.161V432.066H444.106a2.142 2.142 0 01-2.159-2.162c0-1.207.952-2.161 2.159-2.161h132.261c1.206 0 2.158.954 2.158 2.161V557.42a2.141 2.141 0 01-2.158 2.161z" fill="#DCDBE4"/><path d="M425.946 554.305c-2.159-1.017 2.477-26.189 2.858-27.079 3.365-8.073-.889-16.782-4.255-41.827 12.318 1.334 20.319-5.213 24.763 8.772-1.904 17.29-3.809 19.706-1.714 28.732 2.476 10.743-4.889 21.486-10.858 24.601-5.016 2.67-2.539 10.615-10.794 6.801z" fill="#DBA5A5"/><path d="M526.079 258.336s-19.049-4.322-41.145 9.599l6.794 20.914 34.795-9.408-.444-21.105z" fill="#606FF9"/><path d="M454.329 549.665l-7.112 2.606-2.603-7.183c-.825-.826-1.778-.445-2.667-.191-1.206.382-5.016 10.743-7.746 11.888-8.064 3.241-15.176 5.021-16.763 5.657-2.794 1.081-5.524 1.653-8.381 2.479-2.032.572-4.064-2.098-3.874-3.814.127-1.208 1.207-2.098 2.223-2.86 9.206-6.929 16.572-20.469 21.398-30.958 4.889 4.196 17.588-.699 18.858-4.322.063.318 4.317 2.479 5.46 6.674 1.969 7.501 1.207 20.024 1.207 20.024z" fill="#242D83"/><path d="M502.014 302.389c-4.889 14.366-6.858 19.26-10.096 39.856l-18.16-3.941c.191-1.398.318-30.576 1.016-42.018 1.397-22.884 12.382-33.563 16.446-33.691 8.19-.254 8.952 6.484 13.334 16.21 1.65 3.687.698 14.176-2.54 23.584zm-12.763 153.769h90.735l-24.255-79.459h-79.56l13.08 79.459z" fill="#4D5EE6"/><path d="M486.521 370.66c-.318 1.97-2.54 9.725-2.54 9.725s-40.827 7.184-51.558 9.345c-10.667 2.161-20.192 9.916-20.763 21.486-.381 8.263 1.016 16.972 1.778 25.172 1.778 20.469 6.222 67.127 7.619 79.713l35.748-6.038-5.143-92.999c34.605 2.225 85.592 5.594 92.957 6.865 6.096 1.081 23.049-29.813 23.049-29.813s-80.893-25.427-81.147-23.456z" fill="#BBBAC9"/><path d="M421.629 518.581l36.573-5.594-.444-10.552-37.78 5.784 1.651 10.362z" fill="#C6C5D2"/><path d="M450.471 293.748l-11.872 8.624 12.455 17.185 11.872-8.624-12.455-17.185zm-83.575 265.961c-1.842-1.526 4.508-7.692 5.46-7.946 8.699-2.543 1.842-12.332 9.334-18.752 13.398-11.506 25.97-54.478 21.715-41.192-2.92 24.6 15.366 7.374 16.192 21.994-9.969 10.934-17.207 13.031-19.493 28.796-1.524 10.87-9.207 6.548-15.747 8.137-5.461 1.208-10.413 14.684-17.461 8.963z" fill="#DBA5A5"/><path d="M568.367 375.046l-64.766.254-4.508 8.455s-29.271 7.755-43.558 10.615c-4.444.89-10.73 5.149-13.143 9.917-14.858 29.431-61.146 112.768-61.146 112.768l31.62 12.078s24.637-31.847 32.002-44.561c8.191-14.112 26.224-56.829 26.224-56.829 14.985.191 54.225.572 69.273-.063 9.016-.382 24.446-2.162 29.97-20.151 3.619-12.078-1.968-32.483-1.968-32.483z" fill="#D2D1DD"/><path d="M399.214 564.095l-7.936.063-.064-8.009c-.571-1.144-1.587-1.081-2.54-1.144-1.333-.064-8.699 8.899-11.81 9.026-9.08.382-16.763-.318-18.541-.254-3.111.127-6.032-.318-9.143-.509-2.222-.127-3.238-3.432-2.54-5.148.508-1.208 1.905-1.653 3.175-2.035 11.556-3.623 23.493-14.493 31.938-23.202 3.429 5.849 17.652 5.467 20.128 2.225 0 .318 3.429 3.941 3.112 8.518-.635 8.328-5.779 20.469-5.779 20.469z" fill="#242D83"/><path d="M587.034 463.087h-42.859l-15.938-99.356c7.81-.763 13.969-1.653 16.192-2.733 5.587-2.67 2.732-13.667 4.002-52.253.444-14.239-.828-35.852-1.78-38.013 11.493 21.104 25.208 94.588 27.557 102.534 27.239 90.329 12.826 89.821 12.826 89.821zM466.965 343.898c-8.636-12.586-12.572-16.909-23.875-33.436l12.445-11.506c.953 1.081 3.683 3.242 8.509 8.2 7.937 8.137 14.032 12.714 21.906 20.977 5.905 6.23 9.778 10.87 12.699 18.308 2.476 6.356.889 8.327-1.016 10.997-3.81 5.467-5.651 7.755-14.795 4.005-3.555-1.399-10.286-9.345-15.873-17.545z" fill="#5466F7"/><path d="M379.468 517.246l34.16 14.112 5.27-8.709-34.541-14.239-4.889 8.836z" fill="#DBDAE3"/><path d="M452.487 298.066l-11.365-21.486-5.207 1.971-6.794 9.471-4.127 3.369c3.238 1.653 5.524 7.184 8.635 9.853 3.556 3.052 7.683 3.242 7.683 3.242l11.175-6.42z" fill="#DBA5A5"/><path d="M439.09 290.501l.127.827c.19 1.335-.762 2.606-2.096 2.797-.317.063-.571 0-.889 0-1.016-.191-1.777-1.017-1.904-2.098l-1.715-11.124c-.19-1.335.762-2.606 2.095-2.797 1.334-.191 2.604.763 2.794 2.098l.445 3.305 1.143 6.992z" fill="#D6A1A1"/><path d="M433.248 291.01l-.064.826c-.063 1.399-1.269 2.416-2.603 2.352-.317 0-.571-.063-.825-.19-.953-.382-1.524-1.335-1.461-2.416l.508-11.251c.064-1.399 1.27-2.416 2.604-2.352 1.333.063 2.412 1.271 2.349 2.606l-.191 3.369-.317 7.056z" fill="#D6A1A1"/><path d="M428.486 291.328l-.19.826c-.254 1.335-1.588 2.225-2.921 1.907-.318-.063-.572-.19-.826-.318-.889-.508-1.333-1.589-1.143-2.606l2.096-11.061c.254-1.334 1.587-2.224 2.921-1.907 1.333.255 2.222 1.59 1.904 2.925l-.698 3.305-1.143 6.929z" fill="#D6A1A1"/><path d="M442.963 279.25l-10.604-16.337c-.698-1.081-2.159-1.462-3.238-.763-1.143.7-1.46 2.098-.826 3.242l9.398 16.146 5.27-2.288z" fill="#DBA5A5"/><path d="M428.168 278.106l1.905-.064 2.54-.127 3.175 2.988-4.381 3.941-3.239-6.738z" fill="#D6A1A1"/><path d="M449.185 298.765c-.889.572-2.032.509-3.111.509-2.159 0-5.842-1.907-6.286-2.924-1.143-2.543-2.603-3.56-1.016-9.98.254-1.081 0-2.162-1.016-2.607-1.143-.508-2.286-1.144-2.984-1.462-2.159-1.017-2.984-2.86-2.413-3.941.698-1.525 1.46-1.907 2.857-1.653 2.667.509 5.715 1.907 8.445 2.416 3.619.699 4.889 3.433 6.35 6.802.825 1.97 1.333 5.657 1.46 8.136.064 1.907-.571 3.56-2.286 4.704 0 0 .064 0 0 0z" fill="#DEABAB"/><path d="M518.396 256.747c.635 1.907-5.461 5.721-13.652 8.518-8.191 2.797-15.937 3.242-16.064 1.272-.127-1.145 5.587-5.276 13.715-8.137 8.191-2.797 15.302-3.56 16.001-1.653z" fill="#4656D6"/><path fill-rule="evenodd" clip-rule="evenodd" d="M494.14 286.497c-.381 9.153 46.415-10.934 38.034-13.286-18.604-5.34-25.525-53.396-25.525-53.396l-19.176 39.983c0-.063 7.239 12.65 6.667 26.699z" fill="#DBA5A5"/><path fill-rule="evenodd" clip-rule="evenodd" d="M494.902 203.541c-9.08-1.271-25.398 5.976-29.017 18.499-.572 2.034-.381 6.102-.381 8.963.063 2.86.952 7.691-.445 10.297-.762 1.399-.762 1.971-.19 2.543.889.89 2.857 1.526 3.302 2.161 1.714 2.607 2.793 5.022 2.666 7.819-.127 2.797 1.969 8.455 5.016 8.455 16.763-.064 29.716-13.159 29.716-13.159s11.747-19.896 6.921-31.021c-3.301-7.31-6.794-13.031-17.588-14.557z" fill="#DBA5A5"/><path fill-rule="evenodd" clip-rule="evenodd" d="M476.87 249.501c-.127 0-.572.699-.699.826l-.762.763c-.508.445-1.079.89-1.714 1.208-.635.317-1.27.572-1.968.762-.635.127-1.397.382-2.032.128-.381-.128-.635-.382-.826-.763-.254-.445-.381-.954-.127-1.399.127-.19.508-.572.318-.826h.127c-.064 0 0 0 0 0h-.127c-.508-.572-1.461-1.462-1.08-2.479.445-1.017 1.397-.89 2.286-.572 2.413.953 4.127 2.288 6.604 2.352z" fill="#D13A42"/><path d="M531.666 233.164c-.127 4.831-.254 14.302-3.365 17.29-2.159 2.034-6.731 3.496-11.874 4.513-9.651 1.907-21.144 2.352-21.144 2.352s0-.19-.063-.572c-.127-.953-.381-2.987-.699-5.467-.063-.572-.127-1.144-.254-1.716-.127-.953-.317-1.907-.444-2.924-.381-2.352-.762-4.767-1.27-6.992-.063-.445-.19-.89-.254-1.335a67.74 67.74 0 00-.381-1.653c-1.016-4.005-2.159-6.484-3.238-4.831-.191.254-.381.508-.508.699-1.588 1.971-2.794 1.844-5.397.699-.953-.381-2.731-15.955-3.302-14.874-1.46 2.86.508 13.667-.508 13.857-6.858 1.208-9.016 1.844-13.144 2.734-1.142.254-2.412.508-4 .826-2.095-5.721-3.365-12.459-2.413-19.134.127-.762.254-1.525.445-2.288 0-.064 0-.127.063-.127.699-3.242 2.032-6.357 4.064-9.345.953-1.398 2.032-2.669 3.302-3.941 2.73-2.733 5.587-5.022 8.635-6.738 1.08-.636 2.159-1.144 3.238-1.653.064-.063.191-.063.318-.127a32.583 32.583 0 018.254-2.415c5.207-.827 10.795-.572 16.827.762.381.064.825.191 1.206.255 17.525 4.259 26.287 25.172 25.906 42.145z" fill="#0F1551"/><path d="M492.807 239.584a5.145 5.145 0 005.143-5.149 5.145 5.145 0 00-5.143-5.149 5.146 5.146 0 00-5.143 5.149 5.146 5.146 0 005.143 5.149z" fill="#DBA5A5"/><path d="M495.728 251.344a7.822 7.822 0 01-7.239-4.831c-.825-1.971-.825-4.068-.063-6.039s2.285-3.496 4.254-4.323c.444-.19.889 0 1.079.445.191.445 0 .89-.444 1.081a6.162 6.162 0 00-3.366 3.433 5.934 5.934 0 00.064 4.767c1.333 3.179 5.016 4.641 8.191 3.306 3.175-1.335 4.635-5.022 3.302-8.2-.191-.445 0-.89.444-1.081.445-.191.889 0 1.08.445 1.714 4.005-.191 8.645-4.191 10.361-1.08.445-2.096.636-3.111.636z" fill="#FFEA4D"/><path d="M547.794 342.499c.381 5.785-48.637 24.41-55.304 13.222-2.921-4.894-1.461-12.077-4.001-29.368-.127-.699-.19-1.398-.317-2.161-.381-2.606-1.333-4.577-2.349-6.611-.762-1.462-1.651-2.924-2.477-4.577-1.841-3.687-2.413-7.819-2.095-11.887.571-8.327 4-16.082 5.905-24.092.254-1.208 2.73-9.408 1.587-10.488 2.794 2.669 10.033.063 15.112-1.335 14.795-4.069 14.477-8.646 14.477-8.646 6.35 5.149 12.445 4.514 12.445 4.514l.762 15.701-2.032-.064c3.302 2.988 7.048 6.548 10.985 10.934 11.493 12.713 6.413 41.064 7.302 54.858z" fill="#242D83"/><path d="M488.49 326.353c-.127-.699-.191-1.398-.318-2.161-.381-2.606-1.333-4.577-2.349-6.611 0 0 7.365 4.64 10.223 4.64 2.857.064-7.556 4.132-7.556 4.132z" fill="#0F1551" fill-opacity=".5"/><path d="M625 376H40v11h585v-11z" fill="#DCDBE4"/><path d="M625 346H40v34h585v-34z" fill="#EBEBF0"/><path d="M368.546 354.069h-83.623l15.81-19.96h52.003l15.81 19.96z" fill="#BBBAC9"/><path d="M370.451 359.536h-87.433a2.617 2.617 0 01-2.603-2.607v-.254c0-1.399 1.142-2.606 2.603-2.606h87.433a2.616 2.616 0 012.603 2.606v.254a2.577 2.577 0 01-2.603 2.607z" fill="#DEDEF3"/><path d="M250.254 336.651v-91.918c0-2.543 2.096-4.64 4.636-4.64h143.69c2.54 0 4.635 2.097 4.635 4.64v91.918c0 2.543-2.095 4.641-4.635 4.641H254.89c-2.54-.064-4.636-2.098-4.636-4.641z" fill="#DCDBE4"/><path d="M394.706 255.222H258.763v69.733h135.943v-69.733z" fill="#0E1551"/><path d="M326.767 336.016c1.823 0 3.301-1.452 3.301-3.242 0-1.791-1.478-3.242-3.301-3.242-1.824 0-3.302 1.451-3.302 3.242 0 1.79 1.478 3.242 3.302 3.242z" fill="#BBBAC9"/><path d="M382.071 353.37H271.399l-10.223 14.62h131.118l-10.223-14.62z" fill="#DCDBE4"/><path d="M392.357 367.99H261.175v3.496h131.182v-3.496z" fill="#BBBAC9"/><path d="M396.802 246.894H256.731v79.205h140.071v-79.205z" fill="#0F1551"/><g opacity=".5"><path opacity=".5" d="M270.065 260.116h-7.048v2.543h7.048v-2.543z" fill="#7782FC"/><path opacity=".5" d="M300.161 260.116h-19.112v2.543h19.112v-2.543z" fill="#838BFD"/><path opacity=".5" d="M374.452 260.116h-70.544v2.543h70.544v-2.543z" fill="#7782FC"/></g><g opacity=".5"><path opacity=".5" d="M270.065 266.473h-7.048v2.543h7.048v-2.543z" fill="#7782FC"/><path opacity=".5" d="M305.369 266.473h-19.113v2.543h19.113v-2.543z" fill="#838BFD"/><path opacity=".5" d="M379.658 266.473h-70.544v2.543h70.544v-2.543z" fill="#7782FC"/></g><g opacity=".5"><path opacity=".5" d="M270.065 272.83h-7.048v2.542h7.048v-2.542z" fill="#7782FC"/><path opacity=".5" d="M310.575 272.83h-19.112v2.542h19.112v-2.542z" fill="#838BFD"/><path opacity=".5" d="M390.452 272.83h-76.194v2.542h76.194v-2.542z" fill="#7782FC"/></g><g opacity=".5"><path opacity=".5" d="M270.065 279.186h-7.048v2.543h7.048v-2.543z" fill="#7782FC"/><path opacity=".5" d="M305.369 279.186h-19.113v2.543h19.113v-2.543z" fill="#838BFD"/><path opacity=".5" d="M335.338 279.186h-26.224v2.543h26.224v-2.543z" fill="#7782FC"/></g><g opacity=".5"><path opacity=".5" d="M270.065 285.543h-7.048v2.543h7.048v-2.543z" fill="#7782FC"/><path opacity=".5" d="M300.161 285.543h-19.112v2.543h19.112v-2.543z" fill="#838BFD"/><path opacity=".5" d="M350.831 285.543h-46.923v2.543h46.923v-2.543z" fill="#7782FC"/></g><g opacity=".5"><path opacity=".5" d="M270.065 291.9h-7.048v2.542h7.048V291.9z" fill="#7782FC"/><path opacity=".5" d="M305.369 291.9h-19.113v2.542h19.113V291.9z" fill="#838BFD"/><path opacity=".5" d="M379.658 291.9h-70.544v2.542h70.544V291.9z" fill="#7782FC"/></g><g opacity=".4"><path opacity=".4" d="M270.065 298.257h-7.048v2.542h7.048v-2.542z" fill="#7782FC"/><path opacity=".4" d="M304.734 298.257h-16.763v2.542h16.763v-2.542z" fill="#838BFD"/><path opacity=".4" d="M374.832 298.257h-66.86v2.542h66.86v-2.542z" fill="#7782FC"/></g><g opacity=".3"><path opacity=".3" d="M270.065 304.613h-7.048v2.543h7.048v-2.543z" fill="#7782FC"/><path opacity=".3" d="M305.369 304.613h-19.113v2.543h19.113v-2.543z" fill="#838BFD"/><path opacity=".3" d="M363.53 304.613h-54.416v2.543h54.416v-2.543z" fill="#7782FC"/></g><g opacity=".2"><path opacity=".2" d="M270.065 310.97h-7.048v2.543h7.048v-2.543z" fill="#7782FC"/><path opacity=".2" d="M300.161 310.97h-19.112v2.543h19.112v-2.543z" fill="#838BFD"/><path opacity=".2" d="M374.452 310.97h-70.544v2.543h70.544v-2.543z" fill="#7782FC"/></g><g opacity=".1"><path opacity=".1" d="M270.065 317.327h-7.048v2.543h7.048v-2.543z" fill="#7782FC"/><path opacity=".1" d="M305.369 317.327h-19.113v2.543h19.113v-2.543z" fill="#838BFD"/><path opacity=".1" d="M379.658 317.327h-70.544v2.543h70.544v-2.543z" fill="#7782FC"/></g><path d="M396.802 246.894H256.731v7.311h140.071v-7.311z" fill="#4D5EE6"/><path d="M434.899 360.743c0 .7 1.206 1.081 2.095 1.081.254 0 .508 0 .699-.064-.191.318-.318.636-.318.954.064.572 1.016.953 1.715 1.08.698.064 1.269-.127 1.904-.317.254-.127.572-.191.826-.318.19-.064.952-.254 1.079-.382-.444.573-1.079 1.526.064 2.289 1.46 1.017 7.492-.636 9.778-.763 1.905-.064 4.889.254 6.794.509 5.334.699 16.509 1.907 19.557-1.399.762-.826-7.81-13.794-7.81-13.794s-10.414-.763-16.382-1.208c-7.81-.508-10.921 2.734-13.08 3.242-3.81.827-2.477 2.861.254 3.051-1.715.318-3.81 1.208-5.397 1.971-1.143.572-1.207.953-.889 1.462.127.254 1.206.954 1.587.699-.952.445-2.54 1.017-2.476 1.907z" fill="#DBA5A5"/><path d="M550.969 308.745c-1.27 38.586-1.016 49.519-6.604 52.253-2.286 1.08-8.381 1.97-16.191 2.733-22.16 2.098-57.844 2.861-57.844 2.861v-17.545l47.939-10.87s2.476-21.168 0-45.006v-.063l-2.096-14.939-1.46-10.488s11.302-4.386 11.302-9.408c1.905.254 8.445 2.098 11.429 3.814.508.318 5.207 2.034 9.144 8.582 1.27 2.097 4.825 23.901 4.381 38.076z" fill="#606FF9"/><path d="M518.269 338.177s4 1.271 7.175 4.068l-6.794-8.327-.381 4.259z" fill="#5466F7"/><path d="M170.599 120.713c7.54 0 13.652-7.542 13.652-16.845 0-9.303-6.112-16.845-13.652-16.845-7.539 0-13.651 7.541-13.651 16.845 0 9.303 6.112 16.845 13.651 16.845z" fill="#0F1551"/><path d="M211.871 208.945s2.667-1.145-11.937-14.748c-5.588-5.213-10.921-12.205-22.351-22.63-9.968-9.09-23.62-20.405-23.62-20.405s-6.984 42.908.826 49.582c11.683 10.044 38.859 24.537 38.859 24.537l18.223-16.336z" fill="#FFB800"/><path fill-rule="evenodd" clip-rule="evenodd" d="M130.343 124.718v-.254c-.698.381-.635.445 0 .254z" fill="#192066"/><path d="M185.203 259.29c.445-.382.635-.954.381-1.462.127.254 1.08-.127 1.207-.191 1.143-.699.889-2.415-.381-2.797.635-.318 1.333-.826 1.46-1.525.127-.763-.381-1.526-1.016-1.907-.635-.382-1.46-.445-2.222-.509.571-.572 1.143-1.462.698-2.161-.254-.382-.698-.572-1.079-.7-.826-.254-1.651-.572-2.54-.635-1.714-.254-3.429.127-5.143 0-1.714-.064-3.365-.572-5.08-.827-1.587-.254-3.175-.254-4.762-.127-.825.064-1.714.191-2.476.636-.826.445-1.461 1.208-2.096 1.971-1.714 2.288-3.111 4.767-4.381 7.246-.127.318-.317.636-.444.89-.064.191-.508.763-.508 1.017.063.318 1.587.699 1.968.827 1.461.508 2.921 1.017 4.318 1.525 2.222.827 4.445 1.589 6.667 2.416.19.063.381.127.571.063a.98.98 0 00.508-.381 22.7 22.7 0 002.159-2.733c-1.143-.509-2.222-1.335-2.921-2.352.508-.636 1.461-.509 2.223-.382 3.301.699 6.603 1.399 9.905 2.225.762.191 1.524.381 2.286.127.317 0 .508-.127.698-.254z" fill="#D6A1A1"/><path d="M130.406 493.726c-9.714 16.146-18.858 17.672-21.779 21.486l12.001 21.867c7.62 8.836 14.033 8.836 16.001 6.674.825-.89-.699-4.195-.699-4.195-1.333-3.751-6.286-18.053.826-26.19.825-.953 3.81-4.259 5.651-6.102 3.048-3.051 8.254-8.137 14.413-14.176l-16.635-16.654c-3.239 6.039-6.413 11.696-9.779 17.29z" fill="#D3A2A2"/><path d="M208.95 410.198c-3.492-25.617-22.16-125.926-23.303-135.779l-61.908 8.264c2.096 5.339 11.81 65.919 30.669 98.338 23.239 39.92 18.794 44.624 18.794 44.624-8.826 8.073-14.921 16.21-20.636 27.144-4.508 8.708-8.572 16.4-12.445 23.647l6.35 26.761c16.953-16.527 51.494-50.408 59.241-59.689 7.619-8.963 4.825-21.677 3.238-33.31z" fill="#4D5EE6"/><path d="M103.739 522.013c1.714 3.624 2.92 7.755 6.603 9.345 1.08.445 2.286.762 3.238 1.398 1.016.699 1.715 1.78 2.35 2.861 2.159 3.623 4.317 8.2 6.857 11.569 8.001 10.616 14.731 12.014 17.589 12.586 2.031.445 3.873-.318 4.508-2.352.698-2.225-.127-3.877-1.207-5.721-2.476-4.068-5.143-8.073-7.683-12.141 0 0-.444 7.882-11.175-5.403-2.095-2.543-6.603-8.137-9.969-12.777-2.984-4.132-2.666-9.091-2.666-9.091-4.128 1.78-9.017 8.519-8.445 9.726z" fill="#D13A42"/><path d="M127.105 535.362c1.143 11.125-1.969 10.362-1.588 15.129l23.621 8.01c11.556 1.398 22.287-2.861 22.287-5.785 0-1.207-6.096-3.75-6.096-3.75-3.556-1.844-20.064-8.01-20.318-18.816-.191-6.611.19-14.811 1.142-23.774h-21.905c1.523 11.823 2.476 23.202 2.857 28.986z" fill="#DEABAB"/><path d="M146.534 503.197c4.509-36.932 16.573-104.504 19.239-128.151 1.905-16.718 13.398-115.184 13.398-115.184l-52.257-4.895s-29.462 35.216-14.286 86.388c3.937 13.413 6.794 34.009 9.715 53.524 2.285 15.002 5.841 29.495 2.412 38.712-10.286 27.588-2.92 54.35-.825 70.178l.381 2.67h21.906c.063-1.08.19-2.161.317-3.242z" fill="#606FF9"/><path fill-rule="evenodd" clip-rule="evenodd" d="M154.979 124.654v-.254c.635.318.572.318 0 .254z" fill="#EBA5A6"/><path fill-rule="evenodd" clip-rule="evenodd" d="M154.979 175.063c-.762 5.976 8.636 11.188.699 11.951-24.509 2.415-34.288-29.75-33.208-31.339.444-.635 2.92-7.246 3.174-8.136 3.747-13.54 1.842-26.508 1.842-26.508-4.381-5.785 23.62 2.861 27.493 3.623l-.254 15.638c.381 5.403.889 8.645 1.905 10.552.191.318 1.397 3.369 2.857 3.687-1.079 1.462-1.777 4.068-.888 6.23 1.968 4.64-2.985 9.217-3.62 14.302z" fill="#EBA5A6"/><path fill-rule="evenodd" clip-rule="evenodd" d="M181.012 244.479c-1.333-9.599 1.207-23.584 2.604-38.268.571-6.357 3.428-8.645-1.524-24.282-.826-2.67-8.699-4.768-12.89-9.726-4.762-5.658-7.619-13.667-8.635-15.129-.889-1.335-2.159-5.594-3.429-4.641-12.001 8.582-27.874 2.289-31.875-1.08-1.269-1.081-3.174-1.145-4.444-.064 0 0-.445 6.548-10.35 8.963-2.73.636-2.413 3.623-.508 7.628-.381 12.777 9.588 60.961 6.54 92.935-.889 8.582-5.207 21.041-5.207 21.041s77.084 3.242 77.211-1.78c.063-2.987-5.651-22.058-7.493-35.597z" fill="#FFCC1F"/><path d="M143.169 245.114c7.619-2.479 15.112 0 17.906.064 1.079.509 4.381 1.526 8.318 3.051 1.27.509 2.73.954 4.19 1.272.953.19 1.905.381 2.858.445.952.063 1.904.127 2.92.063 5.715-.191 6.731 4.196 7.937 7.247.318.763.699 1.271 1.08 1.525 1.206.763 2.73-.445 2.667-2.224 0-.827-.572-2.225-1.27-3.878-1.334-3.051-3.175-6.802-3.112-8.645.064-2.797-1.714-4.831-2.539-6.993-.826-2.161-2.096-2.415-5.588-3.369-1.587-.445-5.842-.826-10.159-1.207-5.27-.382-7.874-.445-10.477-.7-3.429-.318-6.604-.381-15.048-.508l.317 13.857z" fill="#DEABAB"/><path d="M135.804 226.298c1.841 3.37 23.303 3.624 23.303 3.624l4.19 18.561s-34.033 6.866-43.05 3.624c-5.778-2.098-7.111-1.399-17.334-35.661-4.064-13.54-4.19-30.386-3.873-38.84.063-1.843 1.079-5.975 1.778-8.073 5.27-14.366 19.239-12.014 26.731-3.941 16.7 17.989 5.08 54.858 8.255 60.706z" fill="#FFD62E"/><path d="M127.041 558.501c3.112 2.987 7.937 4.005 12.001 2.606 1.207-.445 2.349-1.081 3.556-1.208 1.333-.19 2.667.191 3.937.572 4.381 1.335 8.635 3.052 13.143 3.56 2.476.254 5.016.191 7.493.064 2.412-.127 4.825-.255 7.302-.318 3.111-.127 6.413-.318 9.079-1.971 1.905-1.144 2.858-3.051 1.842-5.149-1.08-2.225-2.984-2.733-5.143-3.623-4.826-1.971-9.715-2.988-14.922-4.005 0 0 5.397 6.611-12.762 3.878-3.937-.572-13.08-1.081-19.493-2.606-4.318-1.081-6.477-5.022-6.477-5.022-3.429 3.432-.635 12.205.444 13.222z" fill="#FF6464"/><path fill-rule="evenodd" clip-rule="evenodd" d="M175.298 150.526s-3.493-3.178-3.112-5.085c.381-1.907-4.571 2.352-4.571 2.352l7.683 2.733z" fill="#D6A1A1"/><path d="M170.726 151.353c-.127-5.594 6.096-1.526 8.191.826 1.651 1.78 4.254 4.64 5.842 10.552 2.413 8.963 6.476 13.222 8.889 18.435 5.651 5.975-7.429 7.946-12.635.635-.127-.19-19.557-12.586-13.208-19.896 1.334-1.526 2.985-7.056 2.921-10.552z" fill="#DEABAB"/><path fill-rule="evenodd" clip-rule="evenodd" d="M178.98 131.583c-2.412 1.272-3.682 4.005-4.381 6.675-.698 2.67-1.206 5.34-2.286 7.882-.698 1.653-3.365 3.878-5.46 3.369-6.032-1.652-18.16-10.361-18.541-9.598-6.667 11.887-12 22.63-9.397 34.262 2.095 9.281-50.098-5.975-41.78-10.488 17.08-9.408 21.715-43.607 21.715-43.607s-2.349-12.968 1.016-23.393c6.921-21.486 42.796-12.968 52.003-1.271 5.842 7.373 7.619 13.476 7.619 15.574 0 3.178-.889 6.038-1.397 9.217-.507 3.178.445 6.674 2.096 9.408.127.19.254.381.254.635.063.509-.826.954-1.461 1.335z" fill="#DBA5A5"/><path fill-rule="evenodd" clip-rule="evenodd" d="M167.869 136.605c1.206 3.051 3.619 4.768 5.905 5.213.063 0 .317.063.381.063.889.191 1.778-.445 1.905-1.335.127-.572-.127-1.144-.508-1.525 1.016-.191 1.714-1.208 1.523-2.289-.19-1.017-1.206-1.716-2.285-1.525-2.667.635-4.699 2.161-6.921 1.398z" fill="#D13A42"/><path d="M145.646 75.58c-12.636-.38-25.208 5.976-32.51 16.274-5.715 8.073-8.064 18.053-12.89 26.698-4.762 8.518-11.81 15.701-15.366 24.728-3.555 9.026-2.031 21.485 6.73 25.681 5.779 2.733 12.573 1.017 18.732-.763 8.191-2.352 18.922-7.819 27.43-5.53 3.746 1.017 7.302 2.733 11.175 3.178 6.413.699 15.684-18.752 14.287-20.85-3.302-5.022-5.397-7.882-8.636-12.904-.698-1.081-1.46-2.225-1.714-3.56-.508-2.924 1.778-5.657 4.445-6.992 2.666-1.272 5.651-1.59 8.508-2.352 10.413-2.734 20.382-11.697 15.747-22.757-7.175-16.91-23.938-20.533-35.938-20.85z" fill="#0F1551"/><path d="M142.598 184.281c13.816 0 25.017-11.214 25.017-25.046 0-13.832-11.201-25.045-25.017-25.045-13.817 0-25.017 11.213-25.017 25.045 0 13.832 11.2 25.046 25.017 25.046z" fill="#0F1551"/><path d="M161.773 163.303c1.016-1.08 2.794-1.144 3.874-.127l5.714 5.34c1.08 1.017 1.143 2.797.127 3.877-1.016 1.081-2.794 1.145-3.873.128l-5.715-5.34c-1.143-1.081-1.206-2.797-.127-3.878zm13.779-1.08c-.762.89-2.032 1.144-3.175.699l-1.08-.509-4.508-1.97-4.317-1.907c-1.397-.636-2.032-2.289-1.461-3.687l.064-.191a2.873 2.873 0 013.682-1.462l5.461 2.352 6.921 3.496-1.587 3.179z" fill="#DEABAB"/><path d="M173.901 162.413l.952.445a3.123 3.123 0 011.588 4.132c-.127.318-.381.636-.572.89-.889.89-2.286 1.271-3.492.699l-10.032-4.386c-1.588-.699-2.286-2.542-1.588-4.132a3.116 3.116 0 014.127-1.589l3.874 1.653 5.143 2.288zm-7.683-12.141c5.778 2.861 6.286 6.039 6.286 6.039s3.365.381 4.191-.699c1.016-1.335 3.238-1.844 2.92-2.479-1.714-3.687-18.731-10.362-18.731-10.362-.952-.318-1.905-.381-2.286.763-.381 1.081.064 2.288.953 2.606.063-.063 5.016 3.242 6.667 4.132z" fill="#DEABAB"/><path d="M187.299 171.821s-4.445-11.124-7.175-14.429c-1.651-1.971-5.715-3.179-5.715-3.179s-1.27-2.733-3.81-.953c-1.206.826-6.921-.191-6.921-.191l7.937 10.425-9.778 3.687s2.095 2.543 2.73 3.178c2.731 2.861 4.572 5.086 6.223 6.103 3.809 2.288 5.905 3.75 5.905 3.75l10.604-8.391z" fill="#DEABAB"/><path d="M184.695 209.898c-3.619-11.633-4.635-15.701-12.572-30.385l16.763-10.107c.571.953 3.238 4.005 6.476 8.581 5.334 7.501 10.033 11.887 15.176 19.516 3.873 5.721 6.222 9.98 6.476 16.591.254 5.594-.127 11.505-3.174 13.73-6.096 4.45-10.858 1.971-19.113-1.78-3.047-1.398-7.619-8.518-10.032-16.146z" fill="#FFD62E"/><path d="M109.644 203.605c15.675 0 28.382-12.722 28.382-28.415s-12.707-28.414-28.382-28.414-28.383 12.721-28.383 28.414c0 15.693 12.708 28.415 28.383 28.415z" fill="#0F1551"/></g><defs><clipPath id="clip0"><path fill="#fff" d="M0 0h640v565H0z"/></clipPath></defs></svg>