<svg width="21" height="20" fill="none" xmlns="http://www.w3.org/2000/svg"><path fill-rule="evenodd" clip-rule="evenodd" d="M6.368 20H15.5a5.44 5.44 0 005.435-5.435v-9.13A5.44 5.44 0 0015.499 0h-9.13A5.44 5.44 0 00.933 5.435v9.13A5.44 5.44 0 006.368 20zM2.752 5.435a3.62 3.62 0 013.616-3.617h9.13a3.62 3.62 0 013.617 3.617v9.13a3.62 3.62 0 01-3.616 3.617h-9.13a3.62 3.62 0 01-3.617-3.617v-9.13zM5.479 10a5.46 5.46 0 005.455 5.454A5.46 5.46 0 0016.387 10a5.46 5.46 0 00-5.455-5.455A5.46 5.46 0 005.48 10zm1.818 0a3.64 3.64 0 013.637-3.636A3.64 3.64 0 0114.57 10a3.64 3.64 0 01-3.636 3.636A3.64 3.64 0 017.296 10zm9.734-5.72a.91.91 0 10-1.286-1.287.91.91 0 001.286 1.286z" fill="#9491A5"/></svg>