<svg width="21" height="18" fill="none" xmlns="http://www.w3.org/2000/svg"><path d="M18.878 4.926c.012.178.012.356.012.533 0 5.42-4.124 11.663-11.662 11.663-2.322 0-4.48-.673-6.294-1.84.33.038.647.05.99.05 1.916 0 3.68-.647 5.088-1.75a4.106 4.106 0 01-3.832-2.843c.254.038.507.063.774.063.368 0 .736-.05 1.079-.14A4.1 4.1 0 011.746 6.64v-.051c.545.304 1.18.495 1.853.52A4.096 4.096 0 011.77 3.695c0-.761.203-1.459.558-2.068a11.651 11.651 0 008.452 4.29 4.63 4.63 0 01-.101-.94 4.097 4.097 0 014.1-4.099c1.18 0 2.246.495 2.995 1.295a8.07 8.07 0 002.601-.99 4.088 4.088 0 01-1.802 2.259 8.217 8.217 0 002.36-.635 8.811 8.811 0 01-2.055 2.12z" fill="#9491A5"/></svg>