<svg width="21" height="16" fill="none" xmlns="http://www.w3.org/2000/svg"><path fill-rule="evenodd" clip-rule="evenodd" d="M16.109.863l1.582.198a2.922 2.922 0 012.555 2.895v8.087a2.922 2.922 0 01-2.555 2.894l-1.582.198a47.498 47.498 0 01-5.863.365 47.51 47.51 0 01-5.863-.365l-1.582-.198a2.922 2.922 0 01-2.555-2.894V3.956A2.922 2.922 0 012.801 1.06L4.383.863a47.497 47.497 0 0111.726 0zM8.389 12.1l5.833-3.75a.417.417 0 000-.7L8.388 3.9a.416.416 0 00-.642.35v7.5a.417.417 0 00.642.35z" fill="#9491A5"/></svg>